<svg preserveAspectRatio="none" width="100%" height="100%" overflow="visible" style="display: block;" viewBox="0 0 306 531" fill="none" xmlns="http://www.w3.org/2000/svg">
<g id="Union">
<mask id="path-1-inside-1_2337_172" fill="white">
<path d="M286 0C297.046 0 306 8.95431 306 20V511C306 522.046 297.046 531 286 531H50C38.9543 531 30 522.046 30 511V285.051L0 265.405L30 245.758V20C30 8.95431 38.9543 0 50 0H286Z"/>
</mask>
<path d="M286 0C297.046 0 306 8.95431 306 20V511C306 522.046 297.046 531 286 531H50C38.9543 531 30 522.046 30 511V285.051L0 265.405L30 245.758V20C30 8.95431 38.9543 0 50 0H286Z" fill="var(--fill-0, #F7F8F9)"/>
<path d="M30 285.051H31V284.51L30.5478 284.214L30 285.051ZM0 265.405L-0.547876 264.569L-1.82529 265.405L-0.547838 266.242L0 265.405ZM30 245.758L30.5479 246.594L31 246.298V245.758H30ZM286 0V1C296.493 1 305 9.50659 305 20H306H307C307 8.40202 297.598 -1 286 -1V0ZM306 20H305V511H306H307V20H306ZM306 511H305C305 521.493 296.493 530 286 530V531V532C297.598 532 307 522.598 307 511H306ZM286 531V530H50V531V532H286V531ZM50 531V530C39.5066 530 31 521.493 31 511H30H29C29 522.598 38.402 532 50 532V531ZM30 511H31V285.051H30H29V511H30ZM30 285.051L30.5478 284.214L0.547838 264.569L0 265.405L-0.547838 266.242L29.4522 285.887L30 285.051ZM0 265.405L0.547876 266.242L30.5479 246.594L30 245.758L29.4521 244.921L-0.547876 264.569L0 265.405ZM30 245.758H31V20H30H29V245.758H30ZM30 20H31C31 9.50659 39.5066 1 50 1V0V-1C38.402 -1 29 8.40202 29 20H30ZM50 0V1H286V0V-1H50V0Z" fill="var(--stroke-0, #B0B3B8)" mask="url(#path-1-inside-1_2337_172)"/>
</g>
</svg>
