<svg preserveAspectRatio="none" width="100%" height="100%" overflow="visible" style="display: block;" viewBox="0 0 22.5007 16.5009" fill="none" xmlns="http://www.w3.org/2000/svg">
<path id="Vector" d="M22.2807 3.21979L19.2807 0.219792C19.14 0.0790615 18.9491 -3.92322e-09 18.7501 0C18.5511 3.92322e-09 18.3602 0.0790615 18.2195 0.219792C18.0787 0.360523 17.9997 0.551394 17.9997 0.750417C17.9997 0.94944 18.0787 1.14031 18.2195 1.28104L19.9398 3.00042H18.7501C14.1254 3.00042 13.0267 5.63667 12.0582 7.96167C11.1788 10.072 10.472 11.767 7.41947 11.9779C7.22792 11.0686 6.70554 10.2627 5.95361 9.71664C5.20168 9.17056 4.27377 8.92312 3.34977 9.0223C2.42577 9.12148 1.57152 9.56022 0.952617 10.2535C0.333716 10.9467 -0.00573473 11.845 7.33178e-05 12.7743C0.00588137 13.7036 0.356535 14.5976 0.984052 15.2831C1.61157 15.9685 2.47124 16.3965 3.39641 16.4842C4.32158 16.5718 5.24632 16.3128 5.99137 15.7573C6.73641 15.2019 7.24868 14.3896 7.42885 13.4779C11.4845 13.2295 12.5232 10.7451 13.442 8.53823C14.3823 6.28167 15.1248 4.50042 18.7501 4.50042H19.9398L18.2195 6.21979C18.0787 6.36052 17.9997 6.55139 17.9997 6.75042C17.9997 6.94944 18.0787 7.14031 18.2195 7.28104C18.3602 7.42177 18.5511 7.50083 18.7501 7.50083C18.9491 7.50083 19.14 7.42177 19.2807 7.28104L22.2807 4.28104C22.3505 4.21139 22.4058 4.12867 22.4435 4.03762C22.4813 3.94657 22.5007 3.84898 22.5007 3.75042C22.5007 3.65186 22.4813 3.55426 22.4435 3.46321C22.4058 3.37216 22.3505 3.28945 22.2807 3.21979ZM3.7501 15.0004C3.30509 15.0004 2.87007 14.8685 2.50006 14.6212C2.13005 14.374 1.84167 14.0226 1.67137 13.6115C1.50107 13.2003 1.45651 12.7479 1.54333 12.3115C1.63015 11.875 1.84444 11.4741 2.15911 11.1594C2.47378 10.8448 2.87469 10.6305 3.31114 10.5436C3.7476 10.4568 4.2 10.5014 4.61114 10.6717C5.02227 10.842 5.37367 11.1304 5.6209 11.5004C5.86814 11.8704 6.0001 12.3054 6.0001 12.7504C6.0001 13.3472 5.76305 13.9194 5.34109 14.3414C4.91913 14.7634 4.34683 15.0004 3.7501 15.0004Z" fill="var(--fill-0, black)" fill-opacity="0.7"/>
</svg>
