<svg preserveAspectRatio="none" width="100%" height="100%" overflow="visible" style="display: block;" viewBox="0 0 41 31.1251" fill="none" xmlns="http://www.w3.org/2000/svg">
<g id="Brand logo">
<path id="Vector" d="M1.69731 23.3629L0 14.9097H0.0665612C1.79715 21.1331 5.52458 23.7623 9.65137 23.729C11.149 23.729 12.5468 22.9303 12.5468 21.5658C12.5468 20.7338 11.4818 19.7021 9.65137 18.8701C7.92078 18.0713 5.75754 17.2726 3.02853 15.8415C1.29794 14.9097 0.232964 13.2124 0.232964 11.5483C0.199684 9.15214 2.36292 6.75594 7.78766 6.75594C10.5167 6.75594 12.4802 7.18858 14.0444 7.65451L14.2774 15.2758H14.2441C12.7797 8.55309 9.68465 7.32171 7.12204 7.35499C5.05865 7.38827 3.09509 8.187 3.09509 9.48494C3.12837 10.2837 3.89383 11.2488 5.8241 12.214C7.18861 12.9128 9.65137 13.9445 11.4152 14.8764C13.878 16.1743 15.2092 17.6387 15.2092 19.3027C15.2092 21.9319 12.2805 24.3614 8.78607 24.3614C6.48971 24.3614 3.4279 23.9287 1.69731 23.3629Z" fill="var(--fill-0, #3C3F43)"/>
<path id="Vector_2" d="M19.0698 24.6276V13.5119C19.0698 11.5151 18.8701 10.317 16.1411 10.7164V10.6498L23.5293 6.75597V24.9937C23.5293 32.2489 15.6419 32.9145 13.1458 27.7893L13.2789 27.7227C15.2758 31.317 19.0698 30.5849 19.0698 24.6276ZM17.7718 3.32807C17.7718 1.49763 19.8352 7.56404e-06 21.6989 7.56404e-06C22.8305 7.56404e-06 23.9953 0.765461 23.9953 1.897C23.9953 3.49447 22.065 5.29162 19.935 5.29162C18.6371 5.29162 17.7718 4.45961 17.7718 3.32807Z" fill="var(--fill-0, #3C3F43)"/>
<path id="Vector_3" d="M27.4881 23.3629L25.7908 14.9097H25.8573C27.5879 21.1331 31.3153 23.7623 35.4421 23.729C36.9398 23.729 38.3375 22.9303 38.3375 21.5658C38.3375 20.7338 37.2726 19.7021 35.4421 18.8701C33.7115 18.0713 31.5483 17.2726 28.8193 15.8415C27.0887 14.9097 26.0237 13.2124 26.0237 11.5483C25.9904 9.15214 28.1537 6.75594 33.5784 6.75594C36.3074 6.75594 38.271 7.18858 39.8352 7.65451L40.0681 15.2758H40.0348C38.5705 8.55309 35.4754 7.32171 32.9128 7.35499C30.8494 7.38827 28.8858 8.187 28.8858 9.48494C28.9191 10.2837 29.6846 11.2488 31.6149 12.214C32.9794 12.9128 35.4421 13.9445 37.206 14.8764C39.6688 16.1743 41 17.6387 41 19.3027C41 21.9319 38.0713 24.3614 34.5768 24.3614C32.2805 24.3614 29.2187 23.9287 27.4881 23.3629Z" fill="var(--fill-0, #3C3F43)"/>
</g>
</svg>
