<svg preserveAspectRatio="none" width="100%" height="100%" overflow="visible" style="display: block;" viewBox="0 0 19.5 19.5" fill="none" xmlns="http://www.w3.org/2000/svg">
<path id="Vector" d="M9.75 0C7.82164 0 5.93657 0.571828 4.33319 1.64317C2.72982 2.71452 1.48013 4.23726 0.742179 6.01884C0.00422452 7.80042 -0.188858 9.76082 0.187348 11.6521C0.563554 13.5434 1.49215 15.2807 2.85571 16.6443C4.21928 18.0079 5.95656 18.9365 7.84787 19.3127C9.73919 19.6889 11.6996 19.4958 13.4812 18.7578C15.2627 18.0199 16.7855 16.7702 17.8568 15.1668C18.9282 13.5634 19.5 11.6784 19.5 9.75C19.4973 7.16498 18.4692 4.68661 16.6413 2.85872C14.8134 1.03084 12.335 0.00272983 9.75 0ZM9.75 18C8.11831 18 6.52326 17.5161 5.16655 16.6096C3.80984 15.7031 2.75242 14.4146 2.128 12.9071C1.50358 11.3996 1.3402 9.74085 1.65853 8.14051C1.97685 6.54016 2.76259 5.07015 3.91637 3.91637C5.07016 2.76259 6.54017 1.97685 8.14051 1.65852C9.74085 1.34019 11.3997 1.50357 12.9071 2.12799C14.4146 2.75242 15.7031 3.80984 16.6096 5.16655C17.5162 6.52325 18 8.1183 18 9.75C17.9975 11.9373 17.1275 14.0343 15.5809 15.5809C14.0343 17.1275 11.9373 17.9975 9.75 18ZM8.25 5.25C8.25 4.95333 8.33798 4.66332 8.5028 4.41664C8.66762 4.16997 8.90189 3.97771 9.17598 3.86418C9.45007 3.75065 9.75167 3.72094 10.0426 3.77882C10.3336 3.8367 10.6009 3.97956 10.8107 4.18934C11.0204 4.39912 11.1633 4.66639 11.2212 4.95736C11.2791 5.24834 11.2494 5.54994 11.1358 5.82402C11.0223 6.09811 10.83 6.33238 10.5834 6.4972C10.3367 6.66203 10.0467 6.75 9.75 6.75C9.35218 6.75 8.97065 6.59196 8.68934 6.31066C8.40804 6.02936 8.25 5.64782 8.25 5.25ZM15 8.25C15 8.44891 14.921 8.63968 14.7803 8.78033C14.6397 8.92098 14.4489 9 14.25 9H10.5V10.2731L13.3744 14.5856C13.4848 14.7512 13.5249 14.9539 13.4858 15.149C13.4468 15.3442 13.3318 15.5159 13.1663 15.6262C13.0007 15.7366 12.798 15.7767 12.6028 15.7377C12.4077 15.6987 12.236 15.5837 12.1256 15.4181L9.75 11.8556L7.37438 15.4181C7.31972 15.5001 7.24944 15.5705 7.16756 15.6254C7.08568 15.6802 6.9938 15.7184 6.89717 15.7377C6.70202 15.7767 6.49935 15.7366 6.33375 15.6262C6.16816 15.5159 6.0532 15.3442 6.01417 15.149C5.97514 14.9539 6.01523 14.7512 6.12563 14.5856L9 10.2731V9H5.25C5.05109 9 4.86033 8.92098 4.71967 8.78033C4.57902 8.63968 4.5 8.44891 4.5 8.25C4.5 8.05109 4.57902 7.86032 4.71967 7.71967C4.86033 7.57902 5.05109 7.5 5.25 7.5H14.25C14.4489 7.5 14.6397 7.57902 14.7803 7.71967C14.921 7.86032 15 8.05109 15 8.25Z" fill="var(--fill-0, #3C3F43)"/>
</svg>
