<svg preserveAspectRatio="none" width="100%" height="100%" overflow="visible" style="display: block;" viewBox="0 0 20 20" fill="none" xmlns="http://www.w3.org/2000/svg">
<path id="Solid" fill-rule="evenodd" clip-rule="evenodd" d="M9.35718 0.266267C9.7122 -0.0887555 10.2878 -0.0887555 10.6428 0.266267L13.0242 2.64768C13.5991 1.75292 14.335 1.1882 15.1725 0.975433C16.3239 0.682913 17.4287 1.12036 18.1542 1.84581C18.8796 2.57126 19.3171 3.67613 19.0246 4.82754C18.8118 5.66504 18.2471 6.40092 17.3523 6.97576L19.7337 9.35718C20.0888 9.7122 20.0888 10.2878 19.7337 10.6428L16.461 13.9156C16.243 14.1335 15.9295 14.2262 15.628 14.1617C15.3266 14.0972 15.0784 13.8844 14.9686 13.5964C14.4893 12.3381 13.8798 11.9325 13.4708 11.8285C13.0455 11.7205 12.5765 11.8683 12.2224 12.2224C11.8683 12.5765 11.7205 13.0455 11.8285 13.4708C11.9325 13.8798 12.3381 14.4893 13.5964 14.9686C13.8844 15.0784 14.0972 15.3266 14.1617 15.628C14.2262 15.9295 14.1335 16.243 13.9156 16.461L10.6428 19.7337C10.2878 20.0888 9.7122 20.0888 9.35718 19.7337L6.97576 17.3523C6.40092 18.2471 5.66504 18.8118 4.82754 19.0246C3.67613 19.3171 2.57126 18.8796 1.84581 18.1542C1.12036 17.4287 0.682913 16.3239 0.975433 15.1725C1.1882 14.335 1.75292 13.5991 2.64768 13.0242L0.266267 10.6428C-0.0887555 10.2878 -0.0887555 9.7122 0.266267 9.35718L3.53899 6.08445C3.75696 5.86648 4.07053 5.77382 4.37196 5.83829C4.67339 5.90276 4.92162 6.11559 5.03135 6.40364C5.51067 7.66186 6.12015 8.06752 6.52925 8.17146C6.95454 8.2795 7.42353 8.13173 7.77763 7.77763C8.13173 7.42353 8.2795 6.95454 8.17146 6.52925C8.06752 6.12015 7.66186 5.51067 6.40364 5.03135C6.11559 4.92162 5.90276 4.67339 5.83829 4.37196C5.77382 4.07053 5.86648 3.75696 6.08445 3.53899L9.35718 0.266267Z" fill="var(--fill-0, #111213)"/>
</svg>
