<svg preserveAspectRatio="none" width="100%" height="100%" overflow="visible" style="display: block;" viewBox="0 0 18 18.7492" fill="none" xmlns="http://www.w3.org/2000/svg">
<path id="Vector" d="M17.5613 1.56954C17.4303 1.51009 17.2851 1.48953 17.1428 1.5103C17.0005 1.53108 16.8672 1.59232 16.7587 1.68672C14.1337 3.95735 11.91 2.85672 9.33281 1.58079C6.66281 0.257973 3.63562 -1.23921 0.25875 1.68672C0.178065 1.75666 0.113243 1.84302 0.0686202 1.94003C0.0239975 2.03703 0.000602508 2.14245 0 2.24922V17.9992C0 18.1981 0.0790178 18.3889 0.21967 18.5296C0.360322 18.6702 0.551088 18.7492 0.75 18.7492C0.948912 18.7492 1.13968 18.6702 1.28033 18.5296C1.42098 18.3889 1.5 18.1981 1.5 17.9992V13.8527C4.01156 11.8689 6.17531 12.9386 8.66719 14.1723C11.3381 15.4933 14.3644 16.9905 17.7413 14.0664C17.8219 13.9965 17.8868 13.9101 17.9314 13.8131C17.976 13.7161 17.9994 13.6107 18 13.5039V2.24922C17.9995 2.10584 17.9579 1.96561 17.8801 1.84515C17.8024 1.72469 17.6917 1.62904 17.5613 1.56954ZM16.5 3.71172V7.52266C15.1875 8.55954 13.9688 8.76203 12.75 8.54266V4.43735C14.0464 4.63986 15.3728 4.38321 16.5 3.71172ZM11.25 4.06422V8.09547C10.6256 7.84516 9.99094 7.53297 9.33281 7.20672C8.50594 6.79703 7.64531 6.37141 6.75 6.06485V2.0336C7.37437 2.28297 8.00906 2.5961 8.66719 2.92235C9.49406 3.33204 10.3556 3.75766 11.25 4.06422ZM5.25 1.58454V5.68891C3.95353 5.48676 2.62716 5.74374 1.5 6.41547V2.6036C2.8125 1.56672 4.03125 1.36516 5.25 1.58454ZM4.36688 11.2492C3.35769 11.251 2.36753 11.5239 1.5 12.0395V8.2286C2.8125 7.19172 4.03125 6.98922 5.25 7.2086V11.3148C4.95758 11.2718 4.66244 11.2499 4.36688 11.2492ZM6.75 11.687V7.65578C7.37437 7.90516 8.00906 8.21829 8.66719 8.54454C9.49406 8.95422 10.3547 9.37891 11.25 9.68547V13.7167C10.6256 13.4664 9.99094 13.1542 9.33281 12.828C8.50594 12.4183 7.64437 11.9936 6.75 11.687ZM12.75 14.1667V10.0605C13.0424 10.1042 13.3375 10.1267 13.6331 10.128C14.6426 10.1248 15.6327 9.8506 16.5 9.33391V13.1477C15.1875 14.1845 13.9688 14.3861 12.75 14.1667Z" fill="var(--fill-0, black)" fill-opacity="0.7"/>
</svg>
