<svg preserveAspectRatio="none" width="100%" height="100%" overflow="visible" style="display: block;" viewBox="0 0 599 240" fill="none" xmlns="http://www.w3.org/2000/svg">
<g id="Union">
<mask id="path-1-inside-1_2337_164" fill="white">
<path d="M548 0C559.046 0 568 8.95431 568 20V99.2939L599 119.595L568 139.896V220C568 231.046 559.046 240 548 240H20C8.95431 240 3.2215e-07 231.046 0 220V20C0 8.95431 8.95431 3.70448e-07 20 0H548Z"/>
</mask>
<path d="M548 0C559.046 0 568 8.95431 568 20V99.2939L599 119.595L568 139.896V220C568 231.046 559.046 240 548 240H20C8.95431 240 3.2215e-07 231.046 0 220V20C0 8.95431 8.95431 3.70448e-07 20 0H548Z" fill="var(--fill-0, #F7F8F9)"/>
<path d="M568 20H569V20H568ZM568 99.2939H567V99.8344L567.452 100.131L568 99.2939ZM599 119.595L599.548 120.431L600.825 119.595L599.548 118.758L599 119.595ZM568 139.896L567.452 139.059L567 139.355V139.896H568ZM548 240V241V241V240ZM0 220H-1V220H0ZM20 0V-1V-1V0ZM548 0V1C558.493 1 567 9.50659 567 20H568H569C569 8.40202 559.598 -1 548 -1V0ZM568 20H567V99.2939H568H569V20H568ZM568 99.2939L567.452 100.131L598.452 120.431L599 119.595L599.548 118.758L568.548 98.4574L568 99.2939ZM599 119.595L598.452 118.758L567.452 139.059L568 139.896L568.548 140.732L599.548 120.431L599 119.595ZM568 139.896H567V220H568H569V139.896H568ZM568 220H567C567 230.493 558.493 239 548 239V240V241C559.598 241 569 231.598 569 220H568ZM548 240V239H20V240V241H548V240ZM20 240V239C9.50659 239 1 230.493 1 220H0H-1C-1 231.598 8.40202 241 20 241V240ZM0 220H1V20H0H-1V220H0ZM0 20H1C1 9.50659 9.50659 1 20 1V0V-1C8.40202 -1 -1 8.40202 -1 20H0ZM20 0V1H548V0V-1H20V0Z" fill="var(--stroke-0, #B0B3B8)" mask="url(#path-1-inside-1_2337_164)"/>
</g>
</svg>
