<svg preserveAspectRatio="none" width="100%" height="100%" overflow="visible" style="display: block;" viewBox="0 0 17.9995 18.7492" fill="none" xmlns="http://www.w3.org/2000/svg">
<path id="Vector" d="M17.9672 15.9883L14.8556 1.19452C14.8154 1.00105 14.7373 0.817451 14.6259 0.654254C14.5145 0.491056 14.3719 0.35148 14.2064 0.243545C14.0409 0.135609 13.8557 0.0614407 13.6614 0.0253007C13.4671 -0.0108393 13.2676 -0.00823877 13.0744 0.0329529L8.68594 0.976078C8.29776 1.06107 7.95885 1.29589 7.74291 1.62946C7.52696 1.96303 7.45146 2.36838 7.53281 2.75733L10.6444 17.5511C10.7137 17.8886 10.8971 18.192 11.1638 18.4101C11.4305 18.6283 11.7642 18.7481 12.1088 18.7492C12.2153 18.7491 12.3215 18.7377 12.4256 18.7155L16.8141 17.7723C17.2027 17.6871 17.542 17.4518 17.7579 17.1177C17.9739 16.7836 18.0491 16.3776 17.9672 15.9883ZM9 2.45077C9 2.44514 9 2.44233 9 2.44233L13.3875 1.50483L13.6997 2.99264L9.31219 3.9367L9 2.45077ZM9.62062 5.40108L14.01 4.45889L14.3231 5.94952L9.9375 6.89264L9.62062 5.40108ZM10.2431 8.36077L14.6325 7.41764L15.8794 13.3464L11.49 14.2895L10.2431 8.36077ZM16.5 16.3061L12.1125 17.2436L11.8003 15.7558L16.1878 14.8117L16.5 16.2976C16.5 16.3033 16.5 16.3061 16.5 16.3061ZM6 0.749203H1.5C1.10218 0.749203 0.720644 0.907238 0.43934 1.18854C0.158035 1.46985 0 1.85138 0 2.2492V17.2492C0 17.647 0.158035 18.0286 0.43934 18.3099C0.720644 18.5912 1.10218 18.7492 1.5 18.7492H6C6.39782 18.7492 6.77936 18.5912 7.06066 18.3099C7.34196 18.0286 7.5 17.647 7.5 17.2492V2.2492C7.5 1.85138 7.34196 1.46985 7.06066 1.18854C6.77936 0.907238 6.39782 0.749203 6 0.749203ZM1.5 2.2492H6V3.7492H1.5V2.2492ZM1.5 5.2492H6V14.2492H1.5V5.2492ZM6 17.2492H1.5V15.7492H6V17.2492Z" fill="var(--fill-0, black)" fill-opacity="0.7"/>
</svg>
