<svg preserveAspectRatio="none" width="100%" height="100%" overflow="visible" style="display: block;" viewBox="0 0 644 246.223" fill="none" xmlns="http://www.w3.org/2000/svg">
<g id="Union">
<mask id="path-1-inside-1_2337_168" fill="white">
<path d="M624 0C635.046 9.2773e-06 644 8.95431 644 20V196C644 207.046 635.046 216 624 216H341.501L321.985 246.223L301.915 216H20C8.95431 216 5.1544e-07 207.046 0 196V20C5.1544e-07 8.95431 8.95431 2.01331e-07 20 0H624Z"/>
</mask>
<path d="M624 0C635.046 9.2773e-06 644 8.95431 644 20V196C644 207.046 635.046 216 624 216H341.501L321.985 246.223L301.915 216H20C8.95431 216 5.1544e-07 207.046 0 196V20C5.1544e-07 8.95431 8.95431 2.01331e-07 20 0H624Z" fill="var(--fill-0, #F7F8F9)"/>
<path d="M624 0V-1V-1V0ZM644 20H645V20H644ZM644 196H645V196H644ZM624 216V217V217V216ZM341.501 216V215H340.956L340.661 215.458L341.501 216ZM321.985 246.223L321.152 246.776L321.997 248.048L322.825 246.765L321.985 246.223ZM301.915 216L302.748 215.447L302.451 215H301.915V216ZM20 216V217V217V216ZM0 196H-1V196H0ZM0 20H-1V20H0ZM20 0V-1V-1V0ZM624 0V1C634.493 1.00001 643 9.5066 643 20H644H645C645 8.40203 635.598 -0.99999 624 -1V0ZM644 20H643V196H644H645V20H644ZM644 196H643C643 206.493 634.493 215 624 215V216V217C635.598 217 645 207.598 645 196H644ZM624 216V215H341.501V216V217H624V216ZM341.501 216L340.661 215.458L321.145 245.68L321.985 246.223L322.825 246.765L342.341 216.542L341.501 216ZM321.985 246.223L322.818 245.669L302.748 215.447L301.915 216L301.082 216.553L321.152 246.776L321.985 246.223ZM301.915 216V215H20V216V217H301.915V216ZM20 216V215C9.5066 215 1 206.493 1 196H0H-1C-0.999999 207.598 8.40203 217 20 217V216ZM0 196H1V20H0H-1V196H0ZM0 20H1C1 9.50659 9.50659 1 20 1V0V-1C8.40202 -1 -0.999999 8.40202 -1 20H0ZM20 0V1H624V0V-1H20V0Z" fill="var(--stroke-0, #B0B3B8)" mask="url(#path-1-inside-1_2337_168)"/>
</g>
</svg>
