<svg preserveAspectRatio="none" width="100%" height="100%" overflow="visible" style="display: block;" viewBox="0 0 19.5 19.5" fill="none" xmlns="http://www.w3.org/2000/svg">
<path id="Vector" d="M13.1709 13.0791C13.3279 13.2366 13.4346 13.437 13.4777 13.6551C13.5208 13.8733 13.4983 14.0993 13.4131 14.3046C13.3278 14.5099 13.1836 14.6854 12.9987 14.8088C12.8138 14.9323 12.5964 14.9982 12.3741 14.9982C12.1517 14.9982 11.9344 14.9323 11.7495 14.8088C11.5645 14.6854 11.4203 14.5099 11.3351 14.3046C11.2498 14.0993 11.2273 13.8733 11.2704 13.6551C11.3135 13.437 11.4202 13.2366 11.5772 13.0791C11.6817 12.9742 11.8059 12.891 11.9426 12.8342C12.0794 12.7774 12.226 12.7482 12.3741 12.7482C12.5221 12.7482 12.6687 12.7774 12.8055 12.8342C12.9422 12.891 13.0664 12.9742 13.1709 13.0791ZM5.57719 12.3291C5.42025 12.4866 5.31349 12.687 5.2704 12.9051C5.22731 13.1233 5.24981 13.3493 5.33508 13.5546C5.42034 13.7599 5.56454 13.9354 5.74946 14.0588C5.93438 14.1823 6.15173 14.2482 6.37407 14.2482C6.5964 14.2482 6.81376 14.1823 6.99868 14.0588C7.1836 13.9354 7.32779 13.7599 7.41306 13.5546C7.49832 13.3493 7.52083 13.1233 7.47773 12.9051C7.43464 12.687 7.32788 12.4866 7.17094 12.3291C7.06646 12.2245 6.94238 12.1415 6.80581 12.0849C6.66924 12.0283 6.52285 11.9991 6.375 11.9991C6.22716 11.9991 6.08077 12.0283 5.9442 12.0849C5.80762 12.1415 5.68355 12.2245 5.57907 12.3291H5.57719ZM6.42094 8.67281C6.57788 8.51532 6.68464 8.31486 6.72773 8.09674C6.77083 7.87862 6.74832 7.65262 6.66306 7.44728C6.57779 7.24194 6.4336 7.06647 6.24868 6.94303C6.06376 6.81958 5.8464 6.7537 5.62407 6.7537C5.40173 6.7537 5.18438 6.81958 4.99946 6.94303C4.81454 7.06647 4.67034 7.24194 4.58508 7.44728C4.49981 7.65262 4.47731 7.87862 4.5204 8.09674C4.56349 8.31486 4.67025 8.51532 4.82719 8.67281C4.93183 8.77757 5.05612 8.86064 5.19293 8.91726C5.32975 8.97388 5.47639 9.00294 5.62446 9.00276C5.77252 9.00259 5.9191 8.97319 6.05578 8.91624C6.19245 8.8593 6.31655 8.77594 6.42094 8.67094V8.67281ZM10.9209 8.57906C10.7635 8.42212 10.563 8.31536 10.3449 8.27227C10.1267 8.22918 9.90075 8.25168 9.69541 8.33695C9.49007 8.42221 9.3146 8.56641 9.19115 8.75133C9.06771 8.93625 9.00183 9.1536 9.00183 9.37594C9.00183 9.59828 9.06771 9.81563 9.19115 10.0005C9.3146 10.1855 9.49007 10.3297 9.69541 10.4149C9.90075 10.5002 10.1267 10.5227 10.3449 10.4796C10.563 10.4365 10.7635 10.3298 10.9209 10.1728C11.0258 10.0683 11.109 9.9441 11.1658 9.80736C11.2226 9.67061 11.2518 9.524 11.2518 9.37594C11.2518 9.22787 11.2226 9.08126 11.1658 8.94452C11.109 8.80777 11.0258 8.68358 10.9209 8.57906ZM19.5 9.75C19.5 11.6784 18.9282 13.5634 17.8568 15.1668C16.7855 16.7702 15.2627 18.0199 13.4812 18.7578C11.6996 19.4958 9.73919 19.6889 7.84787 19.3127C5.95656 18.9365 4.21928 18.0079 2.85571 16.6443C1.49215 15.2807 0.563554 13.5434 0.187348 11.6521C-0.188858 9.76082 0.00422452 7.80042 0.742179 6.01884C1.48013 4.23726 2.72982 2.71452 4.33319 1.64317C5.93657 0.571828 7.82164 0 9.75 0C9.94892 0 10.1397 0.0790176 10.2803 0.21967C10.421 0.360322 10.5 0.551088 10.5 0.75C10.5 1.74456 10.8951 2.69839 11.5984 3.40165C12.3016 4.10491 13.2554 4.5 14.25 4.5C14.4489 4.5 14.6397 4.57902 14.7803 4.71967C14.921 4.86032 15 5.05109 15 5.25C15 6.24456 15.3951 7.19839 16.0984 7.90165C16.8016 8.60491 17.7554 9 18.75 9C18.9489 9 19.1397 9.07902 19.2803 9.21967C19.421 9.36032 19.5 9.55109 19.5 9.75ZM17.9709 10.4428C16.8477 10.2723 15.8098 9.74289 15.0123 8.93364C14.2149 8.12438 13.7008 7.07878 13.5469 5.95312C12.4212 5.7992 11.3756 5.2851 10.5664 4.48768C9.75711 3.69025 9.22767 2.65233 9.05719 1.52906C7.49009 1.66115 5.99339 2.23839 4.74343 3.19279C3.49348 4.14719 2.54235 5.43897 2.00212 6.91593C1.46189 8.39289 1.35507 9.99349 1.69423 11.5291C2.0334 13.0648 2.80442 14.4715 3.91646 15.5835C5.0285 16.6956 6.43522 17.4666 7.97087 17.8058C9.50652 18.1449 11.1071 18.0381 12.5841 17.4979C14.061 16.9577 15.3528 16.0065 16.3072 14.7566C17.2616 13.5066 17.8389 12.0099 17.9709 10.4428Z" fill="var(--fill-0, #3C3F43)"/>
</svg>
