<?xml version="1.0" encoding="UTF-8"?><svg id="uuid-e311c1fa-5aeb-499d-a534-7c925a001c8b" xmlns="http://www.w3.org/2000/svg" viewBox="0 0 454 492"><path d="M98.19,140.264c-3.654-7.666-3.592-14.588-3.476-20.335.177-8.751,2.098-15.255,2.607-16.91,1.302-4.235,3.129-10.784,8.487-17.507,5.109-6.412,10.972-9.86,14.105-11.604,1.942-1.081,8.032-4.29,16.727-5.565,3.045-.447,9.324-1.309,17.161.428,8.999,1.994,14.924,6.306,18.247,8.776,2.284,1.697,10.435,8.036,16.292,19.479,4.016,7.845,5.09,14.449,6.083,20.549.796,4.893,2.262,14.409.217,26.543-1.602,9.503-4.637,16.337-6.734,20.977-2.917,6.453-5.763,10.832-8.038,13.913-2.685,3.638-3.463,6.041-6.923,8.448-1.981,1.378-4.12,4.681-9.901,5.492-7.638,1.072-16.682-1.601-21.116-3.558-5.878-2.595-9.892-5.036-15.005-9.436-2.237-1.925-10.01-7.668-16.707-16.475-5.257-6.912-8.038-13.641-11.061-19.028-.919-1.638-.607-3.433-.966-4.186Z" fill="#f9fafb"/><path d="M225.634,151.618l-2.765,5.868-.987,2.654s-.527,1.048.658.629,2.501-.629,3.357-.629,2.172,0,3.094.21,2.172.559,2.567.559,2.37-.768,2.37-.768c0,0-.461-.908-1.382-2.235s-2.37-4.96-2.37-4.96c0,0-1.053-2.026-1.251-2.026s-1.448-.349-1.975-.21-1.316.908-1.316.908Z" fill="#f9fafb"/><path d="M226.855,152.489c-1.95,2.325-3.287,5.147-4.202,7.938,0,0-.021.058-.021.058l-.015.024c-.009.015-.035.12-.026.083.001-.034.015-.076-.055-.241-.071-.15-.262-.284-.351-.297-.185-.034-.087-.017-.039-.042l.334-.12c2.73-.99,5.753-.865,8.573-.295.731.087.217.055.913-.175.466-.192.954-.439,1.418-.68,0,0-.794,2.077-.794,2.077-.58-1.136-1.533-2.303-2.095-3.48-1.051-1.999-1.482-3.696-2.596-5.354.21.255.644.444.987.435.025-.001-.123-.005-.175-.014-.453-.063-1.027-.222-1.456-.229-.052.009.088-.013.131-.034-.093.032-.531.379-.664.51-.008.009-.029.025-.036.034.041-.028.124-.138.17-.199h0ZM224.413,150.747c.223-.306.598-.569.886-.811.548-.495,1.654-.9,2.438-.733.469.043.924.15,1.313.223-.021-.005-.137-.009-.082-.005.441.003.945.28,1.204.608,1.572,2.08,2.12,4.57,3.432,6.748.889,1.267,1.783,2.857,2.503,4.278-1.376.387-3.002.941-4.439,1.127-.596-.005-.693-.11-1.145-.216-2.508-.943-5.375-1.242-7.955-.328-.233.078-.859.119-1.208-.17-.315-.214-.462-.733-.417-1-.017-.285.986-2.711,1.176-3.26.955-2.099,1.794-4.151,2.292-6.461h0Z" fill="#797979"/><path d="M202.153,136.469l-6.455-8.746.04-7.675-6.158-19.757-11.355-17.313s-1.022-2.193-.178-5.461c.844-3.268,1.266-20.174,9.285-30.261s10.974-16.48,21.103-19.322c10.13-2.841,12.152-4.696,24.251-2.565,12.099,2.131,15.564.718,23.723,8.106,8.16,7.388,13.506,12.929,15.898,20.458,2.392,7.53,3.377,15.486,4.502,21.027,1.126,5.541.703,5.683,0,6.962-.703,1.279-7.316,7.672-8.723,11.65-1.407,3.978-7.316,16.765-8.019,21.453s-1.548,14.349-1.548,14.349l-.844,3.694-6.331,5.257s-4.502,5.683-9.707,8.524-9.426,3.836-11.536,3.836-2.814,1.137-6.331-.284c-3.517-1.421-8.16-3.268-9.567-4.404s-7.689-5.421-7.689-5.421l-4.362-4.105Z" fill="#f9fafb"/><path d="M320.512,185.083s-5.261-5.521-10.238-8.636c-4.977-3.114-8.247-4.53-8.247-4.53,0,0-9.811-3.822-14.93-4.247s-12.37-.425-14.93.425-1.848,2.69-4.692-2.69c-2.844-5.38-7.252-23.925-8.105-28.03-.853-4.105-.569-20.386,1.991-26.332s9.953-20.669,9.953-20.669l5.261-5.946,1.991-2.831,45.643,100.796-3.697,2.69Z" fill="#f9fafb"/><path d="M321.18,185.262c2.429-2.533,5.437-4.358,8.11-6.6,8.156-6.841,15.131-14.65,20.618-23.783,5.336-8.881,8.753-18.47,9.904-28.734,1.092-9.74.051-19.423-3.811-28.448-7.35-17.173-20.442-27.28-39.103-29.399-13.765-1.563-26.088,2.276-36.542,11.573-.705.627-1.464,1.036-2.383,1.177" fill="#f9fafb"/><path d="M320.361,184.476c2.842-3.104,6.332-5.197,9.326-8.034,8.903-8.013,16.55-17.594,21.75-28.36,6.777-14.135,9.115-31.022,4.151-46.037-3.823-11.106-11.1-21.241-21.577-26.799-5.113-2.799-11.008-4.474-16.801-5.232-12.779-1.892-26.083,1.976-35.796,10.518-1.003.892-3.971,2.828-4.548.669-.083-.603.324-1.162.916-1.272.783-.141,1.328-.487,2.065-1.182,2.323-2.098,4.815-4.015,7.495-5.644,10.747-6.807,24.217-8.168,36.472-5.337,12.41,2.597,23.631,10.634,30.055,21.634,17.535,28.202,5.454,64.062-17.654,85.117-2.295,2.115-4.612,4.134-7.092,6.04-2.391,1.81-5.028,3.443-7.123,5.493-1.049.97-2.613-.434-1.64-1.573h0Z" fill="#797979"/><path d="M268.575,168.841c-4.402-9.249-7.646-19.103-9.313-29.247-.123-1.035-.432-1.698-.949-2.542-.542-1.019-.853-2.199-.882-3.366-.092-1.69.515-3.164.94-4.72.516-2.412.238-4.856.492-7.457,1.332-13.933,6.973-27.498,16.131-38.076.79-.911,1.368-1.971,1.327-3.152-.033-.852-.326-1.889-.454-2.774-.69-4.168-.854-8.156-1.885-11.911-3.246-13.298-10.998-25.852-22.869-32.992-5.052-3.009-10.656-4.862-16.511-5.655-25.726-4.356-46.684,12.019-53.71,36.317-1.16,3.795-1.456,7.798-1.99,11.878-.831,5.14-1.246,6.057,2.67,10.163,9.902,11.419,15.39,26.524,15.911,41.581-.014.329-.007,1.045.021,1.344-.032.98,1.254,1.951,1.926,2.634.697.656,2.55,2.621,3.245,3.34,6.048,6.758,13.243,12.712,22.145,14.989.544.152.677.068,1.423-.049,1.032-.212,2.677-.441,4.22.377,1.543.799,2.294,2.367,2.65,3.281.535,1.259,1.316,2.503,2.076,3.687.344.521.691.969.968,1.659.17.43.302,1.062.139,1.754-.159.693-.59,1.22-.942,1.517-1.776,1.311-3.571,1.664-5.681,1.268-1.185-.271-1.691-.84-2.697-.931-.959-.144-1.863.482-2.833.518-2.211.221-4.052-2.184-2.769-4.125,0,0,.365-.677.365-.677.597-1.141,1.388-2.207,1.915-3.344.423-.904.758-1.858.722-2.827-.023-.612.454-1.127,1.067-1.15.912-.068,1.485,1.066.935,1.771-1.243,1.945-2.435,3.548-3.284,5.378-.365.853-1.019,1.983-.765,2.404,1.077,2.018,2.921-.344,4.618-.241,1.022-.148,2.377.388,3.209.478.889.136,2.32-.453,2.932-1.01.024-.043-.1.048-.153.24-.051.191-.018.301-.038.262-.02-.038-.062-.103-.197-.286-1.143-1.534-2.18-3.073-2.975-4.859-.271-.564-.487-1.197-1-1.45-.801-.454-2.464.386-3.731.235-3.811-.609-7.434-2.191-10.787-4.053-6.476-3.603-11.45-9.104-16.321-14.495-1.605-1.711-3.818-3.36-3.942-5.937.067-14.895-4.914-30.026-14.283-41.674-1.328-1.651-2.993-3.339-3.471-5.609-.503-2.284.32-4.26.526-6.459.546-3.978.908-8.152,2.126-12.173,4.364-15.92,15.678-30.677,31.388-36.698,15.827-5.665,34.755-3.664,48.091,6.916,10.015,7.842,16.554,19.543,19.159,31.876.988,4.162,1.053,8.379,1.557,12.26.126,1.118.401,2.082.381,3.269-.006,1.927-.953,3.727-2.216,5.066-9.155,9.804-14.831,23.027-16.196,36.313-.264,2.578-.028,5.179-.617,7.752-.35,1.362-1.018,2.797-.924,4.198-.059,1.473.841,2.68,1.403,3.972,1.379,6.475,2.499,12.991,4.859,19.211,1.396,3.773,3.085,7.457,4.76,11.172.526,1.22-1.302,2.146-1.913.856h0Z" fill="#797979"/><path d="M117.024,171.968c-6.766,6.675-11.569,14.51-14.005,23.739-2.09,7.921-2.482,15.895-.964,23.979,4.189,22.305,17.215,38.07,36.333,49.377,8.607,5.091,17.835,8.734,27.56,10.822,7.282,1.563,14.78,2.405,22.047-.405,4.527-1.751,8.062-4.85,10.938-8.751,5.874-7.967,8.966-17.077,11.165-26.59,1.736-7.508,2.478-15.108,2.346-22.793-.203-11.747-2.594-23.048-8.134-33.433-3.871-7.257-9.056-13.646-15.383-18.999-.558-.473-1.057-1.01-1.635-1.456" fill="#f9fafb"/><path d="M117.633,172.585c-18.582,17.997-19.599,45.078-7.474,67.006,11.828,21.315,34.927,34.98,58.469,39.385,8.686,1.648,18.157,1.299,24.889-4.765,6.492-6.063,10.22-14.631,12.799-23.085,7.852-25.694,5.266-55.947-13.237-76.463-1.401-1.687-3.143-3.363-4.717-4.903-.609-.573-1.103-1.175-1.6-1.616-.395-.305-.455-.892-.12-1.264.304-.343.822-.385,1.179-.108,5.011,3.77,9.712,8.036,13.453,13.107,11.661,15.208,14.652,35.315,12.553,53.968-1.582,12.441-4.925,24.905-11.849,35.535-5.436,8.776-14.039,13.707-24.444,13.436-21.865-1.213-42.846-11.763-58.193-27.136-12.935-13.413-20.625-32.5-18.864-51.211,1.189-12.477,6.891-24.436,15.938-33.119.841-.776,2.006.419,1.217,1.234h0Z" fill="#797979"/><path d="M229.037,161.99c-.48,2.079,1.063,4.039,1.373,6.007.714,4.531-1.073,9.033-1.603,13.464-.412,3.447-1.566,6.706-2.372,10.055s-.44,7.03-1.394,10.35-2.503,6.458-3.352,9.802c-.897,3.532-2.065,6.99-2.565,10.553-.503,3.581.36,7.246.255,10.871-.104,3.588-2.038,7.263-1.755,10.904.345,4.429,1.637,8.796,2.534,13.089.901,4.315,1.413,8.767,2.541,13.027s2.502,8.425,3.526,12.708c1.213,5.073,2.562,10.036,3.123,15.251.536,4.985.975,8.466.868,13.477-.007.327.353,5.711.857,13.057.276,4.029-.426,8.677-.09,13.255s-.583,9.258-.254,13.28c.603,7.38,1.022,13.939,1.282,14.164" fill="none" stroke="#797979" stroke-linecap="round" stroke-linejoin="round" stroke-width="2"/><path d="M251.862,288.765c-2.449,2.135-5.516,3.609-7.213,6.567.259.863.666,1.318,1.511,1.526,2.758.678,5.079,2.336,7.589,3.565,2.197,1.075,3.019.698,3.101-1.687.088-2.549-.408-5.058-.494-7.596-.049-1.44-1.186-1.931-2.362-2.109-1.202-.183-2.146-.74-3.088-1.443-8.742-6.524-13.384-15.76-17.098-25.642-2.46-6.547-4.195-13.301-5.133-20.193-.833-6.122-.78-12.305-.142-18.513.985-9.577,3.592-18.602,8.15-27.048,6.685-12.389,16.484-21.275,29.903-25.868,17.515-5.996,33.351-2.343,47.694,8.79,10.888,8.451,16.101,20.09,17.525,33.457,1.592,14.936-2.371,28.609-10.636,41.055-7.171,10.8-15.755,20.624-26.88,27.264-8.493,5.068-18.148,7.757-27.956,9.355-2.544.415-5.137.334-7.83-.27-6.675-1.498-1.437.206-2.129.455" fill="#f9fafb"/><path d="M252.503,289.499c-2.583,1.877-6.117,3.042-7.025,6.308,0,0,.087-.75.087-.75.222.856.246.816,1.539,1.219,1.01.337,1.965.768,2.882,1.23l2.69,1.382c.941.394,2.104,1.241,2.908.887.028-.066-.182-.052-.259-.027-.144.051-.092-.29-.121-.665-.063-2.324-.315-4.918.261-7.273.033-.238.04-.568.022-.729-.015-1.015-1.264-1.148-2.063-1.305-3.127-.922-5.25-3.432-7.559-5.543-5.664-5.847-9.401-13.271-12.281-20.792-4.398-11.255-6.966-23.398-6.289-35.52.679-16.179,6.063-32.454,17.076-44.604,17.346-18.835,46.016-23.219,67.253-8.154,22.069,13.64,27.309,43.287,18.148,66.31-2.959,7.674-7.529,14.576-12.532,21.028-4.995,6.424-10.803,12.333-17.546,17.065-10.166,7.152-22.23,10.662-34.398,12.113-3.057.327-6.3-.364-9.234-1.13-.231-.05-.469-.099-.667-.129-.067-.023-.264-.01-.06-.037-.097-.131.619.255.753-1.115-.132-.513-.284-.522-.285-.549.158.111.712.419,1.013.633.832.497.75,1.702-.113,1.991-1.211.406-1.86-1.374-.659-1.834-.128.067-.45.11-.582.8.008.454.181.591.194.615.074.082.052.056.034.047-.32-.193-.572-.284-.949-.506-.077-.047-.153-.089-.292-.203-.048-.068-.245-.122-.397-.695.137-1.439.933-1.074.892-1.211,1.568-.059,3.008.411,4.466.625,5.797.977,11.529-1.124,17.111-2.463,15.394-3.98,28.099-13.919,37.592-26.447,4.738-6.212,9.153-12.76,12.009-20.043,8.647-21.224,3.956-49.348-16.35-62.128-20.023-14.546-46.91-10.608-63.674,7.016-13.48,14.54-18.676,35.462-16.817,54.948,1.631,15.251,9.823,41.214,24.517,48.271,1.566.157,3.31.973,3.406,2.801.014.841.341,1.436.636,2.193.3.956.449,1.953.614,2.989.11,1.884.435,3.663-1.041,5.427-.698.754-1.929.773-2.699.393-2.09-.949-3.538-2.023-5.449-3.015-1.087-.556-2.159-1.017-3.332-1.256-1.021-.126-1.983-1.209-2.199-2.06-.106-.257-.016-.521.089-.753,1.117-1.095,2.602-2.609,3.782-3.565,1.283-1.062,2.6-2.062,3.618-3.258.353-.414.975-.464,1.389-.111.503.413.443,1.24-.108,1.58h0Z" fill="#797979"/><path d="M265.717,224.619c-1.104-3.479,1.304-7.058-.338-10.266-.195-.303-.453-.815-.54-1.201-.489-2.28.253-4.705-.826-6.786-.488-1.143-2.501-1.121-3.223-.412-.392.389-.541,1.111-.687,1.871-.824,3.806-1.024,7.624-1.162,11.544-.276,6.328-1.78,12.516-2.445,18.597-.301,3.023-.278,6.044.574,8.783,1.675,5.807,7.289,8.641,12.87,9.972,2.855.717,5.754.98,8.499.233,5.883-1.509,10.366-6.233,14.73-10.281,2.23-2.164,4.416-4.387,6.626-6.597,0,0,3.339-3.3,3.339-3.3.726-.759,1.678-1.429,2.065-2.308.058-.203.056-.312-.035-.497-2.786-4.498-7.7.227-10.657,2.254-1.464.954-2.84,2.374-4.737,2.263-.563-.022-.999-.504-.961-1.066.036-.551.513-.969,1.064-.933,1.182.122,2.524-1.175,3.554-1.782,2.237-1.567,4.612-3.416,7.351-4.16,2.348-.811,4.745.612,5.902,2.686.973,1.984-1.213,3.552-2.376,4.738-5.517,5.493-10.899,11.299-16.728,16.476-2.321,2.182-5.198,4.051-8.358,5.087-6.545,2.011-13.529.078-19.12-3.641-12.064-8.96-2.945-24.784-2.475-36.597.179-3.101.359-6.265.903-9.38.439-1.675.285-3.247,1.483-4.731,1.365-1.255,4.072-1.056,4.942.67,1.195,2.218.526,4.742.939,7.024.191.713.773,1.348.961,2.103.829,3.01-.816,6.357.12,9.267.273.837-1.02,1.218-1.251.375h0Z" fill="#797979"/><path d="M163.181,203.882c.59,4.34,5.6,7.834,6.666,12.014,1.075,4.216-.556,9.297,1.088,13.322,1.628,3.985,5.184,7.136,7.453,10.906,3.339,5.55,8.889,8.975,13.359,13.658,3.67,3.845,3.556,11.223,7.147,15.147" fill="none" stroke="#797979" stroke-linecap="round" stroke-linejoin="round" stroke-width="2"/><path d="M320.285,127.145c-.075.019.074.084.228.04.144-.048.132-.06.066.078-.103.21-.511,1.157-1.142,1.789-1.221,1.384-3.411,1.61-5.096.97-1.686-.44-3.594.011-6.125.49-2.727.462-4.905-.61-7.408-1.102-2.223-.389-4.714.423-6.561,1.727-.551.6-1.494,1.221-2.079,1.766-1.314,1.084-1.811,2.285-1.546,3.841.168,1.623.605,3.262,1.496,4.624,2.155,3.568,6.622,4.099,10.35,5.133,0,0,.417.135.417.135,0,0-.028.004.012-.006,1.319-.799,2.898-1.323,4.487-1.142,1.307.12,2.523.634,3.581,1.188,1.934,1.008,4.225.97,6.082-.172.58-.328.884-.698,1.571-1.013.729-.407,1.879-.015,2.402.508,2.396,1.916,5.618,2.534,8.604,2.944,2.253-.084,4.481-1.803,5.95-3.489,1.392-1.809,1.129-4.289,1.657-6.433.974-3.03,2.714-6.25,1.341-9.302-.403-.82-1.284-1.599-2.153-2.287-.43-.35-.554-.937-.34-1.421.699-1.576.799-3.51.261-5.279-.616-1.983-2.022-3.747-3.925-4.618-.751-.313-1.552-.5-2.218-1.137-1.007-.879-1.173-2.24-1.488-2.975-1.002-2.666-3.877-3.924-6.547-4.254-2.815-.4-4.25,1.754-4.934,4.483-.283.981-.653,2.208-1.558,3.278-.54.678-1.415,1.232-2.071,1.652-1.317,1.025-1.549,2.773-1.669,4.906-.045,1.06-.942,1.883-2.002,1.838-1.134-.041-1.995-1.089-1.818-2.209.332-2.318.943-4.873,2.883-6.58.709-.7,1.756-.996,2.413-1.633,1.175-1.251,1.421-3.653,2.638-5.166,1.259-2.059,4.119-3.301,6.462-2.671,3.928.7,7.33,3.228,8.057,7.289.321,1.227,1.37,1.467,2.445,1.87,4.448,2.086,6.599,7.145,6.027,11.966,0,0-.492-1.545-.492-1.545,5.028,4.191,3.062,9.403.846,14.418-.557,2.39-.541,4.973-2.227,7.007-1.734,1.937-3.921,3.413-6.557,3.952-1.303.215-2.55-.199-3.805-.437-2.395-.521-4.845-1.346-6.769-2.97-.829-.83-1.274.135-2.235.598-2.225,1.345-5.196,1.361-7.455.105-1.953-1.09-4.125-1.52-6.133-.426-.34.158-.463.299-.871.453-.373.166-.9.028-1.282-.12-.541-.169-1.096-.315-1.662-.448-5.004-.763-9.897-3.186-11.229-8.537-1.305-4.38-.044-6.282,3.242-8.956,2.252-2.201,5.345-3.123,8.509-3.354,2.131-.091,4.624.503,6.639.071,2.518-.565,5.674-1.223,8.358-.137.549.232.966.208,1.355-.32.444-.59.9-1.466,1.898-1.878.692-.295,1.469-.218,1.958-.037,1.314.459,1.199,2.434-.133,2.753,0,0-.708.183-.708.183h0Z" fill="#797979"/><path d="M201.535,268.349c10.891,12.501,18.558,19.885,18.602,38.712.039,16.564,10.15,57.497,13.626,57.126" fill="none" stroke="#797979" stroke-linecap="round" stroke-linejoin="round" stroke-width="2"/><path d="M322.044,117.005c-1.104,1.556.279,2.191,1.633,2.365,1.84.348,3.586,1.447,4.582,3.062,1.01,1.557,1.352,3.338,1.688,5.074,1.169,4.27-.211,9.588-4.509,11.58-2.417,1.233-5.224,1.145-7.606.52-2.804-.773-4.886-1.709-7.251-.472-.621.349-1.396.543-2.091.492-2.398-.019-4.249-1.951-6.376-1.935-.64.149-1.385,1.172-1.964,2.111-.346.559-1.08.731-1.639.385-.747-.439-.74-1.592.004-2.027,1.1-.638,2.05-1.713,3.411-1.855,1.427-.053,2.36.661,3.547,1.079,1.304.478,2.661.996,3.815.322,1.566-1.325,3.845-1.981,5.848-1.711,2.286.201,4.179,1.183,6.373,1.087,4.978.005,7.383-4.709,6.511-9.22-.192-2.539-.796-5.5-3.218-6.621-1.639-.856-4.026-.562-4.772-2.696-.296-.806-.242-1.589-.182-2.336.306-2.024,3.257-.978,2.195.795h0Z" fill="#797979"/><path d="M135.042,195.33c5.54,2.882,9.639,7.086,11.999,12.933,1.157,2.865,3.905,3.855,6.422,4.936,1.623.697,3.368,1.21,4.94,1.998,3.164,1.585,3.543,2.966,1.177,5.383-1.561,1.594-1.812,2.654-.03,4.371,1.697,1.635,1.41,2.498-.416,4.203-1.136,1.061-3.643,2.285-4.032,3.803" fill="none" stroke="#797979" stroke-linecap="round" stroke-linejoin="round" stroke-width="2"/><path d="M117.88,191.503c-1.062.915-1.934,1.622-2.438,2.843-.734,1.798-1.338,3.645-1.848,5.52-1.771,6.743-1.824,13.875-.438,20.727.324,1.728.778,3.447,1.249,5.138.455,1.633,1.284,3.302,1.61,5.196.063.365-.182.712-.547.775-.337.058-.659-.147-.756-.466-1.208-3.2-2.884-6.694-3.628-10.17-2.437-9.139-2.252-19.045.882-28.021.543-1.763,1.996-3.369,3.254-4.527,2.003-1.823,4.71,1.196,2.661,2.986h0Z" fill="#797979"/><path d="M283.567,224.937c.804-2.13,1.419-4.516,2.52-6.556-.46-2.704-.02-5.451.739-7.952.959-3.06,2.073-5.98,2.6-9.088.5-1.682.009-4.119-2.157-3.982-1.174-.039-2.307.023-3.047,1.064-.743.983-.702,2.434-1.236,3.565-.53,1.48-1.173,2.954-1.778,4.408-.791,1.41-1.093,3.095-2.252,4.331-.402.486-.888.774-1.103,1.365-.412,1.026-.331,2.312-.518,3.635-.248,1.274-.68,2.427-.79,3.738-.197,1.263-.425,2.573-.883,3.878-.154.44-.635.672-1.076.518-.481-.164-.707-.734-.472-1.184,1.054-2.165,1.366-4.816,2-7.165.269-1.164.243-2.508.887-3.826.645-1.13,1.891-1.715,2.439-2.951.395-.831.909-1.681,1.025-2.619,0,0,.326-.898.326-.898.798-2.459,1.893-4.733,3.047-7.036.299-.591.779-1.179,1.461-1.494,4.17-1.489,5.499,3.554,4.657,6.665-.851,4.909-3.404,9.662-2.554,14.659.041.219.055.52-.002.731-1.109,2.216-1.644,4.554-3.148,6.606-.279.364-.881.002-.686-.414h0Z" fill="#797979"/><path d="M196.075,287.103c3.066,9.758,15.736,12.27,15.153,22.579-.786,13.888,6.834,20.326,7.468,28.497.792,10.206,13.271,23.17,13.501,23.02" fill="none" stroke="#797979" stroke-linecap="round" stroke-linejoin="round" stroke-width="2"/><path d="M210.373,38.876c-8.752,3.222-15.261,10.671-18.732,19.218-1.225,2.873-2.213,5.927-2.259,9.064-.008.559-.468,1.006-1.028.998-.678.002-1.174-.71-.942-1.345,1.06-3.112,1.944-6.15,2.978-9.2,2.154-6.112,5.5-11.907,10.281-16.4,2.401-2.279,5.121-4.249,8.045-5.876,2.454-1.257,4.21,2.452,1.657,3.542h0Z" fill="#797979"/><path d="M244.028,281.88c-3.132,3.932-8.551,9.071-6.115,13.311,3.581,6.236-1.018,14.834-2.315,18.683-1.965,5.83-.521,48.702-2.096,49.002" fill="none" stroke="#797979" stroke-linecap="round" stroke-linejoin="round" stroke-width="2"/><path d="M278.557,178.836c-12.803.178-25.127,8.077-31.932,18.895-.15.268-.601.039-.446-.247,6.209-11.934,18.574-21.113,32.164-22.411,2.589-.185,2.82,3.651.214,3.764h0Z" fill="#797979"/><path d="M155.102,232.957c2.421.573,4.832.961,7.364.777,1.309-.095,1.5,1.219,1.408,2.308-.141,1.66.331,3.083,1.165,4.531,1.615,2.799.735,5.526-2.104,7.1-1.677.929-3.476,1.635-5.243,2.321-4.028,1.564-4.512,3.795-3.223,8.103.378,1.264,1.075,2.479,1.345,3.822" fill="none" stroke="#797979" stroke-linecap="round" stroke-linejoin="round" stroke-width="2"/><path d="M298.938,80.574c-5.652,1.808-10.84,4.972-15.08,9.114-4.319,4.107-7.135,9.321-9.879,14.551-.228.428-.938.145-.79-.329,2.872-8.633,9.104-16.087,16.641-21.105,1.141-.708,2.782-1.692,3.971-2.283,1.095-.576,2.984-1.234,3.798-2.18,1.694-1.587,3.547,1.47,1.339,2.232h0Z" fill="#797979"/><path d="M287.014,217.576c1.874-1.093,2.023-3.176,3.03-5.066.542-.946,1.125-1.781,1.592-2.787,1.265-3.117,5.401-7.829,8.315-3.487,1.535,2.137.064,4.706-.743,6.801-1.853,3.971-3.339,8.005-5.12,11.969-1.413,3.199-2.736,6.42-3.484,9.825-.365,1.01.316,3.296-1.372,3.237-3.521-.172,5.799-17.058,6.408-19.459,1.114-3.066,2.712-5.888,3.497-9.026.481-1.492-.168-2.664-1.38-3.426-.166-.101-.194-.096-.352-.111-1.034.098-1.937.962-2.609,1.811-1.165,1.651-1.845,3.854-3.013,5.586-.951,1.861-1.867,4.548-4.147,5.404-.797.323-1.364-.843-.621-1.27h0Z" fill="#797979"/><path d="M257.56,134.223c-2.364.353-3.938,1.895-5.467,3.554-4.309,4.677-9.267,8.495-14.931,11.436-2.231,1.158-4.306.686-6.366,2.202" fill="none" stroke="#797979" stroke-linecap="round" stroke-linejoin="round" stroke-width="2"/><path d="M189.76,234.851c-.062-2.453.71-4.879.447-7.287-.516-6.671-4.347-12.904-10.534-15.64-.214-.121-.631-.219-.704-.22-.751,0-1.359-.609-1.359-1.359s.609-1.359,1.359-1.359c.728.041,1.06.202,1.657.442,7.878,3.924,12.268,13.322,10.571,21.868,0,0-.676,3.609-.676,3.609-.074.432-.75.394-.761-.052h0Z" fill="#797979"/><path d="M235.916,96.815c.567-2.794,3.422-3.823,4.383-6.296,2.372-4.793,1.549-10.836-1.443-15.092-.884-1.137-2.236-2.61-2.701-4.161-.018-.056-.06-.173-.025-.057.058.132.103.207.164.264.155.138-.081-.043-.382-.114-.303-.095-.679-.179-1.082-.28-3.656-1.233-7.577-1.903-11.41-.968-1.243.348-2.795.509-3.707,1.471-1.724,2.325-3.99,5.006-4.951,7.816-1.84,5.148-.526,11.378,3.869,14.872.8.683,1.406,1.775,1.496,2.875.18,1.355-1.86,1.668-2.077.298-.025-.176-.003-.352.053-.509.379-.943-.61-1.888-1.331-2.544-1.554-1.519-2.832-3.293-3.663-5.334-2.488-5.94-1.003-12.337,2.881-17.294.804-1.443,2.385-3.506,4.207-3.931,2.497-.894,5.114-1.432,7.797-1.433,3.128-.069,5.948.974,8.942,1.786.476.182,1.039.306,1.785,1.03.242.252.456.638.576,1.017.442,1.323,1.299,2.049,2.181,3.304,4.069,6.011,3.528,14.56-1.17,20.016-1.241,1.246-2.442,2.282-2.411,3.541-.03,1.541-2.364,1.239-1.981-.276h0Z" fill="#797979"/><path d="M250.675,299.447c-.936,4.291-6.507.623-7.169,23.684-.114,3.969,2.05,5.155-1.619,18.773-1.385,5.139-8.764,27.115-9.041,23.874" fill="none" stroke="#797979" stroke-linecap="round" stroke-linejoin="round" stroke-width="2"/><path d="M217.345,71.308c-1.857-.194-3.026.715-4.633,1.682,0,0-2.598,1.551-2.598,1.551-4.211,2.605-8.083,5.726-11.335,9.476-.019.029.197-.533.193-.528-.182,1.506,2.099,2.854,3.138,3.866,3.725,3.07,7.073,6.753,11.748,8.323.773.3,2.023.56,2.836.786,5.714,1.585,11.607,3.158,17.228.751,3.723-1.051,7.732-1.413,11.014-3.307,3.665-2.269,7.359-4.783,10.592-7.675.745-.775,1.989-1.462,1.163-2.554-2.296-3.066-5.298-5.674-8.498-7.776-2.393-1.549-5.043-2.955-7.646-4.055-.837-.331-1.425-.446-2.177-.313-.549.082-1.061-.298-1.142-.847-.109-1.207,1.456-1.499,2.387-1.538,1.755.018,3.18,1.009,4.643,1.698,1.81.946,3.549,2.032,5.193,3.246,3.308,2.456,6.25,5.305,8.776,8.569,1.412,1.892.164,3.68-1.264,5.029-1.735,1.842-3.607,3.606-5.58,5.191-1.614,1.279-3.208,2.418-5.066,3.484-3.748,2.09-8.013,1.944-12,2.589-5.935,1.869-12.174.121-17.919-1.267-6.044-1.044-11.735-4.197-15.754-8.818-1.292-1.784-4.148-3.403-3.536-5.943,3.414-5.339,8.594-9.485,14.061-12.533,1.81-1.176,4.716-2.238,6.846-.973.995.547.421,2.079-.666,1.886h0Z" fill="#797979"/><path d="M228.03,75.073c8.103-.695,11.823,9.078,6.254,14.553-3.354,3.052-9.178,3.253-12.216-.277-5.086-5.616-1.74-13.031,4.847-13.987,1.36-1.116,2.639,1.165.845,1.757-.135.072-.443.142-.652.143-3.18.1-6.223,2.902-5.788,6.197.306,3.356,3.444,6.462,6.593,5.873,1.597-.158,3.289-.841,4.155-1.86,2.046-2.258,1.941-5.897-.103-8.091-.919-1.067-2.446-1.697-4.223-2.329-1.05-.35-.799-1.945.288-1.979h0Z" fill="#797979"/><path d="M276.45,211.231c-1.594-2.543-.956-5.434-.319-8.082.287-1.282.136-2.698-.142-3.976-.438-1.337-2.567-1.198-3.532-.345-.869.729-1.131,2.241-1.521,3.612-.659,2.413-1.265,6.021-1.728,8.52-.33,1.585-.371,3.332-1.748,4.545-.411.425-1.107.43-1.5-.022-.426-.471-.293-1.244.262-1.549,1.061-.604,1.226-2.155,1.597-3.288.961-3.519,1.453-7.141,2.511-10.651.587-2.579,3.92-4.117,6.165-2.422.738.514.948,1.54,1.086,2.363.318,1.475.214,3.104-.13,4.585-.354,1.884-.506,4.088.671,5.614.801,1.136-.945,2.288-1.673,1.096h0Z" fill="#797979"/><path d="M176.767,215.272c6.109,2.35,9.077,9.084,7.795,15.297-.106.748.013,1.709-.477,2.616-.252.478-.983.1-.728-.383.406-.592.306-1.404.356-2.318.728-5.486-2.172-11.52-7.737-13.036-1.513-.5-.702-2.766.791-2.177h0Z" fill="#797979"/><path d="M281.192,121.704c-4.197,5.889,2.872,11.453,8.651,11.547,1.316.14,1.143,2.114-.185,2.013-3.152-1.132-6.546-2.325-8.854-4.913-2.469-2.509-3.133-6.647-1.282-9.752.724-1.231,2.522-.047,1.67,1.104h0Z" fill="#797979"/><path d="M330.234,150.552c-.932,4.435-5.395,7.24-9.69,7.162-4.032.004-8.865-1.558-10.265-5.764-.186-.591.687-.897.912-.319,2.089,5.102,10.302,5.92,14.365,2.846,1.418-1.071,2.438-2.627,2.713-4.297.24-1.32,2.222-.951,1.965.372h0Z" fill="#797979"/><path d="M318.222,107.493c-2.73-5.244-11.282-6.874-15.098-1.99-.948,1.134-2.553-.45-1.42-1.413,5.408-4.417,13.882-3.049,18.169,2.272.905,1.14-.909,2.392-1.651,1.131h0Z" fill="#797979"/><path d="M189.192,280.224c.766,1.849.929,3.728.505,5.704-.179.832-.128,1.748-.008,2.602.215,1.536,2.044,2.307,3.296,1.419,1.008-.715,1.813-1.675,2.779-2.458,1.013-.821,1.849-1.298,3.157-1.39,1.285-.09,2.293-1.071,2.565-2.327.246-1.134-.784-1.78-1.616-2.357-1.931-1.338-4.1-2.307-5.93-3.805" fill="#f9fafb"/><path d="M190.154,279.825c.013.83.135,1.565.24,2.312.128.727.51,1.484.344,2.255-.111.721-.465,1.38-.483,2.112-.008.629.187,1.268.303,1.909.128.778,1.225,1.199,1.799.693,1.602-1.306,3.405-3.954,5.96-4.247,0,0,.567-.078.567-.078.634-.091,1.137-.689,1.216-1.32.006-.031-.013-.018-.009-.012-.003.03-.018-.024-.16-.154-2.109-1.62-4.804-2.685-6.883-4.592-1.283-1.189.338-3.191,1.765-2.194,1.038.737,2.189,1.396,3.423,2.101,1.644,1.132,4.079,2.007,4.662,4.269.248,1.674-.774,3.28-2.222,4.075-1.274.687-2.612.225-3.82,1.229-1.038.674-1.936,1.744-3.331,2.662-1.826,1.219-4.493-.022-4.703-2.181-.204-1.437.514-2.916.26-4.363-.087-.634.211-1.291.095-1.949-.138-.64-.427-1.258-.948-1.73-.471-.427-.507-1.154-.081-1.626.686-.808,2.085-.208,2.005.828h0Z" fill="#797979"/><path d="M301.499,109.873c.272-.814.625-1.589.784-2.405.27-3.302-4.714-4.319-7.133-3.504-2.13.617-5.254,1.313-5.148,4.052-.094.454-.177.911-.442,1.314-.285.487-.912.651-1.399.365-.804-.514-.531-1.63-.232-2.372,1.584-2.379,3.869-4.486,6.642-5.305,3.308-.993,7.599.568,8.932,3.828.456,1.287.775,5.943-1.474,5.272-.477-.216-.701-.762-.529-1.245h0Z" fill="#797979"/><path d="M166.699,192.224c1.345,1.096,2.523,2.234,3.864,3.283,2.004,1.447,4.731,4.734,2.298,7.127-.845.727-1.886.776-2.864.875-2.625.159-5.122,1.333-7.741,1.364-.998.343-2.322.123-3.215-.215-.559-.139-.896-.712-.747-1.268.147-.551.713-.878,1.264-.73.528.175.979.84,1.445.867.279.045.564.035.849-.097.914-.722,2.115-.907,3.198-1.282,1.721-.533,3.509-1.033,5.296-1.365.327-.066.496-.103.66-.246,0-.017-.042.024-.051.036-.309-1.262-1.854-2.412-2.88-3.304-1.16-1.101-2.174-2.379-2.923-3.776-.266-.496-.079-1.114.418-1.38.375-.2.819-.144,1.128.111h0Z" fill="#797979"/><path d="M304.581,147.105c.805,2.472,2.474,4.868,3.033,7.611.744,2.757.046,5.754,1.733,8.128,1.332,1.722-1.202,3.757-2.595,2.071-.326-.408-.423-.913-.327-1.39.391-2.896-.074-5.57-.965-8.169-.461-1.96-6.071-8.09-2.689-9.256.779-.203,1.574.248,1.809,1.005h0Z" fill="#797979"/><path d="M284.201,238.487c-4.997.863-8.852,3.476-12.059,7.496-.26.327-.813.02-.678-.372,1.472-5.277,6.976-9.761,12.63-9.121,1.142.096,1.222,1.787.107,1.997h0Z" fill="#797979"/><path d="M294.038,116.774c-.049.017-.194.271-.164.298.026-.044.039-.16.084-.26.832-1.484.875-3.302-.411-4.595-2.884-3.158-7.657-2.963-10.722-.135-1.487,1.31-2.23,3.211-2.196,5.166.009.557-.436,1.015-.993,1.024-.655.019-1.16-.627-.994-1.258.462-2.252,1.678-4.423,3.49-5.767,1.794-1.322,3.885-2.222,6.132-2.273,3.861-.009,8.645,2.999,7.731,7.388-.053.369-.195.798-.269,1.114,0,0,.028-.073.028-.073.01.309-.301.855-.609,1.034-1.095.72-2.193-.933-1.11-1.664h0Z" fill="#797979"/><path d="M302.306,118.175c-.65,1.482-.814,2.993-.624,4.543.085.746.532,1.442.403,2.225-.04.394-.116.803-.265,1.236-.137.433-.326.884-.671,1.37-.068.095-.198.119-.295.056-.893-.603-1.411-1.352-1.746-2.29-.334-.858,0-1.82.178-2.727.313-1.792,1.325-3.551,2.786-4.601.123-.092.296.049.234.188h0Z" fill="#797979"/><path d="M161.942,194.278c-.027,3.26-1.708,6.02-1.66,9.198.001.009.078-.188-.117-.481-.093-.131-.22-.204-.254-.218.008.007.323.163.447.363.11.151.178.335.192.526.032.375-.159.73-.455.928-.451.319-1.075.213-1.394-.238-.319-.451-.213-1.075.238-1.394-.036.023-.07.05-.102.08-.349.319-.397.905-.11,1.285.079.13.291.271.271.255.156.087.046.031.008.018-.125-.059-.338-.193-.491-.406-.316-.464-.239-.882-.201-1.071.574-1.341.945-2.757,1.191-4.18.299-1.583.547-3.147.435-4.656-.041-.552.374-1.033.926-1.073.6-.049,1.116.463,1.074,1.063h0Z" fill="#797979"/><path d="M174.449,220.892c4.198,2.001,4.709,5.305,4.505,9.493.029.248-.148.473-.396.502-.3.04-.56-.244-.496-.538.161-.835-.028-1.679-.172-2.479-.392-2.344-2.004-4.178-4.343-4.646-1.761-.541-.77-3.117.902-2.332h0Z" fill="#797979"/><path d="M314.49,156.248c-.638.864-.687,1.587-.627,2.632.004,1.793-.514,3.642-.232,5.339.094.562-.286,1.094-.848,1.188-.753.146-1.412-.645-1.145-1.357.57-1.793.929-3.378.815-5.124-.22-1.097-.164-2.511.236-3.561.515-1.458,2.639-.422,1.801.883h0Z" fill="#797979"/><path d="M332.1,138.022c.032,3.243-.645,4.173-3.564,4.729-.58.11-1.002.692-1.658.493" fill="none" stroke="#797979" stroke-linecap="round" stroke-linejoin="round" stroke-width="3"/><path d="M305.77,113.798c.057-.003.039-.088-.153-.173-.261-.113-1.068-.441-1.362-.746-2.24-2.326-6.211-1.635-8.097.866-.901,1.195-2.711-.119-1.844-1.347.152-.209.362-.35.592-.42,1.062-.317,1.977-.833,2.955-1.304,2.37-1.344,5.479-1.257,7.825.185.594.129,1.228.1,1.944.585,1.525,1.247-.29,3.551-1.86,2.354h0Z" fill="#797979"/><path d="M219.272,369.597c-1.444-.2-2.886,1.613-4.077,2.399-4.266,3.548-7.936,7.787-10.804,12.541-3.821,6.352-6.246,13.46-7.539,20.808-.671,3.329-1.363,7.934-2.512,11.111-2.296,7.109-7.439,13.454-11.313,19.743-2.062,3.168-4.246,6.368-7.25,8.716-.188.128-.371.252-.628.282-1.137.119-1.364-1.597-.211-1.751-.101,0-.253.061-.301.091l-.035.014c-.027.016,0-.017,0-.017l.072-.1c.338-.439,1.066-1.451,1.41-1.916.987-1.311,2.385-3.124,3.303-4.436,4.847-6.79,10.763-13.095,13.313-21.178,1.068-3.028,1.786-7.695,2.427-10.889,1.31-7.457,3.808-14.833,7.757-21.387,2.965-4.918,6.771-9.316,11.186-12.987,1.677-1.2,3.263-3.212,5.575-2.766,1.126.271.776,1.956-.374,1.723h0Z" fill="#797979"/><path d="M245.334,422.44c-1.024.487-1.714,1.369-2.514,2.123-.969.913-1.148,1.702-.552,3.123,2.232,5.323,2.186,10.806.796,16.403-1.055,4.246-2.793,8.254-3.811,12.523-1.154,4.839-.849,9.263,1.638,13.545" fill="none" stroke="#797979" stroke-linecap="round" stroke-linejoin="round" stroke-width="2"/><path d="M231.068,378.529c-1.295.538-1.464,2.068-2.176,3.222-2.3,3.809-5.22,7.567-5.609,12.107-.076,1.925.389,3.878.737,5.931,1.456,8.344-.413,17.204-4.853,24.411-1.169,1.993-4.197.314-3.076-1.744,5.137-6.181,7.468-14.446,6.357-22.424-.464-2.953-1.156-6.445.023-9.444,1.177-3.433,3.166-6.547,4.933-9.651.653-1.482,1.137-3.454,2.83-4.226,1.238-.605,2.112,1.269.834,1.818h0Z" fill="#797979"/><path d="M251.516,398.484c2.274,1.303,4.038,3.01,4.237,5.797.175,2.45-.665,4.695-2.148,6.539-2.617,3.254-4.895,6.77-7.688,9.885-.574.64-.575,1.411-.187,2.116,2.218,4.035,3.763,8.234,3.273,12.949-.294,2.828-1.087,5.552-1.721,8.311-.764,3.321-1.32,6.66.557,9.852.467.795,0,0,0,0" fill="none" stroke="#797979" stroke-linecap="round" stroke-linejoin="round" stroke-width="2"/><path d="M241.993,427.827c-1.194.495-2.049.772-2.294,1.883-.05.365-.094.701-.34,1.06-.255.374-.529.516-.836.734-3.04,2.095-5.674,4.749-8.719,6.946-3,2.158-6.404,3.646-9.059,6.278-4.021,3.913-6.299,8.987-8.487,14.14-.737,1.662-3.274.61-2.57-1.105,3.976-6.526,7.926-13.386,14.084-18.153,3.148-2.042,6.128-3.985,8.94-6.528,1.435-1.156,3.442-2.82,4.813-3.579-.042.062-.057.137-.052.132.115-.764.428-1.522.971-2.114.911-.968,1.999-1.289,2.89-1.583,1.227-.384,1.871,1.419.66,1.888h0Z" fill="#797979"/><path d="M238.379,430.554c.83.797.927,1.795.992,2.896.307,5.221-1.144,10.075-2.919,14.879-.946,2.56-1.843,5.137-2.719,7.722-.409,1.208-.431,2.353.203,3.481" fill="none" stroke="#797979" stroke-linecap="round" stroke-linejoin="round" stroke-width="2"/><path d="M220.606,368.54c3.829,2.454,5.765.242,6.552-4.253.12-.687-.177-1.486.055-2.108.563-1.511-.302-2.299-1.408-2.665-1.166-.386-2.263.23-2.854,1.313-.438.803-.67,1.729-1.015,2.585-1.801,4.467-2.926,9.222-5.764,13.249-3.227,4.578-7.049,8.64-10.828,12.743" fill="#797979"/><path d="M221.145,367.698c1.635.998,3.166,1.337,4.061-.647.61-1.445.978-2.545.809-4.342-.05-.433.277-1.057.258-1.484-.035-.414-.857-.76-1.279-.706-1.225.188-1.494,2.072-1.917,3.017-.402.962-1.381,3.622-1.752,4.637-1.504,4.17-3.264,8.662-6.743,11.647-1.414,1.375-2.949,3.653-4.191,5.199-1.337,1.784-2.684,3.562-3.866,5.475-1.147,1.801-3.895.142-2.787-1.722,2.663-2.339,5.481-4.467,7.83-7.129,1.642-1.508,2.525-3.605,3.704-5.435.598-.876,1.137-1.777,1.615-2.73,1.395-2.751,2.454-6.213,3.524-9.171.707-1.577.999-3.571,2.213-4.911,2.036-2.428,6.784-.465,5.737,2.827-.157.5-.113.302-.133.527.312,4.861-2.806,10.32-8.163,6.632-1.092-.729-.038-2.372,1.079-1.684h0Z" fill="#797979"/><path d="M231.038,377.427c.65.006,1.333-.104,1.927.202,3.784,1.948,5.58,1.532,7.902-1.956.257-.387.396-.916.804-1.128,3.099-1.604,4.161-4.576,3.722-7.53-.564-3.796-3.163-6.408-7.003-7.59-.709-.218-1.519-.229-2.136-.737" fill="none" stroke="#797979" stroke-linecap="round" stroke-linejoin="round" stroke-width="2"/><path d="M249.391,384.961c3.702,1.794,5.436,4.39,5.037,7.343-.333,2.463-1.713,4.709-3.316,6.043-3.184,2.65-6.226,5.609-10.025,7.484-1.966.971-3.807,2.149-5.969,2.776-1.099.319-2.226,1.106-2.745,2.427-1.262,3.212-.124,5.072,3.88,5.255.14.006.192.093.398-.011,1.882-.948,2.326-4.552.783-6.031-.485-.465-1.2-.552-1.566-1.138" fill="none" stroke="#797979" stroke-linecap="round" stroke-linejoin="round" stroke-width="2"/><path d="M244.948,371.824c3.232.683,5.436,2.378,6.233,5.784.307,1.314-.098,2.39-.465,3.48-1.455,4.318-4.583,7.525-7.539,10.799-1.567,1.736-3.465,3.332-5.606,4.189-2.274.91-4.312,2.222-6.542,3.158-1.054.442-1.769,1.184-2.079,2.16-.469,1.475-.736,2.934-1.703,4.29-.935,1.31.982,4.136,2.831,4.354.825.098,1.66.295,2.507.231" fill="none" stroke="#797979" stroke-linecap="round" stroke-linejoin="round" stroke-width="2"/><path d="M238.909,377.172l1.958-1.5.603-1.143c-.32-.396-.522-.858-.571-1.353-.047-.476-.129-.914-.273-1.294-.326-.861-.969-1.419-2.247-1.417-1.537.002-3.023,1.178-3.491,2.708-.41,1.341-.173,2.485.79,3.478.497.512,1.019.996,1.155,1.742l-2.129-2.848" fill="none" stroke="#797979" stroke-linecap="round" stroke-linejoin="round" stroke-width="2"/><path d="M236.447,416.644c.382,2.858,1.031,5.668,1.497,8.508.183,1.117.762,1.948,1.208,2.89" fill="none" stroke="#797979" stroke-linecap="round" stroke-linejoin="round" stroke-width="2"/><path d="M235.095,408.337c-.193-.887.429-1.625.412-2.512-.045-2.384-1.628-3.6-3.892-2.904-.942.29-1.826.91-2.896.586" fill="none" stroke="#797979" stroke-linecap="round" stroke-linejoin="round" stroke-width="2"/><path d="M232.197,361.199c.146,1.673-.276,3.377.366,5.031.251.648-.174,1.302-.379,1.92-.876,2.639-1.352,5.321-1.374,8.118-.014,1.81.885,3.332,1.185,5.025.222,1.253-.26,2.685.974,3.669" fill="none" stroke="#797979" stroke-linecap="round" stroke-linejoin="round" stroke-width="2"/><path d="M234.709,396.746c-.109-1.255.367-2.599-.761-3.683-1.038-.997-2.166-1.185-3.492-.768-1.088.342-2.088.988-3.282.973" fill="none" stroke="#797979" stroke-linecap="round" stroke-linejoin="round" stroke-width="2"/><path d="M249.777,411.235c-2.352.967-4.555,2.224-6.765,3.472-1.317.744-2.863.812-4.242,1.37-.56.226-.698-.508-1.164-.399" fill="none" stroke="#797979" stroke-linecap="round" stroke-linejoin="round" stroke-width="2"/><path d="M238.572,416.451c.809,2.882,1.827,5.681,3.284,8.307" fill="none" stroke="#797979" stroke-linecap="round" stroke-linejoin="round" stroke-width="2"/><path d="M232.749,359.795c-.302,2.309,0,0,.065-.331.219-1.118-.21,1.622-1.593,1.415-1.186-.177-2.429-.354-3.661-.26" fill="none" stroke="#797979" stroke-linecap="round" stroke-linejoin="round" stroke-width="2"/><path d="M236.603,379.613c.164,1.85-1.341,4.371-2.66,5.358-1.547,1.158-3.36,1.983-4.63,3.479-1.179,1.39-2.956,2.469-2.396,4.833.15.631-.925,1.351-.862,2.107.141,1.667.651,3.213,2.469,3.873.395.144.723.413.968.767" fill="none" stroke="#797979" stroke-linecap="round" stroke-linejoin="round" stroke-width="2"/><path d="M228.72,381.097c.799.67.802,1.579.778,2.512-.033,1.28.05,2.544.768,3.67" fill="none" stroke="#797979" stroke-linecap="round" stroke-linejoin="round" stroke-width="2"/><path d="M241.663,415.678c.851,2.056,2.014,3.9,3.671,5.409" fill="none" stroke="#797979" stroke-linecap="round" stroke-linejoin="round" stroke-width="2"/><path d="M235.522,417.402c-1.024.361-.893,1.78-1.693,2.338-.969.676-1.186,2.681-.59,3.734,2.232,3.944,1.402,5.821.012,9.968-1.055,3.146-2.793,6.116-3.811,9.279-1.154,3.586-.849,6.863,1.638,10.036" fill="none" stroke="#797979" stroke-linecap="round" stroke-linejoin="round" stroke-width="2"/><path d="M240.166,415.725c2.304.377,2.158.838,3.957,1.42,2.179.705,2.667,2.796,1.327,3.894-5.021,4.113-3.155,6.071-.026,10.395,2.373,3.281,6.283,6.378,8.573,9.677,2.595,3.739,1.909,7.157-3.685,10.466" fill="none" stroke="#797979" stroke-linecap="round" stroke-linejoin="round" stroke-width="2"/><path d="M279.637,117.131c.037,1.091.243.048.237.712-.01,1.086-.146,2.568.755,2.997,1.691.805,3.267,2.282,5.418,1.751" fill="none" stroke="#797979" stroke-linecap="round" stroke-linejoin="round" stroke-width="2"/><path d="M337.56,127.102c-1.384,1.061-1.835,3.254-4.036,3.323" fill="none" stroke="#797979" stroke-linecap="round" stroke-linejoin="round" stroke-width="2"/><path d="M288.358,120.24c.153-.036.423-.559.382-.687-.021-.038.082.209.008.839l-.295,1.245c-.178.704-.285,1.4-.239,1.8.113,1.078,1.655,1.861,2.577,2.55.46.308.583.93.275,1.39-.267.399-.771.544-1.2.374-1.231-.499-2.588-1.012-3.553-2.12-1.429-1.596-1.003-3.975-.574-5.71-.014.228-.011.074-.032-.367,0-.222.033-.571.201-.929,1.205-2.468,4.433-.219,2.451,1.615h0Z" fill="#797979"/><path d="M178.039,84.039c-1.359-.392-2.381-1.455-3.466-2.275-2.619-2.221-5.628-4.601-8.684-6.183-16.311-9.87-38.508-8.223-52.975,4.266-19.005,15.388-21.744,43.722-12.22,65.17,3.771,8.7,8.844,17.044,15.351,23.962,6.748,6.725,14.128,13.065,22.501,17.563,5.219,2.813,10.835,4.872,16.719,5.706.81.13,2.307.348,3.109.456,2.533.292,4.83-1.64,7.644-1.091,0,0-.964.304-.964.304,2.349-2.408,5.276-3.691,7.348-5.584,12.937-14.113,19.624-33.295,20.645-52.242.032-1.605.51-3.839.574-5.375-.02-3.255,4.554-2.74,3.967.511-.11,1.202-.464,3.104-.634,4.311-.298,4.543-.883,9.075-1.882,13.521-3.16,14.42-9.484,28.269-19.365,39.32-2.417,3.037-6.693,4.654-9.116,7.049-.273.271-.643.364-.999.301-2.244-.349-4.441,1.369-6.963,1.16-.252,0-.749-.084-.996-.11-17.096-1.688-31.404-12.472-43.148-24.312-13.082-14.384-22.065-33.598-21.232-53.312.468-25.678,19.174-47.976,45.276-49.993,12.349-1.209,24.866,3.136,34.612,10.622,1.355,1.056,3.466,2.978,4.858,3.885.14.098.315.179.412.246,0,0-.144,1.959-.144,1.959-.007.114-.119.193-.228.165h0Z" fill="#797979"/><path d="M233.589,378.083c.477.535.479,1.26.464,2.003-.02,1.021.03,2.029.458,2.928" fill="none" stroke="#797979" stroke-linecap="round" stroke-linejoin="round" stroke-width="2"/><path d="M235.112,373.813l.298,2.837,2.385,1.064s1.789-1.064,2.087-1.596,1.193-1.951,1.044-2.483,0-1.596-.895-1.951.447.177-.895-.355l-1.342-.532-1.789.709-.745.709" fill="#797979"/><path d="M226.297,395.204l.423,3.06,3.384,1.147s2.538-1.147,2.961-1.721,1.692-2.104,1.48-2.677c-.211-.574,0-1.721-1.269-2.104s.634.191-1.269-.382l-1.903-.574-2.538.765-1.057.765" fill="#797979"/><path d="M227.246,406.053l.392,3.06,3.136,1.147s2.352-1.147,2.744-1.721,1.568-2.104,1.372-2.677,0-1.721-1.176-2.104.588.191-1.176-.382l-1.764-.574-2.352.765-.98.765" fill="#797979"/><path d="M232.35,412.35l.342,3.06,2.739,1.147s2.054-1.147,2.396-1.721,1.369-2.104,1.198-2.677,0-1.721-1.027-2.104.513.191-1.027-.382l-1.54-.574-2.054.765-.856.765" fill="#797979"/><path d="M130.585,150.945c-.075.026.178-.031.766.026.582.026,1.222.703,1.326,1.217.117.4.322,1.101.521,1.478,2.376,5.056,9.58,5.259,13.248,1.61,1.486-1.45,2.146-3.479,2.162-5.656.127-4.653,1.276-9.192,2.675-13.533l2.144-6.457c2.146-6.074.849-13.142-4.309-17.264-6.574-6.044-16.543-3.892-21.24,3.315-2.246,3.368-2.673,7.699-2.233,12.072.12,1.216-1.628,1.532-1.964.38-3.337-10.342,2.93-20.306,13.571-22.207,7.526-1.338,14.973,3.466,18.05,10.232,3.338,6.978.212,13.917-2.239,20.523-1.475,4.241-2.67,8.569-2.894,13.004.283,8.109-10.105,12.542-16.171,7.661-1.468-1.12-2.596-2.751-3.117-4.542-.022-.061-.051-.085-.013-.028.032.055.178.125.197.122-.425.097-1.899.105-1.679-1.204.124-.538.661-.874,1.199-.75h0Z" fill="#797979"/><path d="M136.019,139.296c-.408,1.174-.882,2.253-.308,3.293.416.807,1.699,1.383,2.467.904.298-.153.386-.525.435-.832.623-3.341,2.045-6.569,3.522-9.601.995-2.552-1.509-5.304-3.762-6.236-1.85-.618-4.14-.421-5.827.309-.505.248-1.118.032-1.354-.479-.718-2.061,4.196-2.715,5.406-2.552,3.714.031,6.722,3.309,7.28,6.855.346,1.73-.724,3.321-1.345,4.874-.994,2.392-1.744,4.851-2.011,7.418-.089.743-.464,1.48-1.07,1.942-3.081,2.174-7.01-.768-6.945-4.042.067-1.702-.044-4.328,2.202-4.117,1.044.155,1.692,1.283,1.31,2.264h0Z" fill="#797979"/><path d="M120.226,88.147c-.576,1.858-2.184,3.058-3.402,4.149-.91.905-1.953,2.199-2.798,3.262-5.481,7.062-8.447,16.065-8.065,25.027.038,1.357-2.034,1.386-2-.003.315-9.368,2.293-18.882,7.533-26.806.961-1.399,1.705-2.593,2.894-3.916.945-1.012,1.99-1.709,2.371-2.839.788-2.274,4.166-1.194,3.467,1.126h0Z" fill="#797979"/><path d="M165.754,104.427c10.441,7.367,12.712,22.877,6.258,33.585-.747,1.205-2.517-.002-1.645-1.138,5.118-6.441,3.9-17.472-.54-23.985-1.58-2.279-3.675-4.146-6.015-5.585-1.991-1.302-.026-4.242,1.943-2.877h0Z" fill="#797979"/><path d="M163.728,132.29c2.97-4.613,1.713-13.565-2.438-17.065-.444-.241-1.758-.927-1.896-1.518l-.292-1.256c-.09-.366.207-.733.583-.723,7.004.067,8.346,10.313,7.469,15.596-.291,2.021-1.023,3.897-1.636,5.861-.167.534-.736.832-1.27.665-.653-.192-.924-1.016-.521-1.56h0Z" fill="#797979"/><path d="M134.793,132.219c-2.789-2.288-4.778-5.671-4.385-9.346.322-3.536,2.236-7.044,5.571-8.574,3.353-1.694,7.644-1.18,10.387,1.421,2.754,2.676,4.84,6.095,4.37,10.171-.096.941-.96,1.623-1.898,1.481-.995-.138-1.644-1.167-1.346-2.125.902-4.029-2.32-9.207-6.445-10.103-6.452-1.403-12.296,6.66-8.576,12.31.837,1.315,2.002,2.449,3.428,3.097.509.232.734.832.503,1.341-.269.622-1.119.791-1.608.326h0Z" fill="#797979"/></svg>