<?xml version="1.0" encoding="UTF-8"?><svg id="uuid-1168f6cb-e260-43f3-b6b3-866aff8498fc" xmlns="http://www.w3.org/2000/svg" viewBox="0 0 564 587"><path d="M496.16,500.542l-.536,1.436s-1.908,2.237,2.108,2.383c4.016.146,8.014.135,8.662.135s2.025-.614,2.155-1.785-1.248-1.73-2.284-2.609-3.239-2.344-3.886-2.93-2.461-1.611-2.461-1.611l-2.073,1.318-1.166,2.197-.518,1.465Z" fill="#f9fafb"/><path d="M448.855,538.577l.331,2.159,2.319.83,4.473-.664,1.491-.664-.331-2.657s-.663-1.162-1.16-1.993-1.822-1.827-1.822-1.827h-.994l-1.657,1.827-2.651,2.989Z" fill="#f9fafb"/><polygon points="315.179 215.796 322.735 213.289 317.879 197.626 317.722 196.216 308.324 196.755 315.179 215.796" fill="#f9fafb"/><path d="M307.299,221.757l4.132,16.615s5.05,11.769,7.346,14.538,5.509,7.615,11.937,10.384c6.427,2.769,9.412,4.154,18.823,3.231,9.412-.923,11.478-1.154,16.069-5.538s5.739-5.077,8.493-11.307c2.755-6.231,4.666-11.165,3.673-19.615-1.009-8.585-7.436-24.535-8.354-26.843s-5.299-1.49-7.135-1.259-44.195,13.795-44.195,13.795l-10.789,6Z" fill="#f9fafb"/><path d="M418.09,540.576s-14.504,1.282-23.916.802-21.601-2.725-29.933-5.29-21.553-10.132-26.076-14.427c-4.542-4.313-7.869-14.748-8.023-19.076s2.469-12.664,2.469-12.664c0,0,1.543-6.893,8.486-11.221s9.103-8.496,21.756-12.023,25.941-6.874,32.267-6.874,29.142.302,29.142.302c0,0,7.778.379,14.413,3.104s19.532,9.881,23.39,12.125c3.857,2.244,5.4,5.45,8.023,7.855,2.623,2.405,5.555,3.046,6.789,8.496s1.697,12.985-.154,16.511c-1.852,3.527-.075,2.666-5.052,6.163-4.546,3.195-9.609,1.174-9.609,1.174,0,0-5.685,4.61-8.781,3.369-1.725-.691-7.784.238-7.784.238,0,0-3.459,1.029-4.077,1.51s-3.759,3.817-4.221,4.137-3.975,2.732-4.438,2.732-3.269.831-3.269.831c0,0-2.693.907-4.158,3.731-1.495,2.883-4.93,6.251-5.547,7.053s-1.697,1.443-1.697,1.443Z" fill="#f9fafb"/><path d="M320.304,538.992s-.261,1.478.13,2.15,1.695,1.613,2.738,1.882,3.52.134,4.042-.134,1.565-.941,1.825-1.882,1.434-.941.13-2.553c-1.304-1.613-2.086-2.016-3.129-2.419s-1.173-1.075-2.347-.672-2.086,1.613-2.086,1.613l-1.304,2.016Z" fill="#f9fafb"/><path d="M291.807,514.933s1.766-2.867,2.944-4.131c1.177-1.265,2.649-2.192,4.783-2.951s2.355-1.265,4.342.422c1.987,1.686,3.68,5.733,4.489,7.42.809,1.686,2.061,2.192.809,3.794-1.251,1.602-1.177,2.192-2.944,2.192s-3.606-.843-5.004-1.349-3.68-1.686-4.489-2.108-3.312-1.518-3.532-1.686-1.398-1.602-1.398-1.602Z" fill="#f9fafb"/><path d="M244.913,435.901l7.937-6.752,9.951-11.728,7.937-14.926,3.655-13.228s.486-5.397.607-6.025,3.884.377,5.827,1.004,22.578,4.519,22.578,4.519c0,0,13.596.251,19.179-1.381,5.584-1.632,17.966-7.531,17.966-7.531l4.249-3.515,2.229-1.919s12.143,7.102,13.742,7.7c1.497.56,9.898,7.759,12.083,13.031,2.185,5.272,5.449,8.991,5.449,14.263s-.121,13.807-2.913,18.954c-2.792,5.146-7.405,11.548-14.081,16.443-6.676,4.895-14.567,10.418-24.521,12.929-9.954,2.51-14.203,4.519-24.642,4.142-10.439-.377-11.168-.628-21-1.632-9.833-1.004-14.203-1.381-19.786-5.021s-10.318-5.774-12.746-7.657c-2.428-1.883-13.699-11.67-13.699-11.67Z" fill="#f9fafb"/><polygon points="198.392 329.829 212.064 328.67 208.829 324.566 205.802 318.055 204.028 307.44 204.863 303.515 201.002 311.722 198.914 319.839 198.079 324.12 198.184 328.134 198.392 329.829" fill="#f9fafb"/><path d="M204.238,302.015l18.056-12.399s12.076-2.834,16.446-3.306c4.37-.472,19.552-4.841,19.552-4.841,0,0,7.706-1.417,10.811-1.063,3.105.354,6.556,1.063,12.996,3.661,6.441,2.598,19.23,8.44,25.785,9.149,6.556.708,14.353,7.147,16.653,9.272,2.3,2.125,5.52,8.974,9.086,12.989,3.565,4.015,7.425,10.264,10.53,13.453,3.105,3.188,5.06,7.55,6.433,10.98,1.2,2.999,4.429,10.755,3.279,15.597-1.15,4.841-2.07,12.162-7.131,16.532-5.06,4.369-6.556,6.731-11.041,8.502-4.485,1.771-14.031,5.432-20.702,5.786-6.671.354-17.251-1.063-24.497-1.417s-14.849-2.956-15.884-3.074-2.062-13.885-3.327-17.192-8.865-17.678-12.2-20.63c-3.335-2.952-10.423-9.535-19.853-11.424-9.431-1.889-14.103-3.971-19.853-4.326s-10.759-.222-10.759-.222c-2.995.665-13.199,4.215-11.424-2.329.789-2.91-.216-1.063.555-5.435.808-4.586,1.545-13.421,6.49-18.263Z" fill="#f9fafb"/><path d="M133.315,411.13l2.994-10.09s4.038-13.857,4.854-18.22c.816-4.363,6.032-16.139,6.032-16.139l13.335-14.998,15.627-12.345,18.167-7.892,13.831-2.669,13.607.273s26.942,5.181,29.663,8.181,14.151,14.18,14.151,14.18l7.348,14.725s4.354,10.635.544,23.724c-3.81,13.089-2.721,17.725-13.879,30.269-11.158,12.544-25.037,22.906-37.556,28.36-12.519,5.454-31.841,10.09-42.454,9.271-10.614-.818-26.67-6.545-30.48-10.362-3.81-3.818-7.076-7.635-8.164-9.271-1.089-1.636-7.076-12.816-7.62-16.634s0-10.362,0-10.362Z" fill="#f9fafb"/><path d="M352.673,203.635l-3.1-12.401s-3.729-12.394-6.086-15.042-7.878-7.343-9.646-7.464-6.966-.493-8.497.23-4.823,3.1-4.823,3.1l-3.445,4.478-.459,1.722-9.875.919s.218-7.08.689-7.923,4.108-6.311,5.971-7.004c1.982-.738,5.101-3.07,7.929-3.792,2.828-.722,3.299-2.046,8.13-1.806,4.831.241,7.187.602,11.311,3.13,4.124,2.528,7.069,6.139,9.19,9.39,2.121,3.25,5.891,10.714,6.362,13.483s4.242,13.964,4.242,13.964l1.178,2.528-9.071,2.489Z" fill="#f9fafb"/><path d="M137.71,183.16c-1.169,5.349-3.552,10.42-6.719,14.865-3.107,4.427-7.004,8.165-10.391,12.332-14.592,16.785-18.328,37.327-20.082,58.817-3.35,42.456-3.105,85.489,1.03,127.886,1.671,15.732,2.405,31.923,9.224,46.305,14.026,28.527,53.756,34.174,82.037,39.763,42.053,7.504,85.241,7.269,127.421.872,2.658-.357,5.271-.737,7.885-1.236,2.728-.363,5.451-1.688,8.217-.841.441.094.721.528.627.969-.094.438-.525.717-.962.628-1.363-.319-2.237-.324-3.597.074-3.914.96-7.932,1.658-11.903,2.238-42.373,7.06-85.843,7.82-128.236.507-25.895-4.87-55.239-8.98-75.168-27.838-8.043-7.719-12.656-18.356-15.028-29.048-4.253-21.248-5.341-42.617-6.838-64.114-1.296-21.126-1.21-43.163-.259-64.357,1.057-21.422,1.598-43.28,7.784-64.008,1.646-5.188,3.772-10.24,6.433-15.004,3.939-7.19,9.374-13.315,14.957-19.196,5.478-5.638,10.06-12.297,11.977-19.991.11-.437.554-.702.991-.592.428.108.691.538.598.967h0Z" fill="#797979"/><path d="M353.916,174.723c3.719-1.396,7.673-1.807,11.508-2.715,4.297-1.018,8.624-2.08,12.692-3.662,4.326-1.682,8.389-4.333,10.003-9.138,1.13-3.366,1.453-6.852,1.135-10.492-.377-4.316-1.914-7.951-4.582-11.248-3.321-4.103-7.929-6.422-12.799-7.242-2.597-.437-3.632-1.335-4.726-3.242-7.643-13.322-19.036-22.659-32.24-29.996-11.99-6.662-24.827-11.019-38.237-13.791-2.255-.466-4.554-.72-6.762-1.453-2.046-.679-2.562-1.379-1.721-3.26,1.289-2.882,1.954-5.903,2.212-9.011.617-7.434-1.464-14.18-6.027-19.965-7.662-9.714-17.928-14.473-30.194-13.155-13.202,1.419-23.575,7.737-28.715,20.641-2.79,7.005-2.431,14.165.185,21.237,1.04,2.812.676,3.411-2.236,3.982-4.943.969-9.887,1.907-14.752,3.247-7.158,1.971-14.196,4.238-21.01,7.232-6.712,2.948-13.044,6.489-18.997,10.767-9.525,6.845-17.24,15.286-22.988,25.516" fill="none" stroke="#797979" stroke-linecap="round" stroke-linejoin="round" stroke-width="2.5"/><path d="M142.666,130.223c-7.475,1.56-13.755,4.772-16.477,12.508-2.347,6.671-2.69,13.305,1.495,19.479,2.746,4.052,6.796,6.14,11.476,7.284,7.706,1.883,15.379,3.849,23.247,5.034,5.994.902,11.984,1.761,18,2.515,6.243.783,12.488,1.43,18.755,1.973,6.912.599,13.827,1.074,20.747,1.554,9.419.653,18.835.691,28.253,1.008,5,.168,10.028.699,14.997.31,7.009-.549,14.031.045,21-.505,6.75-.533,26.791-1.296,33.491-2.449.335-.058-16.743,1.616-16.421,1.482" fill="none" stroke="#797979" stroke-linecap="round" stroke-linejoin="round" stroke-width="3"/><path d="M376.916,183.223c2.687,9.668,8.927,17.094,15.524,24.228,9.897,10.703,16.39,23.085,19.237,37.395,1.965,9.877,3.194,19.841,4.023,29.874.798,9.657,1.085,19.339,1.692,29.004.172,2.742.163,5.5.231,8.25.153,6.164.243,12.336.234,18.499-.018,11.501-.181,23.009-.734,34.498-.438,9.089-.983,18.182-1.761,27.247-.926,10.78-1.94,21.577-3.761,32.243-2.01,11.775-6.293,22.64-14.69,31.505-.903.954-1.668,1.963-1.994,3.256" fill="none" stroke="#797979" stroke-linecap="round" stroke-linejoin="round" stroke-width="2"/><path d="M144.166,130.723c-.115,3.76.374,4.38,3.996,5.761,7.023,2.679,14.38,3.817,21.745,5.043,5.985.996,12.016,1.583,18.023,2.336,2.533.318,5.135.584,7.734.681,4.753.177,9.507.633,14.242,1.049,4.252.373,8.529.61,12.765.758,6.744.236,13.484.896,20.246.628,5.503-.218,10.998.349,16.5.237,11.417-.231,22.847-.172,34.247-.8,9.173-.505,18.348-1.041,27.51-1.871,11.849-1.073,23.607-2.608,35.242-5.079,3.336-.708,6.584-1.763,9.738-3.026,3.672-1.47,3.759-1.799,3.513-5.968" fill="none" stroke="#797979" stroke-linecap="round" stroke-linejoin="round" stroke-width="2.5"/><path d="M305.904,179.888c-1.113-11.336,6.151-18.023,16.944-21.262,14.222-4.268,25.309,5.975,30.861,17.959,3.575,7.717,5.037,15.878,7.957,23.781" fill="none" stroke="#797979" stroke-linecap="round" stroke-linejoin="round" stroke-width="2"/><path d="M136.476,170.034c-3.605,3.673-1.576,10.068,2.969,11.826,5.454,1.911,11.045,3.478,16.673,4.769,10.918,2.703,23.401,3.905,34.662,4.675,23.501,1.788,47.048,2.952,70.605,3.684,11.673.228,23.574.768,35.243.521,3.85-.246,7.792-.669,11.761-.9.828-.051,1.542.581,1.59,1.41.047.811-.562,1.51-1.366,1.581-5.782.525-11.878,1.565-17.761,1.486,0,0-5.91.073-5.91.073-31.529.306-63.062-.873-94.509-3.117-17.362-.871-34.76-3.706-51.05-9.96-5.122-1.515-8.741-6.711-8.139-12.044-.003-1.954,2.885-8.264,5.232-6.051.541.58.532,1.475,0,2.045h0Z" fill="#797979"/><path d="M318.914,194.773c-.384,5.271,2.15,10.164,3.551,15.22.306,1.051.379,2.059,1.722,1.616,2.434-.713,9.002-2.665,11.516-3.413,7.735-2.126,15.275-5.143,23.054-6.984,4.36-1.421,8.441-2.483,11.626,1.832,2.187,3.466,3.141,7.505,4.652,11.297,1.356,3.784,2.366,7.78,3.085,11.734,1.421,6.693,1.264,13.728-.617,20.352-1.664,5.347-4.897,10.106-8.93,13.945-12.685,12.001-33.889,12.365-46.799.484-10.356-9.234-14.126-23.43-16.487-36.561-.808-3.776.901-7.396,4.375-9.102.195-.113.365-.227.421-.277.067-.058.021-.006.003.092.011-.485-1.334-4.457-1.583-5.371-1.279-4.256-2.389-8.698-2.777-13.17.125-.525-.289,1.083.279-1.193.741-.802.734-.54.848-.655.356-.122.792-.178,1.145-.224,2.697-.287,5.355-.545,8.053-.601.542-.018,1.132,0,1.671-.003.075.008.072.005.02.037.25.216-.781-.53-.283,1.602-.914-.91.478-2.346,1.414-1.414.521,2.178-.579,1.448-.358,1.682l-.156.066c-3.333,1.196-7.001,1.291-10.399,2.014.03-.008.015-.002.081-.025.075-.1.027.176.74-.595.547-2.24.157-.587.281-1.071l.01.06c.778,5.422,2.785,10.795,4.734,15.929,1.219,2.625,1.13,5.325-1.65,7.034-.567.356-1.32.904-1.639,1.408-.527.65-.521,1.871-.29,2.863,2.213,9.669,4.785,19.579,10.28,27.938,5.875,8.768,16.198,14.402,26.823,13.927,15.037-.351,28.536-11.81,29.611-27.132.881-7.895-.887-15.808-3.337-23.286-.841-2.52-1.779-5.018-2.709-7.527-.873-2.92-2.856-5.925-6.162-6.056-1.934-.113-3.776.784-5.666,1.19-2.625.648-5.203,1.168-7.681,2.116-7.302,2.57-15.537,4.99-22.974,7.264,0,0-3.852,1.214-3.852,1.214-.799.259-1.976.271-2.614-.473-.667-.735-.78-1.556-.98-2.13-1.563-5.129-4.245-10.142-4.052-15.753.07-1.323,2.059-1.25,1.998.1h0Z" fill="#797979"/><path d="M343.128,362.676c3.928-4.559,8.123-9.772,10.583-15.286" fill="none" stroke="#797979" stroke-linecap="round" stroke-linejoin="round" stroke-width="2"/><path d="M353.707,346.859c-1.342-3.976-5.47-15.375-8.331-18.348-5.547-5.764-9.878-12.392-14.207-19.04-3.633-5.579-8.012-10.373-14.004-13.497-4.347-2.266-9.08-3.501-13.77-4.671-5.377-1.342-10.408-3.453-15.498-5.537-7.502-3.07-15.154-5.623-23.484-5.068-4.563.304-8.886,1.624-13.243,2.796-6.159,1.657-12.399,2.657-18.749,3.291-8.191.818-21.383,10.163-27.75,15.994" fill="none" stroke="#797979" stroke-linecap="round" stroke-linejoin="round" stroke-width="3"/><path d="M204.166,302.723c-4.763,7.696-8.515,17.959-6.5,26.75" fill="none" stroke="#797979" stroke-linecap="round" stroke-linejoin="round" stroke-width="2"/><path d="M346.166,373.473c6.024,3.144,12.011,6.302,17.276,10.719,7.317,6.136,12.081,13.833,14.129,23.052.938,4.219.794,12.422-.656,16.729" fill="none" stroke="#797979" stroke-linecap="round" stroke-linejoin="round" stroke-width="2"/><path d="M377.914,424.027c-.008,3.524-1.97,6.531-3.437,9.549-10.212,19.462-38.381,31.328-59.592,31.857-9.084.194-18.16-.634-27.068-2.348-3.176-.535-7.615-1.067-10.786-1.594-3.987-.718-7.678-2.586-10.822-4.605-5.604-3.603-10.531-7.963-15.298-12.526-2.369-2.246-4.652-4.57-6.902-6.908-.384-.399-.371-1.033.027-1.416.371-.357.946-.37,1.333-.05,5.006,4.133,9.866,8.385,15.08,12.092,5.216,3.692,10.976,7.774,17.244,8.78,4.145.477,9.209.957,13.324,1.644,14.036,2.049,28.461,2.676,42.248-1.309,11.96-3.375,23.791-9.243,32.838-17.799,2.229-2.165,4.228-4.571,5.848-7.232,1.633-2.846,3.646-5.367,3.965-8.241.057-.552.554-.954,1.106-.892.512.057.891.495.891.999h0Z" fill="#797979"/><path d="M142.964,206.975c-2.473,4.672-6.086,8.324-8.786,12.266-2.816,3.974-5.304,8.158-7.416,12.515-6.397,13.162-8.99,27.835-9.983,42.418-.818,9.641-1.43,20.101-2.109,29.736-.147,2.062-.531,5.254-.497,7.301.003,2.405.172,4.937-.008,7.554-.057.827-.773,1.452-1.6,1.395-.786-.054-1.39-.705-1.398-1.479-.086-3.554-.765-7.56-.565-11.258.249-11.059.538-22.529,1.328-33.604,1.026-20.145,6.23-40.896,19.107-56.918,3.201-4.066,6.797-7.453,9.335-11.436,1.009-1.54,3.47-.224,2.592,1.509h0Z" fill="#797979"/><path d="M138.885,431.383c-.045,2.334,1.733,3.627,3.1,5.653,1.458,2.042,2.94,3.969,4.639,5.734,10.154,10.84,25.738,14.691,40.218,13.791,20.257-1.294,38.711-10.993,55.704-21.612,1.555-.982,3.239,1.266,1.707,2.467-4.139,3.12-8.452,6.005-12.876,8.729-17.71,11.039-39.067,18.752-60.169,14.893-13.337-2.15-25.872-10-32.425-21.96-1.362-2.176-3.567-5.074-2.87-8.097.4-1.826,3.082-1.449,2.973.401h0Z" fill="#797979"/><path d="M242.865,434.646c22.551-17.473,38.009-48.361,24.851-75.992-1.193-2.048-2.762-4.547-3.97-6.577-.533-.957-1.211-1.961-1.555-2.979-.451-1.3,1.34-2.288,2.194-1.207,1.921,2.387,3.516,5.329,5.131,7.935,13.184,24.824,3.023,53.561-15.614,72.526-2.968,2.992-6.162,5.703-9.396,8.312-1.321,1.014-2.959-.879-1.642-2.019h0Z" fill="#797979"/><path d="M263.348,348.677c-8.437-10.479-19.488-15.418-32.371-18.435-6.269-1.468-12.625-2.151-19.06-1.979-3.889.104-7.679,1.063-11.533,1.509-5.073.587-9.677,2.748-14.285,4.739-13.704,5.919-25.491,14.48-35.393,25.636-4.419,4.979-6.798,10.897-7.925,17.236-1.291,7.262-4.013,13.973-6.858,20.678-2.24,5.281-4.062,10.779-4.101,16.46-.029,4.267,3.277,14.775,5.295,18.778" fill="none" stroke="#797979" stroke-miterlimit="10" stroke-width="2.5"/><path d="M332.053,493.964c-.815.735-1.03,1.426-1.094,2.625-.183,3.578-.12,7.314.802,10.778,3.7,14.63,18.574,22.095,31.796,26.65,13.993,4.814,28.807,7.129,43.584,6.453,4.888-.16,9.699-.7,14.146-2.811,1.112-.583,2.105,1.102.941,1.765-4.451,2.671-9.744,3.665-14.848,4.135-24.337,2.962-73.081-7.199-78.482-35.552-.774-3.884-.658-7.751-.21-11.648.095-1.378.887-3.131,2.081-3.928,1.022-.781,2.225.683,1.285,1.532h0Z" fill="#797979"/><path d="M420.889,537.418c1.106-2.392,2.551-4.243,3.85-6.424,1.432-2.411,4.177-3.914,6.758-4.508,1.387-.31,2.881-.526,3.937-1.519.978-.949,1.981-2.697,3.174-3.676,2.602-2.655,7.04-3.731,10.384-3.109.469-.003,1.438-.063,1.909-.09.516-.035,1.58-.11,2.094-.155,0,0,.123-.013.123-.013.008,0,.064-.008.031-.001-.029.007-.057.018-.083.034.524-.21,1.12.044,1.33.569.274.667-.229,1.357-.92,1.427-.284.061-.832.144-1.126.192-.985.135-2.319.323-3.305.398-4.752-.533-8.265,1.411-10.821,5.359-1.427,1.969-3.817,2.779-6.101,3.138-2.166.53-4.106,1.452-5.322,3.277-1.284,2.008-2.968,4.01-4.087,6.021-.628,1.11-2.347.268-1.826-.92h0Z" fill="#797979"/><path d="M453.817,517.853c1.078-.145,2.063-.501,2.916-1.141,2.936-2.105,6.784-2.534,10.226-1.652.572.133.456.136.831.093,1.422-.259,2.974-.969,4.364-1.564,1.202-.506,2.001,1.273.809,1.829-.747.334-1.521.673-2.312.979-1.154.397-2.516,1.04-3.871.717-2.625-.677-5.513-.617-7.905.743-1.452.96-3.069,1.95-4.861,1.983-.551.036-1.027-.382-1.063-.934-.035-.529.35-.988.866-1.057h0Z" fill="#797979"/><path d="M472.916,513.973c3.854-4.908,6.443-10.886,5.31-17.011-.56-3.03-.734-6.106-2.56-8.739" fill="none" stroke="#797979" stroke-linecap="round" stroke-linejoin="round" stroke-width="2"/><path d="M475.435,487.862c-3.845-4.377-11.927-13.016-17.281-15.11-6.765-2.647-13.047-6.244-19.48-9.545-3.788-1.944-7.74-3.07-12.008-2.978-2.34.051-4.634-1.08-7-.255" fill="none" stroke="#797979" stroke-linecap="round" stroke-linejoin="round" stroke-width="2"/><path d="M419.666,459.973c-5.331.283-13.917.213-19.25.221-1.33.002-2.616-.71-4-.471" fill="none" stroke="#797979" stroke-linecap="round" stroke-linejoin="round" stroke-width="2"/><path d="M395.846,459.787c-14.067,1.356-31.112,4.659-43.681,11.435-4.718,2.544-8.979,5.681-13.06,9.18-3.363,2.884-6.014,8.858-7.694,12.796" fill="none" stroke="#797979" stroke-linecap="round" stroke-linejoin="round" stroke-width="2"/><path d="M403.162,372.641c.649,11.76-.407,23.084-1.756,34.682-1.818,18.273-8.174,38.965-25.614,47.987-.358.169-.348.384-.755.796-.26.301-.815.599-1.279.614-.573.033-.976-.635-.681-1.124,0,0,.496-.867.496-.867.016-.028-.088.033-.029-.025.309-.487.667-.984,1.203-1.267,12.48-7.369,18.889-21.526,21.604-35.286,1.896-11.103,3.452-22.65,4.133-33.967.205-3.939.825-7.682.685-11.376-.06-1.181,1.791-1.489,1.993-.165h0Z" fill="#797979"/><path d="M266.605,353.65c-1.266,2.3.402,7.058.6,9.297.323,3.641.671,7.344.238,10.865-.433,3.521-.899,7.481-2.809,10.73-2.406,4.095-6.922,7.139-8.56,11.624-1.068,2.923,1.43,7.142.367,10.067-1.232,3.388-6.526,4.672-8.762,7.231s-4.614,4.864-7.418,6.974c-3.105,2.337-6.533,4.152-9.74,6.344" fill="none" stroke="#797979" stroke-linecap="round" stroke-linejoin="round" stroke-width="2"/><path d="M354.051,345.477c2.118,1.606,1.967,4.747,1.802,7-.234,6.841-2.405,13.576-6.373,19.22-5.326,7.562-13.578,12.426-22.273,15.124-15.148,4.871-31.218,2.37-46.072-1.999-2.149-.645-4.138-1.293-6.326-1.909-1.155-.45-.632-2.22.61-1.904,4.149.782,8.526,2.008,12.698,2.719,8.396,1.52,17.036,2.518,25.516,1.775,12.267-1.229,25.149-5.956,32.83-16.009,3.771-4.942,6.029-11.03,6.788-17.225.176-1.931.805-3.852-.552-5.318-.89-.893.39-2.273,1.352-1.474h0Z" fill="#797979"/><path d="M376.742,422.35c-2.994,1.254-5.227,4.618-8.054,6.163-6.963,3.805-13.102,8.844-19.52,13.462-3.142,2.26-6.728,2.95-10.499,3.276-7.542.653-15.192.551-22.503,2.971" fill="none" stroke="#797979" stroke-linecap="round" stroke-linejoin="round" stroke-width="2"/><path d="M332.234,493.223c1.755,1.812,1.867,5.136,2.897,7.267,1.865,3.858,3.729,7.655,6.483,11.025,2.483,3.039,5.751,4.399,9.312,5.158,4.028.858,7.904,2.065,11.475,4.075,4.622,2.602,9.432,4.534,14.764,4.975" fill="none" stroke="#797979" stroke-linecap="round" stroke-linejoin="round" stroke-width="2"/><path d="M214.913,96.692c-17.367,5.316-34.692,13.229-46.938,27.032-.409.433-.982,1.197-1.465,1.519-.574.41-.78.366-.986.862-.452.931-1.931.531-1.851-.498.037-1.11,1.071-1.694,1.662-2.269,9.998-13.743,25.648-22.393,41.774-26.895,2.427-.631,4.857-1.223,7.31-1.688.544-.103,1.068.254,1.171.798.095.502-.203.987-.677,1.14h0Z" fill="#797979"/><path d="M472.916,513.973c-1.569-2.161-2.437-4.759-4.963-6.31-3.419-2.1-6.785-2.712-10.542-1.203-2.903,1.166-5.84,1.302-9.007.851-5.384-.767-10.342.08-13.538,5.382-1.147,1.903-3.168,2.83-5.441,3.319-5.857,1.258-7.445,1.724-8.99,9.215-.311,1.507-.387,3.033-.985,4.51-1.313,3.241-.925,6.302,1.467,8.987" fill="none" stroke="#797979" stroke-linecap="round" stroke-linejoin="round" stroke-width="2"/><path d="M345.017,223.292c-2.587.772-4.785,1.898-5.565,4.692-.927,3.319.873,5.856,3.289,7.638,1.264.933,1.49,1.84,1.69,3.1.333,2.098.153,4.275,1.214,6.263,1.272,2.386,3.828,3.611,6.005,2.459,3.117-1.65,3.635-3.18,2.558-5.986-.323-.842-.683-1.661-1.041-2.484-1.609-3.692-1.764-3.723-.96-7.742.924-4.614-3.116-7.908-6.791-8.008-.281-.008.177.303,0,0" fill="#797979" stroke="#797979" stroke-linecap="round" stroke-linejoin="round" stroke-width="2"/><path d="M304.416,422.473c.793,3.659,2.765,4.705,6.51,5.173,2.368.296,4.824.244,7.255-.364,1.974-.494,3.486-1.403,3.928-3.322.45-1.949-.087-3.833-1.694-5.235-3.169-2.764-8.72-5.093-13.338-1.105-1.604,1.385-2.171,2.842-2.661,4.603" fill="none" stroke="#797979" stroke-linecap="round" stroke-linejoin="round" stroke-width="2"/><path d="M353.598,394.6c-.021.314-3.143-1.016-3.334.062-.584,3.29-4.489,1.389-6.453,3.136" fill="none" stroke="#797979" stroke-linecap="round" stroke-linejoin="round" stroke-width="2"/><path d="M344.166,403.223c3.356,2.967,7.575,3.63,11.759,4.18,1.502.197,2.968-.361,3.798-2.154,1.053-2.276,1.005-4.537-.131-6.484-1.576-2.701-4.204-4.042-7.427-4.293" fill="none" stroke="#797979" stroke-linecap="round" stroke-linejoin="round" stroke-width="2"/><path d="M276.166,323.723c2.257,1.498,4.493,2.942,7.24,3.544,3.479.763,6.27-.039,7.51-2.544,1.033-2.088-.267-6.299-2.502-7.997-4.788-3.639-8.549-3.236-12.483.264-1.012.9-2.407,1.389-3.015,2.733" fill="none" stroke="#797979" stroke-linecap="round" stroke-linejoin="round" stroke-width="2"/><path d="M331.666,369.723c-3.888,2.487-8.048,3.983-12.75,4.034-5.319.059-10.521-.676-15.762-1.46-4.775-.714-9.632-1.028-14.489-.825" fill="none" stroke="#797979" stroke-linecap="round" stroke-linejoin="round" stroke-width="2"/><path d="M404.291,511.473c-.494-3.893-3.621-4.924-6.632-5.979-3.086-1.082-8.285.801-9.993,3.479-1.827,2.865-.409,6.088,3.256,7.23,1.21.377,2.494.52,3.744.77" fill="none" stroke="#797979" stroke-linecap="round" stroke-linejoin="round" stroke-width="2"/><path d="M394.916,516.973c2.457.079,4.833-.272,6.994-1.511,1.428-.819,2.496-1.941,2.506-3.739" fill="none" stroke="#797979" stroke-linecap="round" stroke-linejoin="round" stroke-width="2"/><path d="M350.041,493.973c1.252,3.042,4.8,4.877,8.873,4.477,1.26-.124,2.586-.201,3.741-.752,1.7-.811,3.232-1.871,3.51-3.976.294-2.226-.696-3.77-2.488-5.014-4.646-3.225-11.541-.954-13.498,4.519-.204.571.582-.519.155-.541" fill="#797979" stroke="#797979" stroke-linecap="round" stroke-linejoin="round" stroke-width="2"/><path d="M256.166,425.473c3.24,4.127,7.011,7.622,12.009,9.475,3.643,1.351,7.476,2.081,11.242,3.022,5.308,1.326,10.301,3.479,15.249,5.753" fill="none" stroke="#797979" stroke-linecap="round" stroke-linejoin="round" stroke-width="2"/><path d="M483.897,526.165c.74-.073-.365-.083-.258.646.326,2.218,1.986,4.723,2.478,6.918.219.979,1.066,1.339,2.209,1.3,2.569-.088,4.852-.85,6.731-2.559,1.761-1.601,1.744-3.771.005-5.468-2.134-2.082-4.934-2.674-7.743-2.966-1.729-.179-2.842,1.099-3.745,2.453" fill="#797979" stroke="#797979" stroke-linecap="round" stroke-linejoin="round" stroke-width="2"/><path d="M347.749,193.032c-7.183.594-15.298,2-22.463,2.702-2.466.325-4.908.685-7.191,1.351-1.015.296-2.078-.287-2.374-1.302-.325-1.088.397-2.239,1.516-2.423,5.102-.882,10.112-.984,15.149-1.708,4.309-.586,10.544-1.683,14.902-2.414,2.605-.359,3.093,3.512.461,3.795h0Z" fill="#797979"/><path d="M342.746,177.122c-1.892-2.973-4.417-5.313-6.57-6.712-6.451-4.194-15.108-1.508-19.004,6.125-.647,1.268.127,2.364,1.738,2.156,3.661-.474,7.356-.584,11.01-1.156,3.489-.546,7.051-.609,10.498-1.481,1.276-.323,1.918.307,2.538,1.434,2.095,3.811,3.554,7.798,4.84,11.95,1.36,4.392,2.895,8.727,3.87,13.226" fill="none" stroke="#797979" stroke-linecap="round" stroke-linejoin="round" stroke-width="3"/><path d="M250.416,47.473c-1.803,1.284-3.873,2.087-5.777,3.203-6.679,3.914-9.781,9.564-8.959,17.295.063.594-.5,1.168-.014,1.751" fill="none" stroke="#797979" stroke-linecap="round" stroke-linejoin="round" stroke-width="2"/><path d="M302.166,394.473c2.362.237.938.1,1.5.252,2.112.57,4.35,1.046,5.741,3.005,1.204,1.696,1.046,3.28-.5,4.481-3.461,2.692-12.268,1.832-13.366-2.738" fill="none" stroke="#797979" stroke-linecap="round" stroke-linejoin="round" stroke-width="2"/><path d="M204.672,302.779c.798,1.166.217,2.505-.057,3.682-1.509,6.473.821,12.053,3.81,17.507.656,1.196,1.508,2.298,1.491,3.755" fill="none" stroke="#797979" stroke-linecap="round" stroke-linejoin="round" stroke-width="2"/><path d="M443.801,490.528c-.006,1.679,0-1.556,1.16-1.16,2.108.718,4.087,1.335,4.906,3.309.603,1.455-.039,2.963-1.635,3.999-2.817,1.829-5.665,2.847-9.029,1.727-2.935-.977-3.946-3.895-1.976-6.248,1.469-1.754,5.074-2.55,7.351-2.859" fill="#797979" stroke="#797979" stroke-linecap="round" stroke-linejoin="round" stroke-width="2"/><path d="M286.666,349.223c-1.048-3.689-3.694-5.822-7.5-5.993-1.56-.07-2.657.527-3.558,1.956-.899,1.425-.333,2.472.332,3.522,1.334,2.108,3.298,3.458,5.73,4,3.133.699,3.613-.085,4.997-3.235" fill="none" stroke="#797979" stroke-linecap="round" stroke-linejoin="round" stroke-width="2"/><path d="M265.416,293.223c-1.48.236-2.787.907-3.719,2.026-.871,1.045-.897,2.432,0,3.446,1.55,1.753,3.603,2.582,5.966,2.805,2.306.217,3.741-1.133,2.729-3.768-.846-2.202-2.143-4.065-4.727-4.509" fill="none" stroke="#797979" stroke-linecap="round" stroke-linejoin="round" stroke-width="2"/><path d="M137.166,430.973c1.284-.317,2.253.395,3.249,1.002,5.037,3.067,9.961,6.317,14.73,9.778,4.003,2.905,8.577,3.586,13.272,3.959,4.294.341,8.515-.449,12.749-.988" fill="none" stroke="#797979" stroke-linecap="round" stroke-linejoin="round" stroke-width="2"/><path d="M457.666,538.223c-.446-2.434-1.923-3.77-3.785-4.394-2.12-.711-2.806,1.717-3.922,2.933-.906.988-1.409,2.546-.482,3.661,1.06,1.274,2.952,1.712,4.402,1.195,1.519-.542,3.918-.515,3.913-3.145" fill="none" stroke="#797979" stroke-linecap="round" stroke-linejoin="round" stroke-width="2"/><path d="M429.916,468.973c2.729.663,5.172,1.686,6,4.75" fill="none" stroke="#797979" stroke-linecap="round" stroke-linejoin="round" stroke-width="2"/><path d="M434.166,476.723c-3.784,1.474-7.423.811-11-.75" fill="none" stroke="#797979" stroke-linecap="round" stroke-linejoin="round" stroke-width="2"/><path d="M422.916,475.723c-1.576-2.497.649-3.34,2.014-4.484,1.368-1.147,3.12-1.586,4.736-2.266" fill="none" stroke="#797979" stroke-linecap="round" stroke-linejoin="round" stroke-width="2"/><path d="M323.166,534.473c-1.986.617-2.771,2.464-3.392,4.043-.588,1.493-.192,3.201,1.622,4.242,2.317,1.329,5.668.784,7.292-1.267,1.192-1.506.951-2.959-.057-4.24-1.288-1.638-3.089-2.579-5.215-2.777" fill="none" stroke="#797979" stroke-linecap="round" stroke-linejoin="round" stroke-width="2"/><path d="M379.771,168.218c1.19,1.766,3.392,3.628,3.648,6.017,1.034,4.692-2.439,9.263-6.574,11.174-2.882,1.049-5.517,2.104-8.449,3.147-1.469.497-3.011.909-4.567,1.14-1.251.212-2.917.772-4.664.747-1.824-.043-2.002-2.71-.202-2.992,5.459-1.196,10.769-4.365,16.063-6.161,1.938-.866,3.816-2.788,4.412-4.86.37-1.761-.213-3.285-1.309-4.774-.732-1.044-2.221-3.619-.139-4.274.733-.205,1.473.177,1.779.837h0Z" fill="#797979"/><path d="M272.791,527.473c-.397-2.527-2.092-4.086-4.625-4.25-1.616-.105-4.399,1.921-5.026,3.49-.384.96-.146,1.635.529,2.257,1.701,1.568,7.761,2.258,8.784.02.209-.457.129-.85.213-1.267" fill="#797979" stroke="#797979" stroke-linecap="round" stroke-linejoin="round" stroke-width="2"/><path d="M474.416,488.223c-1.462,1.837-.988,4.206-1.65,6.282-.43,1.349-.868,2.778-1.1,4.218" fill="none" stroke="#797979" stroke-linecap="round" stroke-linejoin="round" stroke-width="2"/><path d="M326.971,211.749c-4.907,3.465-10.572,5.807-16.349,7.364-1.834.415-2.606-2.233-.846-2.878,2.397-.846,5.959-1.81,8.441-2.51l4.248-1.191c1.413-.412,2.821-.837,4.234-1.298.304-.112.536.325.272.514h0Z" fill="#797979"/><path d="M302.166,394.473c-3.242.605-5.39,1.042-6.779,4.741-.025.066.602.893.352.893" fill="none" stroke="#797979" stroke-linecap="round" stroke-linejoin="round" stroke-width="2"/><path d="M160.166,375.473c-.996.616-2.288.032-3.277.971-1.284,1.218-2.163,2.442-1.473,4.279" fill="none" stroke="#797979" stroke-linecap="round" stroke-linejoin="round" stroke-width="2"/><path d="M278.666,413.223c-1.434.77-3.118,1.187-3.997,2.752-1.091,1.942-.48,3.799,1.75,5.244,2.23,1.444,4.834,1.596,6.948.417,4.156-2.319,3.362-5.139.066-7.436-1.423-.992-2.94-.987-4.517-.976" fill="#797979" stroke="#797979" stroke-linecap="round" stroke-linejoin="round" stroke-width="2"/><path d="M161.666,398.223c-3.14,1.145-5.845,2.921-8.001,5.499-1.951,2.334-2.671,6.281-1.499,8.251,1.197,2.012,5.739,3.593,8.483,2.697,1.342-.439,2.803-.706,4.003-1.47,2.349-1.494,3.147-4.524,2.266-7.977-.34-1.332-.625-2.679-1.011-3.997-.988-3.371-1.417-3.136-3.991-3.003" fill="#797979" stroke="#797979" stroke-linecap="round" stroke-linejoin="round" stroke-width="2"/><path d="M500.166,495.473c-2.367,1.176-3.879,3.128-4.863,5.505-.799,1.93-.319,3.232,1.622,3.704,3.451.84,6.859.321,10.252-.668,1.705-.497,1.45-1.635.941-2.515-1.482-2.562-3.83-3.719-6.463-5.479-1.094-.731-.739-.592-1.24-.548" fill="none" stroke="#797979" stroke-linecap="round" stroke-linejoin="round" stroke-width="2"/><path d="M300.416,506.973c-3.496,1.415-6.679,3.204-8.533,6.733-.269.511-.61,1.73-.37,2.151" fill="none" stroke="#797979" stroke-linecap="round" stroke-linejoin="round" stroke-width="2"/><path d="M291.693,516.04c3.43,1.493,9.005,5.133,12.723,5.128,3.975-.005,5.847-2.512,4.251-6.696-.595-1.559-1.429-2.937-2.449-4.289-1.451-1.922-3.115-3.148-5.552-3.211" fill="none" stroke="#797979" stroke-linecap="round" stroke-linejoin="round" stroke-width="2"/><path d="M345.416,422.973c-.992.597-2.103.942-3.017,1.731-2.456,2.12-2.295,4.397.517,6.019,2.59,1.494,6.93-.186,7.75-3,.509-1.748-1.427-4.394-3.338-4.911-.812-.219-1.058.222-1.912.161" fill="none" stroke="#797979" stroke-linecap="round" stroke-linejoin="round" stroke-width="2"/><path d="M197.666,382.223c-3.137,1.118-5.682,2.85-5.973,6.502-.216,2.722,2.787,5.064,5.196,3.941,2.364-1.102,4.312-2.919,5.251-5.452,1.123-3.029-.57-4.952-4.224-4.99" fill="none" stroke="#797979" stroke-linecap="round" stroke-linejoin="round" stroke-width="2"/><path d="M238.416,377.223c-2.188.845-4.446,1.541-6.006,3.495-2.986,3.74-2.582,10.987,3.467,12.648,1.859.51,3.192.033,4.232-.723,3.173-2.308,5.212-5.539,6.047-9.423.638-2.973-1.904-5.98-4.989-5.997-.833-.005-1.667,0-2.5,0" fill="none" stroke="#797979" stroke-linecap="round" stroke-linejoin="round" stroke-width="2"/><path d="M385.916,468.223c-1.619.765-3.325,1.248-4.792,2.448-2.032,1.662-2.962,3.488-2.208,6.052" fill="none" stroke="#797979" stroke-linecap="round" stroke-linejoin="round" stroke-width="2"/><path d="M379.166,476.973c1.352,1.882,3.302,2.668,5.5,3" fill="none" stroke="#797979" stroke-linecap="round" stroke-linejoin="round" stroke-width="2"/><path d="M394.166,476.223c1.82-3.249.345-6.316-3.491-7.528-1.501-.474-3.135-.788-4.759-.472" fill="none" stroke="#797979" stroke-linecap="round" stroke-linejoin="round" stroke-width="2"/><path d="M176.666,353.723c-2.388.969-4.65,2.071-6.268,4.237-2.096,2.807-2.133,5.863-.994,7.521,1.631,2.377,4.41,3.547,7.488,2.428,3.341-1.215,6.383-2.917,7.825-6.666,1.618-4.207-.062-7.244-4.552-7.51-1.08-.064-2.166-.01-3.249-.01" fill="none" stroke="#797979" stroke-linecap="round" stroke-linejoin="round" stroke-width="2"/><path d="M220.666,347.223c-1.592.751-2.959,1.822-4.25,3-1.935,1.767-3.007,5.917-2,7.75,1.255,2.284,4.142,2.915,7.515,2.339,2.17-.37,4.021-1.171,5.717-2.364,4.028-2.834,3.007-6.621-.484-8.22-2.041-.935-2.965-3.01-6.248-2.505" fill="none" stroke="#797979" stroke-linecap="round" stroke-linejoin="round" stroke-width="2"/><path d="M320.166,344.223c-1.627.38-3.065,1.103-4.531,1.946-4.092,2.353-3.505,5.975.037,8.044,2.081,1.216,4.3,2.077,6.744,2.266,2.339.181,5.059-1.385,6-3.506.737-1.661-.017-4.377-1.484-6.014-1.763-1.968-4.155-2.278-6.516-2.736" fill="none" stroke="#797979" stroke-linecap="round" stroke-linejoin="round" stroke-width="2"/><path d="M312.743,311.923c-.909.278-1.853.413-2.753.742-3.637,1.329-4.414,4.026-1.719,6.73,2.465,2.473,5.652,3.965,8.744,5.482,1.748.857,4.094-1.352,4.202-3.955.185-4.449-2.238-8.851-6.142-9.312-.641-.076-1.623.039-2.333.313" fill="#797979" stroke="#797979" stroke-linecap="round" stroke-linejoin="round" stroke-width="2"/><path d="M235.666,300.723c-2.06.616-4.142,1.168-5.755,2.745-1.822,1.781-2.183,4.166-.461,5.973,3.287,3.449,7.4,5.251,12.212,4.743,4.028-.425,5.645-4.127,3.473-7.943-1.994-3.501-5.1-5.426-9.219-5.518" fill="#797979" stroke="#797979" stroke-linecap="round" stroke-linejoin="round" stroke-width="2"/><path d="M406.666,487.723c-.999.35-1.962.727-2.759,1.49-1.896,1.814-1.628,3.611.759,4.76,2.169,1.044,6.423-.374,7.5-2.5.624-1.232-.575-2.813-2.49-3.528-.937-.35-2.097-.103-3.01-.222" fill="none" stroke="#797979" stroke-linecap="round" stroke-linejoin="round" stroke-width="2"/><path d="M201.666,412.223c-4.693,1.46-7.413,4.613-7.984,9.502-.348,2.979.867,4.32,3.484,5.248" fill="none" stroke="#797979" stroke-linecap="round" stroke-linejoin="round" stroke-width="2"/><path d="M197.416,426.973c5.059.163,9.14-1.986,12.196-5.793,2.455-3.06,1.113-6.435-2.689-7.974-1.623-.657-3.264-1.032-5.007-.982" fill="none" stroke="#797979" stroke-linecap="round" stroke-linejoin="round" stroke-width="2"/></svg>