<?xml version="1.0" encoding="UTF-8"?><svg id="uuid-978caf58-7e8d-49ed-9f12-b9f2f412a1dc" xmlns="http://www.w3.org/2000/svg" viewBox="0 0 692 676"><path d="M456.348,79.732s-.883,3.152.189,4.476.82,2.648,2.017,2.963c1.198.315.504,1.639,2.459,1.513,1.954-.126,4.728-.252,4.728-.252l2.9.315,3.657,4.161,8.07,4.728,5.422,2.207,3.341.883,3.889-.397,2.226-6.286,3.72-12.609-1.198-1.702-6.241-3.72-5.926-1.576-6.746-1.387-6.115,1.765-4.224-1.513-3.657-1.828-3.783.82-3.152,2.9-.946,2.27-.63,2.27Z" fill="#f9fafb"/><path d="M231.161,101.763s3.492,12.884,3.678,13.07,3.035,6.285,3.035,6.285l3.025-.305,4.403-.838,11.892-7.928,1.678-2.607.571-.643,2.964-1.428,3.051-.359s3.071.28,4.377-1.212c1.306-1.492,1.967-1.275,2.75-4.464,1.043-4.251-2.464-7.714-3.357-8.499,0,0-2.062-2.231-3.678-2.107-1.617.124-3.441-.113-4.25.571s-2.75,1.464-2.75,1.464l-1.964,1.25-1.75-.429-5.214-.5-12.927,3.75-5.535,4.928Z" fill="#f9fafb"/><path d="M370.714,170.28l4.946,6.166s2.33,3.729,5.441,5.342c3.111,1.613,7.969,4.562,11.541,1.451s4.342-6.021,7.914-7.98c3.572-1.959,6.829-3.25,8.672-4.517s3.23-5.035,2.308-8.837c-.922-3.802-4.836-7.803-7.947-10.914-3.111-3.111-5.342-4.814-5.342-4.814l2.044-.132,6.265.824s9.207,1.33,13.816-1.781c4.609-3.111,7.799-5.565,7.914-10.749.115-5.185-1.497-7.014-3.33-8.969-1.978-2.11-6.253-4.52-8.903-6.364s-3.744-1.342-4.55-5.375c-.807-4.033-.822-4.26.33-7.947s1.762-6.091.495-10.585-3.713-6.563-5.672-7.485c-1.959-.922-9.27-.823-12.035.099-2.765.922-7.551,5.737-7.551,5.737l-5.177,5.902-1.978,1.121-.89-1.451.725-9.398s.885-8.267-2.341-12.53c-3.226-4.263-6.897-6.724-9.167-5.309-1.868,1.165-2.443.447-4.287,1.715-1.844,1.267-2.562,3.198-6.826,2.737s-8.969-1.088-8.969-1.088c0,0-1.355.034-3.429.495s-3.513,1.702-4.32,4.122-1.451,12.596-1.451,12.596l-1.022,1.781s-7.207-3.232-8.705-3.462c-1.498-.23-9.415.677-9.991,1.253s-4.996,2.891-5.342,6.463-.522,8.367.758,9.595c1.228,1.178,6.265,7.254,6.265,7.254l3.363,3.264.429,2.209-9.562.857-6.067.989-4.616,1.682s-2.473,1.749-2.704,2.902c-.23,1.152.002,1.438-.528,3.495-.49,1.902,1.575,7.476,2.11,8.474.439.819.429,4.583.429,4.583l-.132,3.034.659,3.396s1.29,3.217,3.825,4.254,8.309,1.121,8.309,1.121l5.507-.725,3.495-.495,2.638-.528,1.912-.231-.297,2.242-3.693,4.814-2.077,2.506s-3.083,5.007-2.605,6.199c.429,1.07-.708,4.487-.132,5.869s2.029,3.133,2.836,3.594,4.254,1.649,4.254,1.649l4.748.594,2.671,1.22,2.176,1.715s3.282,3.512,4.089,3.858,5.375,1.978,5.375,1.978l7.155-2.308,4.353-4.88,1.978-4.221,2.044-5.672.956-4.979.659-4.979.528-2.011.923-.89.297-1.055.857,1.352.857,3.034,2.77,7.122Z" fill="#f9fafb"/><path d="M472.869,214.723l-1.074,9.066s-.679,10.097.775,13.837c1.253,3.221,2.245,6.149,5.01,7.992,2.765,1.844,6.091,3.491,7.933,2.147,1.585-1.157,2.525-.26,4.253-1.873s2.672-3.448,3.363-4.831c.691-1.383,1.986-6.085,1.986-8.505s-1.064-12.236-1.294-13.042.429-2.368.429-2.368l1.462.32,1.968,2.624,8.111,7.873s3.213,2.229,7.575,3.579c4.863,1.505,9.814,1.234,11.094-1.193,1.059-2.007,3.699-1.617,3.929-5.535s-.45-7.679-2.259-10.092c-1.968-2.624-8.29-7.694-8.918-7.884-.493-.149-7.245-4.105-7.245-4.105l-1.909-.954,1.074-1.67,3.638-.358,8.589-.835,7.455-2.326,5.308-4.235,1.849-4.712v-3.817c0-.461-1.193-3.698-3.4-4.891-2.508-1.355-5.541-2.861-8.807-3.022-4.016-.198-11.966,1.679-14.156,2.486s-8.171,3.161-8.171,3.161l-.954.179-.954-.596,5.308-8.946,3.963-10.872s2.553-4.467,1.285-8.154-2.36-6.585-5.01-7.276-6.673-1.212-8.171-.06c-1.498,1.152-5.598,2.652-6.74,5.129-.889,1.93-3.579,5.964-3.579,5.964l-2.326,8.827-.895,3.996-1.074,1.074-2.565-7.992s-2.344-7.287-4.533-10.974-5.755-7.817-8.29-7.933c-2.535-.115-5.361-.5-6.859.537-1.498,1.037-4.541,3.039-4.771,4.652s-.673,6.965-.954,7.575c-.305.662,4.593,13.837,8.171,17.654l2.028,3.758-.298.298s-10.271-4.66-10.617-4.891-6.382-2.624-9.066-2.744c-1.628-.072-3.505-1.025-6.501.358-2.996,1.383-6.015,2.512-7.038,5.606-.99,2.995-.803,5.609,1.61,9.901.537.954,4.363,3.965,6.322,4.771s9.066,3.161,9.066,3.161l5.487,1.014,5.428,1.312-.477,1.193-7.217,3.161-6.143,2.863-5.666,5.666s-2.505,1.625-2.505,5.428-.8,5.788,3.579,9.245,7.358,2.318,9.662,2.088,6.319-2.636,7.933-2.982,4.175-2.147,4.175-2.147l1.849-.298,4.771-4.831,3.23-2.269,1.064-1.548.716-.537-.775,1.491-.239,1.312Z" fill="#f9fafb"/><path d="M550.149,293.65l10.606-14.463,10.928-8.785,10.928-3.643s7.398.372,8.785.75c2.357.643,7.154,3.215,6.964,6.214-.17,2.673.214,7.392-3.428,10.928s-6.321,7.499-12.106,8.678c-5.785,1.178-13.285,4.821-13.606,4.928s-15.535,2.036-15.535,2.036l-4.285-.75-.608-2.968,1.358-2.924Z" fill="#f9fafb"/><path d="M364.914,303.508l3.1-13.32,1.263-4.249s1.378-.344,1.952-1.148,3.1-8.497,4.478-10.449c1.378-1.952,16.65-21.932,18.142-23.998,1.493-2.067,15.616-20.209,15.616-20.209l4.937-8.497,1.952-2.411,1.378,5.397s.574,12.631.574,14.583-.919,13.32-2.641,17.683-5.282,10.679-6.201,12.631c-.919,1.952-5.187,7.509-7.474,9.324s-11.702,10.885-11.702,10.885l-12.401,10.794-7.464,7.119-3.33,2.985-1.952.459-.804-2.871.574-4.708Z" fill="#f9fafb"/><path d="M367.674,266.52s-1.754-17.63-2.492-19.753-2.308-12.092-6.923-16.614-11.261-12.368-14.584-15.138c-3.323-2.769-8.676-8.123-9.692-8.769s-3.138-1.661-3.138-1.661l-1.754,1.292s.646,10.338,1.477,13.015c.831,2.677,3.323,11.907,4.707,13.568,1.385,1.661,7.2,11.076,10.522,14.122,3.323,3.046,7.938,7.753,9.969,10.984s5.261,8.215,6.369,10.338c1.108,2.123,5.077,8.399,5.077,8.399l2.4-3.969-1.938-5.815Z" fill="#f9fafb"/><path d="M311.114,307.768l-.335-19.57s1.724-12.733,5.628-19.843c3.904-7.11,9.737-13.82,10.713-14.238s3.503-1.989,3.503-1.989c0,0,3.017,9.637,2.599,15.075s-3.005,14.508-4.678,18.691c-1.673,4.183-6.102,12.923-7.775,15.572-1.673,2.649-5.379,11.865-5.379,11.865l-1.356,1.559-2.124-1.695-.795-5.426Z" fill="#f9fafb"/><path d="M316.879,343.907s-3.238-4.915-4.423-7.284c-1.185-2.37-1.669-3.965-6.07-10.059s-10.9-12.793-14.395-15.436c-3.556-2.688-12.141-8.325-15.349-9.626-3.059-1.24-11.404-4.914-14.395-6.244-3.902-1.734-4.509-1.214-4.509-1.214l-.426,5.312s.846,3.555,3.047,8.803,4.994,9.903,7.872,13.289,6.01,7.618,10.58,10.157c4.571,2.539,5.677,4.375,10.84,6.407,5.163,2.031,11.362,5.194,14.135,6.417,2.948,1.301,6.87,3.609,7.697,4.274,2.883,2.317,6.265,3.097,6.265,3.097l-.867-7.891Z" fill="#f9fafb"/><path d="M244.516,383.207l-6.106-5.743-10.607-9.572-11.539-5.899-9.883-1.449s-5.226.776-6.571,2.173-2.07,3.105-2.225,4.864c-.155,1.759.414,5.278,1.863,6.571s5.588,4.346,7.192,4.76,7.399,2.535,9.107,2.691,9.365,1.449,10.969,1.449,5.071.414,7.399,1.087,5.536,1.656,7.089,1.914,3.622.414,3.622.414" fill="#f9fafb"/><path d="M243.121,373.944l.372-4.368-1.766-11.339s-.558-9.201,0-12.083c.558-2.881.093-7.993,2.509-11.432,2.417-3.439,3.346-4.74,5.112-5.019s3.439-.558,5.019.651c1.58,1.208,3.904,4.833,3.997,7.064.093,2.231-1.115,12.269-1.487,13.756s-3.904,14.035-3.904,14.035l-3.532,8.551-1.766,4.368-1.673,1.208-2.881-3.811v-1.58Z" fill="#f9fafb"/><path d="M199.822,324.657l-8.239-2.428s-7.111-.78-7.458-.867-5.724,0-6.417.087-8.499,2.255-8.499,2.255c0,0-4.249,2.168-4.943,2.949s-4.683,4.336-4.683,6.157.087,5.117,1.474,6.244c1.388,1.127,5.463,3.209,7.458,3.642s16.651-1.908,19.079-3.035c2.428-1.127,14.743-6.071,15.003-6.071s5.897-2.428,5.897-2.428l1.995-1.648-.523-.285-.431-.235.52-.26-2.949-.52-7.285-3.556Z" fill="#f9fafb"/><path d="M204.988,316.357l-.341-16.659-2.39-15.976s-1.98-7.647-3.755-10.446-6.35-7.92-9.012-8.056c-2.663-.137-3.482.273-4.916,1.092-1.434.819-3.381,4.494-3.482,5.394s-.205,7.032.137,7.579,2.868,8.876,3.277,9.627,4.301,8.671,4.984,9.217,5.325,7.92,6.554,9.217c1.229,1.297,1.775,4.643,1.775,4.643l.478,1.912,3.414,2.799" fill="#f9fafb"/><path d="M165.297,291.821l-10.023-10.127-14.199-7.621-11.589-2.088s-6.995.835-9.187,1.775c-2.192.94-5.638,3.654-6.264,4.698s-1.566,4.072-.94,5.429,2.192,5.22,4.28,6.368c2.088,1.148,4.698,3.863,7.204,4.489s5.281,1.382,7.726,1.984,4.176.626,6.995.835c2.819.209,12.737.209,12.737.209l9.962.05,3.819-.154,1.044-1.462.38-2.118" fill="#f9fafb"/><path d="M225.262,212.411l-10.445,5.024-8.635,6.281s-4.054,3.903-5.055,5.906c-1.002,2.003-1.67,3.673-1.67,5.676s.262,5.381,1.467,6.113c1.205.732,2.373,2.569,4.544,2.402s5.009,0,7.179-1.002,7.515-4.336,7.515-4.336l.14,1.217-.328,4.212s-1.27,6.459-.936,7.628,1.544,6.879,1.544,6.879c0,0,.859,3.023,3.697,4.024s6.145,1.563,7.815.562,4.567-1.954,5.569-3.79,3.322-6.083,3.322-6.083l.702-2.012,1.263-1.544,1.123,3.697s1.553,3.659,3.556,5.662,2.083,3.766,5.709,5.194c3.948,1.555,7.59.091,9.593-2.246,2.003-2.337,4.212-5.896,3.79-12.494-.446-6.995-3.156-11.427-3.322-13.43s1.076-2.995,1.076-2.995c0,0,3.506,4.213,6.177,5.381s7.815,3.79,7.815,3.79c0,0,4.352.983,6.083.889,5.073-.274,8.938-2.34,10.061-5.662.765-2.265,1.756-6.382-.749-10.389s-3.063-6.876-10.576-10.716-12.026-5.896-12.026-5.896l-2.059-.983.187-1.919,10.014-.374,9.499-1.731s6.353-2.985,8.189-5.896c1.919-3.042,1.402-7.692.328-8.844-1.059-1.135-3.127-3.096-5.475-3.744-1.939-.535-4.481-1.133-7.581-.655-2.418.373-11.364,1.883-11.465,2.433l-7.253,2.854-4.352,2.667-1.263,1.029-1.497,2.153-1.919-1.357-4.071-2.106s-3.045-3.623-6.551-3.79-6.166-1.069-8.002-.234-6.298,2.93-7.3,5.101c-1.002,2.17-2.246,2.622-2.246,3.79s-.889,1.965-.889,1.965l-.889,3.697-.281,2.855.047,3.229-.025,1.704-1.145.214Z" fill="#f9fafb"/><path d="M516.691,334.653l6.656-4.101,8.638-3.507,12.235-3.529s9.961.157,11.294.627c.827.292,7.216,2.274,7.216,2.274l3.137,3.451s1.725,2.823.706,4.784c-1.02,1.961-1.49,2.98-4.392,5.49-2.735,2.365-6.102,2.842-9.568,3.843-3.529,1.02-11.006.399-15.137-.157-4.078-.549-17.725-2.98-17.725-2.98l-2.118-.157-2.745-.706-.784-2.353,2.588-2.98Z" fill="#f9fafb"/><path d="M487.331,365.809l1.182-7.955.819-9.525-.307-10.651-2.612-5.394s-3.021-2.492-3.738-2.492-2.56.922-3.175,1.536-2.458,4.609-2.458,4.609l-.717,2.868.41,6.043,1.536,6.964,1.741,6.452,1.843,6.862,1.172,4.152,1.286,3.119,2.048,1.024,2.458-3.175-1.594-2.784.105-1.653Z" fill="#f9fafb"/><path d="M484.75,385.522c-3.343,4.627-4.692,9.964-5.497,15.489-.375,2.569-1.513,5.065-.753,7.744" fill="#f9fafb" stroke="#797979" stroke-linecap="round" stroke-linejoin="round" stroke-width="2"/><path d="M484.457,384.404l4.569-3.334,4.754-4.569,7.101-5.434,9.2-4.693s4.137-.988,5.495-.926,5.001.864,5.557,1.482,2.161,3.643,1.111,5.001c-1.05,1.358-3.705,4.322-4.754,4.94s-8.583,3.828-8.583,3.828l-10.62,2.902-8.398,2.532-3.273.432-2.161-2.161Z" fill="#f9fafb" stroke="#797979" stroke-linecap="round" stroke-linejoin="round"/><polygon points="422.041 307.922 430.741 298.056 440.797 290.27 448.961 285.541 459.332 281.633 470.302 279.079 479.664 276.463 487.607 273.09 490.791 273.153 490.192 275.644 484.297 283.366 476.638 290.018 468.82 293.548 460.309 296.543 447.164 299.947 440.923 302.059 433.925 305.054 426.108 309.75 421.915 312.713 418.858 314.1 419.362 311.421 422.041 307.922" fill="#f9fafb"/><polygon points="381.99 331.947 380.871 325.651 381.361 321.034 383.109 320.125 387.908 324.566 393.462 333.066 397.729 348.176 399.828 362.936 398.569 365.034 393.182 357.269 387.656 345.657 383.529 337.893 381.99 331.947" fill="#f9fafb"/><path d="M203.613,317.119c.687-.765.597-1.494.491-2.589,0,0-.317-3.629-.317-3.629-.582-6.959-1.019-14.715-2.163-21.529-1.274-6.722-2.485-14.133-7.083-19.414-2.08-2.188-5.173-4.596-8.323-3.551-1.993.721-3.594,2.455-4.158,4.541-1.28,5.828.618,11.832,2.847,17.221,3.329,7.802,8.363,14.687,13.308,21.549.744,1.079,1.258,2.534,1.231,3.936-.044,1.296-2.008,1.202-1.895-.117.302-2.291-1.499-4.146-2.567-6.065,0,0-3.897-6.147-3.897-6.147-5.032-8.275-10.214-17.008-10.831-26.962-.428-3.983,1.308-8.279,5.22-9.867,6.722-2.377,12.993,4.661,15.258,10.044,4.748,11.455,5.099,24.041,5.442,36.23,0,0,.098,3.625.098,3.625.014.543.081,1.35-.137,2.103-.188.759-.639,1.51-1.252,2.024-.925.759-2.123-.565-1.273-1.406h0Z" fill="#797979"/><path d="M652.191,571.661c2.834,2.605,2.076,6.767,1.534,10.168-1.505,10.185-10.11,18.717-20.23,20.356-9.413,1.492-20.042.959-29.531.916-3.035-.011-82.78-.022-88.162-.019-125.429-.023-296.406-.022-421.254-.042-6.608.05-13.646-.585-19.414-4.232-6.612-3.93-10.971-11.137-11.689-18.766-.189-2.538-1.378-5.894.879-7.897.419-.377,1.067-.338,1.433.091.35.41.309,1.023-.084,1.386-1.03.912-.658,2.49-.557,3.751,0,0,.313,2.415.313,2.415.708,7.108,4.585,13.646,10.763,17.321,5.453,3.422,12.01,3.967,18.357,3.93,124.625.019,296.042.025,421.253.042,5.019-.004,84.898.005,88.176.019,7.244.062,17.115.359,24.389-.303,11.41-.266,21.536-7.689,23.384-19.292.233-2.714,1.409-6.338-.944-8.4-.405-.376-.429-1.008-.053-1.413.382-.414,1.036-.428,1.436-.032h0Z" fill="#797979"/><path d="M142,306.081c.545,18.068-.117,36.146.331,54.208.298,11.994.206,23.987.489,35.974.142,6.002-.019,12.062,1.411,17.993,1.171,4.855,3.629,8.714,8.019,11.238,1.94,1.115,3.936,2.305,5.939,3.082,2.002.776,4.571.52,6.803.321,5.276-.469,10.51.135,15.758.169,4.086.027,8.166.32,12.251-.066.743-.07,1.499-.01,2.249-.01,75,0,150.001-.19,225,.076,40.584.144,81.167.076,121.75.102,5.406.003,10.849.137,16.248-.444,4.32-.465,7.782-2.904,10.953-5.539,3.71-3.082,4.979-7.461,5.615-12.174.642-4.76.254-9.502.433-14.248,1.081-28.64.209-57.292.541-85.936.024-2.085.296-4.164-.041-6.246" fill="none" stroke="#797979" stroke-linecap="round" stroke-linejoin="round" stroke-width="2"/><path d="M158.966,429.205c-.766,1.075-2.126,1.648-3.173,1.825-6.597,1.105-12.35,5.3-15.979,10.883-1.769,2.757-4.258,7.324-5.973,10.247-3.797,6.67-25.468,44.323-29.75,51.821-10.913,18.839-21.996,38.019-32.733,56.968-1.825,3.009-2.476,6.458-2.948,9.903,0,0-.042.314-.042.314,0,.011.014-.13-.014-.278-.047-.306-.273-.551-.031-.242l.41.534c7.966,10.251,24.308,7.755,36.014,8.259,114.336.534,244.291,1.724,358.549.993,45.532-.045,97.888-2.026,143.416-1.617,6.088.003,11.897-.319,17.92-.547,0,0,5.924-.165,5.924-.165,1.885-.072,3.762-.137,5.621-.349,5.489-.568,10.539-2.516,14.685-6.343.431-.382,1.094-.338,1.469.1.25.29.309.681.19,1.018-4.921,12.959-22.53,11.219-33.847,10.872-11.953-.521-23.909-.103-35.864-.205-23.419-.31-48.485-.818-71.703-1.082-121.962-.078-291.118.642-412.335,1.401-11.814.426-25.474.963-33.506-9.623,0,0-.492-.657-.492-.657-.063-.078-.6-.738-.73-1.543-.076-.392-.057-.785-.027-1.021l.061-.426.115-.76c.445-2.615.943-5.243,1.998-7.711.603-1.815,3.533-6.282,4.479-8.066,9.994-17.137,20.281-34.471,30.389-51.482,8.574-14.397,28.088-47.959,36.526-61.82,3.738-5.6,9.622-10.111,16.326-11.437,1.115-.205,2.811-.153,3.503-1.023.374-.407,1.008-.434,1.416-.06.376.345.426.914.138,1.319h0Z" fill="#797979"/><path d="M262.579,506.58c.299,3.901,4.953,3.401,7.85,3.778,2.956.215,7.687.111,10.742.177,20.939.104,43.877.184,64.689.1,0,0,43.127-.251,43.127-.251l21.555-.144c3.242-.114,6.947-.077,9.724-1.725.752-.586.803-1.775.775-2.782-.023-2.981-.762-5.923-1.976-8.645-.895-2.417-3.102-3.177-5.496-3.513-2.907-.614-7.531-.435-10.542-.462-20.955.087-43.864-1.079-64.69-1.051-14.374.064-28.749.328-43.123.581-3.527.274-23.642-.278-26.537,1.214-5.233,1.61-5.681,7.897-5.925,12.551.027,1.295-1.942,1.366-1.999.05.124-11.318,3.982-15.892,15.58-15.512,1.593.004,6.402.04,8.087.047,15.465.12,38.387.321,53.915.221,22.52-.281,47.499-.389,70.076-.497,4.639.144,10.916.305,12.885,5.376,1.169,2.582,1.915,5.365,2.089,8.206.051,1.542.202,3.082-.48,4.574-1.309,2.57-4.38,2.864-6.816,3.299-3.468.612-23.179.05-27.104.112-25.464-.264-61.166-.488-86.259-.469-3.733.006-23.589.053-26.958.081-2.682.041-5.45.036-8.147-.255-1.933-.19-4.094-.331-5.492-1.966-.796-.847-1.962-3.564-.488-3.829.464-.063.889.27.942.734h0Z" fill="#797979"/><path d="M425.761,568.031c2.575-.204,5.684-.829,7.751-2.385,1.833-1.781,2.405-4.67,1.853-7.127,0,0-1.266-5.717-1.266-5.717l-2.427-11.495c-.731-3.193-1.465-8.267-2.524-11.212-2.112-6.2-7.817-5.828-13.37-5.733,0,0-5.871-.022-5.871-.022-26.659-.125-67.214-.721-93.934-.662,0,0-11.742-.022-11.742-.022-6.84.086-13.654-.739-15.395,7.666-1.112,4.698-2,9.537-2.866,14.275-1.005,5.671-2.14,11.232-2.49,16.879-.044,3.911,3.935,4.764,7.112,5.28,5.511.961,11.874.595,17.492.71,30.949.148,63.067.502,93.925-.145,7.836-.181,15.668-.078,23.482-.29.335-.009.614.255.623.589.009.335-.254.613-.589.622-18.081-.146-40.569.086-58.729.231-21.528-.016-48.943.212-70.471.319-5.936-.254-15.208.962-16.267-7.003-.243-3.104.034-6.169.451-9.244,1.148-6.828,2.805-13.531,4.876-20.134,1.147-3.934,2.716-8.458,6.838-10.18,3.782-1.56,8.051-.949,12.009-1.048,7.362-.006,27.584-.031,35.226-.038,22.491-.027,60.24-.782,82.31-.528,7.752.377,10.631,6.546,11.596,13.354.75,3.67,2.565,13.495,3.283,17.295,0,0,1.021,5.8,1.021,5.8.828,4.253-1.285,9.532-5.901,10.387-.74.227-6.714,1.717-6.593.144.021-.312.282-.554.588-.566h0Z" fill="#797979"/><path d="M293.745,152.695c-9.024-.519-22.522.094-31.732.092-18.823.369-44.94.76-63.465.95,0,0-15.865.087-15.865.087-7.425.116-15.911-.382-23.004,1.966-7.592,2.115-12.269,7.25-14.021,15.133-2.323,10.092-1.678,20.876-2.05,31.245-.385,17.262-.485,38.339-1.02,55.563-.238,2.743.449,5.159.411,7.953-.006.555-.464,1.001-1.019.991-.553-.01-.994-.466-.984-1.019.252-1.894-.047-3.988-.044-5.975.191-3.334.394-6.593.408-9.931-.05-8.937-.096-22.66-.218-31.739-.021-9.405-.42-22.478-.392-31.753.159-10.57.468-23.755,10.047-30.577,9.172-6.327,21.198-6.053,31.867-5.918,0,0,15.871.079,15.871.079,24.467.154,54.784.875,79.352,1.113,4.426.069,11.448.201,15.872-.26.552-.052,1.042.354,1.094.907.062.624-.481,1.162-1.104,1.093h0Z" fill="#797979"/><path d="M311.049,174.658c-2.237-.855-4.865-.497-7.46-.454l-7.7.062c-35.82.211-71.889.933-107.676.958-7.203.248-19.407-1.232-21.573,7.316-1.463,6.085-1.717,12.344-2.06,18.697-.952,15.369-.9,30.719-.878,46.114-.089,5.133-.238,10.256-.088,15.36.198,5.084.362,10.258.637,15.391.03.552-.394,1.024-.946,1.053-.552.03-1.023-.394-1.053-.946.044-5.156.103-10.273-.017-15.476-.008-7.715.437-15.376.239-23.07-.381-12.762-.724-25.754-.649-38.503.05-5.122.005-10.326.752-15.551.39-2.783.832-5.63,2.551-8.013,5.026-6.881,15.599-5.674,23.083-5.847,10.26.084,20.519.19,30.778.36,23.966.367,53.099.752,76.903.959,0,0,7.683.065,7.683.065,2.513-.04,5.045-.621,7.879-.435.566.024,1.01.511.97,1.079-.038.672-.748,1.127-1.373.88h0Z" fill="#797979"/><path d="M561.985,428.061c.77.708,2.162.697,3.29.985,0,0,1.368.369,1.368.369,13.677,3.854,18.743,17.03,25.211,28.129,16.387,29.244,36.686,64.545,52.95,93.977,3.323,6.453,8.274,12.699,7.695,20.43-.042.551-.523.963-1.074.921-.542-.042-.95-.514-.922-1.054.193-3.374-.893-6.709-2.501-9.788-21.737-37.368-46.002-79.155-67.264-116.69-3.535-5.85-8.503-10.947-14.942-13.454-1.768-.835-3.828-.773-5.28-2.466-.748-.911.537-2.24,1.469-1.357h0Z" fill="#797979"/><path d="M317.5,351.797c-1.855.127-3.463-.163-5.034-1.458-5.996-4.943-13.206-7.703-20.223-10.766-6.904-3.014-13.538-6.464-18.976-11.775-6.465-6.316-10.922-13.922-13.744-22.473-.993-3.01-2.141-6.017-2.253-9.236-.09-2.59.438-3.009,2.717-1.97,4.96,2.262,10.112,4.054,15.03,6.432,10.891,5.267,20.603,12.021,28.226,21.525,4.666,5.818,8.276,12.289,11.498,18.985.516,1.072,1.002,2.117,2.259,2.494" fill="none" stroke="#797979" stroke-linecap="round" stroke-linejoin="round" stroke-width="2"/><path d="M520.751,150.695c6.314.656,12.661.044,18.997.253,6.435.231,12.748-.123,19.154,1.171,15.558,3.579,18.043,17.803,18.388,31.548.503,21.117-.538,45.289-.118,66.42.053,3.325.095,6.282-.445,9.743-.309,1.199-2.179.904-1.956-.419.267-1.335.047-2.911.144-4.586-.961-22.687-.405-48.34-1.02-71.011-.8-18.16-4.031-29.995-24.744-30.59-9.452-.498-18.942-1.294-28.401-.528-1.431.147-1.531-2.111.001-2h0Z" fill="#797979"/><path d="M507.237,469.551c.094,5.994,4.046,11.517,10.106,12.392,2.46.53,6.433.491,9.011.66,6.121.266,12.137.326,18.265-.101,6.855-.307,13.718.288,20.473-.775,0,0,.349-.049.349-.049.194-.019.351-.014.474-.009.256.021.399.008.309.016.798-.185,1.807-.565,2.293-1.128,2.124-2.24-3.227-9.355-4.871-11.266-.749-1.047-1.746-1.421-3.033-1.583-12.418-1.672-24.96-1.41-37.468-.584-4.031.199-7.56-.243-11.343.166-1.924.156-3.777.531-4.601,2.48-.22.519-.83.756-1.343.519-1.36-.736.011-2.748.709-3.625,1.237-1.411,3.136-1.942,4.828-2.251,3.797-.768,7.967-.454,11.565-.649,12.271-.684,24.708-.919,36.938.824,1.416.211,3.431.357,5.07,1.835,1.222,1.261,2.07,2.453,3.046,3.857,3.014,4.575,6.9,11.961-1.009,13.862-.433.143-1.062.105-1.32.08-3.893.547-7.963.575-11.861.494-6.172-.277-12.18.125-18.348.051-4.454-.053-9.336-.357-13.796-.627-4.693-.138-9.941-1.423-12.848-5.459-1.992-2.629-2.732-5.801-3.57-8.811-.154-.537.159-1.098.698-1.247.617-.18,1.258.291,1.277.931h0Z" fill="#797979"/><path d="M163.709,350.634c-.621,5.043.515,10.272.61,15.363.296,5.149.466,10.313.63,15.447.261,4.991.09,10.274.882,15.185.625,4.886,2.913,8.706,7.867,9.843,8.292,1.986,21.771,1.133,30.435,1.424,0,0,30.949.259,30.949.259,79.405.777,160.437.283,239.899-.326,14.811-.224,31.684-.676,46.455-.239,4.794.003,10.655-.192,15.424-.257,3.607-.102,7.213-.772,10.388-2.375,5.763-2.814,5.377-9.736,5.707-15.33,0,0,.576-7.677.576-7.677.42-5.149-.002-10.314.235-15.445.173-5.19.529-10.319.485-15.429-.006-.552.438-1.005.99-1.01.538-.006.982.419,1.009.952.251,5.208.096,10.395.13,15.522.115,7.777.906,15.531.47,23.289-.238,5.477-.022,11.543-4.205,15.892-5.921,6.031-15.689,5.381-23.444,5.488-5.126.117-10.456.054-15.554-.167-84.942-.123-194.22-1.045-278.571-.217-10.184.035-36.414.277-46.439.259-6.451-.196-13.73.262-19.817-2.985-6.458-3.742-6.798-12.23-7.099-18.826-.551-7.474-.008-15.765.41-23.27.449-5.203-.317-10.36.66-15.544.056-.252.306-.411.558-.354.241.054.396.287.36.528h0Z" fill="#797979"/><path d="M201.382,466.955c-11.392-1.176-22.866-.779-34.319-.623-3.499.078-6.877.209-10.049,1.473-4.237,2.114-7.458,7.958-7.84,12.555.022.089.004.038.051.095.056.049.24.146.491.226,6.298,1.706,14.475,1.228,21.03,1.355,0,0,17.224.112,17.224.112,6.984.127,14.317.068,16.572-7.819.475-1.297.858-2.641,1.188-4.01.189-.884.473-1.644.198-2.306-.262-.353-.92-.329-1.38-.358-.841-.029-2.146-.78-2.705-.698-1.333.112-1.498-1.86-.186-1.991,1.394-.1,2.059.504,3.029.631,1.712-.117,3.478.884,3.486,2.789-1.713,13.661-7.156,16.557-20.188,16.298,0,0-17.265.073-17.265.073-6.03-.038-13.671.391-19.599-.866-1.736-.308-4.35-.769-4.713-2.978-.175-1.132.047-1.747.212-2.706,1.104-4.546,3.426-8.763,7.154-11.653,3.76-2.727,8.902-2.766,13.261-2.851,11.52-.017,23.113-.262,34.583,1.265,1.269.193,1.064,2.094-.235,1.986h0Z" fill="#797979"/><path d="M251.009,408.89c-.884-6.443-2.435-12.79-4.879-18.815-1.057-2.776-3.42-6.157-1.267-9.129.015-.028-.02.028-.019.033-.013.022-.011.031-.01.02.012-.043.016-.215-.025-.359-.014-.219-.52-.937-.644-1.164-8.026-13.622-13.551-28.888-23.873-41.015-2.376-2.896-4.688-5.813-8.075-7.441-1.159-.488-2.527-1.159-2.66-2.616-.169-4.225-4.365-5.787-5.982-9.705,0,0,.669.589.669.589-1.973-.491-3.513-1.934-4.911-3.208-1.31-1.303-2.696-1.929-4.378-2.529-2.679-1.218-4.613-3.098-6.915-4.67-3.748-2.379-7.639-4.862-11.527-6.908-2.842-1.645-5.88-2.39-8.833-3.816-1.438-.763-2.232-2.786-1.733-4.35.003-.078-.002.143.023.15.016.027-.037-.07-.153-.199l-.439-.488c-8.4-9.587-19.294-17.829-32.17-19.719-6.473-.822-14.717-.453-18.755,5.404-1.903,2.965-.324,6.508,1.865,8.945,4.607,5.581,11.852,7.907,18.822,8.976,9.001,1.331,18.058.323,27.125.14,1.641,0,3.238.707,4.19-.783.765-1.062,2.378.048,1.646,1.139-.665.953-1.974,1.621-3.126,1.584-1.091.008-1.987-.256-2.782-.311-1.742-.079-3.591-.097-5.388-.08-10.869.077-22.146.707-32.467-3.403-5.057-2.201-10.137-5.774-12.106-11.198-1.389-3.99,1.457-8.095,4.769-10.055,4.805-3.149,10.98-3.363,16.531-2.773,13.867,1.741,25.358,10.677,34.29,20.885.524.48.98,1.677.707,2.407-.261,1.122.325,1.49,1.541,1.97,7.009,2.34,13.231,6.526,19.356,10.507,2.148,1.528,4.18,3.533,6.466,4.617.805.38,1.813.662,2.577,1.172,2.242,1.325,3.945,4.032,6.287,4.663.293.08.52.28.643.533,1.501,3.399,6.23,5.977,6.153,10.394-.003-.025-.009-.025.007.003.025.055.126.18.264.288.327.259.888.468,1.258.643,3.631,1.709,6.321,4.976,8.756,7.975,10.452,12.285,15.978,27.527,24.035,41.243.695,1.017,1.414,2.402.65,3.625-.927,1.331-.531,2.697.149,4.217,1.369,3.006,2.575,6.164,3.524,9.337,1.292,4.254,2.187,8.616,2.794,13.005.076.547-.306,1.052-.853,1.128-.547.076-1.052-.31-1.128-.857h0Z" fill="#797979"/><path d="M513.484,338.536c1.844,1.779,5.085,1.513,7.623,2.022,6.457,1.171,12.955,2.569,19.484,3.227,5.542.539,11.305.476,16.573-1.444,5.952-1.932,12.008-7.71,7.371-13.942-3.123-3.362-8.207-3.944-12.565-4.286-11.231-.37-22.149,3.452-31.775,9.083-2.553,1.505-4.899,3.32-6.456,5.839-.341.585-.782,1.103-1.478,1.305-.368.123-.84.099-1.15.009-1.694-.468-3.036.338-4.196,1.592-6.357,6.826-10.457,15.452-14.409,23.834,0,0-1.131,2.574-1.131,2.574-.564,1.805-2.147,3.452-3.263,4.834-2.569,3.557-2.393,8.714-2.55,12.861,0,0-.53-.662-.53-.662,1.425.773,2.99.658,4.638-.035,5.127-2.194,10.884-3.161,16.119-4.873,3.467-1.067,7.125-1.741,10.28-3.602,4.775-2.366,9.104-8.335,1.788-10.687-5.902-1.69-15.308,3.887-19.882,7.525-2.85,2.354-5.468,4.98-7.899,7.767-1.219,1.475-2.711,3.127-4.674,3.758-1.232.42-1.933-1.417-.668-1.887,1.753-.402,2.907-1.658,4.168-2.963,1.33-1.327,2.659-2.657,4.049-3.927,5.52-5.163,12.067-9.242,19.408-11.244,3.638-1.006,8.778-.328,10.484,3.559,1.353,4.19-2.686,7.721-5.845,9.695-3.343,1.845-6.693,3.808-10.402,4.803-4.352,1.216-8.737,1.72-13.065,2.703-2.925.921-6.258,2.862-9.369,1.189-.855-.425-.601-1.763-.59-2.419.349-3.336.151-6.802,1.527-10.021.934-2.82,3.554-4.374,4.546-7.126,0,0,1.158-2.598,1.158-2.598,3.21-6.903,6.682-13.648,11.142-19.866,1.901-2.294,3.509-4.88,6.281-6.26,1.054-.446,2.275-.451,3.312-.172.253.074.44-.057.589-.284,1.705-2.852,4.419-5.021,7.237-6.639,12.364-7.118,30.233-12.976,43.83-6.129,3.567,2.071,5.099,6.848,3.309,10.577-1.7,3.655-5.441,5.677-9.031,6.982-7.28,2.517-15.135,1.832-22.589.725-4.627-.708-9.359-1.452-14.012-2.061-1.868-.283-3.781-.078-5.707-.496-1.02-.222-2.062-.653-2.958-1.304-1.117-.837.229-2.491,1.278-1.541h0Z" fill="#797979"/><path d="M518.671,319.088c3.22-2.539,4.72-7.324,6.789-10.799,2.839-4.893,5.323-10.043,6.976-15.451,2.096-7.038,3.393-15.019.357-21.897-.965-2.144-2.94-3.403-5.25-3.464-2.192-.077-4.148,1.79-5.69,3.215-3.412,3.447-4.942,8.178-5.9,12.888-2.334,11.039-.19,22.4,1.12,33.447.151,1.147.285,2.021,1.091,2.746.966.865-.248,2.377-1.306,1.613-1.273-.87-1.903-2.609-2.091-3.966,0,0-.711-3.755-.711-3.755-1.663-10.112-3.367-20.562-1.037-30.713,1.314-6.413,4.372-13.152,10.432-16.396,2.461-1.639,5.851-1.333,8.226.395,6.331,5.365,3.837,19.151,1.656,26.159-1.657,5.497-4.054,10.745-6.674,15.835-1.374,2.66-2.59,6.039-4.156,8.609-.648.921-2.651,4.607-4.091,3.065-.389-.481-.263-1.206.26-1.532h0Z" fill="#797979"/><path d="M411.947,581.89c-1.98,4.8-6.099,6.284-10.752,6.725-12.232,1.158-24.498.343-36.748.489-11.832.142-23.669.189-35.498-.044-5.082-.1-10.269.32-15.245-1.195-3.162-.963-6.007-2.421-7.006-5.975" fill="#797979" stroke="#797979" stroke-linecap="round" stroke-linejoin="round" stroke-width="2"/><path d="M511.484,173.152c1.029.166,2.983.17,4.079.201,6.122.069,15.203-.156,21.346-.351,1.882.017,5.351-.303,7.177-.019,4.457.715,9.474,2.537,11.162,7.233,1.397,3.574,1.466,7.444,1.487,11.196.099,4.176.279,8.687.16,12.875-.546,11.418-.461,22.74-.407,34.156-.035,8.556-.538,17.066-.222,25.603.135,2.842.244,5.704.233,8.599-.002.553-.452.999-1.004.997-.552-.002-.999-.452-.997-1.004.373-5.611-.045-11.396.194-17.124.803-17.087-.86-34.15-1.086-51.225-.112-4.042-.546-8.635-.761-12.73-.138-2.64-.151-5.535-.842-8.062-.884-4.208-4.239-7.34-8.423-8.372-.789-.248-1.537-.139-2.417-.228,0,0-4.261-.176-4.261-.176-4.251-.153-12.83-.452-17.083-.565-2.172-.07-5.882-.155-8.031-.357-.2-.044-.335-.009-.666-.171-.132-.1-.157-.288-.057-.42.1-.132.288-.157.42-.057h0Z" fill="#797979"/><path d="M244.846,383.769c-2.985.495-4.697-2.611-6.379-4.409-4.548-5.249-9.805-10.037-15.913-13.348-5.926-3.309-12.824-5.73-19.453-3.759-3.133.872-5.272,3.854-5.063,7.062.18,2.207,1.687,3.942,3.375,5.352,10.828,9.119,26.221,5.992,38.878,10.576,1.499.51,3.191.658,4.648.077.517-.196,1.095.063,1.292.58.638,2.5-5.322,1.534-6.5.882-12.59-5.293-28.059-1.998-39.236-11.002-4.786-3.261-5.782-9.328-1.504-13.542,2.929-2.659,7.117-3.168,10.859-3.065,9.974.798,18.721,6.43,25.654,13.217,1.713,1.72,3.318,3.534,4.827,5.415,1.348,1.389,2.248,4.009,4.321,3.973,1.256-.066,1.457,1.806.193,1.991h0Z" fill="#797979"/><path d="M365.5,160.313c1.805-.64,1.888,1.124,2.174,1.901.908,2.466,3.122,4.892,2.544,7.48s-.411,2.669-.191,3.979c.714,4.253,1.586,8.478,2.329,12.727.728,4.161,1.212,8.349,1.858,12.515,1.372,8.848,1.792,17.8,1.665,26.723-.069,4.814.282,9.666-.528,14.508-.447,2.67-.243,5.485-.581,8.229-.567,4.596-1.229,9.174-1.933,13.751-.357,2.323-.819,4.646-1.039,6.986-.104,1.105-.448,1.878-1.299,2.494" fill="none" stroke="#797979" stroke-linecap="round" stroke-linejoin="round" stroke-width="2"/><path d="M477,206.654c-1.077,1.586-2.195,3.15-3.216,4.768-.717,1.137-1.72,1.763-2.696,2.582-3.076,2.584-6.296,5.079-7.917,9.106-1.269,3.152-3.917,5.549-5.991,8.222-7.996,10.306-15.249,21.116-21.864,32.319-6.907,11.696-12.678,24-17.53,36.697-1.996,5.224-3.94,10.477-5.575,15.837-.532,1.744-.58,3.3.289,4.883" fill="none" stroke="#797979" stroke-linecap="round" stroke-linejoin="round" stroke-width="2"/><path d="M368.024,277.339c-2.028-.551-3.235-2.293-3.885-4.195-.686-1.596-1.455-3.157-2.295-4.681-5.102-9.309-12.786-16.617-19.481-24.832-4.512-5.488-8.709-11.496-10.848-18.354-1.412-4.224-2.165-8.672-2.623-13.083-.392-2.71-1.107-5.923.77-8.303.159-.201.398-.296.64-.278,2.72.056,4.376,2.239,6.367,3.615,1.838,1.394,3.643,2.837,5.469,4.268,7.349,5.751,14.509,12.271,19.09,20.587,3.504,6.21,5.632,13.093,6.786,20.082.883,5.184,1.686,10.446,1.661,15.742-.033.773.178,1.773.65,2.349.556.623.998,1.349,1.104,2.213.133.966-.151,1.838-.455,2.478-1.412,2.393-1.732,4.879-1.404,7.603.458,2.369.624,5.055-.076,7.344-1.012,4.406-2.309,9.119-3.523,13.459-.247.874-.784,2.88-.906,3.45-.007-.017-.017-.056-.033-.079l.05.116c1.662,3.277.108,7.048-1.348,9.965-1.353,3.112-2.362,6.343-3.158,9.655-4.041,17.854-5.657,36.467-4.38,54.757.228,4.629.538,9.161,1.17,13.759.385,3.45.592,6.833,1.5,10.15.211.59.283,1.377.222,1.96-.038.584-.036,1.029.11,1.343.179.386.012.844-.374,1.023-.386.179-.844.012-1.023-.374-.54-1.163-.112-2.064-.343-3.091-1.079-3.499-1.382-7.233-1.829-10.805-.698-4.554-1.094-9.248-1.388-13.848-1.117-13.853-.814-28.019,1.379-41.728,1.333-9.118,2.987-18.554,7.002-26.959.556-1.57.694-3.042.043-4.513-.382-.694-.355-1.557-.248-2.033,1.06-4.481,2.488-9.037,3.545-13.488,0,0,.797-3.363.797-3.363.663-2.23.37-4.184,0-6.381-.294-2.494-.155-5.147.844-7.523.326-1.029,1.313-1.903.884-2.794-.029-.057-.076-.118-.122-.181,0,0-.261-.308-.261-.308-1.407-1.708-1.309-3.794-1.326-5.849-.721-11.183-2.568-22.796-8.14-32.668-4.437-7.965-11.3-14.11-18.119-20.099-1.729-1.524-3.506-3.003-5.223-4.563-1.641-1.3-2.993-3.41-5.086-3.732-.008.012.687-.313.63-.264-1.465,2.03-.725,4.754-.421,7.091,1.088,12.4,5.141,21.255,13.139,30.678,7.785,9.477,17.152,18.303,21.998,29.881.251.659.648,1.619,1.097,2.144.472.561,1.105.965,1.823,1.185.957.305.518,1.761-.451,1.473h0Z" fill="#797979"/><path d="M210.316,329.309c-2.665.071-4.989-1.348-7.101-2.651-2.001-1.237-4.242-2.057-6.464-2.828-6.744-2.288-14.096-2.928-21.109-1.557-4.574.868-9.38,2.439-12.465,6.07-5.78,6.621-1.129,12.478,6.548,13.296,2.182.239,4.434-.066,6.723-.453,10.531-1.942,20.019-7.386,30.387-9.975,1.008-.379,1.942-.885,2.708-1.601.902-.852,2.261.47,1.422,1.397-1.739,2.043-4.321,2.738-6.743,3.528-2.19.791-4.356,1.727-6.554,2.681-9.822,3.862-25.919,11.926-35.415,4.131-7.631-6.27-.907-14.966,6.318-17.658,9.087-3.438,19.179-3.434,28.456-.75,2.328.682,4.677,1.417,6.849,2.516,2.005,1.016,4.072,2.176,6.308,1.865,1.361-.135,1.526,1.937.132,1.99h0Z" fill="#797979"/><path d="M487.203,370.637c-1.533-1.713-1.311-4.41-.798-6.381.387-1.748.65-3.685.895-5.531.469-3.74.833-7.499.993-11.279.197-5.6.393-14.026-5.571-16.527-.719-.258-1.303-.217-1.932.17-5.969,5.084-3.441,14.079-1.963,20.723,1.378,5.538,3.304,10.969,4.819,16.496.501,1.543.575,3.503,2.215,4.04,1.237.426.624,2.3-.634,1.899-2.311-.767-2.82-3.547-3.205-5.531-.407-1.851-.895-3.687-1.405-5.523-2.01-7.409-4.477-14.728-4.938-22.492-.161-3.899.767-8.16,4.104-11.084.941-.725,2.42-.93,3.53-.539,3.118,1.012,5.424,3.689,6.332,6.737,1.283,3.816,1.542,7.89,1.347,11.758-.239,4.809-.682,9.641-1.621,14.38-.261,2.365-2.004,5.536-.577,7.476.743,1.045-.778,2.214-1.594,1.208h0Z" fill="#797979"/><path d="M498.931,181.721c-.343-2.056,1.319-4.237,2.313-5.883,2.936-4.73,5.585-9.796,6.99-15.151,4.047-13.693-7.861-20.547-17.149-9.604-2.986,3.526-4.6,8.148-5.788,12.643-.717,2.455-.425,5.28-2.101,7.438-.584.988-.08,2.061.085,3.31.177.845.166,2.111.155,2.998.016,1.898.097,3.768.606,5.457.171.567-.15,1.165-.717,1.336-.613.19-1.268-.22-1.368-.854-.44-2.557-.204-4.952-.106-7.408.125-1.783-.981-3.927.243-5.669.321-.427.585-.892.783-1.392,1.59-8.449,3.601-17.803,11.153-23.128,8.224-5.901,17.977-.503,17.828,9.548-.014,8.085-3.987,15.451-8.413,21.916-.74,1.122-2.463,2.912-2.377,4.345-.02,1.342-1.999,1.438-2.137.097h0Z" fill="#797979"/><path d="M330.751,154.49c.011,2.371-1.841,3.846-3.089,5.53-3.017,3.903-6.749,9.641-5.238,14.385,2.766,7.132,8.674,3.407,13.801,6.685,1.359.797,2.42,2.025,3.419,3.139,1.563,1.538,3.404,3.207,5.324,4.211,5.113,2.251,10.803-1.827,13.409-6.178,2.883-4.888,4.603-10.516,5.088-16.173.215-1.557-.013-2.94.385-4.523.194-.612.556-1.208,1.014-1.66,1.007-.98,2.455.628,1.314,1.519-.565.415-.805.965-.897,1.938-1.432,9.855-4.008,23.75-14.834,27.261-4.315,1.547-8.263-.871-11.421-3.613-1.449-1.146-2.584-2.738-4.185-3.616-3.551-2.077-7.494-.296-11.208-2.743-3.853-2.468-5.483-7.645-4.065-11.854,1.478-4.91,4.671-8.901,8.177-12.471.568-.638.924-1.225,1.004-1.94.156-1.226,1.974-1.144,2.001.102h0Z" fill="#797979"/><path d="M456.166,332.207l.649.061.117.005c.02.001.009-.002-.033,0-.05.002-.101.007-.151.017.587-.555-1.629.807-1.032,1.738.377.833.967.882.76.824l.102.036c-.723-.056-1.64-.183-2.416.1-13.389,3.682-18.896,17.692-23.193,29.759-2.437,7.026-4.288,14.308-5.437,21.739-1.09,7.416-1.629,15.006-.952,22.487.07.733-.467,1.384-1.2,1.454-.8.083-1.502-.587-1.459-1.389.357-7.658.683-15.221,1.408-22.826,1.684-16.589,5.494-36.011,18.091-47.986,3.501-3.423,8.158-5.403,12.904-6.144,1.107-.071,2.076-.045,3.162.266-.192-.054.41.002.798.845.601.94-1.639,2.311-1.063,1.755-.215.039-.446.016-.642-.002,0,0-.76-.102-.76-.102-1.729-.258-1.379-2.835.349-2.636h0Z" fill="#797979"/><path d="M570.55,492.842c-3.642-.181-7.24-.414-10.826-.361-3.471.053-7.621.036-6.213,4.676,1.006,3.371,2.305,6.821,4.618,9.388,4.261,4.688,11.302,4.605,17.162,4.068,2.584-.266,5.444-.12,7.787-1.002,1.597-.611,1.835-1.552,1.171-2.937-1.584-4.12-3.381-8.104-6.761-10.785-2.079-1.542-4.515-2.157-7.032-3.037-.523-.181-.8-.752-.619-1.275.167-.48.664-.753,1.149-.654,1.763.362,3.585.777,5.381,1.541,5.688,2.405,8.293,8.811,10.164,14.107,1.776,7.083-9.741,5.431-13.837,5.96-5.47.079-11.749-.723-15.541-5.114-2.49-2.859-3.73-6.402-4.779-9.969-1.615-5.659,3.071-6.166,7.306-6.309,3.645-.182,7.279-.117,10.869-.298,1.383-.032,1.381,2.034,0,2h0Z" fill="#797979"/><path d="M259.481,478.803c.255.797.506,1.554.875,2.087,1.403,1.786,4.124,1.814,6.324,2.096,3.31.228,6.703-.153,10.165-.168,1.681-.041,3.278.259,4.876-.303,5.544-1.64,6.369-6.608,6.478-11.683-.309-3.315-4.582-4.228-7.367-4.513-3.321-.136-6.81-.173-10.149-.013-1.617.122-3.327.17-4.843.735-4.209,1.657-7.13,7.413-6.303,11.861.08.549-.301,1.058-.849,1.138-.611.095-1.174-.411-1.147-1.028.032-1.775.18-3.696.88-5.362,3.583-9.038,8.792-8.761,17.352-8.648,3.438.074,7.099-.205,10.297,1.453,2.264.995,3.79,3.147,3.246,5.691-.15,3.052-.439,6.345-2.633,8.746-1.529,1.758-3.649,2.828-5.897,3.257-1.313.185-2.643.049-3.921.106-3.355.082-6.767.546-10.279.385-3.952-.204-7.854-.683-9-5.199-.436-1.282,1.469-1.921,1.895-.639h0Z" fill="#797979"/><path d="M416.25,218.645c2.352,3.136,1.599,10.146,1.989,13.741.843,7.785.264,15.48-2.014,22.974-2.74,9.013-7.807,16.683-14.232,23.483-6.867,7.267-14.672,13.498-22.198,20.043-3.812,3.315-7.526,6.808-10.756,10.723-1.184,1.435-2.566,2.044-4.287,2.217" fill="none" stroke="#797979" stroke-linecap="round" stroke-linejoin="round" stroke-width="2"/><path d="M491.938,271.011c.805,2.265-.679,4.438-1.771,6.146-1.002,1.715-2.086,3.391-3.332,4.949-10.174,13.228-26.569,16.241-41.619,20.633-7.402,2.128-14.215,5.552-20.34,10.19-1.912,1.239-3.359,3.384-5.859,3.422-3.482,3.621-6.864,8.133-8.776,12.933-3.47,10.128-5.429,20.859-7.355,31.39-.007.034-.011.081,0-.021.004-.098-.004-.091.005-.035.003.06.032.151.015.422-.015.134-.043.379-.249.664l-.099.128c-3.616,4.199-1.116,10.18-1.901,15.224-.516,6.56-.817,13.754-1.18,20.315-.119,3.852-.041,7.749-.228,11.679-.026.552-.495.978-1.046.951-.55-.026-.975-.492-.952-1.041.162-3.841.063-7.725.16-11.647.329-6.666.588-13.8,1.072-20.448.365-2.972-.136-5.562-.181-8.635-.157-2.606.841-6.066,2.529-7.884-.17.235-.183.419-.193.493-.008.149.003.119-.008.059-.06-.261.032-.771.084-1.051,1.125-6.727,2.44-13.46,4.032-20.091.978-3.847,1.763-7.638,3.208-11.39,1.87-4.696,4.757-8.843,8.091-12.561.587-.575,1.162-1.483,2.035-1.832.331-.152.716-.179,1.07-.195.544-.047,1.092-.418,1.821-1.058,3.824-3.186,7.952-5.931,12.389-8.21,10.51-5.303,22.289-7.235,33.225-11.246,8.885-3.222,17.191-8.728,22.089-16.985.877-1.509,2.171-2.914,1.387-4.576-.609-1.258,1.439-2.127,1.876-.691h0Z" fill="#797979"/><path d="M491.895,271.803c-.576,1.592-2.014,2.403-3.671,1.946-1.491-.195-2.77.95-4.178,1.454-4.269,1.854-8.805,3.071-13.263,4.273-8.898,2.365-17.642,4.766-25.447,9.446-9.054,6.025-18.136,12.523-24.76,21.282-1.232,1.416-2.052,3.028-1.076,4.845.267.545.042,1.204-.504,1.472-.85.453-1.893-.491-1.512-1.379.384-.98.57-2.01,1.024-2.919,7.341-11.607,17.663-22.759,30.3-28.566,10.258-4.639,21.652-5.149,32.234-8.558,1.765-.597,3.391-1.145,4.975-2.222.65-.391,1.474-.812,2.32-.807.364.014,1.064-.02,1.228-.303.138-.138.318-.493.55-.874.615-1.045,2.275-.235,1.779.91h0Z" fill="#797979"/><path d="M357.97,466.188c-3.441.657-6.768-.468-9.97.758-2.935,1.082-5.289,3.799-5.852,6.971-.61,3.093.557,6.847,3.566,7.978,3.013,1.148,6.586.892,9.801,1.05,3.348.036,6.69-.159,9.943-.787,3.904-.494,4.951-2.676,5.167-6.219.428-5.372-1.859-8.901-7.452-9.352-1.714-.196-3.315-.44-4.834-.378-1.248.04-1.417-1.795-.191-1.99,5.282-.406,12.201.653,13.853,6.498.8,3.542.81,7.507-1.282,10.602-1.199,1.538-3.218,2.099-4.985,2.359-3.401.578-6.844.699-10.247.587-7.753-.262-15.361-.345-14.338-10.517.61-4.45,4.408-8.263,8.919-8.899,2.448-.392,5.193-.001,7.461-.61,1.325-.314,1.772,1.668.44,1.951h0Z" fill="#797979"/><path d="M316.771,466.463c-4.685-.122-10.554-1.128-13.895,2.877-2.026,2.84-3.475,8.307-1.353,11.382,1.592,1.949,4.351,1.93,6.668,2.152,5.011.382,10.097.22,15.034-.678,3.426-.419,5.24-2.969,5.623-6.256.457-2.86.726-6.542-2.184-8.017-2.774-1.407-6.28-1.4-9.415-1.459-1.222-.097-1.219-1.896-.009-1.999.808-.066,1.649-.143,2.543-.168,4.327.063,10.507,1.354,11.127,6.587.338,3.659-.131,7.443-2.472,10.403-1.306,1.489-3.237,2.14-4.968,2.383-3.401.508-6.839.695-10.258.603-7.999-.423-15.737.042-13.168-10.704,1.778-8.944,9.324-8.669,16.684-9.104,1.413-.094,1.459,2.033.043,1.999h0Z" fill="#797979"/><path d="M473.379,213.147c1.122,1.943.404,4.22.045,6.13-.97,5.277-1.396,10.819-.544,16.045,1.125,7.057,5.823,13.621,13.761,11.508,8.854-3.374,9.15-15.862,7.32-23.761-.378-1.797-1.431-3.92-.485-5.74.084-.206.019-.449-.183-.804-1.786-2.641-3.051-5.8-4.891-8.323-.781-1.066.809-2.276,1.625-1.213,1.716,2.946,2.616,6.085,4.361,8.945.282.517.458,1.265.167,1.852-.877,1.438-.025,3.223.312,5.083.379,1.841.603,3.709.718,5.578.324,5.553-.285,11.643-3.889,16.186-2.86,4.281-8.879,5.197-13.417,3.215-6.171-3.455-9.01-10.975-8.807-17.787.084-3.836,1.046-7.545,1.945-11.215.343-1.614,1.098-3.279.207-4.696-.72-1.184,1.087-2.241,1.757-1.003h0Z" fill="#797979"/><path d="M480.471,445.99c.2,4.806,3.309,8.833,7.798,10.257,4.492,1.21,9.479.894,14.078.508,1.56-.181,3.156-.429,4.645-.771.928-.27,1.604-.418,1.793-1.177-.183-3.757-2.741-7.802-5.598-10.188-1.774-1.354-3.833-1.163-6.194-1.257-4.727-.147-9.53-.453-14.152.251-1.291.329-2.066,1.176-2.356,2.536-.107.548-.645.903-1.19.786-.519-.111-.857-.609-.781-1.127.548-4.527,5.136-4.878,8.753-5.018,3.269-.21,6.594-.194,9.8-.041,1.563.048,3.304-.033,5.146.479,1.794.433,3.343,1.8,4.516,3.153,1.735,1.954,2.994,4.267,3.834,6.718.409,1.274.93,2.735.617,4.218-.937,3.569-5.801,3.153-8.62,3.628-4.993.271-10.006.398-14.85-1.017-3.291-1.057-6.018-3.637-7.536-6.692-.864-1.59-1.091-3.327-1.646-4.771-.2-.52.059-1.103.579-1.303.604-.242,1.299.183,1.364.829h0Z" fill="#797979"/><path d="M349.899,449.027c-.722-1.73-.912-4.103-2.844-4.789-3.587-.916-7.485-1.177-11.214-1.184-3.603.161-7.787-.157-10.665,2.408-2.396,2.248-3.849,7.102-.995,9.535,2.351,1.956,5.531,2.323,8.56,2.384,3.143.14,6.297.142,9.424-.131,1.479-.155,2.997-.218,4.306-.957,2.317-1.235,3.941-4.455,3.475-6.97-.532-1.329,1.523-2.013,1.897-.632.722,4.526-2.643,9.148-7.14,9.778-3.996.53-8.01.38-12.015.242-1.565-.052-3.239-.111-4.854-.509-6.334-1.453-8.119-6.11-5.357-11.832,1.605-3.143,5.017-4.887,8.424-5.299,5.68-.924,11.602-1.242,17.191.459,2.888.992,3.558,4.464,3.764,7.088.105,1.171-1.596,1.512-1.958.409h0Z" fill="#797979"/><path d="M263.454,232.584c-.1,2.639,11.52,12.233,12.86,13.992,9.077,11.913,16.351,24.914,22.822,38.325,3.495,7.244,6.788,14.66,9.149,22.418.472,1.552,1.419,2.946,2.965,3.758" fill="none" stroke="#797979" stroke-linecap="round" stroke-linejoin="round" stroke-width="2"/><path d="M481.239,171.138c-1.88-2.103-1.386-4.915-2.074-7.389-1.012-3.847-2.266-7.776-4.224-11.211-1.562-2.739-3.506-5.397-6.113-6.987-5.317-3.414-12.306.094-13.255,6.134-.885,6.131,2.054,12.03,5.053,17.304.494.874,2.747,4.497,3.099,5.369.294.758,1.131,2.584,1.453,3.35.23.526-.01,1.14-.536,1.37-1.444.527-1.876-1.705-2.524-2.591-1.917-3.559-4.538-6.713-6.365-10.37-2.305-4.596-4.059-9.801-3.037-15.033,1.537-7.638,10.607-11.48,16.997-6.905,5.492,3.988,8.204,10.58,10.272,16.785,0,0,.732,2.343.732,2.343.721,2.028.507,5.045,2.045,6.415,1.065,1.024-.562,2.561-1.522,1.414h0Z" fill="#797979"/><path d="M309.763,448.126c-.197-2.401-1.982-4.379-4.387-4.594,0,0-1.139-.149-1.139-.149-4.535-.568-9.114-.859-13.609-.009-4.641.466-7.943,4.222-8.466,8.798-.597,6.347,11.202,5.651,15.429,5.571,2.36-.145,4.711-.465,7.035-.909.675-.119,1.246-.411,1.811-.853,1.907-1.567,3.171-4.166,3.328-6.647.013-.3-.044-.856.073-1.39.25-1.204,2.059-.858,1.842.357-.088,3.377-1.499,6.832-4.266,8.964-1.354,1.116-3.237,1.21-4.917,1.443-4.817.606-9.738.61-14.52-.296-1.553-.29-3.288-.655-4.673-1.728-4.228-3.096-1.072-10.384,2.573-12.819,5.503-3.133,12.46-2.572,18.543-2.125,1.678.104,3.469.423,4.796,1.565,1.165.707,3.777,5.24,1.622,5.672-.533.069-1.02-.317-1.075-.851h0Z" fill="#797979"/><path d="M417.175,219.026c-2.995,6.295-7.356,11.98-11.193,17.737-7.838,11.508-17.951,21.04-25.782,32.465-2.413,3.544-4.586,7.27-6.312,11.2-.822,1.59-1.167,3.39-2.159,4.899-.562.797-1.256,1.455-1.941,2.111-1.212,1.111-2.632-1.026-1.075-1.687,1.632-.531,2.645-1.756,3.119-3.356.609-1.637,1.267-3.256,1.998-4.842,4.271-9.57,10.331-18.319,17.098-26.255,5.59-6.664,11.927-12.495,16.72-19.726,2.778-4.05,6.067-8.694,7.676-13.308.461-1.239,2.409-.55,1.849.762h0Z" fill="#797979"/><path d="M376.529,136.206c6.299,1.821,12.515,3.959,18.57,6.494,0,0,3.026,1.293,3.026,1.293,3.184,1.398,5.858,3.97,8.059,6.468,1.291,1.563,3.221,3.392,4.354,5.105,2.603,3.902,4.215,9.203,1.738,13.634-1.09,1.914-3.001,3.231-5.108,3.787-2.229.677-4.296,1.803-6.125,3.278-2.653,1.924-4.244,4.97-6.78,7.047-8.538,6.273-17.476-3.149-21.852-10.077-.603-.9-1.216-1.518-1.998-1.507-.444.006-.81-.349-.816-.793-.012-.521.488-.912.992-.798,2.592.431,3.232,3.351,4.684,5.107,4.402,6.888,14.039,13.26,20.16,4.676,2.566-3.676,6.011-6.948,10.273-8.605.388-.16.814-.306,1.21-.447,3.47-1.089,4.781-4.939,3.882-8.325-.821-4.086-3.917-7.231-6.709-10.17-2.154-2.332-4.318-4.404-7.173-5.633-1.903-.852-6.986-2.99-8.965-3.826-3.999-1.686-8.01-3.38-11.979-5.205-.876-.382-.383-1.789.558-1.5h0Z" fill="#797979"/><path d="M508.677,200.54c2.138,2.172,5.123,3.51,7.904,5.144,2.807,1.683,5.383,3.617,7.722,5.907,3.439,3.444,6.14,8.644,4.855,13.675-.927,3.402-3.312,6.356-6.608,7.735-4.942,1.837-10.45.454-14.903-1.995-4.293-2.573-7.945-6.046-10.968-10.026-.869-1.168-1.282-2.413-2.615-2.757-.589-.158-.939-.763-.781-1.352.675-1.74,3.132-.321,3.951.499,1.737,1.905,2.911,3.569,4.795,5.274,1.979,1.814,4.715,4.627,7.044,5.926,3.703,2.186,8.467,3.602,12.677,2.326,4.1-1.482,6.807-6.143,5.947-10.466-.757-4.589-4.157-8.336-7.765-11.144-3.757-3.295-8.246-4.43-12.621-7.017-1.371-.886.167-2.867,1.366-1.729h0Z" fill="#797979"/><path d="M219.238,506.279c.339,1.623.977,2.516,2.617,2.905,5.953,1.372,12.384,1.134,18.517.603,2.41-.07,4.376-1.172,5.796-3.206,1.813-2.657,3.235-6.13,3.122-9.137-.087-3.437-4.217-3.443-6.797-3.924-2.715-.427-5.175-.243-7.924-.169-2.605-.026-5.267-.483-7.708.349-4.608,1.413-7.73,8.106-7.615,12.563.036,1.318-1.943,1.401-2.013.077.592-3.928,2.463-7.393,4.547-10.498,1.061-1.624,2.588-2.943,4.34-3.873,2.619-1.382,5.581-1.521,8.389-1.647,4.715-.398,9.617-.304,14.143,1.327,4.774,1.834,4.288,7.738,2.746,11.576-1.565,4.171-4.485,8.629-9.342,9.292-5.988.494-12.105.71-18.079-.399-3.346-.441-6.464-1.632-6.717-5.534-.135-1.258,1.727-1.535,1.976-.307h0Z" fill="#797979"/><path d="M311.558,310.318c-1.908-1.169-.626-6.949-.769-8.737-.826-10.317-.459-20.53,3.735-30.215,2.633-6.081,6.43-11.415,11.245-15.979,1.373-1.301,2.292-3.237,4.77-3.359,2.526,3.74,2.749,8.336,2.91,12.834.297,8.318-2.284,16.021-5.7,23.48-3.693,8.061-8.328,15.671-11.512,23.978-.298.779-.873,1.422-1.486,2.004" fill="none" stroke="#797979" stroke-linecap="round" stroke-linejoin="round" stroke-width="2"/><path d="M549,299.585c1.568.907,3.179,1.031,5.006.794,8.9-1.155,17.841-2.209,26.224-5.592,7.39-2.982,13.88-7.167,17.298-14.926,2.92-6.631-1.256-12.405-8.277-13.001-12.284-1.043-21.361,5.074-29.494,13.245-4.417,4.438-7.449,9.848-10.519,15.225-.233.407-.544.937-.446,1.244.843,2.622-1.108,3.156-2.747,4.322-5.504,3.914-10.653,8.298-15.795,12.677-1.844,1.57-3.708,3.122-5.478,4.77-1.171,1.09-2.272,1.944-4.014,2.061-1.065.072-2.156.841-2.514,2.162-1.172,4.328-4.506,7.274-7.049,10.702-1.133,1.526-1.681,2.974-1.443,4.789" fill="none" stroke="#797979" stroke-linecap="round" stroke-linejoin="round" stroke-width="2"/><path d="M471.165,197.979c-3.975-.081-7.727-.133-11.307,1.257-2.17.985-4.476,2.042-6.684,2.753-7.645,2.256-18.828,9.769-14.704,18.729,4.294,8.13,13.648,6.063,20.119,1.829,0,0,2.044-1.337,2.044-1.337.763-.611,2.133-.974,3.122-.512,0,0,.599.233.599.233.645.251.963.977.712,1.622-.366,1.034-1.929,1.044-2.319.036-.346-.813-2.299.267-3.62.886-4.282,2.192-9.072,4.567-14.052,3.804-7.138-1.146-11.939-9.269-8.378-15.89,2.115-4.704,6.311-8.155,10.855-10.373,2.926-1.464,6.077-2.266,8.973-3.558,1.517-.737,3.181-1.347,4.837-1.653,3.405-.687,6.785-.4,9.975.037.587.081.998.622.917,1.209-.075.546-.549.94-1.088.927h0Z" fill="#797979"/><path d="M313.25,315.574c.172,5.433,1.647,10.663,2.543,15.981.671,3.985,1.916,7.746,1.67,12.011-.237,4.108.045,8.388,1.909,12.536,2.912,6.481,3.046,13.649,3.681,20.672.969,10.731,1.206,21.472,1.198,32.231" fill="none" stroke="#797979" stroke-linecap="round" stroke-linejoin="round" stroke-width="2"/><path d="M263.476,231.854c-.288.856-.333,1.493-.03,2.329l.928,2.797c.595,1.871,1.157,3.752,1.614,5.66.865,3.819,1.718,7.762,1.268,11.696-.875,7.153-8.039,13.69-15.273,10.14-3.692-1.882-5.753-5.696-7.733-9.115-1.632-2.565-2.601-5.626-2.863-8.593-1-9.243-1.495-18.445-.923-27.683-.021-.378-.095-.607-.261-.838-.317-.452-.208-1.076.245-1.393,1.941-.969,2.225,2.495,2.111,3.603.041,2.927-.194,5.817-.056,8.718.108,3.875.222,7.734.609,11.557.341,3.974.13,7.831,1.523,11.219,1.62,3.36,3.268,6.947,5.837,9.659,2.402,2.633,6.839,3.53,9.916,1.675,1.611-.976,3.01-2.28,4.076-3.832,3.347-4.899,2.145-11.214.656-16.58-.809-2.779-1.876-5.48-3.151-8.078-.527-.954-.643-2.358-.438-3.412.249-1.403,2.367-.91,1.946.472h0Z" fill="#797979"/><path d="M234.04,76.324c-4.012-1.532-5.621-5.122-9.86-5.224-2.31-.344-4.798-.579-6.948.445-3.025,1.701-4.075,5.949-2.647,9.057,2.936,6.934,10.723,9.845,17.585,11.372,2.374.58,5.103.779,7.257,1.939.516.198.774.777.576,1.293-.198.516-.777.774-1.293.576-1.183-.607-2.076-1.138-3.324-1.366-6.025-1.492-12.137-3.47-16.98-7.52-6.217-5.144-8.741-16.538,2.181-17.065,1.874-.121,3.819.428,5.538,1.103.58.185,1.215.327,1.8.591,2.134.903,4.193,2.761,6.488,2.833,1.582.084,1.134,2.467-.373,1.965h0Z" fill="#797979"/><path d="M401.25,146.948c.891-.817,2.028-.621,2.994-.461,4.884.808,9.744.925,14.5-.56,7.064-2.206,11.6-10.319,9.215-16.45-1.47-3.778-4.676-6.098-7.951-8.272-1.907-1.266-3.885-2.439-5.818-3.638-2.867-1.779-3.955-4.677-2.924-8.587,1.104-4.186,2.372-8.351,1.473-12.742-1.588-7.76-6.909-10.316-13.725-9.391-6.166.837-10.811,4.724-14.769,9.385-1.222,1.439-2.157,3.153-3.985,4.024-.58.276-1.008.808-1.272,1.472-2.757,6.934-6.277,13.535-8.989,20.489" fill="none" stroke="#797979" stroke-linecap="round" stroke-linejoin="round" stroke-width="2"/><path d="M490.798,54.574c-.271-5.087,1.26-8.872-3.682-12.289-3.909-3.047-7.785.733-9.448,4.309-.988,1.916-1.12,4.029-1.598,6.127-.51,2.195-.269,4.489-.191,6.723.252,4.511,1.102,8.993,2.572,13.252.412,1.232-1.44,1.899-1.891.653-1.863-6.168-2.741-12.586-2.817-19.011-.166-1.773-.274-3.693.292-5.424,2.151-8.102,10.68-13.862,16.308-4.972,1.885,3.046.639,7.02,2.358,10.018.841,1.524-1.689,2.346-1.903.614h0Z" fill="#797979"/><path d="M492.835,186.671c1.397-1.052,2.537-1.505,3.457-2.8,1.826-2.049,4.68-2.86,7.079-3.526,3.927-1.137,7.496-3.187,11.533-3.994,4.003-.971,8.211-1.045,12.258-.199,10.546,2.455,12.909,11.712,5.123,19.152-4.121,3.918-9.982,4.759-15.343,5.586-2.612.405-5.85-.306-8.077.577-.619.282-1.418.61-2.056.444-.832-.165-1.286-.475-1.643-.593-.34-.115-.941-.222-1.297-.299-2.567-.487-5.192-.742-7.622-2.243-1.063-.673-.125-2.315.993-1.736,1.615.851,3.503,1.149,5.517,1.429.741.092,1.995.32,2.71.465.519.091,1.635.628,1.737.594,3.164-1.569,6.348-.608,9.404-.995,5.06-.592,10.603-1.207,14.528-4.541,7.492-6.441,5.44-14.764-4.129-17.17-6.945-1.678-14.186.204-20.408,3.434-2.649,1.304-5.991,1.719-8.163,3.633-.524.439-.978,1.023-1.365,1.582-.755,1.099-2.159,1.921-2.906,2.695-.997.981-2.429-.601-1.33-1.494h0Z" fill="#797979"/><path d="M337.572,95.141c-2.818-1.888-5.707-3.748-9.112-4.033-4.664-.338-10.261,1.047-12.827,5.155-2.169,3.941-1.541,9.615,1.122,13.035,1.623,2.141,5.095,4.966,7.123,6.87,2.248,2.278,5.108,3.373,8.184,4.323,3.244.95,6.507,2.143,9.692,3.313,3.202,1.167,6.386,2.391,9.543,3.704.525.202.783.801.566,1.32-.192.462-.689.704-1.16.589-4.975-1.202-9.886-2.608-14.783-4.082-4.197-1.33-8.703-2.038-12.408-4.711-.738-.504-1.541-1.22-2.146-1.819-2.368-2.329-5.068-4.535-7.245-7.614-3.1-4.894-3.242-11.217-.162-16.008,2.201-3.065,5.832-4.432,9.362-4.989,1.736-.273,3.504-.321,5.25-.085,3.487.377,6.588,2.224,9.856,3.226,1.461.505.454,2.62-.856,1.807h0Z" fill="#797979"/><path d="M245.867,378.503c1.826-1.506,2.222-4.585,3.14-6.988,2.47-5.499,4.658-11.098,6.25-16.898,1.609-6.19,3.21-12.627,1.705-18.88-.737-3.645-4.884-7.024-8.339-4.786-4.968,4.168-5.89,11.296-6.344,17.437-.233,4.339.089,8.711.725,13.043.427,3.373,1.167,6.454,1.65,9.867.09,1.207-.32,4.909-2.13,4.142-.498-.259-.684-.881-.412-1.371.473-.854.696-1.718.664-2.682-1.379-9.77-3.217-19.878-1.259-29.744.51-3.279,1.534-6.836,3.631-9.529,3.978-6.847,12.22-3.78,14.059,2.975,1.882,6.706.311,13.776-1.419,20.227-1.201,4.311-2.706,8.53-4.514,12.607-1.493,3.053-2.621,5.982-3.837,9.168-.53,1.037-2.347,4.222-3.707,2.784-.329-.422-.263-1.027.137-1.373h0Z" fill="#797979"/><path d="M398.184,360.225c-.012.011-1.418-13.869-1.386-13.572-.008.061-2.193-9.509-2.098-9.112,0,0-2.591-5.927-2.591-5.927-1.145-1.767-2.664-4.194-3.977-6.142-.437-.746-1.006-1.101-1.639-1.677,0,0-2.489-2.172-2.489-2.172l.056.04-1.595-.907.376-.034-1.671,1.385.116-.225-.287,3.473-.006-.09c.016-.003,2.371,11.467,2.311,11.199,1.696,3.58,4.155,9.148,6.1,12.552-.035-.114,6.875,12.554,6.679,12.177,0,0,1.786,2.396,1.786,2.396l-.131-.135,1.476,1.088-.846.039.823-.776c-.321.398.567-.794.53-.75,0,0-.137.453-.137.453l-.03-.431.216.466c-1.81-1.558-1.587-4.213-1.77-6.235-1.092-10.022-2.85-20.364-8.431-28.933-1.493-2.301-3.264-4.376-5.419-6.048-.368-.309-1.095-1.01-1.325-1.006-.957.265-1.121,1.291-1.11,2.613-.036.993-.022,1.99.052,2.983.403,6.052,2.652,11.76,5.552,17.077,3.665,6.132,6.169,12.963,10.127,18.9.589.724,1.309,1.287,2.143,1.695.385.188.545.653.357,1.038-.775,1.367-3.086-1.051-3.696-1.745-.625-.704-1.246-1.902-1.726-2.715-3.028-5.402-5.588-11.002-8.763-16.308-2.052-3.619-3.786-7.472-4.879-11.552-.814-3.059-1.253-6.253-1.165-9.43-.047-1.501.35-3.455,1.925-4.217.63-.424,1.841-.402,2.445.067.721.475,1.242,1.077,1.9,1.555,10.73,9.686,12.844,25.276,13.705,38.926.101.937.419,1.731,1.049,2.337.251.222.2.593.221.885.011.167-.041.33-.137.453,0,0-.637.825-.637.825l-.011.015c-.021.028-.048.055-.073.078l-.844.753c-.237.223-.599.235-.847.038-.018-.014-1.442-1.136-1.458-1.149-.044-.035-.083-.077-.114-.121l-1.687-2.467c-.007-.011-.035-.055-.042-.068-2.547-5.18-5.22-10.452-7.905-15.576-.918-2.027-3.445-7.425-4.422-9.506-.037-.051-2.39-11.249-2.413-11.31-.006-.029-.008-.062-.006-.09l.268-3.474c.007-.09.052-.171.116-.225l1.663-1.394c.108-.091.26-.099.377-.034l1.6.899c.019.011.041.027.057.04l2.474,2.135,1.259,1.093c.393.436.684.956,1.012,1.398,1.246,1.835,2.478,3.672,3.684,5.529,0,0,2.688,5.883,2.688,5.883.012.027.022.054.028.082l2.321,9.146.01.051.002.018,1.798,13.593c.126,1.009-1.426,1.214-1.541.181h0Z" fill="#797979"/><path d="M378.878,100.897c-1.224-2.551-.173-5.067-.068-7.65.809-7.823.033-21.66-10.805-20.588-1.729.257-2.836,1.269-4.245,2.333-2.707,1.993-6.354,2.536-9.506,2.124-2.376-.184-4.611-1.125-6.953-1.071-6.828.444-7.338,6.612-7.323,12.095.037.984-.032,2.618.026,3.544.122,2.294.827,4.284,1.808,6.42,1.72,4.513,3.451,8.91,5.917,13.064,2.369,4.133,5.185,8.056,7.827,12.141.668,1.034-.887,2.114-1.612,1.063-2.683-3.981-5.592-7.865-8.164-12.048-2.6-4.116-4.569-8.668-6.406-13.144-1.009-2.277-2.315-4.772-2.338-7.371.011-3.78-.094-7.587.875-11.27,1.243-4.893,6.481-7.982,11.34-7.049,4.337.968,9.257,2.266,13.1-.532,1.453-1.136,3.286-2.45,5.251-2.668,4.162-.62,8.227,1.421,10.555,4.774,2.026,3.255,2.704,7.232,2.923,10.975.153,3.717-.141,7.371-.74,11.017-.163,1.13-.129,2.131.282,3.012.507,1.143-1.167,1.963-1.744.829h0Z" fill="#797979"/><path d="M256.911,197.719c-4.679-3.203-9.374-6.844-15.046-7.337-9.805-.464-15.606,10.56-14.151,19.356.02.246.135,1.581.157,1.802.148,1.539,1.697,2.746,2.771,3.855.357.337.745.807.94.936.466.39,1.34.289,2.497.353,7.79,1.217,14.899-3.905,20.33-8.917,2.708-2.665,3.611-6.555,2.608-10.172-.314-1.273,1.597-1.772,1.942-.498,1.151,7.295-2.757,11.425-8.388,15.203-4.807,3.528-10.494,6.412-16.634,5.81-1.257.088-2.974.149-3.926-1.012,0,0-.521-.474-.521-.474-1.356-1.209-2.989-2.415-3.518-4.362-.157-.756-.259-1.538-.356-2.306-1.459-8.163,2.169-17.422,10.107-20.918,3.889-1.783,8.602-1.205,12.327.567,3.748,1.673,6.942,4.137,10.041,6.498,1.01.786-.12,2.342-1.179,1.616h0Z" fill="#797979"/><path d="M267.626,208.697c.036-1.812,1.412-2.195,2.823-2.065,0,0,2.673.056,2.673.056,3.539.093,7.033.011,10.511-.684,3.406-.6,6.9-1.419,9.708-3.497,11.883-9.655-.74-18.539-11.797-15.329-5.109,1.006-10.185,2.483-14.843,4.788-3.093,1.552-6.106,3.242-8.142,5.782-.344.432-.974.504-1.406.16-1.596-1.291,2.837-4.576,3.816-5.287,6.099-3.954,13.172-5.995,20.255-7.205,3.589-.699,7.421-.851,10.854.596,12.132,4.709,7.107,16.488-3.093,19.566-4.954,1.499-10.665,1.895-15.824,2.266-1.104.152-2.682.157-3.647.508-.048.055.037.01.058.016.574,1.649-1.994,2.109-1.945.328h0Z" fill="#797979"/><path d="M398.438,265.249c-4.66,5.071-7.374,11.444-12.002,16.53-6.279,7.795-12.88,15.762-18.098,24.309-.62,1.033-1.315,2.02-2.018,3.031-.869,1.213-2.735-.045-1.886-1.312,1.628-1.236,2.906-3.903,3.898-5.668,3.382-5.932,7.002-11.743,10.948-17.315,2.674-3.689,5.299-7.393,8.391-10.753,3.203-3.157,6.962-5.922,8.891-10.097.802-1.54,3.031-.086,1.877,1.276h0Z" fill="#797979"/><path d="M325.688,121.231c-2.183,1.005-4.524.733-6.766.629-2.146-.07-4.298.025-6.418.34-3.79.641-8.845,2.027-10.285,5.898-1.455,5,2.482,10.232,2.125,15.456.024.995-.198,2.473-.3,3.331-.161,3.364,3.235,6.991,6.419,7.899,4.422.935,9.242.115,13.625-1.003,1.778-.476,3.518-1.263,5.591-.995.131.018.18-.028.384-.124,6.689-4.471,13.744-8.775,21.038-12.244.992-.463,1.787,1.008.798,1.569-3.753,2.082-7.426,4.307-11.024,6.665l-5.374,3.584s-2.683,1.808-2.683,1.808c-.642.429-1.559,1.291-2.582,1.446-.344.083-.774.045-1.13.018-1.785-.026-4.007,1.103-5.871,1.47-4.434,1.106-9.008,1.784-13.595.764-4.8-1.509-8.839-5.91-8.656-11.095.319-2.192.47-3.926.064-6.069-1.875-7.287-4.005-14.13,5-17.376,4.138-1.533,8.502-2.021,12.871-2.21,2.159-.075,4.385-.112,5.894-1.288,1.077-.771,2.102.97.876,1.526h0Z" fill="#797979"/><path d="M556.784,455.228c-.913-1.614-1.874-3.098-2.904-4.676l-1.504-2.345c-1.426-2.13-3.562-3.544-6.064-4.242-1.48-.483-3.896-.568-5.464-.716-3.833-.292-7.688-.398-11.548-.33-1.93.035-3.861.113-5.791.232-1.892.181-4.205-.018-3.892,1.597.717,3.534,2.192,7.457,4.986,9.903,2.921,2.599,7.026,2.846,10.786,2.76,3.885-.062,7.774-.157,11.649-.385,2.407-.132,4.853-.35,7.25-.619,1.084-.105,2.444-.082,2.478-1.375.205-1.298,2.152-1.016,1.981.288-.124.634-.428,1.326-1.018,1.845-1.425,1.149-3.202.682-4.805.824-3.703.065-13.697.101-17.529.113-3.892.058-8.163-.2-11.301-2.845-2.36-1.922-3.754-4.692-4.827-7.461-.442-1.45-1.532-3.203-.5-4.787,1.19-1.386,3.083-1.2,4.584-1.498,1.94-.253,3.888-.465,5.841-.634,3.906-.339,7.836-.505,11.773-.477,5.689-.247,11.554,1.327,14.713,6.484,1.487,2.376,2.884,4.868,3.036,7.827.059,1.081-1.456,1.473-1.932.516h0Z" fill="#797979"/><path d="M541.501,500.232c-1.177-10.16-15.926-7.377-23.127-7.397-2.236.038-3.856.905-4.3,3.041.099,1.18.71,2.744,1.32,3.854.114.203.313.469.335.477.025-.015-.207-.067-.137-.038.382.031,1.151.079,1.545.107,7.068.457,14.28.373,21.339-.162,1.275-.108,2.413.435,3.509-.136,1.596-.76,2.293,1.428,2.93,2.465.676,1.423.997,2.919,1.306,4.411.708,2.213-.61,4.367-2.948,4.659-6.283,1.05-12.591,1.079-18.932.316-5.158-.776-9.289-5.373-9.591-10.656-.008-1.354,2.005-1.357,2.001-.005-.103,3.136,2.016,6.474,4.743,8.139,3.058,1.719,6.666,1.427,10.121,1.689,3.828.13,7.67-.081,11.446-.716,1.682-.205,2.485-1.578,1.966-3.185-.416-2.147-.966-4.44-2.416-6.09-1.108.715-2.848.294-4.034.32-7.571.644-15.282.664-22.868.27-.235.005-.546-.043-.776-.2-1.124-.982-1.448-2.178-2.01-3.463-.233-.686-.58-1.48-.501-2.365.288-2.035,1.771-3.897,3.796-4.406,5.369-1.447,10.987-1.153,16.394-.417,5.032.425,10.67,3.761,10.887,9.398.033,1.32-1.916,1.403-1.998.089h0Z" fill="#797979"/><path d="M266.282,441.271c9.169,1.784,5.954,13.002-.26,16.419-.78.403-1.742.617-2.573.758-5.584,1.027-11.356.965-16.949.11-1.756-.313-3.737-.371-4.982-1.979-2.047-2.896-.118-7.28,1.469-9.976,2.803-4.401,8.45-5.317,13.26-5.283,3.259.087,6.359-.354,9.656-.079,1.398.155,1.084,2.248-.303,1.977-2.933-.661-6.2-.381-9.378-.649-6.731-.253-12.381,1.623-13.537,9.008-.422,2.154-.368,4.172,1.845,4.561,6.091,1.139,12.422,1.279,18.522.146,4.282-.227,8.438-7.436,6.178-11.141-.67-.97-2.037-1.514-3.511-1.954-1.256-.391-.7-2.265.564-1.919h0Z" fill="#797979"/><path d="M167.995,496.092c-.065,2.225-1.085,4.036-2.052,5.614-2.016,3.152-3.248,7.084-6.814,9.019-1.781.989-3.782,1.276-5.655,1.431-3.724.251-7.43.397-11.185.264-2.887-.22-6.021-.046-8.693-1.538-2.504-1.272-1.966-4.417-1.237-6.514,1.148-3.76,3.387-7.103,6.075-9.918.685-.687,1.265-1.365,2.242-2.071,1.878-1.315,4.066-1.704,5.998-1.846,3.341-.194,7.859.039,11.205.063,3.776-.084,9.939.283,10.12,5.3.034,1.253-1.828,1.391-1.989.161-.309-2.49-3.334-2.759-5.41-2.778-1.732.037-6.467.131-8.262.167-3.256.127-7.219-.369-9.915,1.425-3.794,3.138-7.216,7.743-8.026,12.689-.358,2.326,6.324,2.409,8.021,2.667,3.619.294,7.308.318,10.958.238,1.792-.05,3.547-.305,5.042-1.074,3.199-1.641,4.552-5.395,6.473-8.315.934-1.532,1.579-3.27,1.114-4.789-.391-1.567,2.054-1.819,1.99-.197h0Z" fill="#797979"/><path d="M473.858,188.185c-2.925-2.227-6.056-4.863-8.592-7.476-1.896-1.58-5.321-2.184-7.504-3.789-6.118-4.105-15.946-8.002-22.782-3.941-5.106,2.909-5.367,9.681-1.632,13.875,3.774,4.194,9.461,6.187,14.885,7.318,2.826.666,5.664.785,8.538.988,1.23.283,2.063,1.086,2.742,1.392,1.191.556.39,2.362-.828,1.834-1.232-.767-1.729-1.655-2.879-1.727-6.401-.892-12.87-2.428-18.493-5.712-10.686-5.712-10.496-19.439,2.278-21.852,5.996-.747,11.963,1.266,17.109,4.138,1.653.89,3.039,2.075,4.79,2.804,1.639.74,3.633,1.351,5.344,2.798,1.566,1.485,2.533,2.693,4.068,4.048,1.375,1.268,2.82,2.492,4.242,3.769.411.369.445,1.002.076,1.413-.353.393-.95.439-1.361.12h0Z" fill="#797979"/><path d="M279.172,314.796c1.333,1.833,3.322,2.665,5.146,3.761,1.855,1.047,3.781,2.002,5.651,3.065,3.781,2.062,7.151,4.773,10.336,7.662,3.18,2.894,6.112,6.095,8.799,9.465,2.066,2.295,3.59,5.323,5.846,7.363.737.556,1.589.838,2.417.715.689-.102,1.33.374,1.432,1.063.155.921-.795,1.688-1.667,1.382-2.476-.532-4.198-2.466-5.571-4.303-1.298-1.639-2.7-3.192-4.186-4.662-4.325-4.224-9.728-8.221-14.459-12.025-3.288-2.598-6.324-5.578-9.618-8.198-1.7-1.258-3.259-2.745-5.471-3.234-.708-.156-1.155-.857-.999-1.565.207-1.084,1.729-1.393,2.344-.489h0Z" fill="#797979"/><path d="M496.5,479.452c-.327-2.98-1.045-5.868-2.52-8.482-2.059-3.649-5.467-5.336-9.481-5.45-4.242-.12-8.502-.302-12.75.18-5.271.598-7.513,3.504-5.948,8.49,1.924,6.13,3.766,8.832,12.196,9.319,4.283.247,8.521.074,12.748-.364,2.327-.241,4.991-.385,5.756-3.443" fill="none" stroke="#797979" stroke-linecap="round" stroke-linejoin="round" stroke-width="2"/><path d="M246.505,471.355c.66-5.472-7.149-5.615-11.029-5.371-2.945.052-7.357-.324-10.139.64-4.099,1.269-6.291,5.482-7.971,9.144-1.881,3.505-.336,6.14,3.536,6.724,5.784,1.104,11.934.513,17.714-.34,3.259-.623,5.788-2.661,6.87-5.812.38-1.256,1.215-3.16,1.035-4.425-.249-1.276,1.65-1.688,1.954-.424.337,2.19-.56,3.625-1.179,5.57-2.243,6.001-7.888,7.123-13.583,7.213-5.177.262-10.755.59-15.653-1.507-2.911-1.512-3.1-4.769-1.635-7.411,1.81-3.905,4.253-8.275,8.598-9.697,3.382-1.124,6.965-.664,10.408-.862,4.887-.658,13.552.025,13.062,6.791-.13,1.385-2.186,1.135-1.988-.234h0Z" fill="#797979"/><path d="M226.523,213.15c-1.516.074-2.922,1.055-4.659,1.969-4.87,2.478-9.73,5.106-13.935,8.566-4.051,3.328-7.866,7.698-7.862,13.079.418,6.153,6.355,7.803,11.514,5.801,3.299-1.284,6.692-3.022,8.974-5.833,2.242-2.851,3.703-6.358,5.46-9.548,1.701-3.295,3.335-6.627,4.862-10.026.548-1.186,2.357-.397,1.831.823-3.506,5.536-6.693,11.24-9.787,17.017-2.298,4.275-6.53,6.9-10.937,8.663-9.192,3.851-16.496-3.433-12.557-12.618,2.249-5.391,6.956-9.217,11.596-12.489,3.126-2.079,6.459-3.86,9.834-5.452,1.183-.592,6.306-3.501,6.618-.938-.007.531-.429.96-.951.987h0Z" fill="#797979"/><path d="M269.182,207.869c3.204,2.788,7.496,4.062,11.197,6.169,5.676,3.053,11.521,6.936,14.565,12.919,3.685,6.63,1.063,14.989-6.415,17.382-2.424.655-4.779.34-6.888.16-3.62-.384-6.395-2.034-9.604-3.176-2.641-1.26-4.104-3.562-6.487-4.907-.099-.059-.616-.319-.907-.571-1.621-1.504-2.146-3.089-3.769-4.418-.462-.437-.786-1.04-1.117-1.526-2.069-3.155-4.849-7.71-6.879-10.939-.238-.403-1.921-3.013-2.158-3.382-.433-.704-.923-1.077-1.481-1.844-.698-.967.714-2.112,1.507-1.192.284.336.676.662,1.108,1.099,4.037,4.946,7.306,10.603,11.102,15.705,1.1.869,2.473,2.783,3.216,3.792.368.396.249.309.811.614,2.367,1.224,4.088,3.695,6.311,4.842.738.281,2.217.898,2.941,1.217,3.687,1.771,7.896,2.651,11.657,2.018,3.666-.949,6.597-4.494,6.768-8.324.221-3.96-1.857-7.943-4.62-11.019-2.822-3.113-6.454-5.442-10.142-7.613-3.678-2.14-7.874-3.201-11.832-5.442-.464-.263-.628-.853-.365-1.317.292-.53,1.028-.653,1.478-.25h0Z" fill="#797979"/><path d="M454.998,332.435c11.246-.573,13.273,17.951,3.024,21.059-1.793.402-3.686-.075-5.055-1.148-1.226-.843-1.812-2.417-2.792-3.232-.984-.753.063-2.288,1.119-1.654,1.398.817,1.875,2.201,3.069,2.951.931.596,2.054.816,3.037.531,4.646-1.915,5.448-8.457,3.265-12.561-1.091-2.231-3.145-3.758-5.67-3.947-1.223-.098-1.214-1.907.003-1.999h0Z" fill="#797979"/><path d="M272.579,360.013c-.178.03-.648.091-.828.094-.087.006-.206-.002-.413-.051-1.535-.773-.94-2.225-.444-2.389.544-.317.223-.118.379-.2.14-.052.326-.083.473-.11,5.413-.555,10.658,2.712,14.058,6.767,6.911,8.38,9.135,19.509,10.077,30.003.477,5.238.684,10.413,1.087,15.69.056.736-.495,1.378-1.231,1.434-.833.073-1.542-.676-1.427-1.503.633-5.086.206-10.289-.632-15.33-.891-5.055-2.336-9.965-4.131-14.679-3.114-8.156-7.037-17.148-16.021-19.64-.375-.125-1.045-.094-1.472-.049,0,0,.03-.008.03-.008l.077-.024c.146-.078-.185.122.35-.189.482-.158,1.078-1.604-.443-2.372-.198-.048-.137-.029-.219-.042l-.103-.005c-.035.002-.009.001-.009.001,0,0,.076-.002.076-.002,0,0,.433-.035.433-.035,1.731-.164,2.037,2.374.333,2.638h0Z" fill="#797979"/><path d="M273.114,359.633c-4.243.465-5.663,6.224-3.222,9.222.831,1.09,2.208,1.734,3.496.94.836-.476,1.183-1.403,2.217-1.952,1.041-.581,2.036.899,1.12,1.645-.269.213-.432.464-.75.927-1.847,3.014-6.034,2.975-8.209.269-3.214-3.626-2.438-10.034,1.893-12.379,1.106-.565,4.353-1.52,4.359.426-.048.486-.437.856-.904.901h0Z" fill="#797979"/><path d="M523.174,286.065c.834.394.925.757.889,1.111.008,2.492-.251,4.987-.644,7.443-.786,4.968-1.857,11.953-3.021,16.775,0,0-.483,2.074-.483,2.074-.547,2.169.726,3.689.431,6.202-.16,1.294-2.108,1.103-1.989-.215.189-1.13-.221-2.432-.422-3.992-.106-.732-.044-1.76.164-2.438,1.464-6.13,2.855-12.341,3.314-18.636.108-1.428.335-4.894.509-6.281,0,0,.111-1.045.111-1.045-.024-.435.401-.913,1.141-.997h0Z" fill="#797979"/><path d="M609.5,592.619c-.802-.4-1.662-.23-2.5-.246-8.666-.159-17.338.307-26-.25-.48-.031-.767.493-1.25.495" fill="none" stroke="#797979" stroke-linecap="round" stroke-linejoin="round" stroke-width="2"/><path d="M543.014,335.472c-7.175.079-14.955,1.846-22.007,3.221-1.486.296-2.969.642-4.406,1.096-.395.136-.899.299-1.308.26-.907-.052-1.443-.451-2.099-.743-.504-.226-.729-.818-.503-1.323.359-.891,1.505-.517,2.108-.31.596.186.576.073,1.046-.088,3.882-1.46,8.029-2.088,12.097-2.544,4.981-.612,10.1-.932,15.113-.254.402.048.379.689-.042.685h0Z" fill="#797979"/><path d="M137.93,284.667c5.261.311,10.371,1.605,15.295,3.392,3.67,1.438,6.905,3.72,10.577,5.196,1.212.507,2.445.957,3.639.779.965-.144,1.865.522,2.009,1.488.271,1.481-1.545,2.598-2.742,1.722-4.363-3.524-9.686-3.909-14.8-5.452-4.887-1.683-9.675-3.445-14.337-5.766-.679-.32-.387-1.42.36-1.359h0Z" fill="#797979"/><path d="M221.218,238.716c.222,2.134-.182,4.542-.573,6.57-.727,3.981-.894,7.925.669,11.664,3.22,9.283,14.002,6.856,17.477-.983,1.052-2.035,1.232-4.193,2.706-6.128.876-1.123,2.589.163,1.735,1.321-1.578,1.297-2.171,3.655-3.226,5.429-2.105,3.909-5.536,7.375-10.109,8.186-8.205,1.33-12.614-6.156-12.801-13.414-.217-4.449,1.709-8.348,1.967-12.641.11-1.313,2.044-1.319,2.156-.004h0Z" fill="#797979"/><path d="M322.833,278.521c-.572,3.313-1.572,6.432-2.563,9.541-1.383,4.68-3.859,9.081-4.957,13.878-.469,3.202-2.545,6.266-2.847,9.434-.109,1.342.166,2.532,1.675,2.423.647-.013,1.183.501,1.196,1.148-.123,1.733-1.987,1.209-3.018.524-4.074-3.153,1.531-9.745,1.555-13.787.635-4.975.833-10.156,2.581-14.891,1.098-3.168,2.4-6.252,4.213-9.109.35-.552,1.082-.715,1.634-.365.415.264.61.747.532,1.203h0Z" fill="#797979"/><path d="M473.795,92.778c3.828-3.902,5.925-9.247,5.665-14.701-.15-3.613.341-7.329,2.016-10.612,1.073-2.155,2.533-3.837,3.732-5.893,2.267-4.038,5.443-7.874,9.408-10.487,4.698-3.414,12.586-5.5,17.024-.58,2.522,2.99,1.819,7.321.035,10.465-3.488,6.242-10.519,9.266-16.951,11.429-1.85.616-3.83,1.283-5.645,2.003-2.591.968-5.465.474-7.971.341-.553-.031-.978-.504-.947-1.058.028-.617.631-1.067,1.23-.922,2.415.515,4.909,1.242,7.312.57,3.974-1.272,8.384-2.279,12.129-4.12,3.97-1.977,7.896-4.681,9.855-8.755,3.65-7.345-1.306-12.587-8.972-10.337-4.12,1.232-7.651,4.197-10.573,7.314-2.133,2.476-3.713,5.671-5.65,8.434-1.957,2.641-3.07,5.6-3.408,8.87-.256,2.267.026,4.602-.317,6.879-.597,4.826-3.083,9.349-6.564,12.58-.915.846-2.283-.484-1.409-1.419h0Z" fill="#797979"/><path d="M577.25,282.098c-7.906,3.156-14.939,7.852-21.988,12.509-1.91,1.262-3.789,2.567-5.762,3.729" fill="none" stroke="#797979" stroke-linecap="round" stroke-linejoin="round" stroke-width="2"/><path d="M205.576,328.208c-.946.351-2.161.946-3.472.867-1.105-.074-2.151-.129-3.23-.14-4.275-.038-8.587.362-12.718,1.484-2.055.582-4.073,1.302-5.95,2.335-.747.411-1.685.139-2.096-.608-.411-.747-.139-1.685.608-2.096,7.711-1.37,15.546-2.078,23.37-2.432.887-.061,1.638-.568,2.586-1.196,1.252-.776,2.282,1.228.901,1.785h0Z" fill="#797979"/><path d="M460.915,73.157c-1.049,1.629-2.328,2.737-3.189,4.092-2.616,4.414-1.092,9.88,4.214,11.03,4.532,1.089,8.76-3.737,8.676-8.016,0-1.671-.003-3.34.135-5.012.043-.552.527-.965,1.079-.921.498.039.882.439.921.921.165,3.488.617,7.381-1.615,10.35-2.072,3.026-5.889,5.355-9.563,4.145-4.741-1.261-7.31-5.95-5.781-10.59.465-2.453,2.759-4.586,3.293-6.808.437-1.562,2.689-.574,1.83.808h0Z" fill="#797979"/><path d="M268.44,90.516c2.439,2.04,5.427,5.193,5.146,8.832-.671,5.177-3.499,8.868-9.002,9.215,0,0-.799.119-.799.119-1.664.313-3.555-.395-4.618-1.705-1.978-2.249-3.848-4.853-3.96-8.009.098-2.095-.272-4.389,1.215-6.22,2.038-2.22,4.946-3.9,8.042-3.741,1.243.199,1.917.861,2.905.992,1.211.004,1.436,1.701.261,1.983-1.209.302-2.499-.331-3.452-.374-2.11.426-4.133,1.666-5.51,3.323-.45.81-.325,2.272-.447,3.289-.255,2.168.646,4.148,1.864,5.968.821,1.316,1.776,2.725,3.51,2.497.527-.007,1.904-.119,2.447-.135,2.482-.078,4.762-1.757,5.687-4.142.42-.929.428-2.005.167-2.97-.571-3.114-2.536-5.174-4.838-7.476-.871-.904.44-2.267,1.381-1.447h0Z" fill="#797979"/><path d="M490.75,76.251c-.864,1.823-.84,3.852-.925,5.749-.254,5.643-2.402,10.485-5.594,14.972-.401.563-.779,1.104-.981,1.762" fill="none" stroke="#797979" stroke-linecap="round" stroke-linejoin="round" stroke-width="2"/><path d="M238.75,96.735c1.7,2.075.837,4.685,1.402,7.019,1.219,5.029,3.011,9.654,6.599,13.465.403.428.466,1.017.749,1.5" fill="none" stroke="#797979" stroke-linecap="round" stroke-linejoin="round" stroke-width="2"/><path d="M249.538,92.216c.891-3.915,1.27-7.915,1.291-11.95.051-5.79-.251-12.241-4.177-16.831-1.333-1.211-3.12-2.477-4.994-2.594-1.879.174-3.707,1.421-4.914,2.965-2.218,2.943-1.504,6.878-1.314,10.329,0,0,.024.79.024.79.093,1.115,1.077,1.799,1.948,2.652,4.032,3.382,6.88,7.937,9.517,12.372.546.902,1.161,1.916,1.46,2.957.888,3.046.668,6.145,1.657,9.122,1.083,3.81,3.238,7.246,6.337,9.661.436.339.514.968.174,1.403-.343.442-.985.515-1.419.162-1.681-1.356-3.178-2.971-4.339-4.803-1.766-2.735-2.775-5.83-3.322-9.004-.426-2.471-.261-5.021-1.418-7.239-2.219-3.986-4.895-7.757-7.715-11.279-.604-.83-1.239-1.576-1.948-2.328-.81-.922-2.142-2.203-2.009-3.72.329-3.828-.387-8.017,1.942-11.39,1.29-1.715,3.071-3.117,5.257-3.489,2.193-.121,4.299,1.092,6.032,2.389,3.183,2.973,4.861,7.329,5.417,11.583.649,6.303.454,12.718-1.562,18.783-.419,1.184-2.185.682-1.924-.545h0Z" fill="#797979"/><path d="M350.34,136.264c-.885.732-2.091.83-2.918.745-2.399-.192-4.702-.77-7.099-.342-3.151.397-6.256,1.105-9.385,2.06-.822.253-1.694-.208-1.948-1.03-.333-1.011.516-2.089,1.572-2.015,3.217.172,6.438-.092,9.664-.208,2.316.021,4.973-.632,7.275-.51.766-.004,1.252-.065,1.684-.332,1.039-.634,2.096.865,1.154,1.63h0Z" fill="#797979"/><path d="M359.738,102.573c.629,3.021.535,6.159,1.188,9.178.565,3.043,1.199,6.076,2.065,9.057.364,1.412-1.819,1.816-1.972.352-.401-4.647-1-9.244-2.207-13.743-.393-1.498-.849-2.992-1.049-4.528-.063-.549.331-1.045.88-1.108.521-.061.992.292,1.095.793h0Z" fill="#797979"/><path d="M237.5,120.718c-1.434-3.36-3.48-6.427-4.542-9.98-.791-2.644-.898-5.44-1.958-8.007" fill="none" stroke="#797979" stroke-linecap="round" stroke-linejoin="round" stroke-width="2"/><path d="M498.75,81.996c-1.402,1.419-.899,3.323-1.219,5.002-.721,3.781-1.713,7.44-3.78,10.737-.382.609-.522,1.285-.501,1.998" fill="none" stroke="#797979" stroke-linecap="round" stroke-linejoin="round" stroke-width="2"/><path d="M415.104,150.629c10.576-1.255,21.233-.053,31.83.071,1.305-.041,1.413,1.916.092,2-7.984-.003-16.03.968-24.023.493-2.669-.125-5.336-.299-7.986-.678-.518-.074-.877-.554-.803-1.072.065-.459.448-.786.889-.814h0Z" fill="#797979"/><path d="M357.884,146.167c-3.169,3.743-5.12,8.251-6.936,12.744-.551,1.51-1.04,3.036-1.345,4.606-.22,1.13-1.314,1.867-2.444,1.647-1.49-.253-2.195-2.132-1.261-3.307,2.631-3.725,6.044-8.258,8.341-12.165.783-1.405,1.48-2.863,1.877-4.46.137-.552.696-.889,1.248-.751.742.166,1.034,1.136.519,1.687h0Z" fill="#797979"/><path d="M572,108.976c-1.862-1.942-4.072-3.464-6.278-4.955-1.129-.763-2.48-1.059-3.984-.579-2.286.729-4.654,1.204-6.988,1.787" fill="none" stroke="#797979" stroke-linecap="round" stroke-linejoin="round" stroke-width="2"/><path d="M468,88.242c3.153,4.65,7.599,7.919,12.574,10.072,2.612,1.13,5.456,2.307,8.427,2.66.493.059,1.019.1,1.496-.006,4.55-1.009,9.423-1.217,12.792-5.199.287-.339.468-.569,1.006-1.03" fill="none" stroke="#797979" stroke-linecap="round" stroke-linejoin="round" stroke-width="2"/><path d="M261,107.727c-3.463,4.87-7.658,8.832-13.226,11.295-1.899.84-3.73,1.759-5.766,2.229-.234.054-.477.236-.758.215-4.455-.34-9.024.186-13.03-2.706-3.585-2.588-3.707-2.452-7.206-.02-.447.311-.848.145-1.265.229" fill="none" stroke="#797979" stroke-linecap="round" stroke-linejoin="round" stroke-width="2"/><path d="M247.25,93.488c-1.486.336-2.946.706-4.497.804-1.376.087-2.975.035-3.768,1.687-.492,1.025-1.756.485-2.473,1.022-1.987,1.488-4.34,2.39-5.649,4.909-.706,1.36-2.494,2.193-3.421,3.785-1.965,3.375-3.071,6.864-2.692,10.776" fill="none" stroke="#797979" stroke-linecap="round" stroke-linejoin="round" stroke-width="2"/><path d="M454.955,57.058c3.902,2.036,6.605,5.643,8.287,9.625.56,1.353.872,2.784,1.19,4.331.115.56-.246,1.108-.806,1.223-.56.115-1.108-.246-1.223-.806,1.062-5.4-3.052-11.191-8.008-13.065-.936-.347-.349-1.747.56-1.307h0Z" fill="#797979"/><path d="M271.438,76.977c-4.242,2.767-7.078,7.991-6.441,13.092.122,1.62-2.346,1.453-1.998-.143,1.3-5.336,3.632-10.099,7.072-14.412.998-1.223,2.661.541,1.367,1.463h0Z" fill="#797979"/><path d="M372.693,143.23c1.54,2.611,3.607,4.604,5.609,6.707,2.02,2.073,4.085,4.113,6.394,5.865,1.554,1.304-.675,3.416-1.892,1.778-1.648-2.459-3.372-4.783-5.196-7.025-1.841-2.211-3.675-4.488-6.302-5.883-1.505-.939.382-2.913,1.386-1.442h0Z" fill="#797979"/><path d="M162.75,304.582c.633,3.056.487,6.154.499,9.243.005,1.416,0,2.831,0,4.247" fill="none" stroke="#797979" stroke-linecap="round" stroke-linejoin="round" stroke-width="2"/><path d="M376,136.956c-1.414.515-1.939,1.948-2.419,3.034-1.741,3.932-5.938,4.263-8.831,6.459-3.057-1.25-6.65-.052-9.549-2.439-2.425-1.997-4.546-3.869-4.741-7.302-.193-3.394-.303-6.467,1.922-9.58,2.322-3.249,5.385-4.902,8.89-5.542,3.26-.595,6.782-.43,9.716,1.647,4.433,3.138,5.71,7.533,4.767,12.724-.05.275-.058.572.245.749" fill="none" stroke="#797979" stroke-linecap="round" stroke-linejoin="round" stroke-width="2"/><path d="M102.25,179.674c1.771,3.617,2.736,7.587,4.933,11.035.371.582,1.19,1.062,1.067,1.956" fill="none" stroke="#797979" stroke-linecap="round" stroke-linejoin="round" stroke-width="2"/><path d="M364.75,146.699c.636,4.398,1.096,8.816,1.5,13.24" fill="none" stroke="#797979" stroke-linecap="round" stroke-linejoin="round" stroke-width="2"/><path d="M102,158.19c.404,2.266.039,4.581-.383,6.719-.434,2.2-.039,4.19.133,6.272" fill="none" stroke="#797979" stroke-linecap="round" stroke-linejoin="round" stroke-width="2"/><path d="M157.75,121.467c2.806,1.529,6.016,1.61,9.017,2.436,1.174.323,2.275.871,3.483,1.062" fill="none" stroke="#797979" stroke-linecap="round" stroke-linejoin="round" stroke-width="2"/><path d="M279.776,84.245c-4.972-.892-8.887,3.632-11.343,7.475-.731,1.16-2.48.089-1.768-1.091.857-.771,2.245-1.407,3.386-2.53,2.791-2.604,5.748-5.171,9.673-5.853,1.638-.313,1.711,2.227.052,1.999h0Z" fill="#797979"/><path d="M388.862,127.474c-2.189-.021-4.31.398-6.413.905-2.128.541-4.161,1.069-5.913,2.539-.46.402-1.163.349-1.558-.117-.664-.73.031-1.965.987-1.8,2.241.288,4.203-.617,6.133-1.572,1.956-.998,3.805-2.103,5.558-3.491.854-.69,2.106-.556,2.796.298,1.08,1.252.037,3.324-1.589,3.237h0Z" fill="#797979"/><path d="M385.87,116.007c-3.089,1.937-5.917,4.281-8.379,6.966-.869.804-1.218,2.035-2.652,3.104-1.236,1.216-2.945-.536-1.63-1.674.278-.207.624-.27.939-.203.447.098.935-.152,1.364-.531,1.255-1.305,2.492-2.77,3.8-4.05,1.733-1.764,3.55-3.439,5.32-5.182.395-.391,1.032-.388,1.423.006.455.448.361,1.234-.184,1.563h0Z" fill="#797979"/><path d="M489.06,208.62c-2.175.793-5.119,1.783-7.724,1.041-.302-.12-.77-.211-1.083-.308-1.426-.352-2.62-.432-4.09-1.449-3.191-2.981-6.357-7.13-6.124-11.776.154-3.621,1.501-7.061,4.141-9.619,1.709-1.547,3.629-2.285,5.584-3.091.288-.126.886-.355,1.184-.459,3.409-1.244,6.916.329,9.813,1.94,2.349,1.049,4.189,3.277,5.019,5.655,1.13,3.174,1.843,6.736.462,9.962-1.334,3.155-3.871,5.46-6.184,7.802-1.225,1.194-2.946-.707-1.636-1.807,3.494-2.738,7.52-6.091,7.004-10.956-.359-2.897-1.158-6.177-3.476-8.106-2.351-1.593-5.456-3.181-8.296-3.117-1.071.049-2.119.45-3.07.931-1.654.801-3.535,1.751-4.683,3.008-1.836,2.037-2.807,5.105-2.679,7.851.087,3.312,2.406,5.748,4.605,8.074.795,1.132,2.676,1.036,3.998,1.446,2.343.791,4.379.063,7.116.544,1.285.211,1.361,2.102.119,2.433h0Z" fill="#797979"/><path d="M127.25,124.715c.159,1.16-.716,1.498-1.488,2.016-2.423,1.624-4.934,3.124-7.051,5.188-.474.462-.391.834-.46,1.29" fill="none" stroke="#797979" stroke-linecap="round" stroke-linejoin="round" stroke-width="2"/><path d="M191.75,127.713c-3.835-.49-7.741-.427-11.5-1.499" fill="none" stroke="#797979" stroke-linecap="round" stroke-linejoin="round" stroke-width="2"/><path d="M148.25,121.217c-2.786.037-5.543.37-8.243,1.026-1.083.263-2.145.489-3.257.473" fill="none" stroke="#797979" stroke-linecap="round" stroke-linejoin="round" stroke-width="2"/><path d="M594.25,125.214c2.285,3.424,4.147,7.11,6.5,10.492" fill="none" stroke="#797979" stroke-linecap="round" stroke-linejoin="round" stroke-width="2"/><path d="M447.232,65.644c4.745-.443,8.914,2.545,12.208,5.594.549.473.952.674,1.417.534,2.179-1.07,4.871-1.38,7.013.03,1.136.806,2.15,1.742,3.603,1.784,2.868.121,5.782-1.635,8.854-1.329,1.305.092,1.209,2.056-.118,1.997-4.908-.313-8.717,3.206-13.181-1.135-1.358-.939-3.165-1.043-4.708-.425-.81.372-1.776.731-2.658.304-1.726-.982-2.835-2.618-4.417-3.712-2.279-1.807-5.03-3.015-7.975-2.913-.457.028-.508-.708-.036-.728h0Z" fill="#797979"/><path d="M257.5,205.905c3.544.938,7.172,1.474,10.75,2.248" fill="none" stroke="#797979" stroke-linecap="round" stroke-linejoin="round" stroke-width="2"/><path d="M603,143.201c.939,3.44.724,6.989,1,10.492" fill="none" stroke="#797979" stroke-linecap="round" stroke-linejoin="round" stroke-width="2"/><path d="M557,85.744c-.02,3.662.508,7.207,2.25,10.492" fill="none" stroke="#797979" stroke-linecap="round" stroke-linejoin="round" stroke-width="2"/><path d="M603,162.187c.206,3.667-1.302,6.916-2.49,10.246-.09.254-.063.569.24.746" fill="none" stroke="#797979" stroke-linecap="round" stroke-linejoin="round" stroke-width="2"/><path d="M580.25,112.973c3.198,1.587,5.644,4.195,8.499,6.247.309.222.613.441,1.001.498" fill="none" stroke="#797979" stroke-linecap="round" stroke-linejoin="round" stroke-width="2"/><path d="M536.75,104.73c2.49.996,5.057,1.551,7.748,1.232.637-.076,1.151.308,1.752.267" fill="none" stroke="#797979" stroke-linecap="round" stroke-linejoin="round" stroke-width="2"/><path d="M510.17,97.982c-2.043-.782-3.15-1.831-4.871-2.541-1.309-.568-.983-2.145-1.216-3.244-.368-2.674-1.253-5.296-2.866-7.407-2.908-3.383-5.871-7.314-10.52-7.969-1.026-.181-1.928-1.485-2.37-1.832-.445-.331-.537-.96-.206-1.405.359-.491,1.093-.542,1.519-.109.853.806.934,1.461,1.718,1.654,3.355.746,6.043,3.134,8.165,5.677.911,1.098,1.758,2.112,2.644,3.274,2.168,2.869,2.924,6.544,3.207,9.967.074.251.149.353.33.435,1.486.593,2.972,2.019,4.627,1.505,2.053-.495,1.852,2.767-.16,1.993h0Z" fill="#797979"/><path d="M110.5,139.204c-.536,2.647-2.281,4.689-3.491,7-.732,1.399-1.625,2.776-1.259,4.492" fill="none" stroke="#797979" stroke-linecap="round" stroke-linejoin="round" stroke-width="2"/><path d="M574.75,77.5c3.047,1.909,3.426,5.191,4.25,8.244" fill="none" stroke="#797979" stroke-linecap="round" stroke-linejoin="round" stroke-width="2"/><path d="M114.25,200.659c2.456,2.033,4.533,4.474,7,6.495" fill="none" stroke="#797979" stroke-linecap="round" stroke-linejoin="round" stroke-width="2"/><path d="M567.75,74.752c-2.858.662-5.529,1.674-7.5,3.997" fill="none" stroke="#797979" stroke-linecap="round" stroke-linejoin="round" stroke-width="2"/><path d="M530.25,104.23c-2.535-1.091-5.19-1.926-7.5-3.497" fill="none" stroke="#797979" stroke-linecap="round" stroke-linejoin="round" stroke-width="2"/><path d="M208.25,123.716c-2.319,1.173-4.925,1.591-7.25,2.748" fill="none" stroke="#797979" stroke-linecap="round" stroke-linejoin="round" stroke-width="2"/><path d="M595.5,181.173c-1.101,2.659-3.097,4.71-4.75,6.995" fill="none" stroke="#797979" stroke-linecap="round" stroke-linejoin="round" stroke-width="2"/><path d="M247.75,93.238c3.159-1.097,6.038.323,9,.999" fill="none" stroke="#797979" stroke-linecap="round" stroke-linejoin="round" stroke-width="2"/><path d="M576.25,92.239c-.763,3.172-3.467,4.82-5.5,6.995" fill="none" stroke="#797979" stroke-linecap="round" stroke-linejoin="round" stroke-width="2"/><path d="M556.233,304.773c.104,2.703.055,5.323.088,8.002-.003,2.542-.248,5.107.405,7.526.142.534-.176,1.082-.71,1.224-1.948.476-1.395-3.795-1.445-4.903.311-3.864,1.14-7.761-.304-11.478-.477-1.48,1.866-1.932,1.965-.371h0Z" fill="#797979"/><path d="M370.112,443.073c-6.932-1.467-11.313,6.861-6.058,11.743,4.287,4.283,12.393,2.745,17.988,2.491,4.829-.246,8.977-2.332,7.423-7.811-.555-2.966-1.859-5.376-5.047-5.828-4.576-.762-9.313-.28-14.015-.594-1.238-.084-1.236-1.917,0-2,3.148-.194,6.337-.293,9.571-.159,4.217.126,9.469.966,10.734,5.768.729,2.509,1.338,5.005.284,7.644-1.552,3.271-5.596,4.183-8.889,4.221-5.733.021-14.177,1.261-18.53-3.27-4.738-4.625-2.048-12.134,4.075-13.791,1.081-.153,3.425-1.113,3.672.503.07.663-.561,1.222-1.209,1.082h0Z" fill="#797979"/><path d="M175.833,442.977c-5.999-.62-10.715,2.733-13.175,8.029-.557,1.201-1.579,2.691-.541,3.874.651.743,1.785,1.106,2.798,1.179,1.172.088,2.442.172,3.61.172,4.63-.026,9.769-.341,14.331-.381,3.001-.249,5.65-2.309,7.189-4.936,1.05-1.878,2.491-4.3,2.087-6.438-2.306-2.905-12.468-1.574-16.131-1.496-1.315.09-1.479-1.87-.167-2,1.715.092,3.387.21,5.075.266,2.955.223,10.663-.052,12.139,2.857.621,2.601-.954,5.172-2.04,7.372-2.877,5.464-6.452,7.785-12.708,7.683-4.971.135-10.198-.206-14.991-1.742-2.518-.922-3.76-3.437-2.253-5.83,1.277-2.657,2.871-5.19,5.157-7.121,2.537-2.278,6.228-3.261,9.455-3.482.551-.098,1.078.275,1.167.829.104.607-.386,1.175-1.001,1.164h0Z" fill="#797979"/><path d="M214.699,442.653c-.9.017-1.963.208-2.947.3-5.171.47-8.604,5.426-9.444,10.238-.393,2.571,4.567,2.948,6.445,3.157,3.207.287,6.399.487,9.559.303,3.001-.24,6.281-.349,8.645-2.455,2.534-2.197,4.108-5.718,4.131-9.136-.027-3.919-13.328-2.775-16.154-2.407-.552.073-1.059-.315-1.133-.867-.096-.647.488-1.227,1.133-1.133,1.622.215,3.244.337,4.865.401,3.258.102,6.625-.061,9.801.95.774.201,1.81.629,2.327,1.572.491.855.411,1.817.349,2.731-.292,3.377-1.714,6.685-4.275,9.071-2.518,2.442-6.22,2.863-9.555,3.197-4.369.116-16.828,1.073-18.256-4.05-.441-2.309.644-4.58,1.564-6.597,1.772-3.52,5.11-6.486,9.148-6.97,1.268-.112,2.435-.287,3.781-.305,1.302.029,1.312,1.954.015,2h0Z" fill="#797979"/><path d="M408.254,442.98c-6.786-.365-8.486,8.054-3.692,11.884,2.191,1.823,5.414,2.122,8.527,2.25,3.139.129,6.322-.041,9.532-.111l1.206-.02c2.545.195,5.228-1.15,5.781-3.797.355-1.47.042-2.925-.596-4.317-1.137-2.929-2.892-5.562-6.249-5.947-4.714-.839-9.478-.566-14.263.058-1.489.145-1.498-2.142,0-2,3.169.414,6.39.372,9.607.555,3.2.281,6.885.134,9.323,2.676,1.156,1.278,1.853,2.783,2.515,4.247.723,1.446,1.176,3.257.785,4.98-.548,3.17-3.814,5.076-6.866,4.931-3.591.156-7.159.515-10.82.475-3.316-.072-6.919-.269-9.703-2.449-4.475-3.27-4.919-10.782-.259-14.095,1.499-1.065,3.374-1.312,5.164-1.32.552.003.997.454.994,1.006-.003.544-.446.984-.987.994h0Z" fill="#797979"/><path d="M447.477,442.953c-.582.161-1.739.25-2.499.216-2.139.014-4.179,1.135-3.974,3.524.173,2.813,1.326,6.101,3.591,7.897,2.289,1.778,5.512,2.048,8.597,2.097,3.127.022,6.276-.269,9.48-.474l1.204-.072c3.972.14,5.654-2.604,3.991-6.156-.733-1.572-1.661-3.493-2.807-4.499-1.734-1.632-4.972-1.711-8.063-1.824-3.167-.017-6.324-.136-9.498-.683-1.114-.168-1.105-1.836,0-2,3.202-.532,6.42-.637,9.629-.64,6.056.167,10.49,1.156,12.97,7.33,1.814,3.458,1.893,8.263-2.108,10.196-1.656.848-3.481.681-5.223.72-3.165.051-6.385.197-9.635.02-3.291-.21-6.858-.542-9.546-2.774-2.654-2.315-3.695-5.706-3.975-9.116-.236-3.866,3.118-5.257,6.419-5.401.212-.024.567-.179,1.03-.321,1.392-.376,1.833,1.741.417,1.959h0Z" fill="#797979"/><path d="M392.445,466.444c-3.103.628-6.556.622-7.756,3.905-1.567,4.097-.593,10.101,4.207,11.438,6.372,1.701,13.366,1.278,19.866.274,3.051-.448,3.781-1.375,3.608-4.462.023-13.028-9.924-12.151-19.87-11.136-1.472.13-1.482-2.127,0-2,6.427,1.048,15.427-1.372,19.322,5.427,1.651,3.205,2.106,6.832,1.685,10.383-.327,2.108-2.697,2.919-4.479,3.209-6.341,1.106-21.34,2.981-25.349-3.124-2.508-3.974-2.504-9.685.67-13.282,2.027-2.056,5.269-2.159,7.706-2.593,1.294-.224,1.664,1.678.39,1.962h0Z" fill="#797979"/><path d="M433.192,466.505c-2.697-.105-7.071.195-8.131,3.186-.802,2.971.297,6.698,1.924,9.27,1.863,2.764,5.155,3.736,8.354,3.611,5.048.004,10.005-.099,14.893-1.134,2.586-.426,3.265-1.517,2.925-3.686-1.256-9.397-5.619-11.446-14.561-11.338-1.698-.062-3.397-.131-5.095-.231-.398-.023-.701-.365-.678-.762.022-.369.317-.657.678-.678,1.698-.1,3.396-.17,5.093-.232,5.472-.465,11.519-.166,14.778,5.086,1.57,2.406,2.113,5.015,2.593,7.735.436,2.035-.271,4.845-2.303,5.903-.957.589-2.041.835-2.849.98-5.12,1.068-10.453.714-15.555.268-2.664-.155-5.471-.963-7.489-2.809-2.006-1.818-3.073-4.411-3.6-7.004-.336-1.686-.64-3.476-.117-5.307,1.231-3.701,5.839-4.43,9.258-4.942,1.577-.058,1.436,2.321-.116,2.084h0Z" fill="#797979"/><path d="M196.607,492.683c-2.556-.64-5.311-.124-7.959.038-2.605.116-5.216,1.05-7.039,2.96-2.243,2.625-4.239,5.888-4.926,9.279-.114,1.132-.45,2.548.214,3.494,2.366,1.861,5.632,2.149,8.579,2.16,3.558.049,7.276.179,10.788-.273,4.43-.234,7.728-3.22,9.404-7.23.955-2.179,2.096-4.739,1.819-7.122-.874-3.827-7.78-2.226-10.968-3.323-1.222-.351-.78-2.182.462-1.946,3.144.607,7.189-.755,11.17,1.775,4.688,3.653-.434,13.114-3.636,16.439-4.217,4.347-10.852,3.509-16.361,3.365-4.109-.237-8.933-.132-12.18-3.08-.99-1.316-.576-3.007-.394-4.458.82-3.704,2.948-6.905,5.335-9.758,3.358-3.609,8.541-3.571,13.088-4.301,1.093.066,3.87-.606,3.834,1.075-.037.611-.636,1.051-1.23.907h0Z" fill="#797979"/><path d="M440.719,492.943c-1.764-.25-3.228.445-4.644,1.232-.696.426-1.245.927-1.519,1.601-.76,2.311-.203,5.161.468,7.498.192.602.472,1.275.701,1.875,1.02,2.569,3.232,4.382,5.933,5.018,1.651.435,3.358.491,5.184.496,4.49.042,8.912-.175,13.263-1.081,1.432-.282,3.621-.677,3.541-2.471-.045-2.054-.435-4.16-1.097-6.101-1.064-3.099-2.613-5.783-5.814-6.804-1.582-.54-3.155-.678-4.897-.709-3.611-.103-7.223-.282-10.84-.553-1.225-.094-1.223-1.904,0-2,3.634-.257,7.275-.421,10.915-.51,3.99-.25,8.48.81,11.076,4.168,2.409,3.217,3.505,7.157,3.756,11.1.057,1.139.099,2.29-.411,3.4-1.09,2.372-3.488,2.93-5.733,3.233-4.578.717-9.282.675-13.838.366-4.63-.067-10.216-1.543-12.129-6.343-1.476-3.5-2.524-7.38-1.487-11.168.938-2.237,3.303-3.187,5.362-3.99,1.036-.152,3.146-.831,3.289.727.014.587-.495,1.066-1.08,1.016h0Z" fill="#797979"/><path d="M481.334,492.848c-1.508.106-3.352.641-4.729,1.287-.689.373-1.163.84-1.354,1.493-.179.671-.139,1.496-.003,2.32.639,3.341,1.714,6.76,3.778,9.363,2.192,2.724,5.643,3.202,8.991,3.318,4.238.13,8.667-.267,12.884-.851,2.4-.409,3.567-1.42,3.111-3.956-.478-3.148-1.822-6.272-3.836-8.753-.958-1.137-1.92-2.26-3.351-2.767-4.687-1.31-10.181-.83-15.13-1.425-1.211-.106-1.208-1.894,0-2,3.493-.296,7.042-.502,10.59-.417,3.169-.087,7.324.695,9.477,3.531,3.394,3.509,8.312,14.286,2.464,17.374-1.998.979-3.947.941-5.658,1.052-3.522.177-7.095.267-10.663-.051-3.647-.216-7.646-1.081-9.937-4.196-2.242-2.996-3.298-6.493-3.999-9.999-.281-1.338-.358-3.19.715-4.341,1.789-1.71,4.123-2.265,6.482-2.792.499-.075.965.271,1.037.771.08.532-.333,1.024-.869,1.039h0Z" fill="#797979"/><path d="M411.857,171.885c5.79,1.09,11.637.555,17.472.506,1.305.021,1.319,1.979,0,2-5.866-.048-11.681-.572-17.528.448-2.354.277-2.294-3.317.056-2.954h0Z" fill="#797979"/><path d="M241.731,108.036l6.073,10.721,7.947-5.548-6.148-7.572-1.424-4.423s-.589-2.804-.865-3.632-.11-3.865-.11-3.865l-7.797,2.024" fill="#797979"/><path d="M225.162,116.208l7.122,4.573,5.023-.15-3.824-7.722-1.125-3.749s-.549-2.321-.825-3.149-.675-3.074-.675-3.074l-4.498,4.798" fill="#797979"/><path d="M481.344,73.958l-1.941,12.897-2.442,4.007-2.817,3.318,4.257,2.63,4.383,2.003,3.068-4.445s2.3-5.109,2.567-5.823c.376-1.002.813-4.571.939-5.134.939-4.195.814-7.012.877-7.325s-1.503-1.44-1.503-1.44l-7.388-.689Z" fill="#797979"/><path d="M498.75,81.996l-2.625,10.06-1.173,4.823-1.932,3.45,5.243-1.38,2.484-1.104,2.07-1.38s1.526-1.633,1.794-2.346c.376-1.002-.093-3.454-.276-4.001-1.794-5.381-1.442-3.274-1.38-3.588s-1.768-2.732-1.768-2.732l-2.436-1.803Z" fill="#797979"/><rect x="-2.194" y="213.336" width="53.399" height="49.673" fill="#f9fafb"/></svg>