<?xml version="1.0" encoding="UTF-8"?>
<svg xmlns="http://www.w3.org/2000/svg" viewBox="0 0 454.6 557.8" width="454.6" height="557.8">
<defs>
    <style>
      .st0 {
        stroke-width: 2.3px;
      }

      .st0, .st1, .st2, .st3, .st4, .st5 {
        stroke: #797979;
      }

      .st0, .st1, .st2, .st4, .st5 {
        fill: none;
      }

      .st0, .st1, .st3, .st4, .st5 {
        stroke-linecap: round;
        stroke-linejoin: round;
      }

      .st1, .st3 {
        stroke-width: 2.2px;
      }

      .st2 {
        stroke-miterlimit: 10;
      }

      .st2, .st4 {
        stroke-width: 2.7px;
      }

      .st3, .st6 {
        fill: #797979;
      }

      .st5 {
        stroke-width: 3.3px;
      }

      .st7 {
        fill: #f9fafb;
      }
    </style>
  </defs>
  <path class="st7" d="M440,509.7l-.6,1.6s-2.1,2.4,2.3,2.6,8.8.1,9.5.1,2.2-.7,2.4-2-1.4-1.9-2.5-2.9-3.5-2.6-4.3-3.2-2.7-1.8-2.7-1.8l-2.3,1.4-1.3,2.4-.6,1.6h0Z"/>
  <path class="st7" d="M388.2,551.4l.4,2.4,2.5.9,4.9-.7,1.6-.7-.4-2.9s-.7-1.3-1.3-2.2-2-2-2-2h-1.1l-1.8,2-2.9,3.3h0Z"/>
  <polygon class="st7" points="241.8 198 250.1 195.3 244.8 178.1 244.6 176.6 234.3 177.2 241.8 198"/>
  <path class="st7" d="M233.2,204.6l4.5,18.2s5.5,12.9,8,15.9,6,8.3,13.1,11.4c7,3,10.3,4.5,20.6,3.5,10.3-1,12.6-1.3,17.6-6.1s6.3-5.6,9.3-12.4c3-6.8,5.1-12.2,4-21.5-1.1-9.4-8.1-26.9-9.1-29.4s-5.8-1.6-7.8-1.4-48.4,15.1-48.4,15.1l-11.8,6.6h0Z"/>
  <path class="st7" d="M354.5,553.6s-15.9,1.4-26.2.9-23.6-3-32.8-5.8c-9.1-2.8-23.6-11.1-28.5-15.8-5-4.7-8.6-16.1-8.8-20.9s2.7-13.9,2.7-13.9c0,0,1.7-7.5,9.3-12.3s10-9.3,23.8-13.2,28.4-7.5,35.3-7.5,31.9.3,31.9.3c0,0,8.5.4,15.8,3.4,7.3,3,21.4,10.8,25.6,13.3,4.2,2.5,5.9,6,8.8,8.6,2.9,2.6,6.1,3.3,7.4,9.3,1.4,6,1.9,14.2-.2,18.1-2,3.9,0,2.9-5.5,6.7-5,3.5-10.5,1.3-10.5,1.3,0,0-6.2,5-9.6,3.7-1.9-.8-8.5.3-8.5.3,0,0-3.8,1.1-4.5,1.7s-4.1,4.2-4.6,4.5-4.4,3-4.9,3-3.6.9-3.6.9c0,0-2.9,1-4.6,4.1-1.6,3.2-5.4,6.8-6.1,7.7s-1.9,1.6-1.9,1.6h0Z"/>
  <path class="st7" d="M247.5,551.8s-.3,1.6.1,2.4,1.9,1.8,3,2.1,3.9.1,4.4-.1,1.7-1,2-2.1,1.6-1,.1-2.8c-1.4-1.8-2.3-2.2-3.4-2.6s-1.3-1.2-2.6-.7-2.3,1.8-2.3,1.8l-1.4,2.2h0Z"/>
  <path class="st7" d="M216.3,525.5s1.9-3.1,3.2-4.5c1.3-1.4,2.9-2.4,5.2-3.2s2.6-1.4,4.8.5c2.2,1.8,4,6.3,4.9,8.1.9,1.8,2.3,2.4.9,4.2-1.4,1.8-1.3,2.4-3.2,2.4s-3.9-.9-5.5-1.5-4-1.8-4.9-2.3-3.6-1.7-3.9-1.8-1.5-1.8-1.5-1.8h0Z"/>
  <path class="st7" d="M164.9,439l8.7-7.4,10.9-12.8,8.7-16.3,4-14.5s.5-5.9.7-6.6,4.3.4,6.4,1.1,24.7,4.9,24.7,4.9c0,0,14.9.3,21-1.5,6.1-1.8,19.7-8.2,19.7-8.2l4.7-3.8,2.4-2.1s13.3,7.8,15,8.4c1.6.6,10.8,8.5,13.2,14.3s6,9.8,6,15.6-.1,15.1-3.2,20.7c-3.1,5.6-8.1,12.6-15.4,18s-15.9,11.4-26.8,14.2c-10.9,2.7-15.5,4.9-27,4.5s-12.2-.7-23-1.8c-10.8-1.1-15.5-1.5-21.7-5.5s-11.3-6.3-14-8.4c-2.7-2.1-15-12.8-15-12.8h0Z"/>
  <polygon class="st7" points="114 322.9 129 321.6 125.4 317.1 122.1 310 120.2 298.4 121.1 294.1 116.9 303 114.6 311.9 113.7 316.6 113.8 321 114 322.9"/>
  <path class="st7" d="M120.4,292.4l19.8-13.6s13.2-3.1,18-3.6c4.8-.5,21.4-5.3,21.4-5.3,0,0,8.4-1.6,11.8-1.2s7.2,1.2,14.2,4c7.1,2.8,21.1,9.2,28.2,10,7.2.8,15.7,7.8,18.2,10.1s6,9.8,9.9,14.2c3.9,4.4,8.1,11.2,11.5,14.7,3.4,3.5,5.5,8.3,7,12,1.3,3.3,4.8,11.8,3.6,17.1-1.3,5.3-2.3,13.3-7.8,18.1-5.5,4.8-7.2,7.4-12.1,9.3-4.9,1.9-15.4,5.9-22.7,6.3-7.3.4-18.9-1.2-26.8-1.6-7.9-.4-16.3-3.2-17.4-3.4s-2.3-15.2-3.6-18.8-9.7-19.4-13.4-22.6c-3.7-3.2-11.4-10.4-21.7-12.5-10.3-2.1-15.4-4.3-21.7-4.7-6.3-.4-11.8-.2-11.8-.2-3.3.7-14.4,4.6-12.5-2.5.9-3.2-.2-1.2.6-5.9.9-5,1.7-14.7,7.1-20h0Z"/>
  <path class="st7" d="M42.8,411.9l3.3-11s4.4-15.2,5.3-19.9c.9-4.8,6.6-17.7,6.6-17.7l14.6-16.4,17.1-13.5,19.9-8.6,15.1-2.9,14.9.3s29.5,5.7,32.5,9c3,3.3,15.5,15.5,15.5,15.5l8,16.1s4.8,11.6.6,26-3,19.4-15.2,33.1c-12.2,13.7-27.4,25.1-41.1,31-13.7,6-34.9,11-46.5,10.1-11.6-.9-29.2-7.2-33.4-11.3-4.2-4.2-7.7-8.4-8.9-10.1-1.2-1.8-7.7-14-8.3-18.2s0-11.3,0-11.3h0Z"/>
  <path class="st7" d="M282.9,184.7l-3.4-13.6s-4.1-13.6-6.7-16.5-8.6-8-10.6-8.2-7.6-.5-9.3.3-5.3,3.4-5.3,3.4l-3.8,4.9-.5,1.9-10.8,1s.2-7.8.8-8.7,4.5-6.9,6.5-7.7c2.2-.8,5.6-3.4,8.7-4.2,3.1-.8,3.6-2.2,8.9-2,5.3.3,7.9.7,12.4,3.4s7.7,6.7,10.1,10.3c2.3,3.6,6.4,11.7,7,14.8.5,3,4.6,15.3,4.6,15.3l1.3,2.8-9.9,2.7h0Z"/>
  <path class="st6" d="M47.6,162.3c-1.3,5.9-3.9,11.4-7.4,16.3-3.4,4.8-7.7,8.9-11.4,13.5-16,18.4-20.1,40.9-22,64.4-3.7,46.5-3.4,93.6,1.1,140,1.8,17.2,2.6,34.9,10.1,50.7,15.4,31.2,58.8,37.4,89.8,43.5,46,8.2,93.3,8,139.5,1,2.9-.4,5.8-.8,8.6-1.4,3-.4,6-1.8,9-.9.5.1.8.6.7,1.1-.1.5-.6.8-1.1.7-1.5-.3-2.4-.4-3.9,0-4.3,1.1-8.7,1.8-13,2.4-46.4,7.7-94,8.6-140.4.6-28.3-5.3-60.5-9.8-82.3-30.5-8.8-8.4-13.9-20.1-16.5-31.8-4.7-23.3-5.8-46.7-7.5-70.2-1.4-23.1-1.3-47.2-.3-70.4,1.2-23.4,1.7-47.4,8.5-70.1,1.8-5.7,4.1-11.2,7-16.4,4.3-7.9,10.3-14.6,16.4-21,6-6.2,11-13.5,13.1-21.9.1-.5.6-.8,1.1-.6.5.1.8.6.7,1.1h0Z"/>
  <path class="st4" d="M284.2,153.1c4.1-1.5,8.4-2,12.6-3,4.7-1.1,9.4-2.3,13.9-4,4.7-1.8,9.2-4.7,10.9-10,1.2-3.7,1.6-7.5,1.2-11.5-.4-4.7-2.1-8.7-5-12.3-3.6-4.5-8.7-7-14-7.9-2.8-.5-4-1.5-5.2-3.5-8.4-14.6-20.8-24.8-35.3-32.8-13.1-7.3-27.2-12.1-41.9-15.1-2.5-.5-5-.8-7.4-1.6-2.2-.7-2.8-1.5-1.9-3.6,1.4-3.2,2.1-6.5,2.4-9.9.7-8.1-1.6-15.5-6.6-21.9C199.7,5.4,188.5.2,175.1,1.6c-14.5,1.6-25.8,8.5-31.4,22.6-3.1,7.7-2.7,15.5.2,23.2,1.1,3.1.7,3.7-2.4,4.4-5.4,1.1-10.8,2.1-16.1,3.6-7.8,2.2-15.5,4.6-23,7.9-7.3,3.2-14.3,7.1-20.8,11.8-10.4,7.5-18.9,16.7-25.2,27.9"/>
  <path class="st5" d="M53,104.4c-8.2,1.7-15.1,5.2-18,13.7-2.6,7.3-2.9,14.6,1.6,21.3,3,4.4,7.4,6.7,12.6,8,8.4,2.1,16.8,4.2,25.4,5.5,6.6,1,13.1,1.9,19.7,2.8,6.8.9,13.7,1.6,20.5,2.2,7.6.7,15.1,1.2,22.7,1.7,10.3.7,20.6.8,30.9,1.1,5.5.2,11,.8,16.4.3,7.7-.6,15.4,0,23-.6,7.4-.6,29.3-1.4,36.7-2.7.4,0-18.3,1.8-18,1.6"/>
  <path class="st0" d="M309.4,162.4c2.9,10.6,9.8,18.7,17,26.5,10.8,11.7,17.9,25.3,21.1,40.9,2.2,10.8,3.5,21.7,4.4,32.7.9,10.6,1.2,21.2,1.9,31.7.2,3,.2,6,.3,9,.2,6.7.3,13.5.3,20.3,0,12.6-.2,25.2-.8,37.8-.5,9.9-1.1,19.9-1.9,29.8-1,11.8-2.1,23.6-4.1,35.3-2.2,12.9-6.9,24.8-16.1,34.5-1,1-1.8,2.1-2.2,3.6"/>
  <path class="st4" d="M54.6,104.9c-.1,4.1.4,4.8,4.4,6.3,7.7,2.9,15.7,4.2,23.8,5.5,6.6,1.1,13.2,1.7,19.7,2.6,2.8.3,5.6.6,8.5.7,5.2.2,10.4.7,15.6,1.1,4.7.4,9.3.7,14,.8,7.4.3,14.8,1,22.2.7,6-.2,12,.4,18.1.3,12.5-.3,25-.2,37.5-.9,10-.6,20.1-1.1,30.1-2,13-1.2,25.8-2.9,38.6-5.6,3.7-.8,7.2-1.9,10.7-3.3,4-1.6,4.1-2,3.8-6.5"/>
  <path class="st1" d="M231.7,158.7c-1.2-12.4,6.7-19.7,18.5-23.3,15.6-4.7,27.7,6.5,33.8,19.7,3.9,8.4,5.5,17.4,8.7,26"/>
  <path class="st6" d="M46.2,147.9c-3.9,4-1.7,11,3.3,12.9,6,2.1,12.1,3.8,18.3,5.2,12,3,25.6,4.3,37.9,5.1,25.7,2,51.5,3.2,77.3,4,12.8.2,25.8.8,38.6.6,4.2-.3,8.5-.7,12.9-1,.9,0,1.7.6,1.7,1.5,0,.9-.6,1.7-1.5,1.7-6.3.6-13,1.7-19.4,1.6h-6.5c-34.5.4-69-.9-103.5-3.3-19-1-38.1-4.1-55.9-10.9-5.6-1.7-9.6-7.3-8.9-13.2,0-2.1,3.2-9,5.7-6.6.6.6.6,1.6,0,2.2h0Z"/>
  <path class="st6" d="M245.9,175c-.4,5.8,2.4,11.1,3.9,16.7.3,1.2.4,2.3,1.9,1.8,2.7-.8,9.9-2.9,12.6-3.7,8.5-2.3,16.7-5.6,25.2-7.6,4.8-1.6,9.2-2.7,12.7,2,2.4,3.8,3.4,8.2,5.1,12.4,1.5,4.1,2.6,8.5,3.4,12.8,1.6,7.3,1.4,15-.7,22.3-1.8,5.9-5.4,11.1-9.8,15.3-13.9,13.1-37.1,13.5-51.2.5-11.3-10.1-15.5-25.6-18-40-.9-4.1,1-8.1,4.8-10,.2-.1.4-.2.5-.3,0,0,0,0,0,.1,0-.5-1.5-4.9-1.7-5.9-1.4-4.7-2.6-9.5-3-14.4.1-.6-.3,1.2.3-1.3.8-.9.8-.6.9-.7.4-.1.9-.2,1.3-.2,3-.3,5.9-.6,8.8-.7.6,0,1.2,0,1.8,0,0,0,0,0,0,0,.3.2-.9-.6-.3,1.8-1-1,.5-2.6,1.5-1.5.6,2.4-.6,1.6-.4,1.8h-.2c-3.6,1.4-7.7,1.5-11.4,2.3,0,0,0,0,0,0,0-.1,0,.2.8-.7.6-2.5.2-.6.3-1.2h0c.9,6,3,11.9,5.2,17.5,1.3,2.9,1.2,5.8-1.8,7.7-.6.4-1.4,1-1.8,1.5-.6.7-.6,2-.3,3.1,2.4,10.6,5.2,21.4,11.3,30.6,6.4,9.6,17.7,15.8,29.4,15.2,16.5-.4,31.2-12.9,32.4-29.7,1-8.6-1-17.3-3.7-25.5-.9-2.8-1.9-5.5-3-8.2-1-3.2-3.1-6.5-6.7-6.6-2.1-.1-4.1.9-6.2,1.3-2.9.7-5.7,1.3-8.4,2.3-8,2.8-17,5.5-25.1,8l-4.2,1.3c-.9.3-2.2.3-2.9-.5-.7-.8-.9-1.7-1.1-2.3-1.7-5.6-4.6-11.1-4.4-17.2,0-1.4,2.3-1.4,2.2.1h0Z"/>
  <path class="st1" d="M272.4,358.8c4.3-5,8.9-10.7,11.6-16.7"/>
  <path class="st5" d="M284,341.5c-1.5-4.4-6-16.8-9.1-20.1-6.1-6.3-10.8-13.6-15.6-20.8-4-6.1-8.8-11.4-15.3-14.8-4.8-2.5-9.9-3.8-15.1-5.1-5.9-1.5-11.4-3.8-17-6.1-8.2-3.4-16.6-6.2-25.7-5.5-5,.3-9.7,1.8-14.5,3.1-6.7,1.8-13.6,2.9-20.5,3.6-9,.9-23.4,11.1-30.4,17.5"/>
  <path class="st1" d="M120.3,293.2c-5.2,8.4-9.3,19.7-7.1,29.3"/>
  <path class="st1" d="M275.8,370.6c6.6,3.4,13.1,6.9,18.9,11.7,8,6.7,13.2,15.1,15.5,25.2,1,4.6.9,13.6-.7,18.3"/>
  <path class="st6" d="M310.5,426c0,3.9-2.2,7.1-3.8,10.5-11.2,21.3-42,34.3-65.2,34.9-9.9.2-19.9-.7-29.6-2.6-3.5-.6-8.3-1.2-11.8-1.7-4.4-.8-8.4-2.8-11.8-5-6.1-3.9-11.5-8.7-16.7-13.7-2.6-2.5-5.1-5-7.6-7.6-.4-.4-.4-1.1,0-1.6.4-.4,1-.4,1.5,0,5.5,4.5,10.8,9.2,16.5,13.2,5.7,4,12,8.5,18.9,9.6,4.5.5,10.1,1,14.6,1.8,15.4,2.2,31.2,2.9,46.2-1.4,13.1-3.7,26-10.1,35.9-19.5,2.4-2.4,4.6-5,6.4-7.9,1.8-3.1,4-5.9,4.3-9,0-.6.6-1,1.2-1,.6,0,1,.5,1,1.1h0Z"/>
  <path class="st6" d="M53.3,188.4c-2.7,5.1-6.7,9.1-9.6,13.4-3.1,4.4-5.8,8.9-8.1,13.7-7,14.4-9.8,30.5-10.9,46.4-.9,10.6-1.6,22-2.3,32.6-.2,2.3-.6,5.8-.5,8,0,2.6.2,5.4,0,8.3,0,.9-.8,1.6-1.8,1.5-.9,0-1.5-.8-1.5-1.6,0-3.9-.8-8.3-.6-12.3.3-12.1.6-24.7,1.5-36.8,1.1-22.1,6.8-44.8,20.9-62.3,3.5-4.5,7.4-8.2,10.2-12.5,1.1-1.7,3.8-.2,2.8,1.7h0Z"/>
  <path class="st6" d="M48.9,434c0,2.6,1.9,4,3.4,6.2,1.6,2.2,3.2,4.3,5.1,6.3,11.1,11.9,28.2,16.1,44,15.1,22.2-1.4,42.4-12,61-23.7,1.7-1.1,3.5,1.4,1.9,2.7-4.5,3.4-9.3,6.6-14.1,9.6-19.4,12.1-42.8,20.5-65.9,16.3-14.6-2.4-28.3-10.9-35.5-24-1.5-2.4-3.9-5.6-3.1-8.9.4-2,3.4-1.6,3.3.4h0Z"/>
  <path class="st6" d="M162.7,437.6c24.7-19.1,41.6-52.9,27.2-83.2-1.3-2.2-3-5-4.3-7.2-.6-1-1.3-2.1-1.7-3.3-.5-1.4,1.5-2.5,2.4-1.3,2.1,2.6,3.8,5.8,5.6,8.7,14.4,27.2,3.3,58.6-17.1,79.4-3.2,3.3-6.7,6.2-10.3,9.1-1.4,1.1-3.2-1-1.8-2.2h0Z"/>
  <path class="st2" d="M185.1,343.5c-9.2-11.5-21.3-16.9-35.4-20.2-6.9-1.6-13.8-2.4-20.9-2.2-4.3.1-8.4,1.2-12.6,1.7-5.6.6-10.6,3-15.6,5.2-15,6.5-27.9,15.9-38.7,28.1-4.8,5.5-7.4,11.9-8.7,18.9-1.4,7.9-4.4,15.3-7.5,22.6-2.5,5.8-4.4,11.8-4.5,18,0,4.7,3.6,16.2,5.8,20.6"/>
  <path class="st6" d="M260.3,502.5c-.9.8-1.1,1.6-1.2,2.9-.2,3.9-.1,8,.9,11.8,4.1,16,20.3,24.2,34.8,29.2,15.3,5.3,31.5,7.8,47.7,7.1,5.4-.2,10.6-.8,15.5-3.1,1.2-.6,2.3,1.2,1,1.9-4.9,2.9-10.7,4-16.3,4.5-26.6,3.2-80-7.9-85.9-38.9-.8-4.3-.7-8.5-.2-12.8.1-1.5,1-3.4,2.3-4.3,1.1-.9,2.4.7,1.4,1.7h0Z"/>
  <path class="st6" d="M357.6,550.1c1.2-2.6,2.8-4.6,4.2-7,1.6-2.6,4.6-4.3,7.4-4.9,1.5-.3,3.2-.6,4.3-1.7,1.1-1,2.2-3,3.5-4,2.8-2.9,7.7-4.1,11.4-3.4.5,0,1.6,0,2.1,0,.6,0,1.7-.1,2.3-.2h.1s0,0,0,0c0,0,0,0,0,0,.6-.2,1.2,0,1.5.6.3.7-.3,1.5-1,1.6-.3,0-.9.2-1.2.2-1.1.1-2.5.4-3.6.4-5.2-.6-9,1.5-11.8,5.9-1.6,2.2-4.2,3-6.7,3.4-2.4.6-4.5,1.6-5.8,3.6-1.4,2.2-3.2,4.4-4.5,6.6-.7,1.2-2.6.3-2-1h0Z"/>
  <path class="st6" d="M393.6,528.7c1.2-.2,2.3-.5,3.2-1.2,3.2-2.3,7.4-2.8,11.2-1.8.6.1.5.1.9.1,1.6-.3,3.3-1.1,4.8-1.7,1.3-.6,2.2,1.4.9,2-.8.4-1.7.7-2.5,1.1-1.3.4-2.8,1.1-4.2.8-2.9-.7-6-.7-8.7.8-1.6,1.1-3.4,2.1-5.3,2.2-.6,0-1.1-.4-1.2-1,0-.6.4-1.1.9-1.2h0Z"/>
  <path class="st1" d="M414.5,524.4c4.2-5.4,7.1-11.9,5.8-18.6-.6-3.3-.8-6.7-2.8-9.6"/>
  <path class="st1" d="M417.3,495.9c-4.2-4.8-13.1-14.2-18.9-16.5-7.4-2.9-14.3-6.8-21.3-10.4-4.1-2.1-8.5-3.4-13.1-3.3-2.6,0-5.1-1.2-7.7-.3"/>
  <path class="st1" d="M356.2,465.3c-5.8.3-15.2.2-21.1.2-1.5,0-2.9-.8-4.4-.5"/>
  <path class="st1" d="M330.1,465.1c-15.4,1.5-34.1,5.1-47.8,12.5-5.2,2.8-9.8,6.2-14.3,10-3.7,3.2-6.6,9.7-8.4,14"/>
  <path class="st6" d="M338.2,369.7c.7,12.9-.4,25.3-1.9,38-2,20-8.9,42.7-28,52.5-.4.2-.4.4-.8.9-.3.3-.9.7-1.4.7-.6,0-1.1-.7-.7-1.2l.5-.9s0,0,0,0c.3-.5.7-1.1,1.3-1.4,13.7-8.1,20.7-23.6,23.6-38.6,2.1-12.2,3.8-24.8,4.5-37.2.2-4.3.9-8.4.7-12.5,0-1.3,2-1.6,2.2-.2h0Z"/>
  <path class="st1" d="M188.7,348.9c-1.4,2.5.4,7.7.7,10.2.4,4,.7,8,.3,11.9-.5,3.9-1,8.2-3.1,11.7-2.6,4.5-7.6,7.8-9.4,12.7-1.2,3.2,1.6,7.8.4,11-1.3,3.7-7.1,5.1-9.6,7.9s-5.1,5.3-8.1,7.6c-3.4,2.6-7.2,4.5-10.7,6.9"/>
  <path class="st6" d="M284.4,340c2.3,1.8,2.2,5.2,2,7.7-.3,7.5-2.6,14.9-7,21-5.8,8.3-14.9,13.6-24.4,16.6-16.6,5.3-34.2,2.6-50.4-2.2-2.4-.7-4.5-1.4-6.9-2.1-1.3-.5-.7-2.4.7-2.1,4.5.9,9.3,2.2,13.9,3,9.2,1.7,18.6,2.8,27.9,1.9,13.4-1.3,27.5-6.5,35.9-17.5,4.1-5.4,6.6-12.1,7.4-18.9.2-2.1.9-4.2-.6-5.8-1-1,.4-2.5,1.5-1.6h0Z"/>
  <path class="st1" d="M309.2,424.1c-3.3,1.4-5.7,5.1-8.8,6.7-7.6,4.2-14.3,9.7-21.4,14.7-3.4,2.5-7.4,3.2-11.5,3.6-8.3.7-16.6.6-24.6,3.3"/>
  <path class="st1" d="M260.5,501.7c1.9,2,2,5.6,3.2,8,2,4.2,4.1,8.4,7.1,12.1,2.7,3.3,6.3,4.8,10.2,5.6,4.4.9,8.7,2.3,12.6,4.5,5.1,2.8,10.3,5,16.2,5.4"/>
  <path class="st6" d="M132.1,67.7c-19,5.8-38,14.5-51.4,29.6-.4.5-1.1,1.3-1.6,1.7-.6.4-.9.4-1.1.9-.5,1-2.1.6-2-.5,0-1.2,1.2-1.9,1.8-2.5,10.9-15,28.1-24.5,45.7-29.4,2.7-.7,5.3-1.3,8-1.8.6-.1,1.2.3,1.3.9.1.5-.2,1.1-.7,1.2h0Z"/>
  <path class="st1" d="M414.5,524.4c-1.7-2.4-2.7-5.2-5.4-6.9-3.7-2.3-7.4-3-11.5-1.3-3.2,1.3-6.4,1.4-9.9.9-5.9-.8-11.3,0-14.8,5.9-1.3,2.1-3.5,3.1-6,3.6-6.4,1.4-8.1,1.9-9.8,10.1-.3,1.6-.4,3.3-1.1,4.9-1.4,3.5-1,6.9,1.6,9.8"/>
  <path class="st3" d="M274.5,206.2c-2.8.8-5.2,2.1-6.1,5.1-1,3.6,1,6.4,3.6,8.4,1.4,1,1.6,2,1.8,3.4.4,2.3.2,4.7,1.3,6.9,1.4,2.6,4.2,4,6.6,2.7,3.4-1.8,4-3.5,2.8-6.6-.4-.9-.7-1.8-1.1-2.7-1.8-4-1.9-4.1-1.1-8.5,1-5.1-3.4-8.7-7.4-8.8-.3,0,.2.3,0,0"/>
  <path class="st1" d="M230.1,424.3c.9,4,3,5.2,7.1,5.7,2.6.3,5.3.3,7.9-.4,2.2-.5,3.8-1.5,4.3-3.6.5-2.1,0-4.2-1.9-5.7-3.5-3-9.5-5.6-14.6-1.2-1.8,1.5-2.4,3.1-2.9,5"/>
  <path class="st1" d="M283.9,393.8c0,.3-3.4-1.1-3.6,0-.6,3.6-4.9,1.5-7.1,3.4"/>
  <path class="st1" d="M273.6,403.2c3.7,3.2,8.3,4,12.9,4.6,1.6.2,3.2-.4,4.2-2.4,1.2-2.5,1.1-5-.1-7.1-1.7-3-4.6-4.4-8.1-4.7"/>
  <path class="st1" d="M199.1,316.2c2.5,1.6,4.9,3.2,7.9,3.9,3.8.8,6.9,0,8.2-2.8,1.1-2.3-.3-6.9-2.7-8.8-5.2-4-9.4-3.5-13.7.3-1.1,1-2.6,1.5-3.3,3"/>
  <path class="st1" d="M259.9,366.5c-4.3,2.7-8.8,4.4-14,4.4-5.8,0-11.5-.7-17.3-1.6-5.2-.8-10.5-1.1-15.9-.9"/>
  <path class="st1" d="M339.4,521.7c-.5-4.3-4-5.4-7.3-6.5-3.4-1.2-9.1.9-10.9,3.8-2,3.1-.4,6.7,3.6,7.9,1.3.4,2.7.6,4.1.8"/>
  <path class="st1" d="M329.1,527.7c2.7,0,5.3-.3,7.7-1.7,1.6-.9,2.7-2.1,2.7-4.1"/>
  <path class="st3" d="M280,502.5c1.4,3.3,5.3,5.3,9.7,4.9,1.4-.1,2.8-.2,4.1-.8,1.9-.9,3.5-2,3.8-4.4.3-2.4-.8-4.1-2.7-5.5-5.1-3.5-12.6-1-14.8,4.9-.2.6.6-.6.2-.6"/>
  <path class="st1" d="M177.2,427.6c3.5,4.5,7.7,8.3,13.1,10.4,4,1.5,8.2,2.3,12.3,3.3,5.8,1.5,11.3,3.8,16.7,6.3"/>
  <path class="st3" d="M426.5,537.8c.8,0-.4,0-.3.7.4,2.4,2.2,5.2,2.7,7.6.2,1.1,1.2,1.5,2.4,1.4,2.8,0,5.3-.9,7.4-2.8,1.9-1.8,1.9-4.1,0-6-2.3-2.3-5.4-2.9-8.5-3.2-1.9-.2-3.1,1.2-4.1,2.7"/>
  <path class="st6" d="M277.5,173.1c-7.9.7-16.7,2.2-24.6,3-2.7.4-5.4.7-7.9,1.5-1.1.3-2.3-.3-2.6-1.4-.4-1.2.4-2.5,1.7-2.7,5.6-1,11.1-1.1,16.6-1.9,4.7-.6,11.5-1.8,16.3-2.6,2.9-.4,3.4,3.8.5,4.2h0Z"/>
  <path class="st5" d="M272,155.7c-2.1-3.3-4.8-5.8-7.2-7.3-7.1-4.6-16.5-1.7-20.8,6.7-.7,1.4.1,2.6,1.9,2.4,4-.5,8.1-.6,12.1-1.3,3.8-.6,7.7-.7,11.5-1.6,1.4-.4,2.1.3,2.8,1.6,2.3,4.2,3.9,8.5,5.3,13.1,1.5,4.8,3.2,9.6,4.2,14.5"/>
  <path class="st1" d="M170.9,13.8c-2,1.4-4.2,2.3-6.3,3.5-7.3,4.3-10.7,10.5-9.8,18.9,0,.7-.5,1.3,0,1.9"/>
  <path class="st1" d="M227.6,393.6c2.6.3,1,.1,1.6.3,2.3.6,4.8,1.1,6.3,3.3,1.3,1.9,1.1,3.6-.5,4.9-3.8,2.9-13.4,2-14.6-3"/>
  <path class="st1" d="M120.9,293.3c.9,1.3.2,2.7,0,4-1.7,7.1.9,13.2,4.2,19.2.7,1.3,1.7,2.5,1.6,4.1"/>
  <path class="st3" d="M382.6,498.8c0,1.8,0-1.7,1.3-1.3,2.3.8,4.5,1.5,5.4,3.6.7,1.6,0,3.2-1.8,4.4-3.1,2-6.2,3.1-9.9,1.9-3.2-1.1-4.3-4.3-2.2-6.8,1.6-1.9,5.6-2.8,8-3.1"/>
  <path class="st1" d="M210.6,344.1c-1.1-4-4-6.4-8.2-6.6-1.7,0-2.9.6-3.9,2.1-1,1.6-.4,2.7.4,3.9,1.5,2.3,3.6,3.8,6.3,4.4,3.4.8,4,0,5.5-3.5"/>
  <path class="st1" d="M187.4,282.8c-1.6.3-3.1,1-4.1,2.2-1,1.1-1,2.7,0,3.8,1.7,1.9,3.9,2.8,6.5,3.1,2.5.2,4.1-1.2,3-4.1-.9-2.4-2.3-4.4-5.2-4.9"/>
  <path class="st1" d="M47,433.6c1.4-.3,2.5.4,3.6,1.1,5.5,3.4,10.9,6.9,16.1,10.7,4.4,3.2,9.4,3.9,14.5,4.3,4.7.4,9.3-.5,14-1.1"/>
  <path class="st1" d="M397.8,551c-.5-2.7-2.1-4.1-4.1-4.8-2.3-.8-3.1,1.9-4.3,3.2-1,1.1-1.5,2.8-.5,4,1.2,1.4,3.2,1.9,4.8,1.3,1.7-.6,4.3-.6,4.3-3.4"/>
  <path class="st1" d="M367.4,475.2c3,.7,5.7,1.8,6.6,5.2"/>
  <path class="st1" d="M372.1,483.7c-4.1,1.6-8.1.9-12-.8"/>
  <path class="st1" d="M359.8,482.6c-1.7-2.7.7-3.7,2.2-4.9,1.5-1.3,3.4-1.7,5.2-2.5"/>
  <path class="st1" d="M250.6,546.9c-2.2.7-3,2.7-3.7,4.4-.6,1.6-.2,3.5,1.8,4.6,2.5,1.5,6.2.9,8-1.4,1.3-1.6,1-3.2,0-4.6-1.4-1.8-3.4-2.8-5.7-3"/>
  <path class="st6" d="M312.5,146c1.3,1.9,3.7,4,4,6.6,1.1,5.1-2.7,10.1-7.2,12.2-3.2,1.1-6,2.3-9.2,3.4-1.6.5-3.3,1-5,1.2-1.4.2-3.2.8-5.1.8-2,0-2.2-3-.2-3.3,6-1.3,11.8-4.8,17.6-6.7,2.1-.9,4.2-3.1,4.8-5.3.4-1.9-.2-3.6-1.4-5.2-.8-1.1-2.4-4-.2-4.7.8-.2,1.6.2,1.9.9h0Z"/>
  <path class="st3" d="M195.4,539.2c-.4-2.8-2.3-4.5-5.1-4.7-1.8-.1-4.8,2.1-5.5,3.8-.4,1.1-.2,1.8.6,2.5,1.9,1.7,8.5,2.5,9.6,0,.2-.5.1-.9.2-1.4"/>
  <path class="st1" d="M416.2,496.3c-1.6,2-1.1,4.6-1.8,6.9-.5,1.5-1,3-1.2,4.6"/>
  <path class="st6" d="M254.7,193.6c-5.4,3.8-11.6,6.4-17.9,8.1-2,.5-2.9-2.4-.9-3.2,2.6-.9,6.5-2,9.2-2.7l4.7-1.3c1.5-.5,3.1-.9,4.6-1.4.3-.1.6.4.3.6h0Z"/>
  <path class="st1" d="M227.6,393.6c-3.5.7-5.9,1.1-7.4,5.2,0,0,.7,1,.4,1"/>
  <path class="st1" d="M72.2,372.8c-1.1.7-2.5,0-3.6,1.1-1.4,1.3-2.4,2.7-1.6,4.7"/>
  <path class="st3" d="M201.9,414.2c-1.6.8-3.4,1.3-4.4,3-1.2,2.1-.5,4.2,1.9,5.7,2.4,1.6,5.3,1.7,7.6.5,4.5-2.5,3.7-5.6,0-8.1-1.6-1.1-3.2-1.1-4.9-1.1"/>
  <path class="st3" d="M73.8,397.7c-3.4,1.3-6.4,3.2-8.8,6-2.1,2.6-2.9,6.9-1.6,9,1.3,2.2,6.3,3.9,9.3,3,1.5-.5,3.1-.8,4.4-1.6,2.6-1.6,3.4-5,2.5-8.7-.4-1.5-.7-2.9-1.1-4.4-1.1-3.7-1.6-3.4-4.4-3.3"/>
  <path class="st1" d="M444.3,504.2c-2.6,1.3-4.2,3.4-5.3,6-.9,2.1-.3,3.5,1.8,4.1,3.8.9,7.5.4,11.2-.7,1.9-.5,1.6-1.8,1-2.8-1.6-2.8-4.2-4.1-7.1-6-1.2-.8-.8-.6-1.4-.6"/>
  <path class="st1" d="M225.7,516.8c-3.8,1.5-7.3,3.5-9.3,7.4-.3.6-.7,1.9-.4,2.4"/>
  <path class="st1" d="M216.1,526.7c3.8,1.6,9.9,5.6,13.9,5.6,4.4,0,6.4-2.7,4.7-7.3-.7-1.7-1.6-3.2-2.7-4.7-1.6-2.1-3.4-3.4-6.1-3.5"/>
  <path class="st1" d="M274.9,424.8c-1.1.7-2.3,1-3.3,1.9-2.7,2.3-2.5,4.8.6,6.6,2.8,1.6,7.6-.2,8.5-3.3.6-1.9-1.6-4.8-3.7-5.4-.9-.2-1.2.2-2.1.2"/>
  <path class="st1" d="M113.2,380.2c-3.4,1.2-6.2,3.1-6.5,7.1-.2,3,3.1,5.5,5.7,4.3,2.6-1.2,4.7-3.2,5.7-6,1.2-3.3-.6-5.4-4.6-5.5"/>
  <path class="st1" d="M157.8,374.7c-2.4.9-4.9,1.7-6.6,3.8-3.3,4.1-2.8,12,3.8,13.8,2,.6,3.5,0,4.6-.8,3.5-2.5,5.7-6.1,6.6-10.3.7-3.3-2.1-6.5-5.5-6.6-.9,0-1.8,0-2.7,0"/>
  <path class="st1" d="M319.3,474.4c-1.8.8-3.6,1.4-5.2,2.7-2.2,1.8-3.2,3.8-2.4,6.6"/>
  <path class="st1" d="M311.9,483.9c1.5,2.1,3.6,2.9,6,3.3"/>
  <path class="st1" d="M328.3,483.1c2-3.6.4-6.9-3.8-8.2-1.6-.5-3.4-.9-5.2-.5"/>
  <path class="st1" d="M90.2,349c-2.6,1.1-5.1,2.3-6.9,4.6-2.3,3.1-2.3,6.4-1.1,8.2,1.8,2.6,4.8,3.9,8.2,2.7,3.7-1.3,7-3.2,8.6-7.3,1.8-4.6,0-7.9-5-8.2-1.2,0-2.4,0-3.6,0"/>
  <path class="st1" d="M138.4,341.9c-1.7.8-3.2,2-4.7,3.3-2.1,1.9-3.3,6.5-2.2,8.5,1.4,2.5,4.5,3.2,8.2,2.6,2.4-.4,4.4-1.3,6.3-2.6,4.4-3.1,3.3-7.2-.5-9-2.2-1-3.2-3.3-6.8-2.7"/>
  <path class="st1" d="M247.3,338.6c-1.8.4-3.4,1.2-5,2.1-4.5,2.6-3.8,6.5,0,8.8,2.3,1.3,4.7,2.3,7.4,2.5,2.6.2,5.5-1.5,6.6-3.8.8-1.8,0-4.8-1.6-6.6-1.9-2.2-4.5-2.5-7.1-3"/>
  <path class="st3" d="M239.2,303.3c-1,.3-2,.5-3,.8-4,1.5-4.8,4.4-1.9,7.4,2.7,2.7,6.2,4.3,9.6,6,1.9.9,4.5-1.5,4.6-4.3.2-4.9-2.4-9.7-6.7-10.2-.7,0-1.8,0-2.6.3"/>
  <path class="st3" d="M154.8,291c-2.3.7-4.5,1.3-6.3,3-2,1.9-2.4,4.6-.5,6.5,3.6,3.8,8.1,5.7,13.4,5.2,4.4-.5,6.2-4.5,3.8-8.7-2.2-3.8-5.6-5.9-10.1-6"/>
  <path class="st1" d="M342,495.7c-1.1.4-2.1.8-3,1.6-2.1,2-1.8,4,.8,5.2,2.4,1.1,7-.4,8.2-2.7.7-1.3-.6-3.1-2.7-3.9-1-.4-2.3-.1-3.3-.2"/>
  <path class="st1" d="M117.6,413.1c-5.1,1.6-8.1,5-8.7,10.4-.4,3.3.9,4.7,3.8,5.7"/>
  <path class="st1" d="M112.9,429.2c5.5.2,10-2.2,13.4-6.3,2.7-3.3,1.2-7-2.9-8.7-1.8-.7-3.6-1.1-5.5-1.1"/>
</svg>
