<?xml version="1.0" encoding="UTF-8"?>
<svg xmlns="http://www.w3.org/2000/svg" viewBox="0 0 287.5 479.1" width="287.5" height="479.1">
<defs>
    <style>
      .st0 {
        stroke-width: 2.1px;
      }

      .st0, .st1 {
        fill: none;
        stroke: #797979;
        stroke-linecap: round;
        stroke-linejoin: round;
      }

      .st2 {
        fill: #797979;
      }

      .st1 {
        stroke-width: 3.2px;
      }

      .st3 {
        fill: #f9fafb;
      }
    </style>
  </defs>
  <path class="st3" d="M5.3,125.4c-3.9-8.2-3.8-15.6-3.7-21.7.2-9.4,2.2-16.3,2.8-18.1,1.4-4.5,3.3-11.5,9.1-18.7,5.5-6.9,11.7-10.5,15.1-12.4,2.1-1.2,8.6-4.6,17.9-5.9,3.3-.5,10-1.4,18.3.5,9.6,2.1,15.9,6.7,19.5,9.4,2.4,1.8,11.2,8.6,17.4,20.8,4.3,8.4,5.4,15.4,6.5,22,.9,5.2,2.4,15.4.2,28.4-1.7,10.2-5,17.5-7.2,22.4-3.1,6.9-6.2,11.6-8.6,14.9-2.9,3.9-3.7,6.5-7.4,9-2.1,1.5-4.4,5-10.6,5.9-8.2,1.1-17.8-1.7-22.6-3.8-6.3-2.8-10.6-5.4-16-10.1-2.4-2.1-10.7-8.2-17.9-17.6-5.6-7.4-8.6-14.6-11.8-20.3-1-1.8-.6-3.7-1-4.5h0Z"/>
  <path class="st3" d="M141.5,137.6l-3,6.3-1.1,2.8s-.6,1.1.7.7,2.7-.7,3.6-.7,2.3,0,3.3.2,2.3.6,2.7.6,2.5-.8,2.5-.8c0,0-.5-1-1.5-2.4s-2.5-5.3-2.5-5.3c0,0-1.1-2.2-1.3-2.2s-1.5-.4-2.1-.2-1.4,1-1.4,1h0Z"/>
  <path class="st2" d="M142.8,138.5c-2.1,2.5-3.5,5.5-4.5,8.5h0c0,0,0,0,0,0,0,0,0,.1,0,0,0,0,0,0,0-.3,0-.2-.3-.3-.4-.3-.2,0,0,0,0,0h.4c2.9-1.2,6.1-1.1,9.2-.4.8,0,.2,0,1-.2.5-.2,1-.5,1.5-.7l-.8,2.2c-.6-1.2-1.6-2.5-2.2-3.7-1.1-2.1-1.6-3.9-2.8-5.7.2.3.7.5,1.1.5,0,0-.1,0-.2,0-.5,0-1.1-.2-1.6-.2,0,0,0,0,.1,0,0,0-.6.4-.7.5,0,0,0,0,0,0,0,0,.1-.1.2-.2h0ZM140.2,136.6c.2-.3.6-.6.9-.9.6-.5,1.8-1,2.6-.8.5,0,1,.2,1.4.2,0,0-.1,0,0,0,.5,0,1,.3,1.3.6,1.7,2.2,2.3,4.9,3.7,7.2,1,1.4,1.9,3.1,2.7,4.6-1.5.4-3.2,1-4.7,1.2-.6,0-.7-.1-1.2-.2-2.7-1-5.7-1.3-8.5-.4-.2,0-.9.1-1.3-.2-.3-.2-.5-.8-.4-1.1,0-.3,1.1-2.9,1.3-3.5,1-2.2,1.9-4.4,2.4-6.9h0Z"/>
  <path class="st3" d="M116.4,121.4l-6.9-9.3v-8.2s-6.5-21.1-6.5-21.1l-12.1-18.5s-1.1-2.3-.2-5.8c.9-3.5,1.4-21.6,9.9-32.3s11.7-17.6,22.6-20.6c10.8-3,13-5,25.9-2.7s16.6.8,25.4,8.7c8.7,7.9,14.4,13.8,17,21.9,2.6,8,3.6,16.5,4.8,22.5,1.2,5.9.8,6.1,0,7.4s-7.8,8.2-9.3,12.5c-1.5,4.3-7.8,17.9-8.6,22.9s-1.7,15.3-1.7,15.3l-.9,3.9-6.8,5.6s-4.8,6.1-10.4,9.1c-5.6,3-10.1,4.1-12.3,4.1s-3,1.2-6.8-.3c-3.8-1.5-8.7-3.5-10.2-4.7s-8.2-5.8-8.2-5.8l-4.7-4.4h0Z"/>
  <path class="st3" d="M242.9,173.3s-5.6-5.9-10.9-9.2c-5.3-3.3-8.8-4.8-8.8-4.8,0,0-10.5-4.1-16-4.5-5.5-.5-13.2-.5-16,.5s-2,2.9-5-2.9-7.8-25.6-8.7-30-.6-21.8,2.1-28.1,10.6-22.1,10.6-22.1l5.6-6.4,2.1-3,48.8,107.7-4,2.9h0Z"/>
  <path class="st3" d="M243.6,173.5c2.6-2.7,5.8-4.7,8.7-7.1,8.7-7.3,16.2-15.7,22-25.4,5.7-9.5,9.4-19.7,10.6-30.7,1.2-10.4,0-20.8-4.1-30.4-7.9-18.4-21.8-29.2-41.8-31.4-14.7-1.7-27.9,2.4-39.1,12.4-.8.7-1.6,1.1-2.5,1.3"/>
  <path class="st2" d="M242.8,172.7c3-3.3,6.8-5.6,10-8.6,9.5-8.6,17.7-18.8,23.2-30.3,7.2-15.1,9.7-33.2,4.4-49.2-4.1-11.9-11.9-22.7-23.1-28.6-5.5-3-11.8-4.8-18-5.6-13.7-2-27.9,2.1-38.3,11.2-1.1,1-4.2,3-4.9.7,0-.6.3-1.2,1-1.4.8-.2,1.4-.5,2.2-1.3,2.5-2.2,5.1-4.3,8-6,11.5-7.3,25.9-8.7,39-5.7,13.3,2.8,25.3,11.4,32.1,23.1,18.7,30.1,5.8,68.5-18.9,91-2.5,2.3-4.9,4.4-7.6,6.5-2.6,1.9-5.4,3.7-7.6,5.9-1.1,1-2.8-.5-1.8-1.7h0Z"/>
  <path class="st2" d="M187.4,156c-4.7-9.9-8.2-20.4-10-31.3-.1-1.1-.5-1.8-1-2.7-.6-1.1-.9-2.4-.9-3.6,0-1.8.6-3.4,1-5,.6-2.6.3-5.2.5-8,1.4-14.9,7.5-29.4,17.2-40.7.8-1,1.5-2.1,1.4-3.4,0-.9-.3-2-.5-3-.7-4.5-.9-8.7-2-12.7-3.5-14.2-11.8-27.6-24.4-35.3-5.4-3.2-11.4-5.2-17.6-6-27.5-4.7-49.9,12.8-57.4,38.8-1.2,4.1-1.6,8.3-2.1,12.7-.9,5.5-1.3,6.5,2.9,10.9,10.6,12.2,16.4,28.3,17,44.4,0,.4,0,1.1,0,1.4,0,1,1.3,2.1,2.1,2.8.7.7,2.7,2.8,3.5,3.6,6.5,7.2,14.2,13.6,23.7,16,.6.2.7,0,1.5,0,1.1-.2,2.9-.5,4.5.4,1.6.9,2.5,2.5,2.8,3.5.6,1.3,1.4,2.7,2.2,3.9.4.6.7,1,1,1.8.2.5.3,1.1.1,1.9-.2.7-.6,1.3-1,1.6-1.9,1.4-3.8,1.8-6.1,1.4-1.3-.3-1.8-.9-2.9-1-1-.2-2,.5-3,.6-2.4.2-4.3-2.3-3-4.4l.4-.7c.6-1.2,1.5-2.4,2-3.6.5-1,.8-2,.8-3,0-.7.5-1.2,1.1-1.2,1,0,1.6,1.1,1,1.9-1.3,2.1-2.6,3.8-3.5,5.7-.4.9-1.1,2.1-.8,2.6,1.2,2.2,3.1-.4,4.9-.3,1.1-.2,2.5.4,3.4.5,1,.1,2.5-.5,3.1-1.1,0,0-.1,0-.2.3,0,.2,0,.3,0,.3,0,0,0-.1-.2-.3-1.2-1.6-2.3-3.3-3.2-5.2-.3-.6-.5-1.3-1.1-1.5-.9-.5-2.6.4-4,.3-4.1-.7-7.9-2.3-11.5-4.3-6.9-3.9-12.2-9.7-17.4-15.5-1.7-1.8-4.1-3.6-4.2-6.3,0-15.9-5.3-32.1-15.3-44.5-1.4-1.8-3.2-3.6-3.7-6-.5-2.4.3-4.6.6-6.9.6-4.3,1-8.7,2.3-13,4.7-17,16.8-32.8,33.5-39.2,16.9-6.1,37.1-3.9,51.4,7.4,10.7,8.4,17.7,20.9,20.5,34.1,1.1,4.4,1.1,9,1.7,13.1.1,1.2.4,2.2.4,3.5,0,2.1-1,4-2.4,5.4-9.8,10.5-15.8,24.6-17.3,38.8-.3,2.8,0,5.5-.7,8.3-.4,1.5-1.1,3-1,4.5,0,1.6.9,2.9,1.5,4.2,1.5,6.9,2.7,13.9,5.2,20.5,1.5,4,3.3,8,5.1,11.9.6,1.3-1.4,2.3-2,.9h0Z"/>
  <path class="st3" d="M25.5,159.3c-7.2,7.1-12.4,15.5-15,25.4-2.2,8.5-2.7,17-1,25.6,4.5,23.8,18.4,40.7,38.8,52.8,9.2,5.4,19.1,9.3,29.5,11.6,7.8,1.7,15.8,2.6,23.6-.4,4.8-1.9,8.6-5.2,11.7-9.4,6.3-8.5,9.6-18.3,11.9-28.4,1.9-8,2.6-16.1,2.5-24.4-.2-12.6-2.8-24.6-8.7-35.7-4.1-7.8-9.7-14.6-16.4-20.3-.6-.5-1.1-1.1-1.7-1.6"/>
  <path class="st2" d="M26.1,160c-19.9,19.2-20.9,48.2-8,71.6,12.6,22.8,37.3,37.4,62.5,42.1,9.3,1.8,19.4,1.4,26.6-5.1,6.9-6.5,10.9-15.6,13.7-24.7,8.4-27.5,5.6-59.8-14.1-81.7-1.5-1.8-3.4-3.6-5-5.2-.7-.6-1.2-1.3-1.7-1.7-.4-.3-.5-1-.1-1.4.3-.4.9-.4,1.3-.1,5.4,4,10.4,8.6,14.4,14,12.5,16.3,15.7,37.7,13.4,57.7-1.7,13.3-5.3,26.6-12.7,38-5.8,9.4-15,14.6-26.1,14.4-23.4-1.3-45.8-12.6-62.2-29-13.8-14.3-22-34.7-20.2-54.7,1.3-13.3,7.4-26.1,17-35.4.9-.8,2.1.4,1.3,1.3h0Z"/>
  <path class="st0" d="M145.2,148.7c-.5,2.2,1.1,4.3,1.5,6.4.8,4.8-1.1,9.7-1.7,14.4-.4,3.7-1.7,7.2-2.5,10.7s-.5,7.5-1.5,11.1-2.7,6.9-3.6,10.5c-1,3.8-2.2,7.5-2.7,11.3-.5,3.8.4,7.7.3,11.6-.1,3.8-2.2,7.8-1.9,11.7.4,4.7,1.7,9.4,2.7,14,1,4.6,1.5,9.4,2.7,13.9s2.7,9,3.8,13.6c1.3,5.4,2.7,10.7,3.3,16.3.6,5.3,1,9,.9,14.4,0,.3.4,6.1.9,14,.3,4.3-.5,9.3,0,14.2s-.6,9.9-.3,14.2c.6,7.9,1.1,14.9,1.4,15.1"/>
  <path class="st3" d="M169.6,284.1c-2.6,2.3-5.9,3.9-7.7,7,.3.9.7,1.4,1.6,1.6,2.9.7,5.4,2.5,8.1,3.8,2.3,1.1,3.2.7,3.3-1.8,0-2.7-.4-5.4-.5-8.1,0-1.5-1.3-2.1-2.5-2.3-1.3-.2-2.3-.8-3.3-1.5-9.3-7-14.3-16.8-18.3-27.4-2.6-7-4.5-14.2-5.5-21.6-.9-6.5-.8-13.2-.2-19.8,1.1-10.2,3.8-19.9,8.7-28.9,7.1-13.2,17.6-22.7,32-27.6,18.7-6.4,35.6-2.5,51,9.4,11.6,9,17.2,21.5,18.7,35.8,1.7,16-2.5,30.6-11.4,43.9-7.7,11.5-16.8,22-28.7,29.1-9.1,5.4-19.4,8.3-29.9,10-2.7.4-5.5.4-8.4-.3-7.1-1.6-1.5.2-2.3.5"/>
  <path class="st2" d="M170.2,284.9c-2.8,2-6.5,3.3-7.5,6.7v-.8c.3.9.4.9,1.7,1.3,1.1.4,2.1.8,3.1,1.3l2.9,1.5c1,.4,2.2,1.3,3.1.9,0,0-.2,0-.3,0-.2,0,0-.3-.1-.7,0-2.5-.3-5.3.3-7.8,0-.3,0-.6,0-.8,0-1.1-1.4-1.2-2.2-1.4-3.3-1-5.6-3.7-8.1-5.9-6.1-6.2-10-14.2-13.1-22.2-4.7-12-7.4-25-6.7-38,.7-17.3,6.5-34.7,18.2-47.7,18.5-20.1,49.2-24.8,71.9-8.7,23.6,14.6,29.2,46.3,19.4,70.9-3.2,8.2-8,15.6-13.4,22.5-5.3,6.9-11.5,13.2-18.8,18.2-10.9,7.6-23.8,11.4-36.8,12.9-3.3.3-6.7-.4-9.9-1.2-.2,0-.5-.1-.7-.1,0,0-.3,0,0,0-.1-.1.7.3.8-1.2-.1-.5-.3-.6-.3-.6.2.1.8.4,1.1.7.9.5.8,1.8-.1,2.1-1.3.4-2-1.5-.7-2-.1,0-.5.1-.6.9,0,.5.2.6.2.7,0,0,0,0,0,0-.3-.2-.6-.3-1-.5,0,0-.2,0-.3-.2,0,0-.3-.1-.4-.7.1-1.5,1-1.1,1-1.3,1.7,0,3.2.4,4.8.7,6.2,1,12.3-1.2,18.3-2.6,16.5-4.3,30-14.9,40.2-28.3,5.1-6.6,9.8-13.6,12.8-21.4,9.2-22.7,4.2-52.7-17.5-66.4-21.4-15.5-50.1-11.3-68,7.5-14.4,15.5-20,37.9-18,58.7,1.7,16.3,10.5,44,26.2,51.6,1.7.2,3.5,1,3.6,3,0,.9.4,1.5.7,2.3.3,1,.5,2.1.7,3.2.1,2,.5,3.9-1.1,5.8-.7.8-2.1.8-2.9.4-2.2-1-3.8-2.2-5.8-3.2-1.2-.6-2.3-1.1-3.6-1.3-1.1-.1-2.1-1.3-2.4-2.2-.1-.3,0-.6,0-.8,1.2-1.2,2.8-2.8,4-3.8,1.4-1.1,2.8-2.2,3.9-3.5.4-.4,1-.5,1.5-.1.5.4.5,1.3-.1,1.7h0Z"/>
  <path class="st2" d="M184.4,215.6c-1.2-3.7,1.4-7.5-.4-11-.2-.3-.5-.9-.6-1.3-.5-2.4.3-5-.9-7.3-.5-1.2-2.7-1.2-3.4-.4-.4.4-.6,1.2-.7,2-.9,4.1-1.1,8.1-1.2,12.3-.3,6.8-1.9,13.4-2.6,19.9-.3,3.2-.3,6.5.6,9.4,1.8,6.2,7.8,9.2,13.8,10.7,3.1.8,6.1,1,9.1.2,6.3-1.6,11.1-6.7,15.7-11,2.4-2.3,4.7-4.7,7.1-7.1l3.6-3.5c.8-.8,1.8-1.5,2.2-2.5,0-.2,0-.3,0-.5-3-4.8-8.2.2-11.4,2.4-1.6,1-3,2.5-5.1,2.4-.6,0-1.1-.5-1-1.1,0-.6.5-1,1.1-1,1.3.1,2.7-1.3,3.8-1.9,2.4-1.7,4.9-3.7,7.9-4.4,2.5-.9,5.1.7,6.3,2.9,1,2.1-1.3,3.8-2.5,5.1-5.9,5.9-11.6,12.1-17.9,17.6-2.5,2.3-5.6,4.3-8.9,5.4-7,2.1-14.5,0-20.4-3.9-12.9-9.6-3.1-26.5-2.6-39.1.2-3.3.4-6.7,1-10,.5-1.8.3-3.5,1.6-5.1,1.5-1.3,4.4-1.1,5.3.7,1.3,2.4.6,5.1,1,7.5.2.8.8,1.4,1,2.2.9,3.2-.9,6.8.1,9.9.3.9-1.1,1.3-1.3.4h0Z"/>
  <path class="st0" d="M74.8,193.4c.6,4.6,6,8.4,7.1,12.8,1.1,4.5-.6,9.9,1.2,14.2,1.7,4.3,5.5,7.6,8,11.7,3.6,5.9,9.5,9.6,14.3,14.6,3.9,4.1,3.8,12,7.6,16.2"/>
  <path class="st2" d="M242.7,111.4c0,0,0,0,.2,0,.2,0,.1,0,0,0-.1.2-.5,1.2-1.2,1.9-1.3,1.5-3.6,1.7-5.4,1-1.8-.5-3.8,0-6.5.5-2.9.5-5.2-.7-7.9-1.2-2.4-.4-5,.5-7,1.8-.6.6-1.6,1.3-2.2,1.9-1.4,1.2-1.9,2.4-1.7,4.1.2,1.7.6,3.5,1.6,4.9,2.3,3.8,7.1,4.4,11.1,5.5h.4c0,.1,0,.1,0,.1,1.4-.9,3.1-1.4,4.8-1.2,1.4.1,2.7.7,3.8,1.3,2.1,1.1,4.5,1,6.5-.2.6-.4.9-.7,1.7-1.1.8-.4,2,0,2.6.5,2.6,2,6,2.7,9.2,3.1,2.4,0,4.8-1.9,6.4-3.7,1.5-1.9,1.2-4.6,1.8-6.9,1-3.2,2.9-6.7,1.4-9.9-.4-.9-1.4-1.7-2.3-2.4-.5-.4-.6-1-.4-1.5.7-1.7.9-3.8.3-5.6-.7-2.1-2.2-4-4.2-4.9-.8-.3-1.7-.5-2.4-1.2-1.1-.9-1.3-2.4-1.6-3.2-1.1-2.8-4.1-4.2-7-4.5-3-.4-4.5,1.9-5.3,4.8-.3,1-.7,2.4-1.7,3.5-.6.7-1.5,1.3-2.2,1.8-1.4,1.1-1.7,3-1.8,5.2,0,1.1-1,2-2.1,2-1.2,0-2.1-1.2-1.9-2.4.4-2.5,1-5.2,3.1-7,.8-.7,1.9-1.1,2.6-1.7,1.3-1.3,1.5-3.9,2.8-5.5,1.3-2.2,4.4-3.5,6.9-2.9,4.2.7,7.8,3.4,8.6,7.8.3,1.3,1.5,1.6,2.6,2,4.8,2.2,7.1,7.6,6.4,12.8l-.5-1.7c5.4,4.5,3.3,10,.9,15.4-.6,2.6-.6,5.3-2.4,7.5-1.9,2.1-4.2,3.6-7,4.2-1.4.2-2.7-.2-4.1-.5-2.6-.6-5.2-1.4-7.2-3.2-.9-.9-1.4.1-2.4.6-2.4,1.4-5.6,1.5-8,.1-2.1-1.2-4.4-1.6-6.6-.5-.4.2-.5.3-.9.5-.4.2-1,0-1.4-.1-.6-.2-1.2-.3-1.8-.5-5.3-.8-10.6-3.4-12-9.1-1.4-4.7,0-6.7,3.5-9.6,2.4-2.4,5.7-3.3,9.1-3.6,2.3,0,4.9.5,7.1,0,2.7-.6,6.1-1.3,8.9-.1.6.2,1,.2,1.4-.3.5-.6,1-1.6,2-2,.7-.3,1.6-.2,2.1,0,1.4.5,1.3,2.6-.1,2.9l-.8.2h0Z"/>
  <path class="st0" d="M115.8,262.3c11.6,13.4,19.8,21.3,19.9,41.4,0,17.7,10.8,61.4,14.6,61.1"/>
  <path class="st2" d="M244.6,100.6c-1.2,1.7.3,2.3,1.7,2.5,2,.4,3.8,1.5,4.9,3.3,1.1,1.7,1.4,3.6,1.8,5.4,1.2,4.6-.2,10.2-4.8,12.4-2.6,1.3-5.6,1.2-8.1.6-3-.8-5.2-1.8-7.7-.5-.7.4-1.5.6-2.2.5-2.6,0-4.5-2.1-6.8-2.1-.7.2-1.5,1.3-2.1,2.3-.4.6-1.2.8-1.8.4-.8-.5-.8-1.7,0-2.2,1.2-.7,2.2-1.8,3.6-2,1.5,0,2.5.7,3.8,1.2,1.4.5,2.8,1.1,4.1.3,1.7-1.4,4.1-2.1,6.2-1.8,2.4.2,4.5,1.3,6.8,1.2,5.3,0,7.9-5,7-9.9-.2-2.7-.9-5.9-3.4-7.1-1.8-.9-4.3-.6-5.1-2.9-.3-.9-.3-1.7-.2-2.5.3-2.2,3.5-1,2.3.8h0Z"/>
  <path class="st0" d="M44.7,184.3c5.9,3.1,10.3,7.6,12.8,13.8,1.2,3.1,4.2,4.1,6.9,5.3,1.7.7,3.6,1.3,5.3,2.1,3.4,1.7,3.8,3.2,1.3,5.8-1.7,1.7-1.9,2.8,0,4.7,1.8,1.7,1.5,2.7-.4,4.5-1.2,1.1-3.9,2.4-4.3,4.1"/>
  <path class="st2" d="M26.4,180.2c-1.1,1-2.1,1.7-2.6,3-.8,1.9-1.4,3.9-2,5.9-1.9,7.2-1.9,14.8-.5,22.2.3,1.8.8,3.7,1.3,5.5.5,1.7,1.4,3.5,1.7,5.6,0,.4-.2.8-.6.8-.4,0-.7-.2-.8-.5-1.3-3.4-3.1-7.2-3.9-10.9-2.6-9.8-2.4-20.4.9-29.9.6-1.9,2.1-3.6,3.5-4.8,2.1-1.9,5,1.3,2.8,3.2h0Z"/>
  <path class="st2" d="M203.4,215.9c.9-2.3,1.5-4.8,2.7-7-.5-2.9,0-5.8.8-8.5,1-3.3,2.2-6.4,2.8-9.7.5-1.8,0-4.4-2.3-4.3-1.3,0-2.5,0-3.3,1.1-.8,1.1-.8,2.6-1.3,3.8-.6,1.6-1.3,3.2-1.9,4.7-.8,1.5-1.2,3.3-2.4,4.6-.4.5-.9.8-1.2,1.5-.4,1.1-.4,2.5-.6,3.9-.3,1.4-.7,2.6-.8,4-.2,1.3-.5,2.7-.9,4.1-.2.5-.7.7-1.1.6-.5-.2-.8-.8-.5-1.3,1.1-2.3,1.5-5.1,2.1-7.7.3-1.2.3-2.7.9-4.1.7-1.2,2-1.8,2.6-3.2.4-.9,1-1.8,1.1-2.8l.3-1c.9-2.6,2-5.1,3.3-7.5.3-.6.8-1.3,1.6-1.6,4.5-1.6,5.9,3.8,5,7.1-.9,5.2-3.6,10.3-2.7,15.7,0,.2,0,.6,0,.8-1.2,2.4-1.8,4.9-3.4,7.1-.3.4-.9,0-.7-.4h0Z"/>
  <path class="st0" d="M109.9,282.4c3.3,10.4,16.8,13.1,16.2,24.1-.8,14.8,7.3,21.7,8,30.5.8,10.9,14.2,24.8,14.4,24.6"/>
  <path class="st2" d="M125.2,17.1c-9.4,3.4-16.3,11.4-20,20.5-1.3,3.1-2.4,6.3-2.4,9.7,0,.6-.5,1.1-1.1,1.1-.7,0-1.3-.8-1-1.4,1.1-3.3,2.1-6.6,3.2-9.8,2.3-6.5,5.9-12.7,11-17.5,2.6-2.4,5.5-4.5,8.6-6.3,2.6-1.3,4.5,2.6,1.8,3.8h0Z"/>
  <path class="st0" d="M161.2,276.8c-3.3,4.2-9.1,9.7-6.5,14.2,3.8,6.7-1.1,15.9-2.5,20-2.1,6.2-.6,52-2.2,52.4"/>
  <path class="st2" d="M198.1,166.7c-13.7.2-26.9,8.6-34.1,20.2-.2.3-.6,0-.5-.3,6.6-12.8,19.8-22.6,34.4-24,2.8-.2,3,3.9.2,4h0Z"/>
  <path class="st0" d="M66.2,224.5c2.6.6,5.2,1,7.9.8,1.4-.1,1.6,1.3,1.5,2.5-.2,1.8.4,3.3,1.2,4.8,1.7,3,.8,5.9-2.2,7.6-1.8,1-3.7,1.7-5.6,2.5-4.3,1.7-4.8,4.1-3.4,8.7.4,1.4,1.1,2.6,1.4,4.1"/>
  <path class="st2" d="M219.9,61.7c-6,1.9-11.6,5.3-16.1,9.7-4.6,4.4-7.6,10-10.6,15.6-.2.5-1,.2-.8-.4,3.1-9.2,9.7-17.2,17.8-22.6,1.2-.8,3-1.8,4.2-2.4,1.2-.6,3.2-1.3,4.1-2.3,1.8-1.7,3.8,1.6,1.4,2.4h0Z"/>
  <path class="st2" d="M207.1,208.1c2-1.2,2.2-3.4,3.2-5.4.6-1,1.2-1.9,1.7-3,1.4-3.3,5.8-8.4,8.9-3.7,1.6,2.3,0,5-.8,7.3-2,4.2-3.6,8.6-5.5,12.8-1.5,3.4-2.9,6.9-3.7,10.5-.4,1.1.3,3.5-1.5,3.5-3.8-.2,6.2-18.2,6.8-20.8,1.2-3.3,2.9-6.3,3.7-9.6.5-1.6-.2-2.8-1.5-3.7-.2-.1-.2-.1-.4-.1-1.1.1-2.1,1-2.8,1.9-1.2,1.8-2,4.1-3.2,6-1,2-2,4.9-4.4,5.8-.9.3-1.5-.9-.7-1.4h0Z"/>
  <path class="st0" d="M175.7,119c-2.5.4-4.2,2-5.8,3.8-4.6,5-9.9,9.1-16,12.2-2.4,1.2-4.6.7-6.8,2.4"/>
  <path class="st2" d="M103.2,226.5c0-2.6.8-5.2.5-7.8-.6-7.1-4.6-13.8-11.3-16.7-.2-.1-.7-.2-.8-.2-.8,0-1.5-.7-1.5-1.5s.7-1.5,1.5-1.5c.8,0,1.1.2,1.8.5,8.4,4.2,13.1,14.2,11.3,23.4l-.7,3.9c0,.5-.8.4-.8,0h0Z"/>
  <path class="st2" d="M152.5,79c.6-3,3.7-4.1,4.7-6.7,2.5-5.1,1.7-11.6-1.5-16.1-.9-1.2-2.4-2.8-2.9-4.4,0,0,0-.2,0,0,0,.1.1.2.2.3.2.1,0,0-.4-.1-.3-.1-.7-.2-1.2-.3-3.9-1.3-8.1-2-12.2-1-1.3.4-3,.5-4,1.6-1.8,2.5-4.3,5.3-5.3,8.4-2,5.5-.6,12.2,4.1,15.9.9.7,1.5,1.9,1.6,3.1.2,1.4-2,1.8-2.2.3,0-.2,0-.4,0-.5.4-1-.7-2-1.4-2.7-1.7-1.6-3-3.5-3.9-5.7-2.7-6.3-1.1-13.2,3.1-18.5.9-1.5,2.5-3.7,4.5-4.2,2.7-1,5.5-1.5,8.3-1.5,3.3,0,6.4,1,9.6,1.9.5.2,1.1.3,1.9,1.1.3.3.5.7.6,1.1.5,1.4,1.4,2.2,2.3,3.5,4.3,6.4,3.8,15.6-1.3,21.4-1.3,1.3-2.6,2.4-2.6,3.8,0,1.6-2.5,1.3-2.1-.3h0Z"/>
  <path class="st0" d="M168.3,295.6c-1,4.6-7,.7-7.7,25.3-.1,4.2,2.2,5.5-1.7,20.1-1.5,5.5-9.4,29-9.7,25.5"/>
  <path class="st2" d="M132.7,51.8c-2-.2-3.2.8-5,1.8l-2.8,1.7c-4.5,2.8-8.6,6.1-12.1,10.1,0,0,.2-.6.2-.6-.2,1.6,2.2,3.1,3.4,4.1,4,3.3,7.6,7.2,12.6,8.9.8.3,2.2.6,3,.8,6.1,1.7,12.4,3.4,18.4.8,4-1.1,8.3-1.5,11.8-3.5,3.9-2.4,7.9-5.1,11.3-8.2.8-.8,2.1-1.6,1.2-2.7-2.5-3.3-5.7-6.1-9.1-8.3-2.6-1.7-5.4-3.2-8.2-4.3-.9-.4-1.5-.5-2.3-.3-.6,0-1.1-.3-1.2-.9-.1-1.3,1.6-1.6,2.6-1.6,1.9,0,3.4,1.1,5,1.8,1.9,1,3.8,2.2,5.5,3.5,3.5,2.6,6.7,5.7,9.4,9.2,1.5,2,.2,3.9-1.4,5.4-1.9,2-3.9,3.9-6,5.5-1.7,1.4-3.4,2.6-5.4,3.7-4,2.2-8.6,2.1-12.8,2.8-6.3,2-13,.1-19.1-1.4-6.5-1.1-12.5-4.5-16.8-9.4-1.4-1.9-4.4-3.6-3.8-6.4,3.6-5.7,9.2-10.1,15-13.4,1.9-1.3,5-2.4,7.3-1,1.1.6.4,2.2-.7,2h0Z"/>
  <path class="st2" d="M144.1,55.8c8.7-.7,12.6,9.7,6.7,15.6-3.6,3.3-9.8,3.5-13.1-.3-5.4-6-1.9-13.9,5.2-14.9,1.5-1.2,2.8,1.2.9,1.9-.1,0-.5.2-.7.2-3.4.1-6.7,3.1-6.2,6.6.3,3.6,3.7,6.9,7,6.3,1.7-.2,3.5-.9,4.4-2,2.2-2.4,2.1-6.3-.1-8.6-1-1.1-2.6-1.8-4.5-2.5-1.1-.4-.9-2.1.3-2.1h0Z"/>
  <path class="st2" d="M195.8,201.3c-1.7-2.7-1-5.8-.3-8.6.3-1.4.1-2.9-.2-4.2-.5-1.4-2.7-1.3-3.8-.4-.9.8-1.2,2.4-1.6,3.9-.7,2.6-1.4,6.4-1.8,9.1-.4,1.7-.4,3.6-1.9,4.9-.4.5-1.2.5-1.6,0-.5-.5-.3-1.3.3-1.7,1.1-.6,1.3-2.3,1.7-3.5,1-3.8,1.6-7.6,2.7-11.4.6-2.8,4.2-4.4,6.6-2.6.8.5,1,1.6,1.2,2.5.3,1.6.2,3.3-.1,4.9-.4,2-.5,4.4.7,6,.9,1.2-1,2.4-1.8,1.2h0Z"/>
  <path class="st2" d="M89.3,205.6c6.5,2.5,9.7,9.7,8.3,16.3-.1.8,0,1.8-.5,2.8-.3.5-1.1.1-.8-.4.4-.6.3-1.5.4-2.5.8-5.9-2.3-12.3-8.3-13.9-1.6-.5-.8-3,.8-2.3h0Z"/>
  <path class="st2" d="M200.9,105.6c-4.5,6.3,3.1,12.2,9.2,12.3,1.4.1,1.2,2.3-.2,2.2-3.4-1.2-7-2.5-9.5-5.3-2.6-2.7-3.3-7.1-1.4-10.4.8-1.3,2.7,0,1.8,1.2h0Z"/>
  <path class="st2" d="M253.3,136.4c-1,4.7-5.8,7.7-10.4,7.7-4.3,0-9.5-1.7-11-6.2-.2-.6.7-1,1-.3,2.2,5.5,11,6.3,15.4,3,1.5-1.1,2.6-2.8,2.9-4.6.3-1.4,2.4-1,2.1.4h0Z"/>
  <path class="st2" d="M240.5,90.4c-2.9-5.6-12.1-7.3-16.1-2.1-1,1.2-2.7-.5-1.5-1.5,5.8-4.7,14.8-3.3,19.4,2.4,1,1.2-1,2.6-1.8,1.2h0Z"/>
  <path class="st3" d="M102.6,275c.8,2,1,4,.5,6.1-.2.9-.1,1.9,0,2.8.2,1.6,2.2,2.5,3.5,1.5,1.1-.8,1.9-1.8,3-2.6,1.1-.9,2-1.4,3.4-1.5,1.4,0,2.5-1.1,2.7-2.5.3-1.2-.8-1.9-1.7-2.5-2.1-1.4-4.4-2.5-6.3-4.1"/>
  <path class="st2" d="M103.6,274.6c0,.9.1,1.7.3,2.5.1.8.5,1.6.4,2.4-.1.8-.5,1.5-.5,2.3,0,.7.2,1.4.3,2,.1.8,1.3,1.3,1.9.7,1.7-1.4,3.6-4.2,6.4-4.5h.6c.7-.2,1.2-.8,1.3-1.5,0,0,0,0,0,0,0,0,0,0-.2-.2-2.3-1.7-5.1-2.9-7.4-4.9-1.4-1.3.4-3.4,1.9-2.3,1.1.8,2.3,1.5,3.7,2.2,1.8,1.2,4.4,2.1,5,4.6.3,1.8-.8,3.5-2.4,4.4-1.4.7-2.8.2-4.1,1.3-1.1.7-2.1,1.9-3.6,2.8-2,1.3-4.8,0-5-2.3-.2-1.5.5-3.1.3-4.7,0-.7.2-1.4.1-2.1-.1-.7-.5-1.3-1-1.8-.5-.5-.5-1.2,0-1.7.7-.9,2.2-.2,2.1.9h0Z"/>
  <path class="st2" d="M222.6,93c.3-.9.7-1.7.8-2.6.3-3.5-5-4.6-7.6-3.7-2.3.7-5.6,1.4-5.5,4.3-.1.5-.2,1-.5,1.4-.3.5-1,.7-1.5.4-.9-.5-.6-1.7-.2-2.5,1.7-2.5,4.1-4.8,7.1-5.7,3.5-1.1,8.1.6,9.5,4.1.5,1.4.8,6.4-1.6,5.6-.5-.2-.7-.8-.6-1.3h0Z"/>
  <path class="st2" d="M78.5,181c1.4,1.2,2.7,2.4,4.1,3.5,2.1,1.5,5.1,5.1,2.5,7.6-.9.8-2,.8-3.1.9-2.8.2-5.5,1.4-8.3,1.5-1.1.4-2.5.1-3.4-.2-.6-.1-1-.8-.8-1.4.2-.6.8-.9,1.4-.8.6.2,1,.9,1.5.9.3,0,.6,0,.9-.1,1-.8,2.3-1,3.4-1.4,1.8-.6,3.8-1.1,5.7-1.5.3,0,.5-.1.7-.3,0,0,0,0,0,0-.3-1.3-2-2.6-3.1-3.5-1.2-1.2-2.3-2.5-3.1-4-.3-.5,0-1.2.4-1.5.4-.2.9-.2,1.2.1h0Z"/>
  <path class="st2" d="M225.9,132.8c.9,2.6,2.6,5.2,3.2,8.1.8,2.9,0,6.1,1.9,8.7,1.4,1.8-1.3,4-2.8,2.2-.3-.4-.5-1-.3-1.5.4-3.1,0-6-1-8.7-.5-2.1-6.5-8.6-2.9-9.9.8-.2,1.7.3,1.9,1.1h0Z"/>
  <path class="st2" d="M204.1,230.4c-5.3.9-9.5,3.7-12.9,8-.3.3-.9,0-.7-.4,1.6-5.6,7.5-10.4,13.5-9.7,1.2.1,1.3,1.9.1,2.1h0Z"/>
  <path class="st2" d="M214.6,100.3c0,0-.2.3-.2.3,0,0,0-.2,0-.3.9-1.6.9-3.5-.4-4.9-3.1-3.4-8.2-3.2-11.5-.1-1.6,1.4-2.4,3.4-2.3,5.5,0,.6-.5,1.1-1.1,1.1-.7,0-1.2-.7-1.1-1.3.5-2.4,1.8-4.7,3.7-6.2,1.9-1.4,4.2-2.4,6.6-2.4,4.1,0,9.2,3.2,8.3,7.9,0,.4-.2.9-.3,1.2h0c0,.3-.3.8-.7,1-1.2.8-2.3-1-1.2-1.8h0Z"/>
  <path class="st2" d="M223.5,101.8c-.7,1.6-.9,3.2-.7,4.9,0,.8.6,1.5.4,2.4,0,.4-.1.9-.3,1.3-.1.5-.3.9-.7,1.5,0,.1-.2.1-.3,0-1-.6-1.5-1.4-1.9-2.4-.4-.9,0-1.9.2-2.9.3-1.9,1.4-3.8,3-4.9.1,0,.3,0,.3.2h0Z"/>
  <path class="st2" d="M73.5,183.2c0,3.5-1.8,6.4-1.8,9.8,0,0,0-.2-.1-.5,0-.1-.2-.2-.3-.2,0,0,.3.2.5.4.1.2.2.4.2.6,0,.4-.2.8-.5,1-.5.3-1.1.2-1.5-.3s-.2-1.1.3-1.5c0,0,0,0-.1,0-.4.3-.4,1-.1,1.4,0,.1.3.3.3.3.2,0,0,0,0,0-.1,0-.4-.2-.5-.4-.3-.5-.3-.9-.2-1.1.6-1.4,1-2.9,1.3-4.5.3-1.7.6-3.4.5-5,0-.6.4-1.1,1-1.1.6,0,1.2.5,1.1,1.1h0Z"/>
  <path class="st2" d="M86.8,211.6c4.5,2.1,5,5.7,4.8,10.1,0,.3-.2.5-.4.5-.3,0-.6-.3-.5-.6.2-.9,0-1.8-.2-2.6-.4-2.5-2.1-4.5-4.6-5-1.9-.6-.8-3.3,1-2.5h0Z"/>
  <path class="st2" d="M236.5,142.5c-.7.9-.7,1.7-.7,2.8,0,1.9-.5,3.9-.2,5.7.1.6-.3,1.2-.9,1.3-.8.2-1.5-.7-1.2-1.5.6-1.9,1-3.6.9-5.5-.2-1.2-.2-2.7.3-3.8.6-1.6,2.8-.5,1.9.9h0Z"/>
  <path class="st1" d="M255.3,123c0,3.5-.7,4.5-3.8,5.1-.6.1-1.1.7-1.8.5"/>
  <path class="st2" d="M227.2,97.2c0,0,0,0-.2-.2-.3-.1-1.1-.5-1.5-.8-2.4-2.5-6.6-1.7-8.7.9-1,1.3-2.9-.1-2-1.4.2-.2.4-.4.6-.4,1.1-.3,2.1-.9,3.2-1.4,2.5-1.4,5.9-1.3,8.4.2.6.1,1.3.1,2.1.6,1.6,1.3-.3,3.8-2,2.5h0Z"/>
  <path class="st2" d="M134.7,370.5c-1.5-.2-3.1,1.7-4.4,2.6-4.6,3.8-8.5,8.3-11.5,13.4-4.1,6.8-6.7,14.4-8.1,22.2-.7,3.6-1.5,8.5-2.7,11.9-2.5,7.6-8,14.4-12.1,21.1-2.2,3.4-4.5,6.8-7.7,9.3-.2.1-.4.3-.7.3-1.2.1-1.5-1.7-.2-1.9-.1,0-.3,0-.3,0h0s0,0,0,0h0c.4-.6,1.1-1.7,1.5-2.2,1.1-1.4,2.5-3.3,3.5-4.7,5.2-7.3,11.5-14,14.2-22.6,1.1-3.2,1.9-8.2,2.6-11.6,1.4-8,4.1-15.9,8.3-22.9,3.2-5.3,7.2-10,12-13.9,1.8-1.3,3.5-3.4,6-3,1.2.3.8,2.1-.4,1.8h0Z"/>
  <path class="st0" d="M162.6,427c-1.1.5-1.8,1.5-2.7,2.3-1,1-1.2,1.8-.6,3.3,2.4,5.7,2.3,11.5.9,17.5-1.1,4.5-3,8.8-4.1,13.4-1.2,5.2-.9,9.9,1.8,14.5"/>
  <path class="st2" d="M147.3,380.1c-1.4.6-1.6,2.2-2.3,3.4-2.5,4.1-5.6,8.1-6,12.9,0,2.1.4,4.1.8,6.3,1.6,8.9-.4,18.4-5.2,26.1-1.2,2.1-4.5.3-3.3-1.9,5.5-6.6,8-15.4,6.8-24-.5-3.2-1.2-6.9,0-10.1,1.3-3.7,3.4-7,5.3-10.3.7-1.6,1.2-3.7,3-4.5,1.3-.6,2.3,1.4.9,1.9h0Z"/>
  <path class="st0" d="M169.2,401.4c2.4,1.4,4.3,3.2,4.5,6.2.2,2.6-.7,5-2.3,7-2.8,3.5-5.2,7.2-8.2,10.6-.6.7-.6,1.5-.2,2.3,2.4,4.3,4,8.8,3.5,13.8-.3,3-1.2,5.9-1.8,8.9-.8,3.5-1.4,7.1.6,10.5.5.8,0,0,0,0"/>
  <path class="st2" d="M159,432.8c-1.3.5-2.2.8-2.5,2,0,.4-.1.7-.4,1.1-.3.4-.6.6-.9.8-3.2,2.2-6.1,5.1-9.3,7.4-3.2,2.3-6.8,3.9-9.7,6.7-4.3,4.2-6.7,9.6-9.1,15.1-.8,1.8-3.5.7-2.7-1.2,4.2-7,8.5-14.3,15.1-19.4,3.4-2.2,6.5-4.3,9.6-7,1.5-1.2,3.7-3,5.1-3.8,0,0,0,.1,0,.1.1-.8.5-1.6,1-2.3,1-1,2.1-1.4,3.1-1.7,1.3-.4,2,1.5.7,2h0Z"/>
  <path class="st0" d="M155.2,435.7c.9.9,1,1.9,1.1,3.1.3,5.6-1.2,10.8-3.1,15.9-1,2.7-2,5.5-2.9,8.3-.4,1.3-.5,2.5.2,3.7"/>
  <path class="st2" d="M136.2,369.4c4.1,2.6,6.2.3,7-4.5.1-.7-.2-1.6,0-2.3.6-1.6-.3-2.5-1.5-2.8-1.2-.4-2.4.2-3.1,1.4-.5.9-.7,1.8-1.1,2.8-1.9,4.8-3.1,9.9-6.2,14.2-3.4,4.9-7.5,9.2-11.6,13.6"/>
  <path class="st2" d="M136.7,368.5c1.7,1.1,3.4,1.4,4.3-.7.7-1.5,1-2.7.9-4.6,0-.5.3-1.1.3-1.6,0-.4-.9-.8-1.4-.8-1.3.2-1.6,2.2-2,3.2-.4,1-1.5,3.9-1.9,5-1.6,4.5-3.5,9.3-7.2,12.4-1.5,1.5-3.2,3.9-4.5,5.6-1.4,1.9-2.9,3.8-4.1,5.9-1.2,1.9-4.2.2-3-1.8,2.8-2.5,5.9-4.8,8.4-7.6,1.8-1.6,2.7-3.9,4-5.8.6-.9,1.2-1.9,1.7-2.9,1.5-2.9,2.6-6.6,3.8-9.8.8-1.7,1.1-3.8,2.4-5.2,2.2-2.6,7.3-.5,6.1,3-.2.5-.1.3-.1.6.3,5.2-3,11-8.7,7.1-1.2-.8,0-2.5,1.2-1.8h0Z"/>
  <path class="st0" d="M147.3,378.9c.7,0,1.4-.1,2.1.2,4,2.1,6,1.6,8.4-2.1.3-.4.4-1,.9-1.2,3.3-1.7,4.4-4.9,4-8-.6-4.1-3.4-6.8-7.5-8.1-.8-.2-1.6-.2-2.3-.8"/>
  <path class="st0" d="M166.9,387c4,1.9,5.8,4.7,5.4,7.8-.4,2.6-1.8,5-3.5,6.5-3.4,2.8-6.7,6-10.7,8-2.1,1-4.1,2.3-6.4,3-1.2.3-2.4,1.2-2.9,2.6-1.3,3.4-.1,5.4,4.1,5.6.1,0,.2,0,.4,0,2-1,2.5-4.9.8-6.4-.5-.5-1.3-.6-1.7-1.2"/>
  <path class="st0" d="M162.2,372.9c3.5.7,5.8,2.5,6.7,6.2.3,1.4-.1,2.6-.5,3.7-1.6,4.6-4.9,8-8.1,11.5-1.7,1.9-3.7,3.6-6,4.5-2.4,1-4.6,2.4-7,3.4-1.1.5-1.9,1.3-2.2,2.3-.5,1.6-.8,3.1-1.8,4.6-1,1.4,1,4.4,3,4.7.9.1,1.8.3,2.7.2"/>
  <path class="st0" d="M155.7,378.6l2.1-1.6.6-1.2c-.3-.4-.6-.9-.6-1.4,0-.5-.1-1-.3-1.4-.3-.9-1-1.5-2.4-1.5-1.6,0-3.2,1.3-3.7,2.9-.4,1.4-.2,2.7.8,3.7.5.5,1.1,1.1,1.2,1.9l-2.3-3"/>
  <path class="st0" d="M153.1,420.8c.4,3.1,1.1,6.1,1.6,9.1.2,1.2.8,2.1,1.3,3.1"/>
  <path class="st0" d="M151.6,411.9c-.2-.9.5-1.7.4-2.7,0-2.5-1.7-3.8-4.2-3.1-1,.3-2,1-3.1.6"/>
  <path class="st0" d="M148.5,361.6c.2,1.8-.3,3.6.4,5.4.3.7-.2,1.4-.4,2.1-.9,2.8-1.4,5.7-1.5,8.7,0,1.9.9,3.6,1.3,5.4.2,1.3-.3,2.9,1,3.9"/>
  <path class="st0" d="M151.2,399.5c-.1-1.3.4-2.8-.8-3.9-1.1-1.1-2.3-1.3-3.7-.8-1.2.4-2.2,1.1-3.5,1"/>
  <path class="st0" d="M167.3,415c-2.5,1-4.9,2.4-7.2,3.7-1.4.8-3.1.9-4.5,1.5-.6.2-.7-.5-1.2-.4"/>
  <path class="st0" d="M155.4,420.6c.9,3.1,2,6.1,3.5,8.9"/>
  <path class="st0" d="M149.1,360.1c-.3,2.5,0,0,0-.4.2-1.2-.2,1.7-1.7,1.5-1.3-.2-2.6-.4-3.9-.3"/>
  <path class="st0" d="M153.3,381.2c.2,2-1.4,4.7-2.8,5.7-1.7,1.2-3.6,2.1-4.9,3.7-1.3,1.5-3.2,2.6-2.6,5.2.2.7-1,1.4-.9,2.3.2,1.8.7,3.4,2.6,4.1.4.2.8.4,1,.8"/>
  <path class="st0" d="M144.8,382.8c.9.7.9,1.7.8,2.7,0,1.4,0,2.7.8,3.9"/>
  <path class="st0" d="M158.7,419.8c.9,2.2,2.2,4.2,3.9,5.8"/>
  <path class="st0" d="M152.1,421.6c-1.1.4-1,1.9-1.8,2.5-1,.7-1.3,2.9-.6,4,2.4,4.2,1.5,6.2,0,10.7-1.1,3.4-3,6.5-4.1,9.9-1.2,3.8-.9,7.3,1.8,10.7"/>
  <path class="st0" d="M157.1,419.8c2.5.4,2.3.9,4.2,1.5,2.3.8,2.9,3,1.4,4.2-5.4,4.4-3.4,6.5,0,11.1,2.5,3.5,6.7,6.8,9.2,10.3,2.8,4,2,7.6-3.9,11.2"/>
  <path class="st0" d="M199.2,100.7c0,1.2.3,0,.3.8,0,1.2-.2,2.7.8,3.2,1.8.9,3.5,2.4,5.8,1.9"/>
  <path class="st0" d="M261.1,111.4c-1.5,1.1-2,3.5-4.3,3.6"/>
  <path class="st2" d="M208.6,104c.2,0,.5-.6.4-.7,0,0,0,.2,0,.9l-.3,1.3c-.2.8-.3,1.5-.3,1.9.1,1.2,1.8,2,2.8,2.7.5.3.6,1,.3,1.5-.3.4-.8.6-1.3.4-1.3-.5-2.8-1.1-3.8-2.3-1.5-1.7-1.1-4.2-.6-6.1,0,.2,0,0,0-.4,0-.2,0-.6.2-1,1.3-2.6,4.7-.2,2.6,1.7h0Z"/>
  <path class="st2" d="M90.7,65.4c-1.5-.4-2.5-1.6-3.7-2.4-2.8-2.4-6-4.9-9.3-6.6-17.4-10.5-41.2-8.8-56.6,4.6C.8,77.3-2.2,107.6,8,130.5c4,9.3,9.5,18.2,16.4,25.6,7.2,7.2,15.1,14,24,18.8,5.6,3,11.6,5.2,17.9,6.1.9.1,2.5.4,3.3.5,2.7.3,5.2-1.8,8.2-1.2l-1,.3c2.5-2.6,5.6-3.9,7.9-6,13.8-15.1,21-35.6,22.1-55.8,0-1.7.5-4.1.6-5.7,0-3.5,4.9-2.9,4.2.5-.1,1.3-.5,3.3-.7,4.6-.3,4.9-.9,9.7-2,14.4-3.4,15.4-10.1,30.2-20.7,42-2.6,3.2-7.2,5-9.7,7.5-.3.3-.7.4-1.1.3-2.4-.4-4.7,1.5-7.4,1.2-.3,0-.8,0-1.1-.1-18.3-1.8-33.6-13.3-46.1-26C8.8,142.4-.8,121.8,0,100.7c.5-27.4,20.5-51.3,48.4-53.4,13.2-1.3,26.6,3.4,37,11.4,1.4,1.1,3.7,3.2,5.2,4.2.1.1.3.2.4.3l-.2,2.1c0,.1-.1.2-.2.2h0Z"/>
  <path class="st0" d="M150,379.6c.5.6.5,1.3.5,2.1,0,1.1,0,2.2.5,3.1"/>
  <path class="st2" d="M151.7,375l.3,3,2.5,1.1s1.9-1.1,2.2-1.7,1.3-2.1,1.1-2.7,0-1.7-1-2.1.5.2-1-.4l-1.4-.6-1.9.8-.8.8"/>
  <path class="st2" d="M142.2,397.9l.5,3.3,3.6,1.2s2.7-1.2,3.2-1.8,1.8-2.2,1.6-2.9c-.2-.6,0-1.8-1.4-2.2s.7.2-1.4-.4l-2-.6-2.7.8-1.1.8"/>
  <path class="st2" d="M143.3,409.5l.4,3.3,3.4,1.2s2.5-1.2,2.9-1.8,1.7-2.2,1.5-2.9,0-1.8-1.3-2.2.6.2-1.3-.4l-1.9-.6-2.5.8-1,.8"/>
  <path class="st2" d="M148.7,416.2l.4,3.3,2.9,1.2s2.2-1.2,2.6-1.8,1.5-2.2,1.3-2.9,0-1.8-1.1-2.2.5.2-1.1-.4l-1.6-.6-2.2.8-.9.8"/>
  <path class="st2" d="M40,136.9c0,0,.2,0,.8,0,.6,0,1.3.8,1.4,1.3.1.4.3,1.2.6,1.6,2.5,5.4,10.2,5.6,14.2,1.7,1.6-1.5,2.3-3.7,2.3-6,.1-5,1.4-9.8,2.9-14.5l2.3-6.9c2.3-6.5.9-14-4.6-18.4-7-6.5-17.7-4.2-22.7,3.5-2.4,3.6-2.9,8.2-2.4,12.9.1,1.3-1.7,1.6-2.1.4-3.6-11.1,3.1-21.7,14.5-23.7,8-1.4,16,3.7,19.3,10.9,3.6,7.5.2,14.9-2.4,21.9-1.6,4.5-2.9,9.2-3.1,13.9.3,8.7-10.8,13.4-17.3,8.2-1.6-1.2-2.8-2.9-3.3-4.9,0,0,0,0,0,0,0,0,.2.1.2.1-.5.1-2,.1-1.8-1.3.1-.6.7-.9,1.3-.8h0Z"/>
  <path class="st2" d="M45.8,124.4c-.4,1.3-.9,2.4-.3,3.5.4.9,1.8,1.5,2.6,1,.3-.2.4-.6.5-.9.7-3.6,2.2-7,3.8-10.3,1.1-2.7-1.6-5.7-4-6.7-2-.7-4.4-.4-6.2.3-.5.3-1.2,0-1.4-.5-.8-2.2,4.5-2.9,5.8-2.7,4,0,7.2,3.5,7.8,7.3.4,1.8-.8,3.5-1.4,5.2-1.1,2.6-1.9,5.2-2.1,7.9,0,.8-.5,1.6-1.1,2.1-3.3,2.3-7.5-.8-7.4-4.3,0-1.8,0-4.6,2.4-4.4,1.1.2,1.8,1.4,1.4,2.4h0Z"/>
  <path class="st2" d="M28.9,69.7c-.6,2-2.3,3.3-3.6,4.4-1,1-2.1,2.4-3,3.5-5.9,7.5-9,17.2-8.6,26.7,0,1.5-2.2,1.5-2.1,0,.3-10,2.5-20.2,8.1-28.6,1-1.5,1.8-2.8,3.1-4.2,1-1.1,2.1-1.8,2.5-3,.8-2.4,4.5-1.3,3.7,1.2h0Z"/>
  <path class="st2" d="M77.5,87.1c11.2,7.9,13.6,24.4,6.7,35.9-.8,1.3-2.7,0-1.8-1.2,5.5-6.9,4.2-18.7-.6-25.6-1.7-2.4-3.9-4.4-6.4-6-2.1-1.4,0-4.5,2.1-3.1h0Z"/>
  <path class="st2" d="M75.4,116.9c3.2-4.9,1.8-14.5-2.6-18.2-.5-.3-1.9-1-2-1.6l-.3-1.3c0-.4.2-.8.6-.8,7.5,0,8.9,11,8,16.7-.3,2.2-1.1,4.2-1.7,6.3-.2.6-.8.9-1.4.7-.7-.2-1-1.1-.6-1.7h0Z"/>
  <path class="st2" d="M44.5,116.8c-3-2.4-5.1-6.1-4.7-10,.3-3.8,2.4-7.5,6-9.2,3.6-1.8,8.2-1.3,11.1,1.5,2.9,2.9,5.2,6.5,4.7,10.9-.1,1-1,1.7-2,1.6-1.1-.1-1.8-1.2-1.4-2.3,1-4.3-2.5-9.8-6.9-10.8-6.9-1.5-13.1,7.1-9.2,13.2.9,1.4,2.1,2.6,3.7,3.3.5.2.8.9.5,1.4-.3.7-1.2.8-1.7.3h0Z"/>
</svg>
