<?xml version="1.0" encoding="UTF-8"?>
<svg xmlns="http://www.w3.org/2000/svg" viewBox="0 0 666.6 635.6" width="666.6" height="635.6">
<defs>
    <style>
      .st0 {
        stroke-width: 1.1px;
      }

      .st0, .st1, .st2, .st3, .st4 {
        stroke: #797979;
        stroke-linecap: round;
        stroke-linejoin: round;
      }

      .st0, .st3, .st5 {
        fill: #f9fafb;
      }

      .st1, .st2, .st3 {
        stroke-width: 2.3px;
      }

      .st1, .st4 {
        fill: none;
      }

      .st2, .st6 {
        fill: #797979;
      }

      .st4 {
        stroke-width: 2.7px;
      }
    </style>
  </defs>
  <path class="st5" d="M443.5,45.4s-1,3.6.2,5,.9,3,2.3,3.3c1.4.4.6,1.8,2.8,1.7,2.2-.1,5.3-.3,5.3-.3l3.3.4,4.1,4.7,9.1,5.3,6.1,2.5,3.8,1,4.4-.4,2.5-7.1,4.2-14.2-1.4-1.9-7-4.2-6.7-1.8-7.6-1.6-6.9,2-4.8-1.7-4.1-2.1-4.3.9-3.6,3.3-1.1,2.6-.7,2.6h0Z"/>
  <path class="st5" d="M189.6,70.2s3.9,14.5,4.1,14.7,3.4,7.1,3.4,7.1l3.4-.3,5-.9,13.4-8.9,1.9-2.9.6-.7,3.3-1.6,3.4-.4s3.5.3,4.9-1.4,2.2-1.4,3.1-5c1.2-4.8-2.8-8.7-3.8-9.6,0,0-2.3-2.5-4.1-2.4-1.8.1-3.9-.1-4.8.6s-3.1,1.7-3.1,1.7l-2.2,1.4-2-.5-5.9-.6-14.6,4.2-6.2,5.6h0Z"/>
  <path class="st5" d="M347,147.5l5.6,7s2.6,4.2,6.1,6c3.5,1.8,9,5.1,13,1.6,4-3.5,4.9-6.8,8.9-9s7.7-3.7,9.8-5.1,3.6-5.7,2.6-10-5.5-8.8-9-12.3c-3.5-3.5-6-5.4-6-5.4h2.3c0-.1,7.1.8,7.1.8,0,0,10.4,1.5,15.6-2s8.8-6.3,8.9-12.1c.1-5.8-1.7-7.9-3.8-10.1-2.2-2.4-7-5.1-10-7.2s-4.2-1.5-5.1-6.1c-.9-4.5-.9-4.8.4-9s2-6.9.6-11.9c-1.4-5.1-4.2-7.4-6.4-8.4-2.2-1-10.5-.9-13.6.1s-8.5,6.5-8.5,6.5l-5.8,6.7-2.2,1.3-1-1.6.8-10.6s1-9.3-2.6-14.1c-3.6-4.8-7.8-7.6-10.3-6-2.1,1.3-2.8.5-4.8,1.9-2.1,1.4-2.9,3.6-7.7,3.1s-10.1-1.2-10.1-1.2c0,0-1.5,0-3.9.6s-4,1.9-4.9,4.6-1.6,14.2-1.6,14.2l-1.2,2s-8.1-3.6-9.8-3.9c-1.7-.3-10.6.8-11.3,1.4s-5.6,3.3-6,7.3-.6,9.4.9,10.8c1.4,1.3,7.1,8.2,7.1,8.2l3.8,3.7.5,2.5-10.8,1-6.8,1.1-5.2,1.9s-2.8,2-3,3.3c-.3,1.3,0,1.6-.6,3.9-.6,2.1,1.8,8.4,2.4,9.6.5.9.5,5.2.5,5.2v3.4c-.1,0,.6,3.8.6,3.8,0,0,1.5,3.6,4.3,4.8s9.4,1.3,9.4,1.3l6.2-.8,3.9-.6,3-.6,2.2-.3-.3,2.5-4.2,5.4-2.3,2.8s-3.5,5.6-2.9,7c.5,1.2-.8,5.1-.1,6.6s2.3,3.5,3.2,4.1,4.8,1.9,4.8,1.9l5.4.7,3,1.4,2.5,1.9s3.7,4,4.6,4.3,6.1,2.2,6.1,2.2l8.1-2.6,4.9-5.5,2.2-4.8,2.3-6.4,1.1-5.6.7-5.6.6-2.3,1-1,.3-1.2,1,1.5,1,3.4,3.1,8h0Z"/>
  <path class="st5" d="M462.1,197.6l-1.2,10.2s-.8,11.4.9,15.6c1.4,3.6,2.5,6.9,5.6,9,3.1,2.1,6.9,3.9,8.9,2.4,1.8-1.3,2.8-.3,4.8-2.1,1.9-1.8,3-3.9,3.8-5.4s2.2-6.9,2.2-9.6-1.2-13.8-1.5-14.7.5-2.7.5-2.7l1.6.4,2.2,3,9.1,8.9s3.6,2.5,8.5,4c5.5,1.7,11.1,1.4,12.5-1.3,1.2-2.3,4.2-1.8,4.4-6.2s-.5-8.7-2.5-11.4c-2.2-3-9.3-8.7-10.1-8.9-.6-.2-8.2-4.6-8.2-4.6l-2.2-1.1,1.2-1.9,4.1-.4,9.7-.9,8.4-2.6,6-4.8,2.1-5.3v-4.3c0-.5-1.3-4.2-3.8-5.5-2.8-1.5-6.2-3.2-9.9-3.4-4.5-.2-13.5,1.9-16,2.8s-9.2,3.6-9.2,3.6l-1.1.2-1.1-.7,6-10.1,4.5-12.3s2.9-5,1.4-9.2-2.7-7.4-5.6-8.2-7.5-1.4-9.2,0c-1.7,1.3-6.3,3-7.6,5.8-1,2.2-4,6.7-4,6.7l-2.6,10-1,4.5-1.2,1.2-2.9-9s-2.6-8.2-5.1-12.4-6.5-8.8-9.3-8.9c-2.9-.1-6-.6-7.7.6-1.7,1.2-5.1,3.4-5.4,5.2s-.8,7.9-1.1,8.5c-.3.7,5.2,15.6,9.2,19.9l2.3,4.2-.3.3s-11.6-5.3-12-5.5-7.2-3-10.2-3.1c-1.8,0-4-1.2-7.3.4-3.4,1.6-6.8,2.8-7.9,6.3-1.1,3.4-.9,6.3,1.8,11.2.6,1.1,4.9,4.5,7.1,5.4s10.2,3.6,10.2,3.6l6.2,1.1,6.1,1.5-.5,1.3-8.1,3.6-6.9,3.2-6.4,6.4s-2.8,1.8-2.8,6.1-.9,6.5,4,10.4c4.9,3.9,8.3,2.6,10.9,2.4,2.6-.3,7.1-3,8.9-3.4s4.7-2.4,4.7-2.4l2.1-.3,5.4-5.4,3.6-2.6,1.2-1.7.8-.6-.9,1.7-.3,1.5h0Z"/>
  <path class="st5" d="M549.2,286.6l12-16.3,12.3-9.9,12.3-4.1s8.3.4,9.9.8c2.7.7,8.1,3.6,7.9,7-.2,3,.2,8.3-3.9,12.3-4.1,4-7.1,8.5-13.6,9.8-6.5,1.3-15,5.4-15.3,5.6s-17.5,2.3-17.5,2.3l-4.8-.8-.7-3.3,1.5-3.3h0Z"/>
  <path class="st5" d="M340.4,297.7l3.5-15,1.4-4.8s1.6-.4,2.2-1.3,3.5-9.6,5-11.8c1.6-2.2,18.8-24.7,20.5-27.1,1.7-2.3,17.6-22.8,17.6-22.8l5.6-9.6,2.2-2.7,1.6,6.1s.6,14.2.6,16.4-1,15-3,19.9c-1.9,4.9-6,12-7,14.2-1,2.2-5.8,8.5-8.4,10.5s-13.2,12.3-13.2,12.3l-14,12.2-8.4,8-3.8,3.4-2.2.5-.9-3.2.6-5.3h0Z"/>
  <path class="st5" d="M343.5,256s-2-19.9-2.8-22.3-2.6-13.6-7.8-18.7-12.7-13.9-16.4-17.1c-3.7-3.1-9.8-9.2-10.9-9.9s-3.5-1.9-3.5-1.9l-2,1.5s.7,11.7,1.7,14.7,3.7,13.4,5.3,15.3c1.6,1.9,8.1,12.5,11.9,15.9,3.7,3.4,8.9,8.7,11.2,12.4s5.9,9.3,7.2,11.7c1.2,2.4,5.7,9.5,5.7,9.5l2.7-4.5-2.2-6.6h0Z"/>
  <path class="st5" d="M279.8,302.5l-.4-22.1s1.9-14.4,6.3-22.4c4.4-8,11-15.6,12.1-16.1s3.9-2.2,3.9-2.2c0,0,3.4,10.9,2.9,17s-3.4,16.4-5.3,21.1-6.9,14.6-8.8,17.6-6.1,13.4-6.1,13.4l-1.5,1.8-2.4-1.9-.9-6.1h0Z"/>
  <path class="st5" d="M286.3,343.2s-3.7-5.5-5-8.2c-1.3-2.7-1.9-4.5-6.8-11.3-5-6.9-12.3-14.4-16.2-17.4-4-3-13.7-9.4-17.3-10.9-3.4-1.4-12.9-5.5-16.2-7-4.4-2-5.1-1.4-5.1-1.4l-.5,6s1,4,3.4,9.9c2.5,5.9,5.6,11.2,8.9,15s6.8,8.6,11.9,11.5c5.2,2.9,6.4,4.9,12.2,7.2,5.8,2.3,12.8,5.9,15.9,7.2,3.3,1.5,7.7,4.1,8.7,4.8,3.3,2.6,7.1,3.5,7.1,3.5l-1-8.9h0Z"/>
  <path class="st5" d="M204.7,387.5l-6.9-6.5-12-10.8-13-6.7-11.1-1.6s-5.9.9-7.4,2.4-2.3,3.5-2.5,5.5.5,6,2.1,7.4,6.3,4.9,8.1,5.4,8.3,2.9,10.3,3,10.6,1.6,12.4,1.6,5.7.5,8.3,1.2c2.6.8,6.2,1.9,8,2.2s4.1.5,4.1.5"/>
  <path class="st5" d="M203.1,377.1l.4-4.9-2-12.8s-.6-10.4,0-13.6c.6-3.2.1-9,2.8-12.9,2.7-3.9,3.8-5.3,5.8-5.7s3.9-.6,5.7.7c1.8,1.4,4.4,5.4,4.5,8s-1.3,13.8-1.7,15.5-4.4,15.8-4.4,15.8l-4,9.6-2,4.9-1.9,1.4-3.2-4.3v-1.8h0Z"/>
  <path class="st5" d="M154.3,321.5l-9.3-2.7s-8-.9-8.4-1-6.5,0-7.2,0-9.6,2.5-9.6,2.5c0,0-4.8,2.4-5.6,3.3s-5.3,4.9-5.3,6.9,0,5.8,1.7,7c1.6,1.3,6.2,3.6,8.4,4.1s18.8-2.2,21.5-3.4,16.6-6.8,16.9-6.8,6.6-2.7,6.6-2.7l2.2-1.9-.6-.3-.5-.3.6-.3-3.3-.6-8.2-4h0Z"/>
  <path class="st5" d="M160.1,312.2l-.4-18.8-2.7-18s-2.2-8.6-4.2-11.8-7.2-8.9-10.2-9.1c-3-.2-3.9.3-5.5,1.2s-3.8,5.1-3.9,6.1-.2,7.9.2,8.5,3.2,10,3.7,10.9,4.8,9.8,5.6,10.4,6,8.9,7.4,10.4,2,5.2,2,5.2l.5,2.2,3.8,3.2"/>
  <path class="st5" d="M115.4,284.5l-11.3-11.4-16-8.6-13.1-2.4s-7.9.9-10.4,2c-2.5,1.1-6.4,4.1-7.1,5.3s-1.8,4.6-1.1,6.1,2.5,5.9,4.8,7.2,5.3,4.4,8.1,5.1,6,1.6,8.7,2.2,4.7.7,7.9.9c3.2.2,14.4.2,14.4.2h11.2c0,0,4.3-.1,4.3-.1l1.2-1.6.4-2.4"/>
  <path class="st5" d="M183,195l-11.8,5.7-9.7,7.1s-4.6,4.4-5.7,6.7c-1.1,2.3-1.9,4.1-1.9,6.4s.3,6.1,1.7,6.9c1.4.8,2.7,2.9,5.1,2.7s5.6,0,8.1-1.1,8.5-4.9,8.5-4.9l.2,1.4-.4,4.7s-1.4,7.3-1.1,8.6,1.7,7.8,1.7,7.8c0,0,1,3.4,4.2,4.5s6.9,1.8,8.8.6,5.1-2.2,6.3-4.3,3.7-6.9,3.7-6.9l.8-2.3,1.4-1.7,1.3,4.2s1.8,4.1,4,6.4,2.3,4.2,6.4,5.9c4.5,1.8,8.6.1,10.8-2.5s4.7-6.6,4.3-14.1c-.5-7.9-3.6-12.9-3.7-15.1s1.2-3.4,1.2-3.4c0,0,4,4.7,7,6.1s8.8,4.3,8.8,4.3c0,0,4.9,1.1,6.9,1,5.7-.3,10.1-2.6,11.3-6.4.9-2.6,2-7.2-.8-11.7s-3.5-7.8-11.9-12.1c-8.5-4.3-13.6-6.6-13.6-6.6l-2.3-1.1.2-2.2,11.3-.4,10.7-2s7.2-3.4,9.2-6.6c2.2-3.4,1.6-8.7.4-10-1.2-1.3-3.5-3.5-6.2-4.2-2.2-.6-5.1-1.3-8.5-.7-2.7.4-12.8,2.1-12.9,2.7l-8.2,3.2-4.9,3-1.4,1.2-1.7,2.4-2.2-1.5-4.6-2.4s-3.4-4.1-7.4-4.3-7-1.2-9-.3-7.1,3.3-8.2,5.8c-1.1,2.4-2.5,3-2.5,4.3s-1,2.2-1,2.2l-1,4.2-.3,3.2v3.6c0,0,0,1.9,0,1.9l-1.3.2h0Z"/>
  <path class="st5" d="M511.5,332.8l7.5-4.6,9.7-4,13.8-4s11.2.2,12.7.7c.9.3,8.1,2.6,8.1,2.6l3.5,3.9s1.9,3.2.8,5.4c-1.1,2.2-1.7,3.4-5,6.2-3.1,2.7-6.9,3.2-10.8,4.3-4,1.1-12.4.4-17.1-.2-4.6-.6-20-3.4-20-3.4l-2.4-.2-3.1-.8-.9-2.7,2.9-3.4h0Z"/>
  <path class="st5" d="M478.4,367.9l1.3-9,.9-10.7-.3-12-2.9-6.1s-3.4-2.8-4.2-2.8-2.9,1-3.6,1.7-2.8,5.2-2.8,5.2l-.8,3.2.5,6.8,1.7,7.9,2,7.3,2.1,7.7,1.3,4.7,1.4,3.5,2.3,1.2,2.8-3.6-1.8-3.1v-1.9h.1Z"/>
  <path class="st3" d="M475.5,390.1c-3.8,5.2-5.3,11.2-6.2,17.5-.4,2.9-1.7,5.7-.8,8.7"/>
  <path class="st0" d="M475.2,388.9l5.2-3.8,5.4-5.2,8-6.1,10.4-5.3s4.7-1.1,6.2-1,5.6,1,6.3,1.7,2.4,4.1,1.3,5.6-4.2,4.9-5.4,5.6-9.7,4.3-9.7,4.3l-12,3.3-9.5,2.9-3.7.5-2.4-2.4h0Z"/>
  <polygon class="st5" points="404.8 302.7 414.6 291.5 426 282.8 435.2 277.4 446.9 273 459.2 270.1 469.8 267.2 478.7 263.4 482.3 263.5 481.7 266.3 475 275 466.4 282.5 457.6 286.5 448 289.8 433.1 293.7 426.1 296 418.2 299.4 409.4 304.7 404.7 308.1 401.2 309.6 401.8 306.6 404.8 302.7"/>
  <polygon class="st5" points="359.7 329.7 358.4 322.6 359 317.4 360.9 316.4 366.3 321.4 372.6 331 377.4 348 379.8 364.7 378.4 367 372.3 358.3 366.1 345.2 361.4 336.4 359.7 329.7"/>
  <path class="st6" d="M158.6,313c.8-.9.7-1.7.6-2.9l-.4-4.1c-.7-7.8-1.1-16.6-2.4-24.3-1.4-7.6-2.8-15.9-8-21.9-2.3-2.5-5.8-5.2-9.4-4-2.2.8-4.1,2.8-4.7,5.1-1.4,6.6.7,13.3,3.2,19.4,3.8,8.8,9.4,16.6,15,24.3.8,1.2,1.4,2.9,1.4,4.4,0,1.5-2.3,1.4-2.1-.1.3-2.6-1.7-4.7-2.9-6.8l-4.4-6.9c-5.7-9.3-11.5-19.2-12.2-30.4-.5-4.5,1.5-9.3,5.9-11.1,7.6-2.7,14.6,5.3,17.2,11.3,5.4,12.9,5.7,27.1,6.1,40.8v4.1c.1.6.2,1.5,0,2.4-.2.9-.7,1.7-1.4,2.3-1,.9-2.4-.6-1.4-1.6h0Z"/>
  <path class="st6" d="M664.3,600c3.2,2.9,2.3,7.6,1.7,11.5-1.7,11.5-11.4,21.1-22.8,22.9-10.6,1.7-22.6,1.1-33.3,1-3.4,0-93.3,0-99.4,0-141.4,0-334.2,0-474.9,0-7.4,0-15.4-.7-21.9-4.8-7.5-4.4-12.4-12.6-13.2-21.2-.2-2.9-1.6-6.6,1-8.9.5-.4,1.2-.4,1.6.1.4.5.3,1.2,0,1.6-1.2,1-.7,2.8-.6,4.2l.4,2.7c.8,8,5.2,15.4,12.1,19.5,6.1,3.9,13.5,4.5,20.7,4.4,140.5,0,333.8,0,474.9,0,5.7,0,95.7,0,99.4,0,8.2,0,19.3.4,27.5-.3,12.9-.3,24.3-8.7,26.4-21.7.3-3.1,1.6-7.1-1.1-9.5-.5-.4-.5-1.1,0-1.6.4-.5,1.2-.5,1.6,0h0Z"/>
  <path class="st4" d="M89.1,300.6c.6,20.4-.1,40.8.4,61.1.3,13.5.2,27,.6,40.6.2,6.8,0,13.6,1.6,20.3,1.3,5.5,4.1,9.8,9,12.7,2.2,1.3,4.4,2.6,6.7,3.5,2.3.9,5.2.6,7.7.4,5.9-.5,11.8.2,17.8.2,4.6,0,9.2.4,13.8,0,.8,0,1.7,0,2.5,0,84.6,0,169.1-.2,253.7,0,45.8.2,91.5,0,137.3.1,6.1,0,12.2.2,18.3-.5,4.9-.5,8.8-3.3,12.3-6.2,4.2-3.5,5.6-8.4,6.3-13.7.7-5.4.3-10.7.5-16.1,1.2-32.3.2-64.6.6-96.9,0-2.4.3-4.7,0-7"/>
  <path class="st6" d="M108.2,439.4c-.9,1.2-2.4,1.9-3.6,2.1-7.4,1.2-13.9,6-18,12.3-2,3.1-4.8,8.3-6.7,11.6-4.3,7.5-28.7,50-33.5,58.4-12.3,21.2-24.8,42.9-36.9,64.2-2.1,3.4-2.8,7.3-3.3,11.2v.4s0-.1,0-.3c0-.3-.3-.6,0-.3l.5.6c9,11.6,27.4,8.7,40.6,9.3,128.9.6,275.4,1.9,404.2,1.1,51.3,0,110.4-2.3,161.7-1.8,6.9,0,13.4-.4,20.2-.6l6.7-.2c2.1,0,4.2-.2,6.3-.4,6.2-.6,11.9-2.8,16.6-7.2.5-.4,1.2-.4,1.7.1.3.3.3.8.2,1.1-5.5,14.6-25.4,12.6-38.2,12.3-13.5-.6-27-.1-40.4-.2-26.4-.3-54.7-.9-80.8-1.2-137.5,0-328.2.7-464.9,1.6-13.3.5-28.7,1.1-37.8-10.8l-.6-.7c0,0-.7-.8-.8-1.7,0-.4,0-.9,0-1.2v-.5c0,0,.2-.9.2-.9.5-2.9,1.1-5.9,2.3-8.7.7-2,4-7.1,5-9.1,11.3-19.3,22.9-38.9,34.3-58,9.7-16.2,31.7-54.1,41.2-69.7,4.2-6.3,10.8-11.4,18.4-12.9,1.3-.2,3.2-.2,3.9-1.2.4-.5,1.1-.5,1.6,0,.4.4.5,1,.2,1.5h0Z"/>
  <path class="st6" d="M225,526.6c.3,4.4,5.6,3.8,8.8,4.3,3.3.2,8.7.1,12.1.2,23.6.1,49.5.2,72.9.1l48.6-.3,24.3-.2c3.7-.1,7.8,0,11-1.9.8-.7.9-2,.9-3.1,0-3.4-.9-6.7-2.2-9.7-1-2.7-3.5-3.6-6.2-4-3.3-.7-8.5-.5-11.9-.5-23.6,0-49.5-1.2-72.9-1.2-16.2,0-32.4.4-48.6.7-4,.3-26.7-.3-29.9,1.4-5.9,1.8-6.4,8.9-6.7,14.1,0,1.5-2.2,1.5-2.3,0,.1-12.8,4.5-17.9,17.6-17.5,1.8,0,7.2,0,9.1,0,17.4.1,43.3.4,60.8.2,25.4-.3,53.5-.4,79-.6,5.2.2,12.3.3,14.5,6.1,1.3,2.9,2.2,6,2.4,9.3,0,1.7.2,3.5-.5,5.2-1.5,2.9-4.9,3.2-7.7,3.7-3.9.7-26.1,0-30.6.1-28.7-.3-69-.6-97.2-.5-4.2,0-26.6,0-30.4,0-3,0-6.1,0-9.2-.3-2.2-.2-4.6-.4-6.2-2.2-.9-1-2.2-4-.6-4.3.5,0,1,.3,1.1.8h0Z"/>
  <path class="st6" d="M409,595.9c2.9-.2,6.4-.9,8.7-2.7,2.1-2,2.7-5.3,2.1-8l-1.4-6.4-2.7-13c-.8-3.6-1.7-9.3-2.8-12.6-2.4-7-8.8-6.6-15.1-6.5h-6.6c-30.1-.2-75.8-.8-105.9-.8h-13.2c-7.7,0-15.4-.9-17.4,8.6-1.3,5.3-2.3,10.8-3.2,16.1-1.1,6.4-2.4,12.7-2.8,19,0,4.4,4.4,5.4,8,6,6.2,1.1,13.4.7,19.7.8,34.9.2,71.1.6,105.9-.2,8.8-.2,17.7,0,26.5-.3.4,0,.7.3.7.7,0,.4-.3.7-.7.7-20.4-.2-45.7,0-66.2.3-24.3,0-55.2.2-79.4.4-6.7-.3-17.1,1.1-18.3-7.9-.3-3.5,0-7,.5-10.4,1.3-7.7,3.2-15.3,5.5-22.7,1.3-4.4,3.1-9.5,7.7-11.5,4.3-1.8,9.1-1.1,13.5-1.2,8.3,0,31.1,0,39.7,0,25.4,0,67.9-.9,92.8-.6,8.7.4,12,7.4,13.1,15.1.8,4.1,2.9,15.2,3.7,19.5l1.2,6.5c.9,4.8-1.4,10.7-6.7,11.7-.8.3-7.6,1.9-7.4.2,0-.4.3-.6.7-.6h0Z"/>
  <path class="st6" d="M260.2,127.7c-10.2-.6-25.4.1-35.8.1-21.2.4-50.7.9-71.5,1.1h-17.9c-8.4.2-17.9-.3-25.9,2.3-8.6,2.4-13.8,8.2-15.8,17.1-2.6,11.4-1.9,23.5-2.3,35.2-.4,19.5-.5,43.2-1.1,62.6-.3,3.1.5,5.8.5,9,0,.6-.5,1.1-1.1,1.1-.6,0-1.1-.5-1.1-1.1.3-2.1,0-4.5,0-6.7.2-3.8.4-7.4.5-11.2,0-10.1-.1-25.5-.2-35.8,0-10.6-.5-25.3-.4-35.8.2-11.9.5-26.8,11.3-34.5,10.3-7.1,23.9-6.8,35.9-6.7h17.9c27.6.3,61.8,1.1,89.5,1.3,5,0,12.9.2,17.9-.3.6,0,1.2.4,1.2,1,0,.7-.5,1.3-1.2,1.2h0Z"/>
  <path class="st6" d="M279.7,152.4c-2.5-1-5.5-.6-8.4-.5h-8.7c-40.4.3-81,1.1-121.4,1.1-8.1.3-21.9-1.4-24.3,8.2-1.6,6.9-1.9,13.9-2.3,21.1-1.1,17.3-1,34.6-1,52-.1,5.8-.3,11.6,0,17.3.2,5.7.4,11.6.7,17.4,0,.6-.4,1.2-1.1,1.2-.6,0-1.2-.4-1.2-1.1,0-5.8.1-11.6,0-17.4,0-8.7.5-17.3.3-26-.4-14.4-.8-29-.7-43.4,0-5.8,0-11.6.8-17.5.4-3.1.9-6.3,2.9-9,5.7-7.8,17.6-6.4,26-6.6,11.6,0,23.1.2,34.7.4,27,.4,59.9.8,86.7,1.1h8.7c2.8,0,5.7-.6,8.9-.4.6,0,1.1.6,1.1,1.2,0,.8-.8,1.3-1.5,1h0Z"/>
  <path class="st6" d="M562.6,438.1c.9.8,2.4.8,3.7,1.1l1.5.4c15.4,4.3,21.1,19.2,28.4,31.7,18.5,33,41.4,72.8,59.7,105.9,3.7,7.3,9.3,14.3,8.7,23,0,.6-.6,1.1-1.2,1-.6,0-1.1-.6-1-1.2.2-3.8-1-7.6-2.8-11-24.5-42.1-51.9-89.2-75.8-131.6-4-6.6-9.6-12.3-16.8-15.2-2-.9-4.3-.9-6-2.8-.8-1,.6-2.5,1.7-1.5h0Z"/>
  <path class="st1" d="M287,352.1c-2.1.1-3.9-.2-5.7-1.6-6.8-5.6-14.9-8.7-22.8-12.1-7.8-3.4-15.3-7.3-21.4-13.3-7.3-7.1-12.3-15.7-15.5-25.3-1.1-3.4-2.4-6.8-2.5-10.4-.1-2.9.5-3.4,3.1-2.2,5.6,2.6,11.4,4.6,16.9,7.3,12.3,5.9,23.2,13.6,31.8,24.3,5.3,6.6,9.3,13.9,13,21.4.6,1.2,1.1,2.4,2.5,2.8"/>
  <path class="st6" d="M516.1,125.4c7.1.7,14.3,0,21.4.3,7.3.3,14.4-.1,21.6,1.3,17.5,4,20.3,20.1,20.7,35.6.6,23.8-.6,51.1-.1,74.9,0,3.7.1,7.1-.5,11-.3,1.4-2.5,1-2.2-.5.3-1.5,0-3.3.2-5.2-1.1-25.6-.5-54.5-1.1-80.1-.9-20.5-4.5-33.8-27.9-34.5-10.7-.6-21.4-1.5-32-.6-1.6.2-1.7-2.4,0-2.3h0Z"/>
  <path class="st6" d="M500.9,484.9c.1,6.8,4.6,13,11.4,14,2.8.6,7.3.6,10.2.7,6.9.3,13.7.4,20.6-.1,7.7-.3,15.5.3,23.1-.9h.4c.2,0,.4,0,.5,0,.3,0,.4,0,.3,0,.9-.2,2-.6,2.6-1.3,2.4-2.5-3.6-10.5-5.5-12.7-.8-1.2-2-1.6-3.4-1.8-14-1.9-28.1-1.6-42.2-.7-4.5.2-8.5-.3-12.8.2-2.2.2-4.3.6-5.2,2.8-.2.6-.9.9-1.5.6-1.5-.8,0-3.1.8-4.1,1.4-1.6,3.5-2.2,5.4-2.5,4.3-.9,9-.5,13-.7,13.8-.8,27.9-1,41.6.9,1.6.2,3.9.4,5.7,2.1,1.4,1.4,2.3,2.8,3.4,4.3,3.4,5.2,7.8,13.5-1.1,15.6-.5.2-1.2.1-1.5,0-4.4.6-9,.6-13.4.6-7-.3-13.7.1-20.7,0-5,0-10.5-.4-15.6-.7-5.3-.2-11.2-1.6-14.5-6.2-2.2-3-3.1-6.5-4-9.9-.2-.6.2-1.2.8-1.4.7-.2,1.4.3,1.4,1h0Z"/>
  <path class="st6" d="M113.6,350.8c-.7,5.7.6,11.6.7,17.3.3,5.8.5,11.6.7,17.4.3,5.6.1,11.6,1,17.1.7,5.5,3.3,9.8,8.9,11.1,9.3,2.2,24.5,1.3,34.3,1.6l34.9.3c89.5.9,180.9.3,270.5-.4,16.7-.3,35.7-.8,52.4-.3,5.4,0,12-.2,17.4-.3,4.1-.1,8.1-.9,11.7-2.7,6.5-3.2,6.1-11,6.4-17.3l.6-8.7c.5-5.8,0-11.6.3-17.4.2-5.9.6-11.6.5-17.4,0-.6.5-1.1,1.1-1.1.6,0,1.1.5,1.1,1.1.3,5.9.1,11.7.1,17.5.1,8.8,1,17.5.5,26.3-.3,6.2,0,13-4.7,17.9-6.7,6.8-17.7,6.1-26.4,6.2-5.8.1-11.8,0-17.5-.2-95.8-.1-219-1.2-314.1-.2-11.5,0-41.1.3-52.4.3-7.3-.2-15.5.3-22.3-3.4-7.3-4.2-7.7-13.8-8-21.2-.6-8.4,0-17.8.5-26.2.5-5.9-.4-11.7.7-17.5,0-.3.3-.5.6-.4.3,0,.4.3.4.6h0Z"/>
  <path class="st6" d="M156.1,481.9c-12.8-1.3-25.8-.9-38.7-.7-3.9,0-7.8.2-11.3,1.7-4.8,2.4-8.4,9-8.8,14.2,0,.1,0,0,0,.1,0,0,.3.2.6.3,7.1,1.9,16.3,1.4,23.7,1.5h19.4c7.9.3,16.1.2,18.7-8.7.5-1.5,1-3,1.3-4.5.2-1,.5-1.9.2-2.6-.3-.4-1-.4-1.6-.4-.9,0-2.4-.9-3-.8-1.5.1-1.7-2.1-.2-2.2,1.6-.1,2.3.6,3.4.7,1.9-.1,3.9,1,3.9,3.1-1.9,15.4-8.1,18.7-22.8,18.4h-19.5c-6.8,0-15.4.5-22.1-.9-2-.3-4.9-.9-5.3-3.4-.2-1.3,0-2,.2-3.1,1.2-5.1,3.9-9.9,8.1-13.1,4.2-3.1,10-3.1,15-3.2,13,0,26.1-.3,39,1.4,1.4.2,1.2,2.4-.3,2.2h0Z"/>
  <path class="st6" d="M212,416.5c-1-7.3-2.7-14.4-5.5-21.2-1.2-3.1-3.9-6.9-1.4-10.3,0,0,0,0,0,0,0,0,0,0,0,0,0,0,0-.2,0-.4,0-.2-.6-1.1-.7-1.3-9-15.4-15.3-32.6-26.9-46.2-2.7-3.3-5.3-6.6-9.1-8.4-1.3-.6-2.8-1.3-3-2.9-.2-4.8-4.9-6.5-6.7-10.9l.8.7c-2.2-.6-4-2.2-5.5-3.6-1.5-1.5-3-2.2-4.9-2.9-3-1.4-5.2-3.5-7.8-5.3-4.2-2.7-8.6-5.5-13-7.8-3.2-1.9-6.6-2.7-10-4.3-1.6-.9-2.5-3.1-2-4.9,0,0,0,.2,0,.2,0,0,0,0-.2-.2l-.5-.6c-9.5-10.8-21.8-20.1-36.3-22.2-7.3-.9-16.6-.5-21.1,6.1-2.1,3.3-.4,7.3,2.1,10.1,5.2,6.3,13.4,8.9,21.2,10.1,10.1,1.5,20.4.4,30.6.2,1.9,0,3.7.8,4.7-.9.9-1.2,2.7,0,1.9,1.3-.7,1.1-2.2,1.8-3.5,1.8-1.2,0-2.2-.3-3.1-.4-2,0-4-.1-6.1,0-12.3,0-25,.8-36.6-3.8-5.7-2.5-11.4-6.5-13.6-12.6-1.6-4.5,1.6-9.1,5.4-11.3,5.4-3.6,12.4-3.8,18.6-3.1,15.6,2,28.6,12,38.7,23.5.6.5,1.1,1.9.8,2.7-.3,1.3.4,1.7,1.7,2.2,7.9,2.6,14.9,7.4,21.8,11.8,2.4,1.7,4.7,4,7.3,5.2.9.4,2,.7,2.9,1.3,2.5,1.5,4.4,4.5,7.1,5.3.3,0,.6.3.7.6,1.7,3.8,7,6.7,6.9,11.7,0,0,0,0,0,0,0,0,.1.2.3.3.4.3,1,.5,1.4.7,4.1,1.9,7.1,5.6,9.9,9,11.8,13.8,18,31,27.1,46.5.8,1.1,1.6,2.7.7,4.1-1,1.5-.6,3,.2,4.8,1.5,3.4,2.9,6.9,4,10.5,1.5,4.8,2.5,9.7,3.1,14.7,0,.6-.3,1.2-1,1.3s-1.2-.3-1.3-1h0Z"/>
  <path class="st6" d="M507.9,337.2c2.1,2,5.7,1.7,8.6,2.3,7.3,1.3,14.6,2.9,22,3.6,6.2.6,12.7.5,18.7-1.6,6.7-2.2,13.5-8.7,8.3-15.7-3.5-3.8-9.3-4.4-14.2-4.8-12.7-.4-25,3.9-35.8,10.2-2.9,1.7-5.5,3.7-7.3,6.6-.4.7-.9,1.2-1.7,1.5-.4.1-.9.1-1.3,0-1.9-.5-3.4.4-4.7,1.8-7.2,7.7-11.8,17.4-16.2,26.9l-1.3,2.9c-.6,2-2.4,3.9-3.7,5.4-2.9,4-2.7,9.8-2.9,14.5l-.6-.7c1.6.9,3.4.7,5.2,0,5.8-2.5,12.3-3.6,18.2-5.5,3.9-1.2,8-2,11.6-4.1,5.4-2.7,10.3-9.4,2-12-6.7-1.9-17.3,4.4-22.4,8.5-3.2,2.7-6.2,5.6-8.9,8.8-1.4,1.7-3.1,3.5-5.3,4.2-1.4.5-2.2-1.6-.8-2.1,2-.5,3.3-1.9,4.7-3.3,1.5-1.5,3-3,4.6-4.4,6.2-5.8,13.6-10.4,21.9-12.7,4.1-1.1,9.9-.4,11.8,4,1.5,4.7-3,8.7-6.6,10.9-3.8,2.1-7.5,4.3-11.7,5.4-4.9,1.4-9.8,1.9-14.7,3-3.3,1-7.1,3.2-10.6,1.3-1-.5-.7-2-.7-2.7.4-3.8.2-7.7,1.7-11.3,1.1-3.2,4-4.9,5.1-8l1.3-2.9c3.6-7.8,7.5-15.4,12.6-22.4,2.1-2.6,4-5.5,7.1-7.1,1.2-.5,2.6-.5,3.7-.2.3,0,.5,0,.7-.3,1.9-3.2,5-5.7,8.2-7.5,13.9-8,34.1-14.6,49.4-6.9,4,2.3,5.7,7.7,3.7,11.9-1.9,4.1-6.1,6.4-10.2,7.9-8.2,2.8-17.1,2.1-25.5.8-5.2-.8-10.6-1.6-15.8-2.3-2.1-.3-4.3,0-6.4-.6-1.1-.3-2.3-.7-3.3-1.5-1.3-.9.3-2.8,1.4-1.7h0Z"/>
  <path class="st6" d="M513.8,315.2c3.6-2.9,5.3-8.3,7.7-12.2,3.2-5.5,6-11.3,7.9-17.4,2.4-7.9,3.8-16.9.4-24.7-1.1-2.4-3.3-3.8-5.9-3.9-2.5,0-4.7,2-6.4,3.6-3.8,3.9-5.6,9.2-6.7,14.5-2.6,12.4-.2,25.3,1.3,37.7.2,1.3.3,2.3,1.2,3.1,1.1,1-.3,2.7-1.5,1.8-1.4-1-2.1-2.9-2.4-4.5l-.8-4.2c-1.9-11.4-3.8-23.2-1.2-34.6,1.5-7.2,4.9-14.8,11.8-18.5,2.8-1.8,6.6-1.5,9.3.4,7.1,6,4.3,21.6,1.9,29.5-1.9,6.2-4.6,12.1-7.5,17.9-1.5,3-2.9,6.8-4.7,9.7-.7,1-3,5.2-4.6,3.5-.4-.5-.3-1.4.3-1.7h0Z"/>
  <path class="st2" d="M393.4,611.5c-2.2,5.4-6.9,7.1-12.1,7.6-13.8,1.3-27.6.4-41.4.6-13.3.2-26.7.2-40,0-5.7-.1-11.6.4-17.2-1.3-3.6-1.1-6.8-2.7-7.9-6.7"/>
  <path class="st6" d="M505.7,150.7c1.2.2,3.4.2,4.6.2,6.9,0,17.1-.2,24.1-.4,2.1,0,6-.3,8.1,0,5,.8,10.7,2.9,12.6,8.2,1.6,4,1.7,8.4,1.7,12.6.1,4.7.3,9.8.2,14.5-.6,12.9-.5,25.6-.5,38.5,0,9.6-.6,19.2-.3,28.9.2,3.2.3,6.4.3,9.7,0,.6-.5,1.1-1.1,1.1-.6,0-1.1-.5-1.1-1.1.4-6.3,0-12.8.2-19.3.9-19.3-1-38.5-1.2-57.8-.1-4.6-.6-9.7-.9-14.4-.2-3-.2-6.2-.9-9.1-1-4.7-4.8-8.3-9.5-9.4-.9-.3-1.7-.2-2.7-.3l-4.8-.2c-4.8-.2-14.5-.5-19.3-.6-2.4,0-6.6-.2-9.1-.4-.2,0-.4,0-.8-.2-.1-.1-.2-.3,0-.5s.3-.2.5,0h0Z"/>
  <path class="st6" d="M205.1,388.2c-3.4.6-5.3-2.9-7.2-5-5.1-5.9-11.1-11.3-17.9-15-6.7-3.7-14.5-6.5-21.9-4.2-3.5,1-5.9,4.3-5.7,8,.2,2.5,1.9,4.4,3.8,6,12.2,10.3,29.6,6.8,43.8,11.9,1.7.6,3.6.7,5.2,0,.6-.2,1.2,0,1.5.7.7,2.8-6,1.7-7.3,1-14.2-6-31.6-2.3-44.2-12.4-5.4-3.7-6.5-10.5-1.7-15.3,3.3-3,8-3.6,12.2-3.5,11.2.9,21.1,7.2,28.9,14.9,1.9,1.9,3.7,4,5.4,6.1,1.5,1.6,2.5,4.5,4.9,4.5,1.4,0,1.6,2,.2,2.2h0Z"/>
  <path class="st1" d="M341.1,136.2c2-.7,2.1,1.3,2.5,2.1,1,2.8,3.5,5.5,2.9,8.4s-.5,3-.2,4.5c.8,4.8,1.8,9.6,2.6,14.3.8,4.7,1.4,9.4,2.1,14.1,1.5,10,2,20.1,1.9,30.1,0,5.4.3,10.9-.6,16.4-.5,3-.3,6.2-.7,9.3-.6,5.2-1.4,10.3-2.2,15.5-.4,2.6-.9,5.2-1.2,7.9-.1,1.2-.5,2.1-1.5,2.8"/>
  <path class="st1" d="M466.8,188.5c-1.2,1.8-2.5,3.6-3.6,5.4-.8,1.3-1.9,2-3,2.9-3.5,2.9-7.1,5.7-8.9,10.3-1.4,3.6-4.4,6.3-6.8,9.3-9,11.6-17.2,23.8-24.6,36.4-7.8,13.2-14.3,27.1-19.8,41.4-2.3,5.9-4.4,11.8-6.3,17.9-.6,2-.7,3.7.3,5.5"/>
  <path class="st6" d="M343.9,268.2c-2.3-.6-3.6-2.6-4.4-4.7-.8-1.8-1.6-3.6-2.6-5.3-5.8-10.5-14.4-18.7-22-28-5.1-6.2-9.8-13-12.2-20.7-1.6-4.8-2.4-9.8-3-14.7-.4-3.1-1.2-6.7.9-9.4.2-.2.4-.3.7-.3,3.1,0,4.9,2.5,7.2,4.1,2.1,1.6,4.1,3.2,6.2,4.8,8.3,6.5,16.4,13.8,21.5,23.2,4,7,6.3,14.8,7.7,22.6,1,5.8,1.9,11.8,1.9,17.7,0,.9.2,2,.7,2.6.6.7,1.1,1.5,1.2,2.5.1,1.1-.2,2.1-.5,2.8-1.6,2.7-2,5.5-1.6,8.6.5,2.7.7,5.7,0,8.3-1.1,5-2.6,10.3-4,15.2-.3,1-.9,3.2-1,3.9,0,0,0,0,0,0h0c1.9,3.8.1,8.1-1.5,11.4-1.5,3.5-2.7,7.2-3.6,10.9-4.6,20.1-6.4,41.1-4.9,61.7.3,5.2.6,10.3,1.3,15.5.4,3.9.7,7.7,1.7,11.4.2.7.3,1.6.3,2.2,0,.7,0,1.2.1,1.5.2.4,0,1-.4,1.2-.4.2-1,0-1.2-.4-.6-1.3-.1-2.3-.4-3.5-1.2-3.9-1.6-8.2-2.1-12.2-.8-5.1-1.2-10.4-1.6-15.6-1.3-15.6-.9-31.6,1.6-47,1.5-10.3,3.4-20.9,7.9-30.4.6-1.8.8-3.4,0-5.1-.4-.8-.4-1.8-.3-2.3,1.2-5.1,2.8-10.2,4-15.2l.9-3.8c.7-2.5.4-4.7,0-7.2-.3-2.8-.2-5.8,1-8.5.4-1.2,1.5-2.1,1-3.1,0,0,0-.1-.1-.2l-.3-.3c-1.6-1.9-1.5-4.3-1.5-6.6-.8-12.6-2.9-25.7-9.2-36.8-5-9-12.7-15.9-20.4-22.7-1.9-1.7-4-3.4-5.9-5.1-1.9-1.5-3.4-3.8-5.7-4.2,0,0,.8-.4.7-.3-1.7,2.3-.8,5.4-.5,8,1.2,14,5.8,24,14.8,34.6,8.8,10.7,19.3,20.6,24.8,33.7.3.7.7,1.8,1.2,2.4.5.6,1.2,1.1,2.1,1.3,1.1.3.6,2-.5,1.7h0Z"/>
  <path class="st6" d="M166.1,326.8c-3,0-5.6-1.5-8-3-2.3-1.4-4.8-2.3-7.3-3.2-7.6-2.6-15.9-3.3-23.8-1.8-5.2,1-10.6,2.7-14.1,6.8-6.5,7.5-1.3,14.1,7.4,15,2.5.3,5,0,7.6-.5,11.9-2.2,22.6-8.3,34.3-11.2,1.1-.4,2.2-1,3.1-1.8,1-1,2.5.5,1.6,1.6-2,2.3-4.9,3.1-7.6,4-2.5.9-4.9,1.9-7.4,3-11.1,4.4-29.2,13.4-39.9,4.7-8.6-7.1-1-16.9,7.1-19.9,10.2-3.9,21.6-3.9,32.1-.8,2.6.8,5.3,1.6,7.7,2.8,2.3,1.1,4.6,2.5,7.1,2.1,1.5-.2,1.7,2.2.1,2.2h0Z"/>
  <path class="st6" d="M478.3,373.4c-1.7-1.9-1.5-5-.9-7.2.4-2,.7-4.2,1-6.2.5-4.2.9-8.5,1.1-12.7.2-6.3.4-15.8-6.3-18.6-.8-.3-1.5-.2-2.2.2-6.7,5.7-3.9,15.9-2.2,23.4,1.6,6.2,3.7,12.4,5.4,18.6.6,1.7.6,3.9,2.5,4.6,1.4.5.7,2.6-.7,2.1-2.6-.9-3.2-4-3.6-6.2-.5-2.1-1-4.2-1.6-6.2-2.3-8.4-5-16.6-5.6-25.4-.2-4.4.9-9.2,4.6-12.5,1.1-.8,2.7-1,4-.6,3.5,1.1,6.1,4.2,7.1,7.6,1.4,4.3,1.7,8.9,1.5,13.3-.3,5.4-.8,10.9-1.8,16.2-.3,2.7-2.3,6.2-.7,8.4.8,1.2-.9,2.5-1.8,1.4h0Z"/>
  <path class="st6" d="M491.5,160.4c-.4-2.3,1.5-4.8,2.6-6.6,3.3-5.3,6.3-11,7.9-17.1,4.6-15.4-8.9-23.2-19.3-10.8-3.4,4-5.2,9.2-6.5,14.3-.8,2.8-.5,6-2.4,8.4-.7,1.1,0,2.3,0,3.7.2,1,.2,2.4.2,3.4,0,2.1.1,4.2.7,6.2.2.6-.2,1.3-.8,1.5-.7.2-1.4-.2-1.5-1-.5-2.9-.2-5.6-.1-8.4.1-2-1.1-4.4.3-6.4.4-.5.7-1,.9-1.6,1.8-9.5,4.1-20.1,12.6-26.1,9.3-6.7,20.3-.6,20.1,10.8,0,9.1-4.5,17.4-9.5,24.7-.8,1.3-2.8,3.3-2.7,4.9,0,1.5-2.3,1.6-2.4.1h0Z"/>
  <path class="st6" d="M301.9,129.7c0,2.7-2.1,4.3-3.5,6.2-3.4,4.4-7.6,10.9-5.9,16.2,3.1,8,9.8,3.8,15.6,7.5,1.5.9,2.7,2.3,3.9,3.5,1.8,1.7,3.8,3.6,6,4.7,5.8,2.5,12.2-2.1,15.1-7,3.3-5.5,5.2-11.9,5.7-18.2.2-1.8,0-3.3.4-5.1.2-.7.6-1.4,1.1-1.9,1.1-1.1,2.8.7,1.5,1.7-.6.5-.9,1.1-1,2.2-1.6,11.1-4.5,26.8-16.7,30.7-4.9,1.7-9.3-1-12.9-4.1-1.6-1.3-2.9-3.1-4.7-4.1-4-2.3-8.4-.3-12.6-3.1-4.3-2.8-6.2-8.6-4.6-13.4,1.7-5.5,5.3-10,9.2-14.1.6-.7,1-1.4,1.1-2.2.2-1.4,2.2-1.3,2.3.1h0Z"/>
  <path class="st6" d="M443.3,330h.7c0,0,.1,0,.1,0,0,0,0,0,0,0,0,0-.1,0-.2,0,.7-.6-1.8.9-1.2,2,.4.9,1.1,1,.9.9h.1c-.8,0-1.8-.2-2.7.2-15.1,4.2-21.3,19.9-26.1,33.5-2.7,7.9-4.8,16.1-6.1,24.5-1.2,8.4-1.8,16.9-1.1,25.4,0,.8-.5,1.6-1.4,1.6-.9,0-1.7-.7-1.6-1.6.4-8.6.8-17.2,1.6-25.7,1.9-18.7,6.2-40.6,20.4-54.1,3.9-3.9,9.2-6.1,14.5-6.9,1.2,0,2.3,0,3.6.3-.2,0,.5,0,.9,1,.7,1.1-1.8,2.6-1.2,2-.2,0-.5,0-.7,0h-.9c-1.9-.4-1.6-3.3.4-3.1h0Z"/>
  <path class="st6" d="M572.2,511.1c-4.1-.2-8.2-.5-12.2-.4-3.9,0-8.6,0-7,5.3,1.1,3.8,2.6,7.7,5.2,10.6,4.8,5.3,12.7,5.2,19.3,4.6,2.9-.3,6.1-.1,8.8-1.1,1.8-.7,2.1-1.7,1.3-3.3-1.8-4.6-3.8-9.1-7.6-12.2-2.3-1.7-5.1-2.4-7.9-3.4-.6-.2-.9-.8-.7-1.4.2-.5.7-.8,1.3-.7,2,.4,4,.9,6.1,1.7,6.4,2.7,9.3,9.9,11.5,15.9,2,8-11,6.1-15.6,6.7-6.2,0-13.2-.8-17.5-5.8-2.8-3.2-4.2-7.2-5.4-11.2-1.8-6.4,3.5-7,8.2-7.1,4.1-.2,8.2-.1,12.3-.3,1.6,0,1.6,2.3,0,2.3h0Z"/>
  <path class="st6" d="M221.6,495.3c.3.9.6,1.8,1,2.4,1.6,2,4.6,2,7.1,2.4,3.7.3,7.6-.2,11.5-.2,1.9,0,3.7.3,5.5-.3,6.3-1.8,7.2-7.4,7.3-13.2-.3-3.7-5.2-4.8-8.3-5.1-3.7-.2-7.7-.2-11.4,0-1.8.1-3.8.2-5.5.8-4.7,1.9-8,8.4-7.1,13.4,0,.6-.3,1.2-1,1.3-.7.1-1.3-.5-1.3-1.2,0-2,.2-4.2,1-6,4-10.2,9.9-9.9,19.6-9.7,3.9,0,8-.2,11.6,1.6,2.6,1.1,4.3,3.5,3.7,6.4-.2,3.4-.5,7.2-3,9.9-1.7,2-4.1,3.2-6.6,3.7-1.5.2-3,0-4.4.1-3.8,0-7.6.6-11.6.4-4.5-.2-8.9-.8-10.1-5.9-.5-1.4,1.7-2.2,2.1-.7h0Z"/>
  <path class="st1" d="M398.3,202c2.7,3.5,1.8,11.4,2.2,15.5,1,8.8.3,17.5-2.3,25.9-3.1,10.2-8.8,18.8-16,26.5-7.7,8.2-16.5,15.2-25,22.6-4.3,3.7-8.5,7.7-12.1,12.1-1.3,1.6-2.9,2.3-4.8,2.5"/>
  <path class="st6" d="M483.6,261c.9,2.6-.8,5-2,6.9-1.1,1.9-2.4,3.8-3.8,5.6-11.5,14.9-30,18.3-46.9,23.3-8.3,2.4-16,6.3-22.9,11.5-2.2,1.4-3.8,3.8-6.6,3.9-3.9,4.1-7.7,9.2-9.9,14.6-3.9,11.4-6.1,23.5-8.3,35.4,0,0,0,0,0,0,0-.1,0-.1,0,0,0,0,0,.2,0,.5,0,.2,0,.4-.3.7h-.1c-4.1,4.9-1.3,11.6-2.1,17.3-.6,7.4-.9,15.5-1.3,22.9-.1,4.3,0,8.7-.3,13.2,0,.6-.6,1.1-1.2,1.1-.6,0-1.1-.6-1.1-1.2.2-4.3,0-8.7.2-13.1.4-7.5.7-15.6,1.2-23.1.4-3.4-.2-6.3-.2-9.7-.2-2.9.9-6.8,2.9-8.9-.2.3-.2.5-.2.6,0,.2,0,.1,0,0,0-.3,0-.9,0-1.2,1.3-7.6,2.8-15.2,4.5-22.7,1.1-4.3,2-8.6,3.6-12.8,2.1-5.3,5.4-10,9.1-14.2.7-.6,1.3-1.7,2.3-2.1.4-.2.8-.2,1.2-.2.6,0,1.2-.5,2.1-1.2,4.3-3.6,9-6.7,14-9.3,11.8-6,25.1-8.2,37.5-12.7,10-3.6,19.4-9.8,24.9-19.1,1-1.7,2.4-3.3,1.6-5.2-.7-1.4,1.6-2.4,2.1-.8h0Z"/>
  <path class="st6" d="M483.6,261.9c-.6,1.8-2.3,2.7-4.1,2.2-1.7-.2-3.1,1.1-4.7,1.6-4.8,2.1-9.9,3.5-15,4.8-10,2.7-19.9,5.4-28.7,10.6-10.2,6.8-20.4,14.1-27.9,24-1.4,1.6-2.3,3.4-1.2,5.5.3.6,0,1.4-.6,1.7-1,.5-2.1-.6-1.7-1.6.4-1.1.6-2.3,1.2-3.3,8.3-13.1,19.9-25.7,34.2-32.2,11.6-5.2,24.4-5.8,36.3-9.6,2-.7,3.8-1.3,5.6-2.5.7-.4,1.7-.9,2.6-.9.4,0,1.2,0,1.4-.3.2-.2.4-.6.6-1,.7-1.2,2.6-.3,2,1h0Z"/>
  <path class="st6" d="M332.6,481.1c-3.9.7-7.6-.5-11.2.9-3.3,1.2-6,4.3-6.6,7.9-.7,3.5.6,7.7,4,9,3.4,1.3,7.4,1,11,1.2,3.8,0,7.5-.2,11.2-.9,4.4-.6,5.6-3,5.8-7,.5-6.1-2.1-10-8.4-10.5-1.9-.2-3.7-.5-5.4-.4-1.4,0-1.6-2-.2-2.2,6-.5,13.8.7,15.6,7.3.9,4,.9,8.5-1.4,12-1.4,1.7-3.6,2.4-5.6,2.7-3.8.7-7.7.8-11.6.7-8.7-.3-17.3-.4-16.2-11.9.7-5,5-9.3,10.1-10,2.8-.4,5.9,0,8.4-.7,1.5-.4,2,1.9.5,2.2h0Z"/>
  <path class="st6" d="M286.1,481.4c-5.3-.1-11.9-1.3-15.7,3.2-2.3,3.2-3.9,9.4-1.5,12.8,1.8,2.2,4.9,2.2,7.5,2.4,5.6.4,11.4.2,16.9-.8,3.9-.5,5.9-3.3,6.3-7.1.5-3.2.8-7.4-2.5-9-3.1-1.6-7.1-1.6-10.6-1.6-1.4-.1-1.4-2.1,0-2.3.9,0,1.9-.2,2.9-.2,4.9,0,11.8,1.5,12.5,7.4.4,4.1-.1,8.4-2.8,11.7-1.5,1.7-3.6,2.4-5.6,2.7-3.8.6-7.7.8-11.6.7-9-.5-17.7,0-14.8-12.1,2-10.1,10.5-9.8,18.8-10.3,1.6-.1,1.6,2.3,0,2.3h0Z"/>
  <path class="st6" d="M462.7,195.8c1.3,2.2.5,4.8,0,6.9-1.1,5.9-1.6,12.2-.6,18.1,1.3,8,6.6,15.4,15.5,13,10-3.8,10.3-17.9,8.3-26.8-.4-2-1.6-4.4-.5-6.5,0-.2,0-.5-.2-.9-2-3-3.4-6.5-5.5-9.4-.9-1.2.9-2.6,1.8-1.4,1.9,3.3,2.9,6.9,4.9,10.1.3.6.5,1.4.2,2.1-1,1.6,0,3.6.4,5.7.4,2.1.7,4.2.8,6.3.4,6.3-.3,13.1-4.4,18.2-3.2,4.8-10,5.9-15.1,3.6-7-3.9-10.2-12.4-9.9-20.1,0-4.3,1.2-8.5,2.2-12.6.4-1.8,1.2-3.7.2-5.3-.8-1.3,1.2-2.5,2-1.1h0Z"/>
  <path class="st6" d="M470.7,458.3c.2,5.4,3.7,10,8.8,11.6,5.1,1.4,10.7,1,15.9.6,1.8-.2,3.6-.5,5.2-.9,1-.3,1.8-.5,2-1.3-.2-4.2-3.1-8.8-6.3-11.5-2-1.5-4.3-1.3-7-1.4-5.3-.2-10.7-.5-16,.3-1.5.4-2.3,1.3-2.7,2.9-.1.6-.7,1-1.3.9-.6-.1-1-.7-.9-1.3.6-5.1,5.8-5.5,9.9-5.7,3.7-.2,7.4-.2,11,0,1.8,0,3.7,0,5.8.5,2,.5,3.8,2,5.1,3.6,2,2.2,3.4,4.8,4.3,7.6.5,1.4,1,3.1.7,4.8-1.1,4-6.5,3.6-9.7,4.1-5.6.3-11.3.4-16.7-1.1-3.7-1.2-6.8-4.1-8.5-7.5-1-1.8-1.2-3.8-1.9-5.4-.2-.6,0-1.2.7-1.5.7-.3,1.5.2,1.5.9h0Z"/>
  <path class="st6" d="M323.5,461.7c-.8-2-1-4.6-3.2-5.4-4-1-8.4-1.3-12.6-1.3-4.1.2-8.8-.2-12,2.7-2.7,2.5-4.3,8-1.1,10.7,2.7,2.2,6.2,2.6,9.7,2.7,3.5.2,7.1.2,10.6-.1,1.7-.2,3.4-.2,4.9-1.1,2.6-1.4,4.4-5,3.9-7.9-.6-1.5,1.7-2.3,2.1-.7.8,5.1-3,10.3-8,11-4.5.6-9,.4-13.5.3-1.8,0-3.7-.1-5.5-.6-7.1-1.6-9.2-6.9-6-13.3,1.8-3.5,5.7-5.5,9.5-6,6.4-1,13.1-1.4,19.4.5,3.3,1.1,4,5,4.2,8,.1,1.3-1.8,1.7-2.2.5h0Z"/>
  <path class="st1" d="M226,217.7c-.1,3,13,13.8,14.5,15.8,10.2,13.4,18.4,28.1,25.7,43.2,3.9,8.2,7.7,16.5,10.3,25.3.5,1.7,1.6,3.3,3.3,4.2"/>
  <path class="st6" d="M471.6,148.4c-2.1-2.4-1.6-5.5-2.3-8.3-1.1-4.3-2.6-8.8-4.8-12.6-1.8-3.1-4-6.1-6.9-7.9-6-3.8-13.9.1-14.9,6.9-1,6.9,2.3,13.6,5.7,19.5.6,1,3.1,5.1,3.5,6.1.3.9,1.3,2.9,1.6,3.8.3.6,0,1.3-.6,1.5-1.6.6-2.1-1.9-2.8-2.9-2.2-4-5.1-7.6-7.2-11.7-2.6-5.2-4.6-11-3.4-16.9,1.7-8.6,12-12.9,19.2-7.8,6.2,4.5,9.2,11.9,11.6,18.9l.8,2.6c.8,2.3.6,5.7,2.3,7.2,1.2,1.2-.6,2.9-1.7,1.6h0Z"/>
  <path class="st6" d="M278.2,460.7c-.2-2.7-2.2-4.9-4.9-5.2l-1.3-.2c-5.1-.6-10.3-1-15.3,0-5.2.5-9,4.8-9.5,9.9-.7,7.2,12.6,6.4,17.4,6.3,2.7-.2,5.3-.5,7.9-1,.8-.1,1.4-.5,2-1,2.1-1.8,3.6-4.7,3.8-7.5,0-.3,0-1,0-1.6.3-1.4,2.3-1,2.1.4,0,3.8-1.7,7.7-4.8,10.1-1.5,1.3-3.6,1.4-5.5,1.6-5.4.7-11,.7-16.4-.3-1.8-.3-3.7-.7-5.3-1.9-4.8-3.5-1.2-11.7,2.9-14.5,6.2-3.5,14-2.9,20.9-2.4,1.9.1,3.9.5,5.4,1.8,1.3.8,4.3,5.9,1.8,6.4-.6,0-1.1-.4-1.2-1h0Z"/>
  <path class="st6" d="M399.3,202.4c-3.4,7.1-8.3,13.5-12.6,20-8.8,13-20.2,23.7-29.1,36.6-2.7,4-5.2,8.2-7.1,12.6-.9,1.8-1.3,3.8-2.4,5.5-.6.9-1.4,1.6-2.2,2.4-1.4,1.3-3-1.2-1.2-1.9,1.8-.6,3-2,3.5-3.8.7-1.8,1.4-3.7,2.3-5.5,4.8-10.8,11.6-20.7,19.3-29.6,6.3-7.5,13.4-14.1,18.8-22.2,3.1-4.6,6.8-9.8,8.7-15,.5-1.4,2.7-.6,2.1.9h0Z"/>
  <path class="st6" d="M353.5,109.1c7.1,2.1,14.1,4.5,20.9,7.3l3.4,1.5c3.6,1.6,6.6,4.5,9.1,7.3,1.5,1.8,3.6,3.8,4.9,5.8,2.9,4.4,4.8,10.4,2,15.4-1.2,2.2-3.4,3.6-5.8,4.3-2.5.8-4.8,2-6.9,3.7-3,2.2-4.8,5.6-7.6,7.9-9.6,7.1-19.7-3.6-24.6-11.4-.7-1-1.4-1.7-2.3-1.7-.5,0-.9-.4-.9-.9,0-.6.6-1,1.1-.9,2.9.5,3.6,3.8,5.3,5.8,5,7.8,15.8,14.9,22.7,5.3,2.9-4.1,6.8-7.8,11.6-9.7.4-.2.9-.3,1.4-.5,3.9-1.2,5.4-5.6,4.4-9.4-.9-4.6-4.4-8.2-7.6-11.5-2.4-2.6-4.9-5-8.1-6.4-2.1-1-7.9-3.4-10.1-4.3-4.5-1.9-9-3.8-13.5-5.9-1-.4-.4-2,.6-1.7h0Z"/>
  <path class="st6" d="M502.5,181.6c2.4,2.4,5.8,4,8.9,5.8,3.2,1.9,6.1,4.1,8.7,6.7,3.9,3.9,6.9,9.7,5.5,15.4-1,3.8-3.7,7.2-7.4,8.7-5.6,2.1-11.8.5-16.8-2.2-4.8-2.9-9-6.8-12.4-11.3-1-1.3-1.4-2.7-2.9-3.1-.7-.2-1.1-.9-.9-1.5.8-2,3.5-.4,4.5.6,2,2.1,3.3,4,5.4,5.9,2.2,2,5.3,5.2,7.9,6.7,4.2,2.5,9.5,4.1,14.3,2.6,4.6-1.7,7.7-6.9,6.7-11.8-.9-5.2-4.7-9.4-8.8-12.6-4.2-3.7-9.3-5-14.2-7.9-1.5-1,.2-3.2,1.5-1.9h0Z"/>
  <path class="st6" d="M176.2,526.3c.4,1.8,1.1,2.8,3,3.3,6.7,1.5,14,1.3,20.9.7,2.7,0,4.9-1.3,6.5-3.6,2-3,3.6-6.9,3.5-10.3,0-3.9-4.8-3.9-7.7-4.4-3.1-.5-5.8-.3-8.9-.2-2.9,0-5.9-.5-8.7.4-5.2,1.6-8.7,9.1-8.6,14.2,0,1.5-2.2,1.6-2.3,0,.7-4.4,2.8-8.3,5.1-11.8,1.2-1.8,2.9-3.3,4.9-4.4,3-1.6,6.3-1.7,9.5-1.9,5.3-.4,10.8-.3,15.9,1.5,5.4,2.1,4.8,8.7,3.1,13.1-1.8,4.7-5.1,9.7-10.5,10.5-6.8.6-13.6.8-20.4-.4-3.8-.5-7.3-1.8-7.6-6.2-.2-1.4,1.9-1.7,2.2-.3h0Z"/>
  <path class="st1" d="M280.3,305.4c-2.2-1.3-.7-7.8-.9-9.8-.9-11.6-.5-23.1,4.2-34.1,3-6.9,7.2-12.9,12.7-18,1.5-1.5,2.6-3.6,5.4-3.8,2.8,4.2,3.1,9.4,3.3,14.5.3,9.4-2.6,18.1-6.4,26.5-4.2,9.1-9.4,17.7-13,27-.3.9-1,1.6-1.7,2.3"/>
  <path class="st1" d="M547.9,293.3c1.8,1,3.6,1.2,5.6.9,10-1.3,20.1-2.5,29.6-6.3,8.3-3.4,15.6-8.1,19.5-16.8,3.3-7.5-1.4-14-9.3-14.7-13.8-1.2-24.1,5.7-33.3,14.9-5,5-8.4,11.1-11.9,17.2-.3.5-.6,1.1-.5,1.4,1,3-1.2,3.6-3.1,4.9-6.2,4.4-12,9.4-17.8,14.3-2.1,1.8-4.2,3.5-6.2,5.4-1.3,1.2-2.6,2.2-4.5,2.3-1.2,0-2.4.9-2.8,2.4-1.3,4.9-5.1,8.2-7.9,12.1-1.3,1.7-1.9,3.4-1.6,5.4"/>
  <path class="st6" d="M460.2,178.7c-4.5,0-8.7-.1-12.7,1.4-2.4,1.1-5,2.3-7.5,3.1-8.6,2.5-21.2,11-16.6,21.1,4.8,9.2,15.4,6.8,22.7,2.1l2.3-1.5c.9-.7,2.4-1.1,3.5-.6l.7.3c.7.3,1.1,1.1.8,1.8-.4,1.2-2.2,1.2-2.6,0-.4-.9-2.6.3-4.1,1-4.8,2.5-10.2,5.1-15.8,4.3-8-1.3-13.5-10.4-9.4-17.9,2.4-5.3,7.1-9.2,12.2-11.7,3.3-1.7,6.9-2.6,10.1-4,1.7-.8,3.6-1.5,5.5-1.9,3.8-.8,7.6-.5,11.2,0,.7,0,1.1.7,1,1.4,0,.6-.6,1.1-1.2,1h0Z"/>
  <path class="st1" d="M282.2,311.3c.2,6.1,1.9,12,2.9,18,.8,4.5,2.2,8.7,1.9,13.5-.3,4.6,0,9.5,2.2,14.1,3.3,7.3,3.4,15.4,4.1,23.3,1.1,12.1,1.4,24.2,1.4,36.3"/>
  <path class="st6" d="M226.1,216.9c-.3,1-.4,1.7,0,2.6l1,3.2c.7,2.1,1.3,4.2,1.8,6.4,1,4.3,1.9,8.8,1.4,13.2-1,8.1-9.1,15.4-17.2,11.4-4.2-2.1-6.5-6.4-8.7-10.3-1.8-2.9-2.9-6.3-3.2-9.7-1.1-10.4-1.7-20.8-1-31.2,0-.4-.1-.7-.3-.9-.4-.5-.2-1.2.3-1.6,2.2-1.1,2.5,2.8,2.4,4.1,0,3.3-.2,6.6,0,9.8.1,4.4.3,8.7.7,13,.4,4.5.1,8.8,1.7,12.6,1.8,3.8,3.7,7.8,6.6,10.9,2.7,3,7.7,4,11.2,1.9,1.8-1.1,3.4-2.6,4.6-4.3,3.8-5.5,2.4-12.6.7-18.7-.9-3.1-2.1-6.2-3.6-9.1-.6-1.1-.7-2.7-.5-3.8.3-1.6,2.7-1,2.2.5h0Z"/>
  <path class="st6" d="M192.9,41.6c-4.5-1.7-6.3-5.8-11.1-5.9-2.6-.4-5.4-.7-7.8.5-3.4,1.9-4.6,6.7-3,10.2,3.3,7.8,12.1,11.1,19.8,12.8,2.7.7,5.8.9,8.2,2.2.6.2.9.9.6,1.5s-.9.9-1.5.6c-1.3-.7-2.3-1.3-3.7-1.5-6.8-1.7-13.7-3.9-19.1-8.5-7-5.8-9.9-18.6,2.5-19.2,2.1-.1,4.3.5,6.2,1.2.7.2,1.4.4,2,.7,2.4,1,4.7,3.1,7.3,3.2,1.8,0,1.3,2.8-.4,2.2h0Z"/>
  <path class="st1" d="M381.4,121.2c1-.9,2.3-.7,3.4-.5,5.5.9,11,1,16.3-.6,8-2.5,13.1-11.6,10.4-18.5-1.7-4.3-5.3-6.9-9-9.3-2.1-1.4-4.4-2.7-6.6-4.1-3.2-2-4.5-5.3-3.3-9.7,1.2-4.7,2.7-9.4,1.7-14.4-1.8-8.7-7.8-11.6-15.5-10.6-7,.9-12.2,5.3-16.7,10.6-1.4,1.6-2.4,3.6-4.5,4.5-.7.3-1.1.9-1.4,1.7-3.1,7.8-7.1,15.3-10.1,23.1"/>
  <path class="st6" d="M482.3,17c-.3-5.7,1.4-10-4.2-13.9-4.4-3.4-8.8.8-10.7,4.9-1.1,2.2-1.3,4.5-1.8,6.9-.6,2.5-.3,5.1-.2,7.6.3,5.1,1.2,10.1,2.9,14.9.5,1.4-1.6,2.1-2.1.7-2.1-7-3.1-14.2-3.2-21.4-.2-2-.3-4.2.3-6.1,2.4-9.1,12-15.6,18.4-5.6,2.1,3.4.7,7.9,2.7,11.3.9,1.7-1.9,2.6-2.1.7h0Z"/>
  <path class="st6" d="M484.6,166c1.6-1.2,2.9-1.7,3.9-3.2,2.1-2.3,5.3-3.2,8-4,4.4-1.3,8.5-3.6,13-4.5,4.5-1.1,9.3-1.2,13.8-.2,11.9,2.8,14.6,13.2,5.8,21.6-4.6,4.4-11.3,5.4-17.3,6.3-2.9.5-6.6-.3-9.1.7-.7.3-1.6.7-2.3.5-.9-.2-1.4-.5-1.9-.7-.4-.1-1.1-.3-1.5-.3-2.9-.5-5.9-.8-8.6-2.5-1.2-.8-.1-2.6,1.1-2,1.8,1,3.9,1.3,6.2,1.6.8.1,2.2.4,3.1.5.6.1,1.8.7,2,.7,3.6-1.8,7.2-.7,10.6-1.1,5.7-.7,12-1.4,16.4-5.1,8.4-7.3,6.1-16.6-4.7-19.4-7.8-1.9-16,.2-23,3.9-3,1.5-6.8,1.9-9.2,4.1-.6.5-1.1,1.2-1.5,1.8-.9,1.2-2.4,2.2-3.3,3-1.1,1.1-2.7-.7-1.5-1.7h0Z"/>
  <path class="st6" d="M309.6,62.8c-3.2-2.1-6.4-4.2-10.3-4.5-5.3-.4-11.6,1.2-14.5,5.8-2.4,4.4-1.7,10.8,1.3,14.7,1.8,2.4,5.7,5.6,8,7.7,2.5,2.6,5.8,3.8,9.2,4.9,3.7,1.1,7.3,2.4,10.9,3.7,3.6,1.3,7.2,2.7,10.8,4.2.6.2.9.9.6,1.5-.2.5-.8.8-1.3.7-5.6-1.4-11.1-2.9-16.7-4.6-4.7-1.5-9.8-2.3-14-5.3-.8-.6-1.7-1.4-2.4-2.1-2.7-2.6-5.7-5.1-8.2-8.6-3.5-5.5-3.7-12.6-.2-18,2.5-3.5,6.6-5,10.6-5.6,2-.3,4-.4,5.9,0,3.9.4,7.4,2.5,11.1,3.6,1.6.6.5,3-1,2h0Z"/>
  <path class="st6" d="M206.2,382.2c2.1-1.7,2.5-5.2,3.5-7.9,2.8-6.2,5.3-12.5,7-19.1,1.8-7,3.6-14.2,1.9-21.3-.8-4.1-5.5-7.9-9.4-5.4-5.6,4.7-6.6,12.7-7.2,19.7-.3,4.9.1,9.8.8,14.7.5,3.8,1.3,7.3,1.9,11.1.1,1.4-.4,5.5-2.4,4.7-.6-.3-.8-1-.5-1.5.5-1,.8-1.9.7-3-1.6-11-3.6-22.4-1.4-33.5.6-3.7,1.7-7.7,4.1-10.7,4.5-7.7,13.8-4.3,15.8,3.4,2.1,7.6.4,15.5-1.6,22.8-1.4,4.9-3.1,9.6-5.1,14.2-1.7,3.4-3,6.7-4.3,10.3-.6,1.2-2.6,4.8-4.2,3.1-.4-.5-.3-1.2.2-1.5h0Z"/>
  <path class="st6" d="M377.9,361.6s-1.6-15.6-1.6-15.3c0,0-2.5-10.7-2.4-10.3l-2.9-6.7c-1.3-2-3-4.7-4.5-6.9-.5-.8-1.1-1.2-1.8-1.9l-2.8-2.4h0s-1.8-1-1.8-1h.4s-1.9,1.5-1.9,1.5v-.3c.1,0-.2,3.9-.2,3.9h0c0-.1,2.7,12.8,2.6,12.5,1.9,4,4.7,10.3,6.9,14.2,0-.1,7.8,14.2,7.5,13.7l2,2.7v-.2c-.1,0,1.5,1.2,1.5,1.2h-1s.9-.8.9-.8c-.4.4.6-.9.6-.8l-.2.5v-.5s.2.5.2.5c-2-1.8-1.8-4.7-2-7-1.2-11.3-3.2-23-9.5-32.6-1.7-2.6-3.7-4.9-6.1-6.8-.4-.3-1.2-1.1-1.5-1.1-1.1.3-1.3,1.5-1.3,2.9,0,1.1,0,2.2,0,3.4.5,6.8,3,13.3,6.3,19.3,4.1,6.9,7,14.6,11.4,21.3.7.8,1.5,1.5,2.4,1.9.4.2.6.7.4,1.2-.9,1.5-3.5-1.2-4.2-2-.7-.8-1.4-2.1-1.9-3.1-3.4-6.1-6.3-12.4-9.9-18.4-2.3-4.1-4.3-8.4-5.5-13-.9-3.4-1.4-7-1.3-10.6,0-1.7.4-3.9,2.2-4.8.7-.5,2.1-.5,2.8,0,.8.5,1.4,1.2,2.1,1.8,12.1,10.9,14.5,28.5,15.5,43.9.1,1.1.5,2,1.2,2.6.3.3.2.7.2,1,0,.2,0,.4-.2.5l-.7.9h0s0,0,0,.1l-1,.8c-.3.3-.7.3-1,0,0,0-1.6-1.3-1.6-1.3,0,0,0,0-.1-.1l-1.9-2.8s0,0,0,0c-2.9-5.8-5.9-11.8-8.9-17.6-1-2.3-3.9-8.4-5-10.7,0,0-2.7-12.7-2.7-12.8,0,0,0,0,0-.1l.3-3.9c0-.1,0-.2.1-.3l1.9-1.6c.1-.1.3-.1.4,0l1.8,1s0,0,0,0l2.8,2.4,1.4,1.2c.4.5.8,1.1,1.1,1.6,1.4,2.1,2.8,4.1,4.2,6.2l3,6.6s0,0,0,0l2.6,10.3h0c0,0,0,0,0,0l2,15.3c.1,1.1-1.6,1.4-1.7.2h0Z"/>
  <path class="st6" d="M356.2,69.3c-1.4-2.9-.2-5.7,0-8.6.9-8.8,0-24.4-12.2-23.2-1.9.3-3.2,1.4-4.8,2.6-3.1,2.2-7.2,2.9-10.7,2.4-2.7-.2-5.2-1.3-7.8-1.2-7.7.5-8.3,7.5-8.3,13.6,0,1.1,0,3,0,4,.1,2.6.9,4.8,2,7.2,1.9,5.1,3.9,10,6.7,14.7,2.7,4.7,5.8,9.1,8.8,13.7.8,1.2-1,2.4-1.8,1.2-3-4.5-6.3-8.9-9.2-13.6-2.9-4.6-5.2-9.8-7.2-14.8-1.1-2.6-2.6-5.4-2.6-8.3,0-4.3-.1-8.6,1-12.7,1.4-5.5,7.3-9,12.8-7.9,4.9,1.1,10.4,2.6,14.8-.6,1.6-1.3,3.7-2.8,5.9-3,4.7-.7,9.3,1.6,11.9,5.4,2.3,3.7,3,8.2,3.3,12.4.2,4.2-.2,8.3-.8,12.4-.2,1.3-.1,2.4.3,3.4.6,1.3-1.3,2.2-2,.9h0Z"/>
  <path class="st6" d="M218.7,178.4c-5.3-3.6-10.6-7.7-17-8.3-11.1-.5-17.6,11.9-16,21.8,0,.3.2,1.8.2,2,.2,1.7,1.9,3.1,3.1,4.3.4.4.8.9,1.1,1.1.5.4,1.5.3,2.8.4,8.8,1.4,16.8-4.4,22.9-10.1,3.1-3,4.1-7.4,2.9-11.5-.4-1.4,1.8-2,2.2-.6,1.3,8.2-3.1,12.9-9.5,17.1-5.4,4-11.8,7.2-18.8,6.6-1.4,0-3.4.2-4.4-1.1l-.6-.5c-1.5-1.4-3.4-2.7-4-4.9-.2-.9-.3-1.7-.4-2.6-1.6-9.2,2.4-19.6,11.4-23.6,4.4-2,9.7-1.4,13.9.6,4.2,1.9,7.8,4.7,11.3,7.3,1.1.9-.1,2.6-1.3,1.8h0Z"/>
  <path class="st6" d="M230.7,190.8c0-2,1.6-2.5,3.2-2.3h3c4,.2,7.9,0,11.8-.7,3.8-.7,7.8-1.6,10.9-3.9,13.4-10.9-.8-20.9-13.3-17.3-5.8,1.1-11.5,2.8-16.7,5.4-3.5,1.7-6.9,3.7-9.2,6.5-.4.5-1.1.6-1.6.2-1.8-1.5,3.2-5.2,4.3-6,6.9-4.5,14.8-6.8,22.8-8.1,4-.8,8.4-1,12.2.7,13.7,5.3,8,18.6-3.5,22.1-5.6,1.7-12,2.1-17.8,2.6-1.2.2-3,.2-4.1.6,0,0,0,0,0,0,.6,1.9-2.2,2.4-2.2.4h0Z"/>
  <path class="st6" d="M378.2,254.5c-5.3,5.7-8.3,12.9-13.5,18.6-7.1,8.8-14.5,17.8-20.4,27.4-.7,1.2-1.5,2.3-2.3,3.4-1,1.4-3.1,0-2.1-1.5,1.8-1.4,3.3-4.4,4.4-6.4,3.8-6.7,7.9-13.2,12.3-19.5,3-4.2,6-8.3,9.5-12.1,3.6-3.6,7.8-6.7,10-11.4.9-1.7,3.4,0,2.1,1.4h0Z"/>
  <path class="st6" d="M296.2,92.2c-2.5,1.1-5.1.8-7.6.7-2.4,0-4.8,0-7.2.4-4.3.7-10,2.3-11.6,6.6-1.6,5.6,2.8,11.5,2.4,17.4,0,1.1-.2,2.8-.3,3.8-.2,3.8,3.6,7.9,7.2,8.9,5,1.1,10.4.1,15.4-1.1,2-.5,4-1.4,6.3-1.1.1,0,.2,0,.4-.1,7.5-5,15.5-9.9,23.7-13.8,1.1-.5,2,1.1.9,1.8-4.2,2.3-8.4,4.9-12.4,7.5l-6.1,4-3,2c-.7.5-1.8,1.5-2.9,1.6-.4,0-.9,0-1.3,0-2,0-4.5,1.2-6.6,1.7-5,1.2-10.2,2-15.3.9-5.4-1.7-10-6.7-9.8-12.5.4-2.5.5-4.4,0-6.8-2.1-8.2-4.5-15.9,5.6-19.6,4.7-1.7,9.6-2.3,14.5-2.5,2.4,0,4.9-.1,6.6-1.5,1.2-.9,2.4,1.1,1,1.7h0Z"/>
  <path class="st6" d="M556.7,468.7c-1-1.8-2.1-3.5-3.3-5.3l-1.7-2.6c-1.6-2.4-4-4-6.8-4.8-1.7-.5-4.4-.6-6.2-.8-4.3-.3-8.7-.4-13-.4-2.2,0-4.4.1-6.5.3-2.1.2-4.7,0-4.4,1.8.8,4,2.5,8.4,5.6,11.2,3.3,2.9,7.9,3.2,12.2,3.1,4.4,0,8.8-.2,13.1-.4,2.7-.1,5.5-.4,8.2-.7,1.2-.1,2.8,0,2.8-1.6.2-1.5,2.4-1.1,2.2.3-.1.7-.5,1.5-1.1,2.1-1.6,1.3-3.6.8-5.4.9-4.2,0-15.4.1-19.8.1-4.4,0-9.2-.2-12.7-3.2-2.7-2.2-4.2-5.3-5.4-8.4-.5-1.6-1.7-3.6-.6-5.4,1.3-1.6,3.5-1.4,5.2-1.7,2.2-.3,4.4-.5,6.6-.7,4.4-.4,8.8-.6,13.3-.5,6.4-.3,13,1.5,16.6,7.3,1.7,2.7,3.3,5.5,3.4,8.8,0,1.2-1.6,1.7-2.2.6h0Z"/>
  <path class="st6" d="M539.5,519.5c-1.3-11.5-18-8.3-26.1-8.3-2.5,0-4.3,1-4.8,3.4.1,1.3.8,3.1,1.5,4.3.1.2.4.5.4.5,0,0-.2,0-.2,0,.4,0,1.3,0,1.7.1,8,.5,16.1.4,24.1-.2,1.4-.1,2.7.5,4-.2,1.8-.9,2.6,1.6,3.3,2.8.8,1.6,1.1,3.3,1.5,5,.8,2.5-.7,4.9-3.3,5.3-7.1,1.2-14.2,1.2-21.3.4-5.8-.9-10.5-6.1-10.8-12,0-1.5,2.3-1.5,2.3,0-.1,3.5,2.3,7.3,5.3,9.2,3.4,1.9,7.5,1.6,11.4,1.9,4.3.1,8.6,0,12.9-.8,1.9-.2,2.8-1.8,2.2-3.6-.5-2.4-1.1-5-2.7-6.9-1.2.8-3.2.3-4.5.4-8.5.7-17.2.7-25.8.3-.3,0-.6,0-.9-.2-1.3-1.1-1.6-2.5-2.3-3.9-.3-.8-.7-1.7-.6-2.7.3-2.3,2-4.4,4.3-5,6.1-1.6,12.4-1.3,18.5-.5,5.7.5,12,4.2,12.3,10.6,0,1.5-2.2,1.6-2.3.1h0Z"/>
  <path class="st6" d="M229.2,453c10.3,2,6.7,14.7-.3,18.5-.9.5-2,.7-2.9.9-6.3,1.2-12.8,1.1-19.1.1-2-.4-4.2-.4-5.6-2.2-2.3-3.3-.1-8.2,1.7-11.2,3.2-5,9.5-6,14.9-6,3.7,0,7.2-.4,10.9,0,1.6.2,1.2,2.5-.3,2.2-3.3-.7-7-.4-10.6-.7-7.6-.3-14,1.8-15.3,10.2-.5,2.4-.4,4.7,2.1,5.1,6.9,1.3,14,1.4,20.9.2,4.8-.3,9.5-8.4,7-12.6-.8-1.1-2.3-1.7-4-2.2-1.4-.4-.8-2.6.6-2.2h0Z"/>
  <path class="st6" d="M118.4,514.8c0,2.5-1.2,4.6-2.3,6.3-2.3,3.6-3.7,8-7.7,10.2-2,1.1-4.3,1.4-6.4,1.6-4.2.3-8.4.4-12.6.3-3.3-.2-6.8,0-9.8-1.7-2.8-1.4-2.2-5-1.4-7.3,1.3-4.2,3.8-8,6.8-11.2.8-.8,1.4-1.5,2.5-2.3,2.1-1.5,4.6-1.9,6.8-2.1,3.8-.2,8.9,0,12.6,0,4.3,0,11.2.3,11.4,6,0,1.4-2.1,1.6-2.2.2-.3-2.8-3.8-3.1-6.1-3.1-2,0-7.3.1-9.3.2-3.7.1-8.1-.4-11.2,1.6-4.3,3.5-8.1,8.7-9,14.3-.4,2.6,7.1,2.7,9,3,4.1.3,8.2.4,12.4.3,2,0,4-.3,5.7-1.2,3.6-1.9,5.1-6.1,7.3-9.4,1.1-1.7,1.8-3.7,1.3-5.4-.4-1.8,2.3-2.1,2.2-.2h0Z"/>
  <path class="st6" d="M463.2,167.7c-3.3-2.5-6.8-5.5-9.7-8.4-2.1-1.8-6-2.5-8.5-4.3-6.9-4.6-18-9-25.7-4.4-5.8,3.3-6.1,10.9-1.8,15.6,4.3,4.7,10.7,7,16.8,8.3,3.2.8,6.4.9,9.6,1.1,1.4.3,2.3,1.2,3.1,1.6,1.3.6.4,2.7-.9,2.1-1.4-.9-1.9-1.9-3.2-1.9-7.2-1-14.5-2.7-20.8-6.4-12-6.4-11.8-21.9,2.6-24.6,6.8-.8,13.5,1.4,19.3,4.7,1.9,1,3.4,2.3,5.4,3.2,1.8.8,4.1,1.5,6,3.2,1.8,1.7,2.9,3,4.6,4.6,1.6,1.4,3.2,2.8,4.8,4.2.5.4.5,1.1,0,1.6-.4.4-1.1.5-1.5.1h0Z"/>
  <path class="st6" d="M243.7,310.4c1.5,2.1,3.7,3,5.8,4.2,2.1,1.2,4.3,2.3,6.4,3.5,4.3,2.3,8.1,5.4,11.7,8.6,3.6,3.3,6.9,6.9,9.9,10.7,2.3,2.6,4,6,6.6,8.3.8.6,1.8.9,2.7.8.8-.1,1.5.4,1.6,1.2.2,1-.9,1.9-1.9,1.6-2.8-.6-4.7-2.8-6.3-4.9-1.5-1.8-3-3.6-4.7-5.3-4.9-4.8-11-9.3-16.3-13.6-3.7-2.9-7.1-6.3-10.8-9.2-1.9-1.4-3.7-3.1-6.2-3.6-.8-.2-1.3-1-1.1-1.8.2-1.2,1.9-1.6,2.6-.6h0Z"/>
  <path class="st1" d="M488.8,496c-.4-3.4-1.2-6.6-2.8-9.6-2.3-4.1-6.2-6-10.7-6.1-4.8-.1-9.6-.3-14.4.2-5.9.7-8.5,4-6.7,9.6,2.2,6.9,4.2,10,13.7,10.5,4.8.3,9.6,0,14.4-.4,2.6-.3,5.6-.4,6.5-3.9"/>
  <path class="st6" d="M206.9,486.9c.7-6.2-8.1-6.3-12.4-6.1-3.3,0-8.3-.4-11.4.7-4.6,1.4-7.1,6.2-9,10.3-2.1,4-.4,6.9,4,7.6,6.5,1.2,13.5.6,20-.4,3.7-.7,6.5-3,7.7-6.6.4-1.4,1.4-3.6,1.2-5-.3-1.4,1.9-1.9,2.2-.5.4,2.5-.6,4.1-1.3,6.3-2.5,6.8-8.9,8-15.3,8.1-5.8.3-12.1.7-17.6-1.7-3.3-1.7-3.5-5.4-1.8-8.4,2-4.4,4.8-9.3,9.7-10.9,3.8-1.3,7.9-.7,11.7-1,5.5-.7,15.3,0,14.7,7.7-.1,1.6-2.5,1.3-2.2-.3h0Z"/>
  <path class="st6" d="M184.4,195.8c-1.7,0-3.3,1.2-5.3,2.2-5.5,2.8-11,5.8-15.7,9.7-4.6,3.8-8.9,8.7-8.9,14.7.5,6.9,7.2,8.8,13,6.5,3.7-1.4,7.5-3.4,10.1-6.6,2.5-3.2,4.2-7.2,6.2-10.8,1.9-3.7,3.8-7.5,5.5-11.3.6-1.3,2.7-.4,2.1.9-4,6.2-7.5,12.7-11,19.2-2.6,4.8-7.4,7.8-12.3,9.8-10.4,4.3-18.6-3.9-14.2-14.2,2.5-6.1,7.8-10.4,13.1-14.1,3.5-2.3,7.3-4.4,11.1-6.1,1.3-.7,7.1-3.9,7.5-1.1,0,.6-.5,1.1-1.1,1.1h0Z"/>
  <path class="st6" d="M232.5,189.9c3.6,3.1,8.5,4.6,12.6,7,6.4,3.4,13,7.8,16.4,14.6,4.2,7.5,1.2,16.9-7.2,19.6-2.7.7-5.4.4-7.8.2-4.1-.4-7.2-2.3-10.8-3.6-3-1.4-4.6-4-7.3-5.5-.1,0-.7-.4-1-.6-1.8-1.7-2.4-3.5-4.2-5-.5-.5-.9-1.2-1.3-1.7-2.3-3.6-5.5-8.7-7.8-12.3-.3-.5-2.2-3.4-2.4-3.8-.5-.8-1-1.2-1.7-2.1-.8-1.1.8-2.4,1.7-1.3.3.4.8.7,1.2,1.2,4.6,5.6,8.2,12,12.5,17.7,1.2,1,2.8,3.1,3.6,4.3.4.4.3.3.9.7,2.7,1.4,4.6,4.2,7.1,5.5.8.3,2.5,1,3.3,1.4,4.2,2,8.9,3,13.1,2.3,4.1-1.1,7.4-5.1,7.6-9.4.2-4.5-2.1-9-5.2-12.4-3.2-3.5-7.3-6.1-11.4-8.6-4.1-2.4-8.9-3.6-13.3-6.1-.5-.3-.7-1-.4-1.5.3-.6,1.2-.7,1.7-.3h0Z"/>
  <path class="st6" d="M442,330.3c12.7-.6,15,20.2,3.4,23.7-2,.5-4.2,0-5.7-1.3-1.4-1-2-2.7-3.1-3.6-1.1-.8,0-2.6,1.3-1.9,1.6.9,2.1,2.5,3.5,3.3,1,.7,2.3.9,3.4.6,5.2-2.2,6.1-9.5,3.7-14.2-1.2-2.5-3.5-4.2-6.4-4.4-1.4-.1-1.4-2.1,0-2.3h0Z"/>
  <path class="st6" d="M236.3,361.4c-.2,0-.7.1-.9.1,0,0-.2,0-.5,0-1.7-.9-1.1-2.5-.5-2.7.6-.4.3-.1.4-.2.2,0,.4,0,.5-.1,6.1-.6,12,3.1,15.8,7.6,7.8,9.4,10.3,22,11.4,33.8.5,5.9.8,11.7,1.2,17.7,0,.8-.6,1.6-1.4,1.6-.9,0-1.7-.8-1.6-1.7.7-5.7.2-11.6-.7-17.3-1-5.7-2.6-11.2-4.7-16.5-3.5-9.2-7.9-19.3-18.1-22.1-.4-.1-1.2-.1-1.7,0h0s0,0,0,0c.2,0-.2.1.4-.2.5-.2,1.2-1.8-.5-2.7-.2,0-.2,0-.2,0h-.1s0,0,0,0h0s.5,0,.5,0c2-.2,2.3,2.7.4,3h0Z"/>
  <path class="st6" d="M236.9,361c-4.8.5-6.4,7-3.6,10.4.9,1.2,2.5,2,3.9,1.1.9-.5,1.3-1.6,2.5-2.2,1.2-.7,2.3,1,1.3,1.9-.3.2-.5.5-.8,1-2.1,3.4-6.8,3.4-9.3.3-3.6-4.1-2.7-11.3,2.1-14,1.2-.6,4.9-1.7,4.9.5,0,.5-.5,1-1,1h0Z"/>
  <path class="st6" d="M518.8,278c.9.4,1,.9,1,1.3,0,2.8-.3,5.6-.7,8.4-.9,5.6-2.1,13.5-3.4,18.9l-.5,2.3c-.6,2.4.8,4.2.5,7-.2,1.5-2.4,1.2-2.2-.2.2-1.3-.2-2.7-.5-4.5-.1-.8,0-2,.2-2.7,1.7-6.9,3.2-13.9,3.7-21,.1-1.6.4-5.5.6-7.1v-1.2c0-.5.6-1,1.4-1.1h0Z"/>
  <path class="st1" d="M616.2,623.6c-.9-.5-1.9-.3-2.8-.3-9.8-.2-19.5.3-29.3-.3-.5,0-.9.6-1.4.6"/>
  <path class="st6" d="M541.2,333.7c-8.1,0-16.9,2.1-24.8,3.6-1.7.3-3.3.7-5,1.2-.4.2-1,.3-1.5.3-1,0-1.6-.5-2.4-.8-.6-.3-.8-.9-.6-1.5.4-1,1.7-.6,2.4-.3.7.2.6,0,1.2,0,4.4-1.6,9.1-2.4,13.6-2.9,5.6-.7,11.4-1.1,17-.3.5,0,.4.8,0,.8h0Z"/>
  <path class="st6" d="M84.5,276.4c5.9.4,11.7,1.8,17.2,3.8,4.1,1.6,7.8,4.2,11.9,5.9,1.4.6,2.8,1.1,4.1.9,1.1-.2,2.1.6,2.3,1.7.3,1.7-1.7,2.9-3.1,1.9-4.9-4-10.9-4.4-16.7-6.1-5.5-1.9-10.9-3.9-16.2-6.5-.8-.4-.4-1.6.4-1.5h0Z"/>
  <path class="st6" d="M178.4,224.6c.3,2.4-.2,5.1-.6,7.4-.8,4.5-1,8.9.8,13.1,3.6,10.5,15.8,7.7,19.7-1.1,1.2-2.3,1.4-4.7,3.1-6.9,1-1.3,2.9.2,2,1.5-1.8,1.5-2.4,4.1-3.6,6.1-2.4,4.4-6.2,8.3-11.4,9.2-9.3,1.5-14.2-6.9-14.4-15.1-.2-5,1.9-9.4,2.2-14.3.1-1.5,2.3-1.5,2.4,0h0Z"/>
  <path class="st6" d="M293,269.5c-.6,3.7-1.8,7.3-2.9,10.8-1.6,5.3-4.4,10.2-5.6,15.6-.5,3.6-2.9,7.1-3.2,10.6-.1,1.5.2,2.9,1.9,2.7.7,0,1.3.6,1.3,1.3-.1,2-2.2,1.4-3.4.6-4.6-3.6,1.7-11,1.8-15.5.7-5.6.9-11.4,2.9-16.8,1.2-3.6,2.7-7,4.7-10.3.4-.6,1.2-.8,1.8-.4.5.3.7.8.6,1.4h0Z"/>
  <path class="st6" d="M463.2,60.1c4.3-4.4,6.7-10.4,6.4-16.6-.2-4.1.4-8.3,2.3-12,1.2-2.4,2.9-4.3,4.2-6.6,2.6-4.6,6.1-8.9,10.6-11.8,5.3-3.8,14.2-6.2,19.2-.7,2.8,3.4,2.1,8.3,0,11.8-3.9,7-11.9,10.4-19.1,12.9-2.1.7-4.3,1.4-6.4,2.3-2.9,1.1-6.2.5-9,.4-.6,0-1.1-.6-1.1-1.2,0-.7.7-1.2,1.4-1,2.7.6,5.5,1.4,8.2.6,4.5-1.4,9.5-2.6,13.7-4.6,4.5-2.2,8.9-5.3,11.1-9.9,4.1-8.3-1.5-14.2-10.1-11.7-4.6,1.4-8.6,4.7-11.9,8.2-2.4,2.8-4.2,6.4-6.4,9.5-2.2,3-3.5,6.3-3.8,10-.3,2.6,0,5.2-.4,7.8-.7,5.4-3.5,10.5-7.4,14.2-1,1-2.6-.5-1.6-1.6h0Z"/>
  <path class="st1" d="M579.8,273.5c-8.9,3.6-16.8,8.9-24.8,14.1-2.2,1.4-4.3,2.9-6.5,4.2"/>
  <path class="st6" d="M160.8,325.5c-1.1.4-2.4,1.1-3.9,1-1.2,0-2.4-.1-3.6-.2-4.8,0-9.7.4-14.3,1.7-2.3.7-4.6,1.5-6.7,2.6-.8.5-1.9.2-2.4-.7s-.2-1.9.7-2.4c8.7-1.5,17.5-2.3,26.3-2.7,1,0,1.8-.6,2.9-1.3,1.4-.9,2.6,1.4,1,2h0Z"/>
  <path class="st6" d="M448.6,38c-1.2,1.8-2.6,3.1-3.6,4.6-2.9,5-1.2,11.1,4.8,12.4,5.1,1.2,9.9-4.2,9.8-9,0-1.9,0-3.8.2-5.7,0-.6.6-1.1,1.2-1,.6,0,1,.5,1,1,.2,3.9.7,8.3-1.8,11.7-2.3,3.4-6.6,6-10.8,4.7-5.3-1.4-8.2-6.7-6.5-11.9.5-2.8,3.1-5.2,3.7-7.7.5-1.8,3-.6,2.1.9h0Z"/>
  <path class="st6" d="M231.7,57.6c2.7,2.3,6.1,5.9,5.8,10-.8,5.8-3.9,10-10.1,10.4h-.9c-1.9.5-4-.3-5.2-1.8-2.2-2.5-4.3-5.5-4.5-9,.1-2.4-.3-4.9,1.4-7,2.3-2.5,5.6-4.4,9.1-4.2,1.4.2,2.2,1,3.3,1.1,1.4,0,1.6,1.9.3,2.2-1.4.3-2.8-.4-3.9-.4-2.4.5-4.7,1.9-6.2,3.7-.5.9-.4,2.6-.5,3.7-.3,2.4.7,4.7,2.1,6.7.9,1.5,2,3.1,4,2.8.6,0,2.1-.1,2.8-.2,2.8,0,5.4-2,6.4-4.7.5-1,.5-2.3.2-3.3-.6-3.5-2.9-5.8-5.5-8.4-1-1,.5-2.6,1.6-1.6h0Z"/>
  <path class="st1" d="M482.3,41.5c-1,2.1-.9,4.3-1,6.5-.3,6.4-2.7,11.8-6.3,16.9-.5.6-.9,1.2-1.1,2"/>
  <path class="st1" d="M198.2,64.6c1.9,2.3.9,5.3,1.6,7.9,1.4,5.7,3.4,10.9,7.4,15.2.5.5.5,1.1.8,1.7"/>
  <path class="st6" d="M210.3,59.5c1-4.4,1.4-8.9,1.5-13.5,0-6.5-.3-13.8-4.7-19-1.5-1.4-3.5-2.8-5.6-2.9-2.1.2-4.2,1.6-5.5,3.3-2.5,3.3-1.7,7.8-1.5,11.6v.9c.1,1.3,1.2,2,2.2,3,4.5,3.8,7.8,8.9,10.7,13.9.6,1,1.3,2.2,1.6,3.3,1,3.4.8,6.9,1.9,10.3,1.2,4.3,3.7,8.2,7.1,10.9.5.4.6,1.1.2,1.6-.4.5-1.1.6-1.6.2-1.9-1.5-3.6-3.3-4.9-5.4-2-3.1-3.1-6.6-3.7-10.2-.5-2.8-.3-5.7-1.6-8.2-2.5-4.5-5.5-8.7-8.7-12.7-.7-.9-1.4-1.8-2.2-2.6-.9-1-2.4-2.5-2.3-4.2.4-4.3-.4-9,2.2-12.8,1.5-1.9,3.5-3.5,5.9-3.9,2.5-.1,4.8,1.2,6.8,2.7,3.6,3.4,5.5,8.3,6.1,13.1.7,7.1.5,14.3-1.8,21.2-.5,1.3-2.5.8-2.2-.6h0Z"/>
  <path class="st6" d="M324,109.1c-1,.8-2.4.9-3.3.8-2.7-.2-5.3-.9-8-.4-3.6.4-7.1,1.2-10.6,2.3-.9.3-1.9-.2-2.2-1.2-.4-1.1.6-2.4,1.8-2.3,3.6.2,7.3-.1,10.9-.2,2.6,0,5.6-.7,8.2-.6.9,0,1.4,0,1.9-.4,1.2-.7,2.4,1,1.3,1.8h0Z"/>
  <path class="st6" d="M334.6,71.2c.7,3.4.6,6.9,1.3,10.3.6,3.4,1.4,6.8,2.3,10.2.4,1.6-2.1,2-2.2.4-.5-5.2-1.1-10.4-2.5-15.5-.4-1.7-1-3.4-1.2-5.1,0-.6.4-1.2,1-1.2.6,0,1.1.3,1.2.9h0Z"/>
  <path class="st1" d="M196.8,91.6c-1.6-3.8-3.9-7.2-5.1-11.3-.9-3-1-6.1-2.2-9"/>
  <path class="st1" d="M491.3,48c-1.6,1.6-1,3.7-1.4,5.6-.8,4.3-1.9,8.4-4.3,12.1-.4.7-.6,1.4-.6,2.3"/>
  <path class="st6" d="M397,125.3c11.9-1.4,23.9,0,35.9,0,1.5,0,1.6,2.2.1,2.3-9,0-18.1,1.1-27.1.6-3-.1-6-.3-9-.8-.6,0-1-.6-.9-1.2,0-.5.5-.9,1-.9h0Z"/>
  <path class="st6" d="M332.5,120.3c-3.6,4.2-5.8,9.3-7.8,14.4-.6,1.7-1.2,3.4-1.5,5.2-.2,1.3-1.5,2.1-2.8,1.9-1.7-.3-2.5-2.4-1.4-3.7,3-4.2,6.8-9.3,9.4-13.7.9-1.6,1.7-3.2,2.1-5,.2-.6.8-1,1.4-.8.8.2,1.2,1.3.6,1.9h0Z"/>
  <path class="st1" d="M573.9,78.4c-2.1-2.2-4.6-3.9-7.1-5.6-1.3-.9-2.8-1.2-4.5-.7-2.6.8-5.2,1.4-7.9,2"/>
  <path class="st1" d="M456.6,55c3.6,5.2,8.6,8.9,14.2,11.4,2.9,1.3,6.2,2.6,9.5,3,.6,0,1.1.1,1.7,0,5.1-1.1,10.6-1.4,14.4-5.9.3-.4.5-.6,1.1-1.2"/>
  <path class="st1" d="M223.3,77c-3.9,5.5-8.6,10-14.9,12.7-2.1.9-4.2,2-6.5,2.5-.3,0-.5.3-.9.2-5-.4-10.2.2-14.7-3.1-4-2.9-4.2-2.8-8.1,0-.5.4-1,.2-1.4.3"/>
  <path class="st1" d="M207.8,60.9c-1.7.4-3.3.8-5.1.9-1.6,0-3.4,0-4.2,1.9-.6,1.2-2,.5-2.8,1.2-2.2,1.7-4.9,2.7-6.4,5.5-.8,1.5-2.8,2.5-3.9,4.3-2.2,3.8-3.5,7.7-3,12.1"/>
  <path class="st6" d="M441.9,19.8c4.4,2.3,7.4,6.4,9.3,10.9.6,1.5,1,3.1,1.3,4.9.1.6-.3,1.2-.9,1.4s-1.2-.3-1.4-.9c1.2-6.1-3.4-12.6-9-14.7-1.1-.4-.4-2,.6-1.5h0Z"/>
  <path class="st6" d="M235,42.3c-4.8,3.1-8,9-7.3,14.8.1,1.8-2.6,1.6-2.3-.2,1.5-6,4.1-11.4,8-16.2,1.1-1.4,3,.6,1.5,1.6h0Z"/>
  <path class="st6" d="M349.2,117c1.7,2.9,4.1,5.2,6.3,7.6,2.3,2.3,4.6,4.6,7.2,6.6,1.8,1.5-.8,3.9-2.1,2-1.9-2.8-3.8-5.4-5.9-7.9-2.1-2.5-4.1-5.1-7.1-6.6-1.7-1.1.4-3.3,1.6-1.6h0Z"/>
  <path class="st1" d="M112.5,298.9c.7,3.4.5,6.9.6,10.4,0,1.6,0,3.2,0,4.8"/>
  <path class="st1" d="M352.9,109.9c-1.6.6-2.2,2.2-2.7,3.4-2,4.4-6.7,4.8-10,7.3-3.4-1.4-7.5,0-10.8-2.7-2.7-2.3-5.1-4.4-5.3-8.2-.2-3.8-.3-7.3,2.2-10.8,2.6-3.7,6.1-5.5,10-6.2,3.7-.7,7.6-.5,11,1.9,5,3.5,6.4,8.5,5.4,14.3,0,.3,0,.6.3.8"/>
  <path class="st1" d="M44.3,158.1c2,4.1,3.1,8.6,5.6,12.4.4.7,1.3,1.2,1.2,2.2"/>
  <path class="st1" d="M340.2,120.9c.7,5,1.2,9.9,1.7,14.9"/>
  <path class="st1" d="M44,133.9c.5,2.6,0,5.2-.4,7.6-.5,2.5,0,4.7.1,7.1"/>
  <path class="st1" d="M106.9,92.5c3.2,1.7,6.8,1.8,10.2,2.7,1.3.4,2.6,1,3.9,1.2"/>
  <path class="st6" d="M244.4,50.5c-5.6-1-10,4.1-12.8,8.4-.8,1.3-2.8.1-2-1.2,1-.9,2.5-1.6,3.8-2.9,3.1-2.9,6.5-5.8,10.9-6.6,1.8-.4,1.9,2.5,0,2.3h0Z"/>
  <path class="st6" d="M367.4,99.2c-2.5,0-4.9.4-7.2,1-2.4.6-4.7,1.2-6.7,2.9-.5.5-1.3.4-1.8-.1-.7-.8,0-2.2,1.1-2,2.5.3,4.7-.7,6.9-1.8,2.2-1.1,4.3-2.4,6.3-3.9,1-.8,2.4-.6,3.2.3,1.2,1.4,0,3.7-1.8,3.6h0Z"/>
  <path class="st6" d="M364,86.3c-3.5,2.2-6.7,4.8-9.4,7.9-1,.9-1.4,2.3-3,3.5-1.4,1.4-3.3-.6-1.8-1.9.3-.2.7-.3,1.1-.2.5.1,1.1-.2,1.5-.6,1.4-1.5,2.8-3.1,4.3-4.6,2-2,4-3.9,6-5.8.4-.4,1.2-.4,1.6,0,.5.5.4,1.4-.2,1.8h0Z"/>
  <path class="st6" d="M480.4,190.7c-2.5.9-5.8,2-8.7,1.2-.3-.1-.9-.2-1.2-.3-1.6-.4-3-.5-4.6-1.6-3.6-3.4-7.2-8-6.9-13.3.2-4.1,1.7-8,4.7-10.8,1.9-1.7,4.1-2.6,6.3-3.5.3-.1,1-.4,1.3-.5,3.8-1.4,7.8.4,11.1,2.2,2.6,1.2,4.7,3.7,5.7,6.4,1.3,3.6,2.1,7.6.5,11.2-1.5,3.6-4.4,6.2-7,8.8-1.4,1.3-3.3-.8-1.8-2,3.9-3.1,8.5-6.9,7.9-12.4-.4-3.3-1.3-7-3.9-9.1-2.7-1.8-6.2-3.6-9.4-3.5-1.2,0-2.4.5-3.5,1-1.9.9-4,2-5.3,3.4-2.1,2.3-3.2,5.8-3,8.9,0,3.7,2.7,6.5,5.2,9.1.9,1.3,3,1.2,4.5,1.6,2.6.9,4.9,0,8,.6,1.4.2,1.5,2.4.1,2.7h0Z"/>
  <path class="st1" d="M72.5,96.1c.2,1.3-.8,1.7-1.7,2.3-2.7,1.8-5.6,3.5-7.9,5.8-.5.5-.4.9-.5,1.5"/>
  <path class="st1" d="M145.2,99.5c-4.3-.6-8.7-.5-13-1.7"/>
  <path class="st1" d="M96.2,92.2c-3.1,0-6.2.4-9.3,1.2-1.2.3-2.4.6-3.7.5"/>
  <path class="st1" d="M599,96.7c2.6,3.9,4.7,8,7.3,11.8"/>
  <path class="st6" d="M433.2,29.5c5.3-.5,10,2.9,13.8,6.3.6.5,1.1.8,1.6.6,2.5-1.2,5.5-1.6,7.9,0,1.3.9,2.4,2,4.1,2,3.2.1,6.5-1.8,10-1.5,1.5.1,1.4,2.3-.1,2.3-5.5-.4-9.8,3.6-14.9-1.3-1.5-1.1-3.6-1.2-5.3-.5-.9.4-2,.8-3,.3-1.9-1.1-3.2-3-5-4.2-2.6-2-5.7-3.4-9-3.3-.5,0-.6-.8,0-.8h0Z"/>
  <path class="st1" d="M219.3,187.6c4,1.1,8.1,1.7,12.1,2.5"/>
  <path class="st1" d="M608.8,117c1.1,3.9.8,7.9,1.1,11.8"/>
  <path class="st1" d="M557,52.2c0,4.1.6,8.1,2.5,11.8"/>
  <path class="st1" d="M608.8,138.4c.2,4.1-1.5,7.8-2.8,11.6-.1.3,0,.6.3.8"/>
  <path class="st1" d="M583.2,82.9c3.6,1.8,6.4,4.7,9.6,7,.3.3.7.5,1.1.6"/>
  <path class="st1" d="M534.1,73.6c2.8,1.1,5.7,1.7,8.7,1.4.7,0,1.3.3,2,.3"/>
  <path class="st6" d="M504.2,66c-2.3-.9-3.6-2.1-5.5-2.9-1.5-.6-1.1-2.4-1.4-3.7-.4-3-1.4-6-3.2-8.4-3.3-3.8-6.6-8.2-11.9-9-1.2-.2-2.2-1.7-2.7-2.1-.5-.4-.6-1.1-.2-1.6.4-.6,1.2-.6,1.7-.1,1,.9,1.1,1.6,1.9,1.9,3.8.8,6.8,3.5,9.2,6.4,1,1.2,2,2.4,3,3.7,2.4,3.2,3.3,7.4,3.6,11.2,0,.3.2.4.4.5,1.7.7,3.4,2.3,5.2,1.7,2.3-.6,2.1,3.1-.2,2.2h0Z"/>
  <path class="st1" d="M53.6,112.4c-.6,3-2.6,5.3-3.9,7.9-.8,1.6-1.8,3.1-1.4,5.1"/>
  <path class="st1" d="M577,42.9c3.4,2.2,3.9,5.9,4.8,9.3"/>
  <path class="st1" d="M57.8,181.7c2.8,2.3,5.1,5,7.9,7.3"/>
  <path class="st1" d="M569.1,39.8c-3.2.7-6.2,1.9-8.5,4.5"/>
  <path class="st1" d="M526.8,73c-2.9-1.2-5.9-2.2-8.5-3.9"/>
  <path class="st1" d="M163.8,95c-2.6,1.3-5.6,1.8-8.2,3.1"/>
  <path class="st1" d="M600.4,159.8c-1.2,3-3.5,5.3-5.4,7.9"/>
  <path class="st1" d="M208.3,60.6c3.6-1.2,6.8.4,10.1,1.1"/>
  <path class="st1" d="M578.7,59.5c-.9,3.6-3.9,5.4-6.2,7.9"/>
  <path class="st6" d="M556.1,299.1c.1,3,0,6,0,9,0,2.9-.3,5.8.5,8.5.2.6-.2,1.2-.8,1.4-2.2.5-1.6-4.3-1.6-5.5.4-4.4,1.3-8.7-.3-12.9-.5-1.7,2.1-2.2,2.2-.4h0Z"/>
  <path class="st6" d="M346.3,455c-7.8-1.7-12.8,7.7-6.8,13.2,4.8,4.8,14,3.1,20.3,2.8,5.4-.3,10.1-2.6,8.4-8.8-.6-3.3-2.1-6.1-5.7-6.6-5.2-.9-10.5-.3-15.8-.7-1.4,0-1.4-2.2,0-2.3,3.5-.2,7.1-.3,10.8-.2,4.8.1,10.7,1.1,12.1,6.5.8,2.8,1.5,5.6.3,8.6-1.7,3.7-6.3,4.7-10,4.8-6.5,0-16,1.4-20.9-3.7-5.3-5.2-2.3-13.7,4.6-15.5,1.2-.2,3.9-1.3,4.1.6,0,.7-.6,1.4-1.4,1.2h0Z"/>
  <path class="st6" d="M127.2,454.9c-6.8-.7-12.1,3.1-14.9,9.1-.6,1.4-1.8,3-.6,4.4.7.8,2,1.2,3.2,1.3,1.3,0,2.8.2,4.1.2,5.2,0,11-.4,16.2-.4,3.4-.3,6.4-2.6,8.1-5.6,1.2-2.1,2.8-4.8,2.4-7.3-2.6-3.3-14.1-1.8-18.2-1.7-1.5.1-1.7-2.1-.2-2.3,1.9.1,3.8.2,5.7.3,3.3.3,12,0,13.7,3.2.7,2.9-1.1,5.8-2.3,8.3-3.2,6.2-7.3,8.8-14.3,8.7-5.6.2-11.5-.2-16.9-2-2.8-1-4.2-3.9-2.5-6.6,1.4-3,3.2-5.9,5.8-8,2.9-2.6,7-3.7,10.7-3.9.6-.1,1.2.3,1.3.9.1.7-.4,1.3-1.1,1.3h0Z"/>
  <path class="st6" d="M171.1,454.6c-1,0-2.2.2-3.3.3-5.8.5-9.7,6.1-10.6,11.5-.4,2.9,5.1,3.3,7.3,3.6,3.6.3,7.2.5,10.8.3,3.4-.3,7.1-.4,9.7-2.8,2.9-2.5,4.6-6.4,4.7-10.3,0-4.4-15-3.1-18.2-2.7-.6,0-1.2-.4-1.3-1-.1-.7.6-1.4,1.3-1.3,1.8.2,3.7.4,5.5.5,3.7.1,7.5,0,11,1.1.9.2,2,.7,2.6,1.8.6,1,.5,2,.4,3.1-.3,3.8-1.9,7.5-4.8,10.2-2.8,2.8-7,3.2-10.8,3.6-4.9.1-19,1.2-20.6-4.6-.5-2.6.7-5.2,1.8-7.4,2-4,5.8-7.3,10.3-7.9,1.4-.1,2.7-.3,4.3-.3,1.5,0,1.5,2.2,0,2.3h0Z"/>
  <path class="st6" d="M389.3,454.9c-7.7-.4-9.6,9.1-4.2,13.4,2.5,2.1,6.1,2.4,9.6,2.5,3.5.1,7.1,0,10.7-.1h1.4c2.9.2,5.9-1.3,6.5-4.3.4-1.7,0-3.3-.7-4.9-1.3-3.3-3.3-6.3-7-6.7-5.3-.9-10.7-.6-16.1,0-1.7.2-1.7-2.4,0-2.3,3.6.5,7.2.4,10.8.6,3.6.3,7.8.2,10.5,3,1.3,1.4,2.1,3.1,2.8,4.8.8,1.6,1.3,3.7.9,5.6-.6,3.6-4.3,5.7-7.7,5.6-4,.2-8.1.6-12.2.5-3.7,0-7.8-.3-10.9-2.8-5-3.7-5.5-12.2-.3-15.9,1.7-1.2,3.8-1.5,5.8-1.5.6,0,1.1.5,1.1,1.1,0,.6-.5,1.1-1.1,1.1h0Z"/>
  <path class="st6" d="M433.5,454.9c-.7.2-2,.3-2.8.2-2.4,0-4.7,1.3-4.5,4,.2,3.2,1.5,6.9,4,8.9,2.6,2,6.2,2.3,9.7,2.4,3.5,0,7.1-.3,10.7-.5h1.4c4.5,0,6.4-3,4.5-7-.8-1.8-1.9-3.9-3.2-5.1-2-1.8-5.6-1.9-9.1-2.1-3.6,0-7.1-.2-10.7-.8-1.3-.2-1.2-2.1,0-2.3,3.6-.6,7.2-.7,10.9-.7,6.8.2,11.8,1.3,14.6,8.3,2,3.9,2.1,9.3-2.4,11.5-1.9,1-3.9.8-5.9.8-3.6,0-7.2.2-10.9,0-3.7-.2-7.7-.6-10.8-3.1-3-2.6-4.2-6.4-4.5-10.3-.3-4.4,3.5-5.9,7.2-6.1.2,0,.6-.2,1.2-.4,1.6-.4,2.1,2,.5,2.2h0Z"/>
  <path class="st6" d="M371.5,481.4c-3.5.7-7.4.7-8.7,4.4-1.8,4.6-.7,11.4,4.7,12.9,7.2,1.9,15.1,1.4,22.4.3,3.4-.5,4.3-1.6,4.1-5,0-14.7-11.2-13.7-22.4-12.6-1.7.1-1.7-2.4,0-2.3,7.2,1.2,17.4-1.5,21.8,6.1,1.9,3.6,2.4,7.7,1.9,11.7-.4,2.4-3,3.3-5,3.6-7.1,1.2-24.1,3.4-28.6-3.5-2.8-4.5-2.8-10.9.8-15,2.3-2.3,5.9-2.4,8.7-2.9,1.5-.3,1.9,1.9.4,2.2h0Z"/>
  <path class="st6" d="M417.4,481.4c-3-.1-8,.2-9.2,3.6-.9,3.3.3,7.6,2.2,10.5,2.1,3.1,5.8,4.2,9.4,4.1,5.7,0,11.3-.1,16.8-1.3,2.9-.5,3.7-1.7,3.3-4.2-1.4-10.6-6.3-12.9-16.4-12.8-1.9,0-3.8-.1-5.7-.3-.4,0-.8-.4-.8-.9,0-.4.4-.7.8-.8,1.9-.1,3.8-.2,5.7-.3,6.2-.5,13-.2,16.7,5.7,1.8,2.7,2.4,5.7,2.9,8.7.5,2.3-.3,5.5-2.6,6.7-1.1.7-2.3.9-3.2,1.1-5.8,1.2-11.8.8-17.5.3-3-.2-6.2-1.1-8.4-3.2-2.3-2-3.5-5-4.1-7.9-.4-1.9-.7-3.9-.1-6,1.4-4.2,6.6-5,10.4-5.6,1.8,0,1.6,2.6-.1,2.3h0Z"/>
  <path class="st6" d="M150.7,511c-2.9-.7-6-.1-9,0-2.9.1-5.9,1.2-7.9,3.3-2.5,3-4.8,6.6-5.6,10.5-.1,1.3-.5,2.9.2,3.9,2.7,2.1,6.3,2.4,9.7,2.4,4,0,8.2.2,12.2-.3,5-.3,8.7-3.6,10.6-8.2,1.1-2.5,2.4-5.3,2.1-8-1-4.3-8.8-2.5-12.4-3.7-1.4-.4-.9-2.5.5-2.2,3.5.7,8.1-.9,12.6,2,5.3,4.1-.5,14.8-4.1,18.5-4.8,4.9-12.2,4-18.4,3.8-4.6-.3-10.1-.1-13.7-3.5-1.1-1.5-.6-3.4-.4-5,.9-4.2,3.3-7.8,6-11,3.8-4.1,9.6-4,14.8-4.8,1.2,0,4.4-.7,4.3,1.2,0,.7-.7,1.2-1.4,1h0Z"/>
  <path class="st6" d="M425.9,511.2c-2-.3-3.6.5-5.2,1.4-.8.5-1.4,1-1.7,1.8-.9,2.6-.2,5.8.5,8.5.2.7.5,1.4.8,2.1,1.1,2.9,3.6,4.9,6.7,5.7,1.9.5,3.8.6,5.8.6,5.1,0,10-.2,15-1.2,1.6-.3,4.1-.8,4-2.8,0-2.3-.5-4.7-1.2-6.9-1.2-3.5-2.9-6.5-6.6-7.7-1.8-.6-3.6-.8-5.5-.8-4.1-.1-8.1-.3-12.2-.6-1.4-.1-1.4-2.1,0-2.3,4.1-.3,8.2-.5,12.3-.6,4.5-.3,9.6.9,12.5,4.7,2.7,3.6,4,8.1,4.2,12.5,0,1.3.1,2.6-.5,3.8-1.2,2.7-3.9,3.3-6.5,3.6-5.2.8-10.5.8-15.6.4-5.2,0-11.5-1.7-13.7-7.2-1.7-3.9-2.8-8.3-1.7-12.6,1.1-2.5,3.7-3.6,6-4.5,1.2-.2,3.5-.9,3.7.8,0,.7-.6,1.2-1.2,1.1h0Z"/>
  <path class="st6" d="M471.7,511.1c-1.7.1-3.8.7-5.3,1.5-.8.4-1.3.9-1.5,1.7-.2.8-.2,1.7,0,2.6.7,3.8,1.9,7.6,4.3,10.6,2.5,3.1,6.4,3.6,10.1,3.7,4.8.1,9.8-.3,14.5-1,2.7-.5,4-1.6,3.5-4.5-.5-3.5-2.1-7.1-4.3-9.9-1.1-1.3-2.2-2.5-3.8-3.1-5.3-1.5-11.5-.9-17.1-1.6-1.4-.1-1.4-2.1,0-2.3,3.9-.3,7.9-.6,11.9-.5,3.6,0,8.3.8,10.7,4,3.8,4,9.4,16.1,2.8,19.6-2.3,1.1-4.4,1.1-6.4,1.2-4,.2-8,.3-12,0-4.1-.2-8.6-1.2-11.2-4.7-2.5-3.4-3.7-7.3-4.5-11.3-.3-1.5-.4-3.6.8-4.9,2-1.9,4.6-2.6,7.3-3.1.6,0,1.1.3,1.2.9,0,.6-.4,1.2-1,1.2h0Z"/>
  <path class="st6" d="M393.3,149.3c6.5,1.2,13.1.6,19.7.6,1.5,0,1.5,2.2,0,2.3-6.6,0-13.2-.6-19.8.5-2.7.3-2.6-3.7,0-3.3h0Z"/>
  <path class="st6" d="M201.5,77.3l6.8,12.1,9-6.3-6.9-8.5-1.6-5s-.7-3.2-1-4.1-.1-4.4-.1-4.4l-8.8,2.3"/>
  <path class="st6" d="M182.9,86.5l8,5.2,5.7-.2-4.3-8.7-1.3-4.2s-.6-2.6-.9-3.6-.8-3.5-.8-3.5l-5.1,5.4"/>
  <path class="st6" d="M471.7,38.9l-2.2,14.5-2.8,4.5-3.2,3.7,4.8,3,4.9,2.3,3.5-5s2.6-5.8,2.9-6.6c.4-1.1.9-5.2,1.1-5.8,1.1-4.7.9-7.9,1-8.3s-1.7-1.6-1.7-1.6l-8.3-.8h0Z"/>
  <path class="st6" d="M491.3,48l-3,11.3-1.3,5.4-2.2,3.9,5.9-1.6,2.8-1.2,2.3-1.6s1.7-1.8,2-2.6c.4-1.1-.1-3.9-.3-4.5-2-6.1-1.6-3.7-1.6-4s-2-3.1-2-3.1l-2.7-2h0Z"/>
</svg>
