<svg preserveAspectRatio="none" width="100%" height="100%" overflow="visible" style="display: block;" viewBox="0 0 360 284" fill="none" xmlns="http://www.w3.org/2000/svg">
<g id="Union">
<mask id="path-1-inside-1_2315_875" fill="white">
<path d="M340 0C351.046 0 360 8.95431 360 20V264C360 275.046 351.046 284 340 284H50.084C39.0383 284 30.084 275.046 30.084 264V161.051L0 141.405L30.084 121.758V20C30.084 8.95431 39.0383 8.09126e-08 50.084 0H340Z"/>
</mask>
<path d="M340 0C351.046 0 360 8.95431 360 20V264C360 275.046 351.046 284 340 284H50.084C39.0383 284 30.084 275.046 30.084 264V161.051L0 141.405L30.084 121.758V20C30.084 8.95431 39.0383 8.09126e-08 50.084 0H340Z" fill="var(--fill-0, #F7F8F9)"/>
<path d="M360 20H361V20H360ZM50.084 284V285V285V284ZM30.084 264H29.084V264H30.084ZM30.084 161.051H31.084V160.509L30.6308 160.214L30.084 161.051ZM0 141.405L-0.546804 140.568L-1.82887 141.405L-0.546766 142.243L0 141.405ZM30.084 121.758L30.6308 122.595L31.084 122.299V121.758H30.084ZM50.084 0V-1V0ZM340 0V1C350.493 1 359 9.50659 359 20H360H361C361 8.40202 351.598 -1 340 -1V0ZM360 20H359V264H360H361V20H360ZM360 264H359C359 274.493 350.493 283 340 283V284V285C351.598 285 361 275.598 361 264H360ZM340 284V283H50.084V284V285H340V284ZM50.084 284V283C39.5906 283 31.084 274.493 31.084 264H30.084H29.084C29.084 275.598 38.486 285 50.084 285V284ZM30.084 264H31.084V161.051H30.084H29.084V264H30.084ZM30.084 161.051L30.6308 160.214L0.546766 140.568L0 141.405L-0.546766 142.243L29.5372 161.888L30.084 161.051ZM0 141.405L0.546804 142.243L30.6308 122.595L30.084 121.758L29.5372 120.921L-0.546804 140.568L0 141.405ZM30.084 121.758H31.084V20H30.084H29.084V121.758H30.084ZM30.084 20H31.084C31.084 9.50659 39.5906 1 50.084 1V0V-1C38.486 -1 29.084 8.40202 29.084 20H30.084ZM50.084 0V1H340V0V-1H50.084V0Z" fill="var(--stroke-0, #B0B3B8)" mask="url(#path-1-inside-1_2315_875)"/>
</g>
</svg>
