<svg preserveAspectRatio="none" width="100%" height="100%" overflow="visible" style="display: block;" viewBox="0 0 520 239.997" fill="none" xmlns="http://www.w3.org/2000/svg">
<g id="Union">
<mask id="path-1-inside-1_2315_900" fill="white">
<path d="M500 0C511.046 7.73109e-06 520 8.95431 520 20V189.554C520 200.599 511.046 209.554 500 209.554H279.918L260.405 239.997L240.338 209.554H20C8.95436 209.554 7.46441e-05 200.599 0 189.554V20C0 8.95431 8.95431 4.0266e-07 20 0H500Z"/>
</mask>
<path d="M500 0C511.046 7.73109e-06 520 8.95431 520 20V189.554C520 200.599 511.046 209.554 500 209.554H279.918L260.405 239.997L240.338 209.554H20C8.95436 209.554 7.46441e-05 200.599 0 189.554V20C0 8.95431 8.95431 4.0266e-07 20 0H500Z" fill="var(--fill-0, #F7F8F9)"/>
<path d="M500 0V-1V-1V0ZM520 20H521V20H520ZM520 189.554H521V189.554H520ZM500 209.554V210.554V210.554V209.554ZM279.918 209.554V208.554H279.371L279.076 209.014L279.918 209.554ZM260.405 239.997L259.57 240.547L260.417 241.832L261.247 240.537L260.405 239.997ZM240.338 209.554L241.173 209.003L240.876 208.554H240.338V209.554ZM20 209.554V210.554V210.554V209.554ZM0 189.554H-1V189.554H0ZM20 0V-1V-1V0ZM500 0V1C510.493 1.00001 519 9.5066 519 20H520H521C521 8.40203 511.598 -0.999992 500 -1V0ZM520 20H519V189.554H520H521V20H520ZM520 189.554H519C519 200.047 510.493 208.554 500 208.554V209.554V210.554C511.598 210.554 521 201.152 521 189.554H520ZM500 209.554V208.554H279.918V209.554V210.554H500V209.554ZM279.918 209.554L279.076 209.014L259.563 239.457L260.405 239.997L261.247 240.537L280.76 210.093L279.918 209.554ZM260.405 239.997L261.24 239.447L241.173 209.003L240.338 209.554L239.503 210.104L259.57 240.547L260.405 239.997ZM240.338 209.554V208.554H20V209.554V210.554H240.338V209.554ZM20 209.554V208.554C9.50665 208.554 1.00007 200.047 1 189.554H0H-1C-0.999922 201.152 8.40207 210.554 20 210.554V209.554ZM0 189.554H1V20H0H-1V189.554H0ZM0 20H1C1 9.50659 9.50659 1 20 1V0V-1C8.40202 -1 -1 8.40202 -1 20H0ZM20 0V1H500V0V-1H20V0Z" fill="var(--stroke-0, #B0B3B8)" mask="url(#path-1-inside-1_2315_900)"/>
</g>
</svg>
