<svg preserveAspectRatio="none" width="100%" height="100%" overflow="visible" style="display: block;" viewBox="0 0 512 247.999" fill="none" xmlns="http://www.w3.org/2000/svg">
<g id="Union">
<mask id="path-1-inside-1_2315_865" fill="white">
<path d="M275.092 28.8359H492C503.046 28.8359 512 37.7902 512 48.8359V227.999C512 239.045 503.046 247.999 492 247.999H20C8.9544 247.999 0.000156771 239.045 0 227.999V48.8359C8.90513e-06 37.7903 8.95431 28.8359 20 28.8359H236.105L255.599 0L275.092 28.8359Z"/>
</mask>
<path d="M275.092 28.8359H492C503.046 28.8359 512 37.7902 512 48.8359V227.999C512 239.045 503.046 247.999 492 247.999H20C8.9544 247.999 0.000156771 239.045 0 227.999V48.8359C8.90513e-06 37.7903 8.95431 28.8359 20 28.8359H236.105L255.599 0L275.092 28.8359Z" fill="var(--fill-0, #F7F8F9)"/>
<path d="M275.092 28.8359L274.263 29.396L274.561 29.8359H275.092V28.8359ZM512 48.8359H513H512ZM512 227.999L513 227.999V227.999H512ZM0 227.999H-1V227.999L0 227.999ZM0 48.8359H-1V48.8359H0ZM236.105 28.8359V29.8359H236.637L236.934 29.396L236.105 28.8359ZM255.599 0L256.427 -0.560043L255.599 -1.78558L254.77 -0.560043L255.599 0ZM275.092 28.8359V29.8359H492V28.8359V27.8359H275.092V28.8359ZM492 28.8359V29.8359C502.493 29.8359 511 38.3425 511 48.8359H512H513C513 37.238 503.598 27.8359 492 27.8359V28.8359ZM512 48.8359H511V227.999H512H513V48.8359H512ZM512 227.999L511 227.999C511 238.492 502.493 246.999 492 246.999V247.999V248.999C503.598 248.999 513 239.597 513 227.999L512 227.999ZM492 247.999V246.999H20V247.999V248.999H492V247.999ZM20 247.999V246.999C9.5067 246.999 1.00015 238.492 1 227.999L0 227.999L-1 227.999C-0.999835 239.597 8.4021 248.999 20 248.999V247.999ZM0 227.999H1V48.8359H0H-1V227.999H0ZM0 48.8359H1C1.00001 38.3425 9.5066 29.8359 20 29.8359V28.8359V27.8359C8.40203 27.8359 -0.999991 37.238 -1 48.8359H0ZM20 28.8359V29.8359H236.105V28.8359V27.8359H20V28.8359ZM236.105 28.8359L236.934 29.396L256.427 0.560043L255.599 0L254.77 -0.560043L235.277 28.2759L236.105 28.8359ZM255.599 0L254.77 0.560043L274.263 29.396L275.092 28.8359L275.92 28.2759L256.427 -0.560043L255.599 0Z" fill="var(--stroke-0, #B0B3B8)" mask="url(#path-1-inside-1_2315_865)"/>
</g>
</svg>
