<svg preserveAspectRatio="none" width="100%" height="100%" overflow="visible" style="display: block;" viewBox="0 0 364 308" fill="none" xmlns="http://www.w3.org/2000/svg">
<g id="Union">
<mask id="path-1-inside-1_2315_871" fill="white">
<path d="M312.915 0C323.961 0.000219669 332.915 8.95444 332.915 20V133.294L364 153.595L332.915 173.896V288C332.915 299.046 323.961 308 312.915 308H20C8.95431 308 1.44967e-07 299.046 0 288V20C3.8658e-06 8.95431 8.95431 1.65649e-07 20 0H312.915Z"/>
</mask>
<path d="M312.915 0C323.961 0.000219669 332.915 8.95444 332.915 20V133.294L364 153.595L332.915 173.896V288C332.915 299.046 323.961 308 312.915 308H20C8.95431 308 1.44967e-07 299.046 0 288V20C3.8658e-06 8.95431 8.95431 1.65649e-07 20 0H312.915Z" fill="var(--fill-0, #F7F8F9)"/>
<path d="M312.915 0L312.915 -1H312.915V0ZM332.915 20H333.915V20H332.915ZM332.915 133.294H331.915V133.835L332.368 134.131L332.915 133.294ZM364 153.595L364.547 154.432L365.829 153.595L364.547 152.757L364 153.595ZM332.915 173.896L332.368 173.058L331.915 173.354V173.896H332.915ZM332.915 288H333.915V288H332.915ZM312.915 308V309H312.915L312.915 308ZM0 288H-1V288H0ZM0 20H-1V20H0ZM20 0V-1V-1V0ZM312.915 0L312.915 1C323.408 1.00021 331.915 9.50675 331.915 20H332.915H333.915C333.915 8.40214 324.513 -0.999769 312.915 -1L312.915 0ZM332.915 20H331.915V133.294H332.915H333.915V20H332.915ZM332.915 133.294L332.368 134.131L363.453 154.432L364 153.595L364.547 152.757L333.462 132.457L332.915 133.294ZM364 153.595L363.453 152.757L332.368 173.058L332.915 173.896L333.462 174.733L364.547 154.432L364 153.595ZM332.915 173.896H331.915V288H332.915H333.915V173.896H332.915ZM332.915 288H331.915C331.915 298.493 323.408 307 312.915 307L312.915 308L312.915 309C324.513 309 333.915 299.598 333.915 288H332.915ZM312.915 308V307H20V308V309H312.915V308ZM20 308V307C9.50659 307 1 298.493 1 288H0H-1C-1 299.598 8.40202 309 20 309V308ZM0 288H1V20H0H-1V288H0ZM0 20H1C1 9.50659 9.50659 1 20 1V0V-1C8.40202 -1 -0.999996 8.40202 -1 20H0ZM20 0V1H312.915V0V-1H20V0Z" fill="var(--stroke-0, #B0B3B8)" mask="url(#path-1-inside-1_2315_871)"/>
</g>
</svg>
