<?xml version="1.0" encoding="UTF-8"?>
<svg id="Layer_1" data-name="Layer 1" xmlns="http://www.w3.org/2000/svg" viewBox="0 0 114.95 125.15">
  <defs>
    <style>
      .cls-1 {
        fill: #231f20;
      }
    </style>
  </defs>
  <circle cx="57.48" cy="62.58" r="57.48" fill="white"/>
  <g transform="translate(57.48, 62.58) scale(0.55) translate(-57.48, -62.58)">
    <path class="cls-1" d="M22.51,110.48l-10.2-50.8h.4c10.4,37.4,32.8,53.2,57.6,53,9,0,17.4-4.8,17.4-13,0-5-6.4-11.2-17.4-16.2-10.4-4.8-23.4-9.6-39.8-18.2-10.4-5.6-16.8-15.8-16.8-25.8-.2-14.4,12.8-28.8,45.4-28.8,16.4,0,28.2,2.6,37.6,5.4l1.4,45.8h-.2c-8.8-40.4-27.4-47.8-42.8-47.6-12.4.2-24.2,5-24.2,12.8.2,4.8,4.8,10.6,16.4,16.4,8.2,4.2,23,10.4,33.6,16,14.8,7.8,22.8,16.6,22.8,26.6,0,15.8-17.6,30.4-38.6,30.4-13.8,0-32.2-2.6-42.6-6Z"/>
  </g>
</svg>